<svg xmlns="http://www.w3.org/2000/svg" viewBox="0 0 217.48913 217.48913">
  <title>alerting</title>
  <g id="Layer_2" data-name="Layer 2">
    <g id="Layer_10" data-name="Layer 10">
      <g>
        <rect width="217.48913" height="217.48913" style="fill: none"/>
        <g>
          <path d="M128.1974,35.09512a22.89768,22.89768,0,0,0-38.90569,0L12.45728,158.23374a22.50587,22.50587,0,0,0-3.44484,12.08489,22.92312,22.92312,0,0,0,22.89768,22.89768H185.579a22.92311,22.92311,0,0,0,22.89768-22.89768,22.50588,22.50588,0,0,0-3.44482-12.09ZM185.579,177.95119H31.91012a7.63256,7.63256,0,0,1-7.63256-7.63256,7.37815,7.37815,0,0,1,1.12962-4.00964L102.24161,43.17036a7.63256,7.63256,0,0,1,13.00588,0L192.08192,166.309a7.37822,7.37822,0,0,1,1.12962,4.00964A7.63256,7.63256,0,0,1,185.579,177.95119Z" style="fill: #595b5d"/>
          <g>
            <path d="M101.112,77.71024h15.26512V131.647H101.112Z" style="fill: #595b5d"/>
            <path d="M101.112,146.91211h15.26512v15.26512H101.112Z" style="fill: #595b5d"/>
          </g>
        </g>
      </g>
    </g>
  </g>
</svg>
