<svg xmlns="http://www.w3.org/2000/svg" xmlns:xlink="http://www.w3.org/1999/xlink" viewBox="0 0 599.45918 456.25044">
  <defs>
    <linearGradient id="linear-gradient" x1="139.31757" y1="151.94918" x2="139.31757" y2="162.98794" gradientUnits="userSpaceOnUse">
      <stop offset="0" stop-color="#ff8f33"/>
      <stop offset="1" stop-color="#fb7d14"/>
    </linearGradient>
    <linearGradient id="linear-gradient-2" x1="145.46574" y1="146.63939" x2="145.46574" y2="162.98794" xlink:href="#linear-gradient"/>
    <linearGradient id="linear-gradient-3" x1="145.46574" y1="158.65627" x2="145.46574" y2="160.05358" xlink:href="#linear-gradient"/>
    <linearGradient id="linear-gradient-4" x1="145.46574" y1="155.51232" x2="145.46574" y2="156.90963" xlink:href="#linear-gradient"/>
    <linearGradient id="linear-gradient-5" x1="145.46574" y1="152.2985" x2="145.46574" y2="153.69582" xlink:href="#linear-gradient"/>
    <linearGradient id="linear-gradient-6" x1="145.46574" y1="149.57375" x2="145.46574" y2="150.97106" xlink:href="#linear-gradient"/>
    <linearGradient id="linear-gradient-7" x1="151.68377" y1="155.44246" x2="151.68377" y2="162.98794" xlink:href="#linear-gradient"/>
    <linearGradient id="linear-gradient-8" x1="135.11193" y1="132.52655" x2="135.11193" y2="145.03248" xlink:href="#linear-gradient"/>
    <linearGradient id="linear-gradient-9" x1="152.32627" y1="132.569" x2="152.32627" y2="142.09813" xlink:href="#linear-gradient"/>
    <linearGradient id="linear-gradient-10" x1="162.29461" y1="139.02404" x2="162.29461" y2="170.18409" xlink:href="#linear-gradient"/>
    <linearGradient id="linear-gradient-11" x1="140.34432" y1="145.47566" x2="140.34432" y2="178.35837" xlink:href="#linear-gradient"/>
  </defs>
  <title>analytics_llustration</title>
  <g id="Layer_2" data-name="Layer 2">
    <g id="Layer_31" data-name="Layer 31">
      <g>
        <path d="M306.61761,58.51232c-102.16945,0-184.99406,82.82467-184.99406,184.99406s82.82462,184.99406,184.99406,184.99406,184.99406-82.82467,184.99406-184.99406S408.78706,58.51232,306.61761,58.51232Zm0,311.0183A126.02423,126.02423,0,1,1,432.64185,243.50638,126.02423,126.02423,0,0,1,306.61761,369.53061Z" style="fill: #fff;opacity: 0.45"/>
        <circle cx="484.39418" cy="29.54257" r="4.85277" style="fill: #fff;opacity: 0.45"/>
        <circle cx="109.09247" cy="403.50077" r="3.36562" style="fill: #fff;opacity: 0.45"/>
        <path d="M32.12138,162.75562l.44208.81684a1.631,1.631,0,0,1-.10362,1.58378l-.8262,1.37349a1.61443,1.61443,0,0,1-1.343.83851l-.92263-.00773a1.11521,1.11521,0,0,0-1.07564.92048l-.21479,1.44323a1.11589,1.11589,0,0,0,.76133,1.19479l.8904.265a1.62156,1.62156,0,0,1,1.04266,1.194l.39047,1.53855a1.62634,1.62634,0,0,1-.3613,1.54482l-.62934.61942a1.11433,1.11433,0,0,0-.1095,1.41129l.86863,1.17184a1.11622,1.11622,0,0,0,1.383.30673l.77855-.42127a1.63186,1.63186,0,0,1,1.58378.10362l1.37489.82809a1.61314,1.61314,0,0,1,.83812,1.34327l-.00718.89423a1.11449,1.11449,0,0,0,.92009,1.0759l1.44361.21454a1.11715,1.11715,0,0,0,1.195-.76094l.25637-.86121a1.62177,1.62177,0,0,1,1.19418-1.04162l1.53609-.38747a1.63247,1.63247,0,0,1,1.54585.36111l.66894.67727a1.11667,1.11667,0,0,0,1.41252.108l1.17184-.86863a1.11479,1.11479,0,0,0,.30561-1.38213l-.45351-.83463a1.62737,1.62737,0,0,1,.10249-1.58295l.8131-1.34629a1.62156,1.62156,0,0,1,1.3448-.83923l.95939.00614a1.11713,1.11713,0,0,0,1.07554-.92216l.21454-1.44361a1.11331,1.11331,0,0,0-.7619-1.19319l-.9129-.26939a1.61558,1.61558,0,0,1-1.04152-1.1925l-.39355-1.55844a1.62831,1.62831,0,0,1,.36222-1.54435l.64236-.63255a1.11386,1.11386,0,0,0,.10978-1.41092l-.86863-1.17184a1.11711,1.11711,0,0,0-1.38328-.30712l-.794.43038a1.63488,1.63488,0,0,1-1.58443-.10372l-1.36715-.82392a1.61554,1.61554,0,0,1-.83812-1.34327l.007-.89292a1.114,1.114,0,0,0-.92048-1.07564l-1.44267-.214a1.11716,1.11716,0,0,0-1.19506.76093l-.25464.85645a1.62051,1.62051,0,0,1-1.19447,1.04123l-1.55009.39144a1.62738,1.62738,0,0,1-1.54433-.36223l-.65123-.66121a1.11392,1.11392,0,0,0-1.41129-.1095l-1.17184.86863A1.11624,1.11624,0,0,0,32.12138,162.75562Zm10.57469,6.27926a2.95742,2.95742,0,1,1-4.137-.61474A2.95742,2.95742,0,0,1,42.69607,169.03488Z" style="fill: #fff"/>
        <circle cx="3.83163" cy="209.97212" r="3.13245" transform="translate(-51.90714 7.49703) rotate(-14.34611)" style="fill: none;stroke: #fff;stroke-linecap: round;stroke-linejoin: round;stroke-width: 1.39605529856682px;opacity: 0.2"/>
        <circle cx="69.19952" cy="143.36499" r="3.13245" transform="translate(-33.36492 21.61677) rotate(-14.34611)" style="fill: #fff"/>
        <circle cx="451.56378" cy="414.77576" r="4.83801" style="fill: none;stroke: #f58524;stroke-linecap: round;stroke-linejoin: round;stroke-width: 2.15617921406211px;opacity: 0.2"/>
        <circle cx="554.39498" cy="303.96775" r="4.19896" style="fill: #fff;opacity: 0.45"/>
        <g style="opacity: 0.45">
          <path d="M593.72773,229.21094a5.73,5.73,0,1,1,5.73145-5.73047A5.73545,5.73545,0,0,1,593.72773,229.21094Zm0-9.37207a3.64209,3.64209,0,1,0,3.64355,3.6416A3.64574,3.64574,0,0,0,593.72773,219.83887Z" style="fill: #fff"/>
        </g>
        <circle cx="88.26016" cy="393.71007" r="3.01943" style="fill: #fff;opacity: 0.45"/>
        <path d="M578.94309,233.57482a.80176.80176,0,0,0,.37584-.947l-.34765-.99067a.80341.80341,0,0,0-.88521-.50553l-.65575.13a1.17391,1.17391,0,0,1-1.06683-.40853l-.76837-.86055a1.162,1.162,0,0,1-.29049-1.10193l.2018-.63269a.80265.80265,0,0,0-.40378-.93556l-.94653-.455a.80317.80317,0,0,0-.98358.269l-.37186.55575a1.1671,1.1671,0,0,1-1.043.46257l-1.141-.0592a1.17053,1.17053,0,0,1-.98517-.57739l-.29184-.56461a.802.802,0,0,0-.947-.37584l-.99067.34765a.8034.8034,0,0,0-.50542.88552l.12383.625a1.17458,1.17458,0,0,1-.40853,1.06683l-.86214.76893a1.1611,1.1611,0,0,1-1.102.29017l-.61327-.19538a.80219.80219,0,0,0-.93568.40346l-.45493.94685a.80409.80409,0,0,0,.26866.9837l.53752.35966a1.16729,1.16729,0,0,1,.46182,1.04288l-.06073,1.13863a1.175,1.175,0,0,1-.57748.98592l-.60811.31569a.80372.80372,0,0,0-.37507.94815l.34765.99067a.80237.80237,0,0,0,.88519.50446l.67042-.134a1.17132,1.17132,0,0,1,1.0665.40758l.75245.84575a1.1671,1.1671,0,0,1,.29061,1.10332l-.20854.65831a.80409.80409,0,0,0,.405.93587l.94685.45493a.8013.8013,0,0,0,.98261-.26972l.37964-.57028a1.16288,1.16288,0,0,1,1.0417-.46213l1.15529.06132a1.172,1.172,0,0,1,.98465.57793l.29811.57636a.80169.80169,0,0,0,.94667.376l.99067-.34765a.804.804,0,0,0,.50574-.88564l-.12681-.63755a1.17673,1.17673,0,0,1,.40874-1.06726l.85762-.76449a1.16281,1.16281,0,0,1,1.102-.29017l.61241.195a.8018.8018,0,0,0,.93557-.40378l.4544-.94631a.80409.80409,0,0,0-.26866-.9837l-.5346-.35746a1.16637,1.16637,0,0,1-.46151-1.043l.061-1.14909a1.17132,1.17132,0,0,1,.57793-.98465Z" style="fill: #fff;opacity: 0.45"/>
        <g>
          <path d="M567.467,229.25a4.04027,4.04027,0,1,0,5.15039,2.47461A4.00977,4.00977,0,0,0,567.467,229.25Zm3.627,4.91211a2.53934,2.53934,0,1,1,.10742-1.94141A2.52263,2.52263,0,0,1,571.09394,234.16211Z" style="fill: #fff"/>
          <path d="M577.12422,234.792l-.53418-.35645a.47231.47231,0,0,1-.12988-.38086l.06152-1.21191a.46472.46472,0,0,1,.17188-.29492l.59375-.30664h.002a1.55479,1.55479,0,0,0,.7373-1.86133l-.34766-.99023a1.54448,1.54448,0,0,0-1.73828-.99316l-.65723.12988a.5033.5033,0,0,1-.36035-.17187l-.81934-.91309a.45191.45191,0,0,1-.084-.32324l.20117-.63281a1.55533,1.55533,0,0,0-.793-1.83887l-.94629-.45508a1.55411,1.55411,0,0,0-1.93359.52832l-.37012.55469a.46075.46075,0,0,1-.38184.13086l-1.20312-.05957a.42773.42773,0,0,1-.29492-.17285l-.292-.56543a1.56219,1.56219,0,0,0-1.86133-.73828l-.99023.34766a1.55487,1.55487,0,0,0-.99316,1.73926l.124.625a.48165.48165,0,0,1-.17285.3623l-.91211.81738a.43384.43384,0,0,1-.3252.08594l-.61328-.19531a1.55329,1.55329,0,0,0-1.83887.793l-.45508.94824a1.55452,1.55452,0,0,0,.52734,1.93164l.53711.3584a.47757.47757,0,0,1,.13086.37988l-.0625,1.20215a.46188.46188,0,0,1-.17187.29688l-.61133.31641a1.558,1.558,0,0,0-.73535,1.86133l.34766.99023a1.55789,1.55789,0,0,0,1.74023.99219l.6709-.13379a.44468.44468,0,0,1,.3584.1709l.80176.89551a.45475.45475,0,0,1,.08691.3291l-.208.65723a1.5528,1.5528,0,0,0,.79492,1.83789l.94531.45508a1.55244,1.55244,0,0,0,1.93262-.5293l.37988-.57031a.51055.51055,0,0,1,.37793-.12891l1.21875.0625a.5582.5582,0,0,1,.29492.1709l.29785.5791a1.561,1.561,0,0,0,1.376.81934,1.48454,1.48454,0,0,0,.48535-.08105l.99023-.34766a1.55544,1.55544,0,0,0,.99316-1.74023l-.127-.63672a.48165.48165,0,0,1,.17285-.3623l.9082-.81445a.47112.47112,0,0,1,.32422-.085l.61328.19531a1.55512,1.55512,0,0,0,1.83887-.79492l.4541-.94629A1.55452,1.55452,0,0,0,577.12422,234.792Zm-1.31055,2.24316-.61328-.19531a1.86433,1.86433,0,0,0-1.82812.44531l-.80859.72461a1.90759,1.90759,0,0,0-.69434,1.81348l.1084.66895-1.02344.33594-.29785-.5791a1.89432,1.89432,0,0,0-1.56543-.98145l-.04492.001-1.085-.05469a1.92224,1.92224,0,0,0-1.77637.78809l-.41309.58008-.96191-.48926.208-.65723a1.87486,1.87486,0,0,0-.44434-1.8291l-.71387-.79687a1.89834,1.89834,0,0,0-1.8125-.69238l-.70117.11621L561.01,235.209l.61133-.31641a1.88674,1.88674,0,0,0,.97852-1.61133l.05469-1.07031a1.90576,1.90576,0,0,0-.78711-1.77539l-.54785-.39355.4873-.96094.6123.19531a1.86331,1.86331,0,0,0,1.83008-.44531l.8125-.72852a1.90673,1.90673,0,0,0,.69434-1.8125l-.10547-.65723,1.02344-.335.291.56348a1.84648,1.84648,0,0,0,1.61328.9834l1.06934.05176a1.90854,1.90854,0,0,0,1.77734-.78711l.40625-.56641.96.4873-.2002.63184a1.88571,1.88571,0,0,0,.44434,1.8291l.72852.8125a1.90343,1.90343,0,0,0,1.81152.69336l.6875-.1123.32715,1.0293-.584.30078a1.87881,1.87881,0,0,0-.9834,1.6123l-.05371,1.07813a1.903,1.903,0,0,0,.78613,1.77734l.54492.39258Z" style="fill: #fff"/>
        </g>
        <path d="M282.64041,133.33556a157.371,157.371,0,0,0-33.28113,9.53211q-2.23876.915-4.42833,1.89177L214.95032,77.473l-9.07583-20.3656A251.73254,251.73254,0,0,1,266.595,38.67034l.04716.01,2.43345,14.39375,1.28519,7.6181Z" style="fill: #fff"/>
        <rect x="25.22893" y="240.8219" width="23.58795" height="3.78778" style="fill: #fff"/>
        <rect x="25.22893" y="247.8236" width="33.45913" height="3.78791" style="fill: #fff"/>
        <rect x="122.64765" y="240.8219" width="27.69328" height="3.78778" style="fill: #fff"/>
        <rect x="122.64765" y="247.8236" width="17.70723" height="3.78791" style="fill: #fff"/>
        <rect x="222.88181" y="240.8219" width="17.16068" height="3.78778" style="fill: #fff"/>
        <rect x="222.88181" y="247.8236" width="20.00143" height="3.78791" style="fill: #fff"/>
        <rect x="321.36177" y="240.8219" width="24.99695" height="3.78778" style="fill: #fff"/>
        <rect x="321.36177" y="247.8236" width="20.00168" height="3.78791" style="fill: #fff"/>
        <rect x="123.70914" y="385.64936" width="15.66807" height="5.05051" style="fill: #fff"/>
        <rect x="222.88181" y="385.64936" width="15.66794" height="5.05051" style="fill: #fff"/>
        <rect x="321.36177" y="385.64936" width="15.66819" height="5.05051" style="fill: #fff"/>
        <g style="opacity: 0.45">
          <path d="M385.02159,360.86554c-30.71684.002-57.41816-13.27905-85.25441-27.12118-34.3658-17.08906-69.901-34.75952-117.247-29.92113-30.23285,3.0898-49.20966,15.402-65.95244,26.26483-15.15948,9.83587-29.49185,18.48549-48.90308,19.224-31.37072,1.19358-42.25378-12.18615-42.43574-13.0024v-8.58608h0c.03934.14835,6.88832,15.16571,42.40238,14.98781,17.48949-.08821,30.39744-8.46316,45.34383-18.16046,17.36924-11.2697,37.0559-24.04236,68.874-27.2942,49.24412-5.03316,85.65056,13.07012,120.85706,30.57732,36.8395,18.31882,71.993,35.4978,116.44345,20.59332v7.05964A100.37785,100.37785,0,0,1,385.02159,360.86554Z" style="fill: #fff"/>
        </g>
        <path d="M200.64594,359.22033c-22.67283.002-40.655-15.24784-58.26034-30.17409-13.3487-11.31759-27.19815-22.8891-43.18439-28.59654C50.41247,283.03048,25.45206,314.838,25.22893,315.11785v-9.67578c.26357-.33091,4.71619-6.11241,17.59714-11.63214,11.72731-5.02558,31.40358-9.03476,58.54358.40518,17.19451,5.98067,31.47458,18.08789,45.28457,29.79626,28.01428,23.75107,52.20769,44.263,94.22431,12.13385,31.82318-24.33441,61.82179-47.52436,91.33869-55.99633,28.86954-8.2862,58.9671-2.22025,87.14037,25.953l-.208,8.787c-59.84544-60.10938-110.802-22.02642-174.26167,26.49995C228.079,354.24262,213.59582,359.21885,200.64594,359.22033Z" style="fill: #fff"/>
        <path d="M80.39375,371.75a.75019.75019,0,0,1-.75-.75v-3a.75.75,0,0,1,1.5,0v3A.75019.75019,0,0,1,80.39375,371.75Zm0-6a.75019.75019,0,0,1-.75-.75v-3a.75.75,0,0,1,1.5,0v3A.75019.75019,0,0,1,80.39375,365.75Zm0-6a.75019.75019,0,0,1-.75-.75v-3a.75.75,0,0,1,1.5,0v3A.75019.75019,0,0,1,80.39375,359.75Zm0-6a.75019.75019,0,0,1-.75-.75v-3a.75.75,0,0,1,1.5,0v3A.75019.75019,0,0,1,80.39375,353.75Zm0-6a.75019.75019,0,0,1-.75-.75v-3a.75.75,0,0,1,1.5,0v3A.75019.75019,0,0,1,80.39375,347.75Zm0-6a.75019.75019,0,0,1-.75-.75v-3a.75.75,0,0,1,1.5,0v3A.75019.75019,0,0,1,80.39375,341.75Zm0-6a.75019.75019,0,0,1-.75-.75v-3a.75.75,0,0,1,1.5,0v3A.75019.75019,0,0,1,80.39375,335.75Zm0-6a.75019.75019,0,0,1-.75-.75v-3a.75.75,0,0,1,1.5,0v3A.75019.75019,0,0,1,80.39375,329.75Zm0-6a.75019.75019,0,0,1-.75-.75v-3a.75.75,0,0,1,1.5,0v3A.75019.75019,0,0,1,80.39375,323.75Zm0-6a.75019.75019,0,0,1-.75-.75v-3a.75.75,0,0,1,1.5,0v3A.75019.75019,0,0,1,80.39375,317.75Zm0-6a.75019.75019,0,0,1-.75-.75v-3a.75.75,0,0,1,1.5,0v3A.75019.75019,0,0,1,80.39375,311.75Zm0-6a.75019.75019,0,0,1-.75-.75v-3a.75.75,0,0,1,1.5,0v3A.75019.75019,0,0,1,80.39375,305.75Zm0-6a.75019.75019,0,0,1-.75-.75v-3a.75.75,0,0,1,1.5,0v3A.75019.75019,0,0,1,80.39375,299.75Zm0-6a.75019.75019,0,0,1-.75-.75v-3a.75.75,0,0,1,1.5,0v3A.75019.75019,0,0,1,80.39375,293.75Zm0-6a.75019.75019,0,0,1-.75-.75v-3a.75.75,0,0,1,1.5,0v3A.75019.75019,0,0,1,80.39375,287.75Zm0-6a.75019.75019,0,0,1-.75-.75v-3a.75.75,0,0,1,1.5,0v3A.75019.75019,0,0,1,80.39375,281.75Zm0-6a.75019.75019,0,0,1-.75-.75v-3a.75.75,0,0,1,1.5,0v3A.75019.75019,0,0,1,80.39375,275.75Zm0-6a.75019.75019,0,0,1-.75-.75v-3a.75.75,0,0,1,1.5,0v3A.75019.75019,0,0,1,80.39375,269.75Zm0-6a.75019.75019,0,0,1-.75-.75v-3a.75.75,0,0,1,1.5,0v3A.75019.75019,0,0,1,80.39375,263.75Zm0-6a.75019.75019,0,0,1-.75-.75v-3a.75.75,0,0,1,1.5,0v3A.75019.75019,0,0,1,80.39375,257.75Z" style="fill: #fff"/>
        <path d="M170.39375,371.75a.75019.75019,0,0,1-.75-.75v-3a.75.75,0,0,1,1.5,0v3A.75019.75019,0,0,1,170.39375,371.75Zm0-6a.75019.75019,0,0,1-.75-.75v-3a.75.75,0,0,1,1.5,0v3A.75019.75019,0,0,1,170.39375,365.75Zm0-6a.75019.75019,0,0,1-.75-.75v-3a.75.75,0,0,1,1.5,0v3A.75019.75019,0,0,1,170.39375,359.75Zm0-6a.75019.75019,0,0,1-.75-.75v-3a.75.75,0,0,1,1.5,0v3A.75019.75019,0,0,1,170.39375,353.75Zm0-6a.75019.75019,0,0,1-.75-.75v-3a.75.75,0,0,1,1.5,0v3A.75019.75019,0,0,1,170.39375,347.75Zm0-6a.75019.75019,0,0,1-.75-.75v-3a.75.75,0,0,1,1.5,0v3A.75019.75019,0,0,1,170.39375,341.75Zm0-6a.75019.75019,0,0,1-.75-.75v-3a.75.75,0,0,1,1.5,0v3A.75019.75019,0,0,1,170.39375,335.75Zm0-6a.75019.75019,0,0,1-.75-.75v-3a.75.75,0,0,1,1.5,0v3A.75019.75019,0,0,1,170.39375,329.75Zm0-6a.75019.75019,0,0,1-.75-.75v-3a.75.75,0,0,1,1.5,0v3A.75019.75019,0,0,1,170.39375,323.75Zm0-6a.75019.75019,0,0,1-.75-.75v-3a.75.75,0,0,1,1.5,0v3A.75019.75019,0,0,1,170.39375,317.75Zm0-6a.75019.75019,0,0,1-.75-.75v-3a.75.75,0,0,1,1.5,0v3A.75019.75019,0,0,1,170.39375,311.75Zm0-6a.75019.75019,0,0,1-.75-.75v-3a.75.75,0,0,1,1.5,0v3A.75019.75019,0,0,1,170.39375,305.75Zm0-6a.75019.75019,0,0,1-.75-.75v-3a.75.75,0,0,1,1.5,0v3A.75019.75019,0,0,1,170.39375,299.75Zm0-6a.75019.75019,0,0,1-.75-.75v-3a.75.75,0,0,1,1.5,0v3A.75019.75019,0,0,1,170.39375,293.75Zm0-6a.75019.75019,0,0,1-.75-.75v-3a.75.75,0,0,1,1.5,0v3A.75019.75019,0,0,1,170.39375,287.75Zm0-6a.75019.75019,0,0,1-.75-.75v-3a.75.75,0,0,1,1.5,0v3A.75019.75019,0,0,1,170.39375,281.75Zm0-6a.75019.75019,0,0,1-.75-.75v-3a.75.75,0,0,1,1.5,0v3A.75019.75019,0,0,1,170.39375,275.75Zm0-6a.75019.75019,0,0,1-.75-.75v-3a.75.75,0,0,1,1.5,0v3A.75019.75019,0,0,1,170.39375,269.75Zm0-6a.75019.75019,0,0,1-.75-.75v-3a.75.75,0,0,1,1.5,0v3A.75019.75019,0,0,1,170.39375,263.75Zm0-6a.75019.75019,0,0,1-.75-.75v-3a.75.75,0,0,1,1.5,0v3A.75019.75019,0,0,1,170.39375,257.75Z" style="fill: #fff"/>
        <path d="M258.39375,371.75a.75019.75019,0,0,1-.75-.75v-3a.75.75,0,0,1,1.5,0v3A.75019.75019,0,0,1,258.39375,371.75Zm0-6a.75019.75019,0,0,1-.75-.75v-3a.75.75,0,0,1,1.5,0v3A.75019.75019,0,0,1,258.39375,365.75Zm0-6a.75019.75019,0,0,1-.75-.75v-3a.75.75,0,0,1,1.5,0v3A.75019.75019,0,0,1,258.39375,359.75Zm0-6a.75019.75019,0,0,1-.75-.75v-3a.75.75,0,0,1,1.5,0v3A.75019.75019,0,0,1,258.39375,353.75Zm0-6a.75019.75019,0,0,1-.75-.75v-3a.75.75,0,0,1,1.5,0v3A.75019.75019,0,0,1,258.39375,347.75Zm0-6a.75019.75019,0,0,1-.75-.75v-3a.75.75,0,0,1,1.5,0v3A.75019.75019,0,0,1,258.39375,341.75Zm0-6a.75019.75019,0,0,1-.75-.75v-3a.75.75,0,0,1,1.5,0v3A.75019.75019,0,0,1,258.39375,335.75Zm0-6a.75019.75019,0,0,1-.75-.75v-3a.75.75,0,0,1,1.5,0v3A.75019.75019,0,0,1,258.39375,329.75Zm0-6a.75019.75019,0,0,1-.75-.75v-3a.75.75,0,0,1,1.5,0v3A.75019.75019,0,0,1,258.39375,323.75Zm0-6a.75019.75019,0,0,1-.75-.75v-3a.75.75,0,0,1,1.5,0v3A.75019.75019,0,0,1,258.39375,317.75Zm0-6a.75019.75019,0,0,1-.75-.75v-3a.75.75,0,0,1,1.5,0v3A.75019.75019,0,0,1,258.39375,311.75Zm0-6a.75019.75019,0,0,1-.75-.75v-3a.75.75,0,0,1,1.5,0v3A.75019.75019,0,0,1,258.39375,305.75Zm0-6a.75019.75019,0,0,1-.75-.75v-3a.75.75,0,0,1,1.5,0v3A.75019.75019,0,0,1,258.39375,299.75Zm0-6a.75019.75019,0,0,1-.75-.75v-3a.75.75,0,0,1,1.5,0v3A.75019.75019,0,0,1,258.39375,293.75Zm0-6a.75019.75019,0,0,1-.75-.75v-3a.75.75,0,0,1,1.5,0v3A.75019.75019,0,0,1,258.39375,287.75Zm0-6a.75019.75019,0,0,1-.75-.75v-3a.75.75,0,0,1,1.5,0v3A.75019.75019,0,0,1,258.39375,281.75Zm0-6a.75019.75019,0,0,1-.75-.75v-3a.75.75,0,0,1,1.5,0v3A.75019.75019,0,0,1,258.39375,275.75Zm0-6a.75019.75019,0,0,1-.75-.75v-3a.75.75,0,0,1,1.5,0v3A.75019.75019,0,0,1,258.39375,269.75Zm0-6a.75019.75019,0,0,1-.75-.75v-3a.75.75,0,0,1,1.5,0v3A.75019.75019,0,0,1,258.39375,263.75Zm0-6a.75019.75019,0,0,1-.75-.75v-3a.75.75,0,0,1,1.5,0v3A.75019.75019,0,0,1,258.39375,257.75Z" style="fill: #fff"/>
        <path d="M359.39375,371.75a.75019.75019,0,0,1-.75-.75v-3a.75.75,0,0,1,1.5,0v3A.75019.75019,0,0,1,359.39375,371.75Zm0-6a.75019.75019,0,0,1-.75-.75v-3a.75.75,0,0,1,1.5,0v3A.75019.75019,0,0,1,359.39375,365.75Zm0-6a.75019.75019,0,0,1-.75-.75v-3a.75.75,0,0,1,1.5,0v3A.75019.75019,0,0,1,359.39375,359.75Zm0-6a.75019.75019,0,0,1-.75-.75v-3a.75.75,0,0,1,1.5,0v3A.75019.75019,0,0,1,359.39375,353.75Zm0-6a.75019.75019,0,0,1-.75-.75v-3a.75.75,0,0,1,1.5,0v3A.75019.75019,0,0,1,359.39375,347.75Zm0-6a.75019.75019,0,0,1-.75-.75v-3a.75.75,0,0,1,1.5,0v3A.75019.75019,0,0,1,359.39375,341.75Zm0-6a.75019.75019,0,0,1-.75-.75v-3a.75.75,0,0,1,1.5,0v3A.75019.75019,0,0,1,359.39375,335.75Zm0-6a.75019.75019,0,0,1-.75-.75v-3a.75.75,0,0,1,1.5,0v3A.75019.75019,0,0,1,359.39375,329.75Zm0-6a.75019.75019,0,0,1-.75-.75v-3a.75.75,0,0,1,1.5,0v3A.75019.75019,0,0,1,359.39375,323.75Zm0-6a.75019.75019,0,0,1-.75-.75v-3a.75.75,0,0,1,1.5,0v3A.75019.75019,0,0,1,359.39375,317.75Zm0-6a.75019.75019,0,0,1-.75-.75v-3a.75.75,0,0,1,1.5,0v3A.75019.75019,0,0,1,359.39375,311.75Zm0-6a.75019.75019,0,0,1-.75-.75v-3a.75.75,0,0,1,1.5,0v3A.75019.75019,0,0,1,359.39375,305.75Zm0-6a.75019.75019,0,0,1-.75-.75v-3a.75.75,0,0,1,1.5,0v3A.75019.75019,0,0,1,359.39375,299.75Zm0-6a.75019.75019,0,0,1-.75-.75v-3a.75.75,0,0,1,1.5,0v3A.75019.75019,0,0,1,359.39375,293.75Zm0-6a.75019.75019,0,0,1-.75-.75v-3a.75.75,0,0,1,1.5,0v3A.75019.75019,0,0,1,359.39375,287.75Zm0-6a.75019.75019,0,0,1-.75-.75v-3a.75.75,0,0,1,1.5,0v3A.75019.75019,0,0,1,359.39375,281.75Zm0-6a.75019.75019,0,0,1-.75-.75v-3a.75.75,0,0,1,1.5,0v3A.75019.75019,0,0,1,359.39375,275.75Zm0-6a.75019.75019,0,0,1-.75-.75v-3a.75.75,0,0,1,1.5,0v3A.75019.75019,0,0,1,359.39375,269.75Zm0-6a.75019.75019,0,0,1-.75-.75v-3a.75.75,0,0,1,1.5,0v3A.75019.75019,0,0,1,359.39375,263.75Zm0-6a.75019.75019,0,0,1-.75-.75v-3a.75.75,0,0,1,1.5,0v3A.75019.75019,0,0,1,359.39375,257.75Z" style="fill: #fff"/>
        <rect x="361.48869" y="4.75038" width="57.81095" height="19.5" rx="9.74999" ry="9.74999" transform="translate(780.78834 29.00076) rotate(-180)" style="fill: #fff;opacity: 0.45"/>
        <rect x="236.15536" y="178.75038" width="80.90548" height="19.5" rx="9.74999" ry="9.74999" transform="translate(553.21619 377.00076) rotate(-180)" style="fill: #fff;opacity: 0.45"/>
        <path d="M303.97773,195.417h-62.5a10.5,10.5,0,0,1,0-21h62.5a10.5,10.5,0,0,1,0,21Zm-62.5-19.5a9,9,0,0,0,0,18h62.5a9,9,0,0,0,0-18Z" style="fill: #fff"/>
        <path d="M405.55,21H367.23848a10.5,10.5,0,0,1,0-21H405.55a10.5,10.5,0,0,1,0,21ZM367.23848,1.5a9,9,0,0,0,0,18H405.55a9,9,0,0,0,0-18Z" style="fill: #fff"/>
        <rect x="136.3202" y="436.75044" width="91.48127" height="19.5" rx="9.74999" ry="9.74999" style="fill: #fff;opacity: 0.45"/>
        <path d="M214.06074,444.53223a.698.698,0,0,1-.28906-1.333l2.624-1.19629a.69748.69748,0,1,1,.57813,1.26953l-2.624,1.19629A.68993.68993,0,0,1,214.06074,444.53223Zm6.123-2.791a.698.698,0,0,1-.28906-1.333l2.625-1.19629a.69748.69748,0,0,1,.57813,1.26953l-2.625,1.19629A.68993.68993,0,0,1,220.18379,441.74121Zm6.124-2.792a.698.698,0,0,1-.28906-1.333l2.624-1.19629a.69748.69748,0,1,1,.57813,1.26953l-2.624,1.19629A.68993.68993,0,0,1,226.30781,438.94922Zm6.123-2.791a.698.698,0,0,1-.28906-1.333l2.624-1.19629a.69748.69748,0,1,1,.57813,1.26953l-2.624,1.19629A.68993.68993,0,0,1,232.43086,436.1582Zm6.123-2.792a.698.698,0,0,1-.28906-1.333l2.625-1.19629a.69748.69748,0,0,1,.57813,1.26953l-2.625,1.19629A.68993.68993,0,0,1,238.5539,433.36621Zm6.124-2.791a.698.698,0,0,1-.28906-1.333l2.624-1.19629a.69748.69748,0,1,1,.57813,1.26953l-2.624,1.19629A.68993.68993,0,0,1,244.67793,430.5752Zm6.123-2.792a.698.698,0,0,1-.28906-1.333l2.625-1.19629a.69748.69748,0,0,1,.57813,1.26953l-2.625,1.19629A.68993.68993,0,0,1,250.801,427.7832Zm6.124-2.791a.698.698,0,0,1-.28906-1.333l2.624-1.19629a.69748.69748,0,0,1,.57813,1.26953l-2.624,1.19629A.68993.68993,0,0,1,256.925,424.99219Zm6.123-2.791a.698.698,0,0,1-.28906-1.333l2.624-1.19629a.69748.69748,0,1,1,.57813,1.26953l-2.624,1.19629A.68993.68993,0,0,1,263.048,422.20117Zm6.123-2.792a.698.698,0,0,1-.28906-1.333l2.625-1.19629a.69748.69748,0,0,1,.57813,1.26953l-2.625,1.19629A.68993.68993,0,0,1,269.17109,419.40918Zm6.124-2.791a.698.698,0,0,1-.28906-1.333l2.624-1.19629a.69748.69748,0,1,1,.57813,1.26953l-2.624,1.19629A.68993.68993,0,0,1,275.29512,416.61816Zm6.123-2.792a.698.698,0,0,1-.28906-1.333l2.624-1.19629a.69748.69748,0,0,1,.57813,1.26953l-2.624,1.19629A.68993.68993,0,0,1,281.41816,413.82617Zm6.123-2.791a.698.698,0,0,1-.28906-1.333l.93848-.42773a.69748.69748,0,1,1,.57813,1.26953l-.93848.42773A.68993.68993,0,0,1,287.54121,411.03516Z" style="fill: #fff"/>
        <path d="M213.427,453.57617H141.44551a10.69336,10.69336,0,0,1,0-21.38672H213.427a10.69336,10.69336,0,0,1,0,21.38672Zm-71.98145-19.5a8.80664,8.80664,0,0,0,0,17.61328H213.427a8.80664,8.80664,0,1,0,0-17.61328Z" style="fill: #fff"/>
        <circle cx="290.86468" cy="407.60167" r="2.96529" transform="translate(-171.90811 598.8678) rotate(-76.94387)" style="fill: #fff"/>
        <g style="opacity: 0.45">
          <circle cx="197.64473" cy="151.03571" r="2.96561" style="fill: #fff"/>
          <path d="M225.967,150.50391h-2.88477a.69824.69824,0,1,0,0,1.39648H225.967a.69824.69824,0,1,0,0-1.39648Z" style="fill: #fff"/>
          <path d="M232.69648,150.50391h-2.88379a.69824.69824,0,1,0,0,1.39648h2.88379a.69824.69824,0,1,0,0-1.39648Z" style="fill: #fff"/>
          <path d="M239.426,150.50391h-2.88379a.69824.69824,0,1,0,0,1.39648H239.426a.69824.69824,0,1,0,0-1.39648Z" style="fill: #fff"/>
          <path d="M212.508,150.50391h-2.88477a.69824.69824,0,1,0,0,1.39648H212.508a.69824.69824,0,1,0,0-1.39648Z" style="fill: #fff"/>
          <path d="M219.2375,150.50391h-2.88477a.69824.69824,0,1,0,0,1.39648h2.88477a.69824.69824,0,1,0,0-1.39648Z" style="fill: #fff"/>
          <path d="M205.77754,150.50391h-2.88379a.69824.69824,0,1,0,0,1.39648h2.88379a.69824.69824,0,1,0,0-1.39648Z" style="fill: #fff"/>
          <path d="M246.15547,150.50391h-2.88379a.69824.69824,0,1,0,0,1.39648h2.88379a.69824.69824,0,1,0,0-1.39648Z" style="fill: #fff"/>
          <path d="M252.91523,150.5127c-.123-.00488-.249-.00879-.374-.00879h-2.54a.69824.69824,0,1,0,0,1.39648h2.54c.10547,0,.21.002.31348.00684l.03125.001a.69809.69809,0,0,0,.0293-1.39551Z" style="fill: #fff"/>
          <path d="M280.03242,176.33594a.6981.6981,0,0,0-1.0293.94336l1.94824,2.127a.6981.6981,0,1,0,1.0293-.94336Z" style="fill: #fff"/>
          <path d="M275.48652,171.374a.6981.6981,0,0,0-1.0293.94336l1.94824,2.126a.6981.6981,0,1,0,1.0293-.94336Z" style="fill: #fff"/>
          <path d="M286.52558,183.4248l-1.94824-2.126a.6981.6981,0,0,0-1.0293.94336l1.94824,2.126a.6981.6981,0,0,0,1.0293-.94336Z" style="fill: #fff"/>
          <path d="M266.3957,161.44824a.6981.6981,0,1,0-1.0293.94336l1.94727,2.127a.6981.6981,0,0,0,1.0293-.94336Z" style="fill: #fff"/>
          <path d="M261.8498,156.48633a.6981.6981,0,0,0-1.0293.94336l1.94824,2.127a.6981.6981,0,0,0,1.0293-.94336Z" style="fill: #fff"/>
          <path d="M258.95332,153.3252a8.64228,8.64228,0,0,0-2.0625-1.65625.69782.69782,0,1,0-.69727,1.209,7.24853,7.24853,0,0,1,1.73047,1.38965l.29883.32617a.6981.6981,0,1,0,1.0293-.94336Z" style="fill: #fff"/>
          <path d="M270.94062,166.41113a.6981.6981,0,0,0-1.0293.94336l1.94824,2.127a.6981.6981,0,1,0,1.0293-.94336Z" style="fill: #fff"/>
        </g>
        <circle cx="249.22689" cy="13.1668" r="3.13245" style="fill: none;stroke: #fff;stroke-linecap: round;stroke-linejoin: round;stroke-width: 1.39605529856682px;opacity: 0.2"/>
        <circle cx="464.1525" cy="324.35122" r="51.20616" style="fill: #fff"/>
        <path d="M463.9416,385.69531A61.7637,61.7637,0,1,1,474.82539,263.124a1.11586,1.11586,0,1,1-.39062,2.19727,59.53563,59.53563,0,1,0,43.252,84.24512,1.116,1.116,0,1,1,2.01367.96289A62.1094,62.1094,0,0,1,463.9416,385.69531Z" style="fill: #fff"/>
        <path d="M469.7248,282.40234a4.12341,4.12341,0,0,0-3.69775,2.32654A38.58333,38.58333,0,0,0,420.91133,322.752a38.37727,38.37727,0,0,0,6.58984,21.57129.99945.99945,0,0,0,1.65625-1.11914,36.58643,36.58643,0,0,1,30.333-57.03223,36.94146,36.94146,0,0,1,6.119.51514,4.12613,4.12613,0,1,0,4.11542-4.28467Zm0,6.26465a2.13232,2.13232,0,1,1,2.13379-2.13281A2.13452,2.13452,0,0,1,469.7248,288.667Z" style="fill: #f58524"/>
        <path d="M520.0998,350.917a4.13232,4.13232,0,1,1,4.13379-4.13281A4.13649,4.13649,0,0,1,520.0998,350.917Zm0-6.26465a2.13232,2.13232,0,1,0,2.13379,2.13184A2.13368,2.13368,0,0,0,520.0998,344.65234Z" style="fill: #fff"/>
        <path d="M493.7668,344.88672H488.427a.80469.80469,0,0,1,0-1.60937h5.33984a1.50789,1.50789,0,0,0,1.50586-1.50586v-32.96a1.5081,1.5081,0,0,0-1.50586-1.50684H442.95527a1.50831,1.50831,0,0,0-1.50684,1.50684v32.96a1.5081,1.5081,0,0,0,1.50684,1.50586h4.668a.80469.80469,0,0,1,0,1.60938h-4.668a3.11893,3.11893,0,0,1-3.11621-3.11523v-32.96a3.11914,3.11914,0,0,1,3.11621-3.11621H493.7668a3.11893,3.11893,0,0,1,3.11523,3.11621v32.96A3.11873,3.11873,0,0,1,493.7668,344.88672Z" style="fill: #f58524"/>
        <rect x="440.64417" y="306.50044" width="55.43327" height="7.38216" rx="1.02416" ry="1.02416" style="fill: #fff"/>
        <circle cx="445.57679" cy="309.92308" r="1.17443" style="fill: #fff"/>
        <circle cx="449.87187" cy="309.92308" r="1.17443" style="fill: #fff"/>
        <circle cx="454.16694" cy="309.92308" r="1.17443" style="fill: #fff"/>
        <rect x="444.7275" y="319.91711" width="46.16667" height="2.25" rx="0.5" ry="0.5" style="fill: #f58524;opacity: 0.5"/>
        <rect x="444.7275" y="325.91711" width="46.16667" height="2.25" rx="0.5" ry="0.5" style="fill: #f58524;opacity: 0.5"/>
        <rect x="444.7275" y="331.91711" width="46.16667" height="2.25" rx="0.5" ry="0.5" style="fill: #f58524;opacity: 0.5"/>
        <g>
          <path d="M485.61957,357.41414l-8.36984-7.439a2.22436,2.22436,0,0,1-.18162-3.14529l.31122-.34877a2.23418,2.23418,0,0,1,3.14921-.18185l8.37041,7.439a1.424,1.424,0,0,1,.1163,2.014l-1.37944,1.54494A1.43029,1.43029,0,0,1,485.61957,357.41414Z" style="fill: #f58523;opacity: 0.2"/>
          <g>
            <ellipse cx="463.70812" cy="335.76167" rx="11.77343" ry="11.74651" transform="translate(-18.58513 27.2907) rotate(-3.30487)" style="fill: #f58523;opacity: 0.2"/>
            <path d="M463.68867,348.06934a12.39117,12.39117,0,1,1,.72852-.02148Q464.05244,348.06982,463.68867,348.06934Zm.03711-23.49316q-.33105,0-.66309.01855a11.23775,11.23775,0,1,0,.66309-.01855Z" style="fill: #f58524"/>
          </g>
          <path d="M485.01191,358.14355a1.982,1.982,0,0,1-1.32031-.501l-8.36914-7.43945a2.783,2.783,0,0,1-.22754-3.9375l.30957-.34863a2.79849,2.79849,0,0,1,3.94043-.22754l8.37012,7.43848a1.98393,1.98393,0,0,1,.16309,2.80762l-1.37988,1.54395A1.98158,1.98158,0,0,1,485.01191,358.14355Zm-.57617-1.33887a.87475.87475,0,0,0,1.22656-.07129l1.37988-1.54492a.86569.86569,0,0,0-.07129-1.22266l-8.37012-7.43848a1.67676,1.67676,0,0,0-2.35937.13672l-.30957.34766a1.66481,1.66481,0,0,0,.13477,2.35352Z" style="fill: #f58524"/>
          <rect x="473.51215" y="342.88618" width="1.12063" height="4.29014" transform="translate(-98.74005 470.23942) rotate(-48.37729)" style="fill: #f58524"/>
          <rect x="481.49005" y="353.26936" width="4.92654" height="1.12047" transform="translate(-102.27875 479.28141) rotate(-48.25034)" style="fill: #f58524"/>
          <path d="M455.07235,336.26035a8.64029,8.64029,0,0,0,9.13331,8.11736" style="fill: #f58524"/>
        </g>
        <g style="opacity: 0.45">
          <rect x="154.36763" y="45.25403" width="5.07251" height="22.65094" style="fill: #fff"/>
          <rect x="164.14259" y="48.98761" width="5.07251" height="18.91736" style="fill: #fff"/>
          <rect x="173.04853" y="35.07349" width="5.07251" height="32.83148" style="fill: #fff"/>
          <rect x="182.39418" y="41.09589" width="5.07239" height="26.80908" style="fill: #fff"/>
          <rect x="191.99647" y="26.4881" width="5.07251" height="41.41687" style="fill: #fff"/>
        </g>
        <g>
          <rect x="154.36763" y="53.80676" width="5.07251" height="14.09821" style="fill: #fff"/>
          <rect x="164.14259" y="57.82654" width="5.07251" height="10.07843" style="fill: #fff"/>
          <rect x="173.04853" y="52.88416" width="5.07251" height="15.02081" style="fill: #fff"/>
          <rect x="182.39418" y="54.50043" width="5.07239" height="13.40454" style="fill: #fff"/>
          <rect x="191.99647" y="37.12366" width="5.07251" height="30.78131" style="fill: #fff"/>
        </g>
        <path d="M415.44941,234.32031a1.11708,1.11708,0,0,1-1.07227-.80859l-2.06348-7.19922c-.72852-2.542-1.56348-5.13477-2.48242-7.70508a120.35455,120.35455,0,0,0-64.7793-69.88574l-6.84766-3.05859a1.11624,1.11624,0,0,1-.56445-1.47363L384.63691,38.95117a1.11743,1.11743,0,0,1,1.47266-.56445l6.84277,3.04395A238.264,238.264,0,0,1,525.3498,194.07813l2.06543,7.21875a1.11611,1.11611,0,0,1-.76758,1.37988l-110.8916,31.60059A1.10684,1.10684,0,0,1,415.44941,234.32031ZM340.133,144.08105l5.8291,2.60352a122.56481,122.56481,0,0,1,65.9707,71.1709c.93555,2.61621,1.78516,5.25391,2.52734,7.8418l1.75586,6.12793,108.74609-30.98926-1.75879-6.14453A236.04075,236.04075,0,0,0,392.04609,43.46973l-5.8252-2.59082Z" style="fill: #fff"/>
        <path d="M307.6178,124.98238a117.87587,117.87587,0,0,1,68.84509,22.09937L410.34253,80.785A192.27229,192.27229,0,0,0,237.38062,64.28072l28.71826,68.20587A117.95474,117.95474,0,0,1,307.6178,124.98238Z" style="fill: #fff;opacity: 0.45"/>
        <path d="M329.133,77.57813a.69852.69852,0,0,1-.59766-1.05664l.53223-.8877a.69772.69772,0,0,1,1.19727.7168l-.53223.8877A.69753.69753,0,0,1,329.133,77.57813Zm2.50977-4.18652a.69852.69852,0,0,1-.59766-1.05664l1.48242-2.47363a.69772.69772,0,0,1,1.19727.7168l-1.48242,2.47363A.69753.69753,0,0,1,331.64277,73.3916Zm3.46-5.77148a.69852.69852,0,0,1-.59766-1.05664l1.4834-2.47363a.69772.69772,0,0,1,1.19727.7168l-1.4834,2.47363A.69753.69753,0,0,1,335.10273,67.62012Zm3.46-5.77246A.69852.69852,0,0,1,337.965,60.791l1.4834-2.47363a.69772.69772,0,1,1,1.19727.7168l-1.4834,2.47363A.69753.69753,0,0,1,338.56269,61.84766Zm3.46-5.77148a.69852.69852,0,0,1-.59766-1.05664l1.4834-2.47363a.69772.69772,0,0,1,1.19727.7168l-1.4834,2.47363A.69753.69753,0,0,1,342.02265,56.07617Zm3.46094-5.77246a.69852.69852,0,0,1-.59766-1.05664l1.48242-2.47363a.69772.69772,0,0,1,1.19727.7168l-1.48242,2.47363A.69753.69753,0,0,1,345.48359,50.30371Zm3.46-5.77148a.69852.69852,0,0,1-.59766-1.05664l1.48242-2.47363a.69772.69772,0,0,1,1.19727.7168l-1.48242,2.47363A.69753.69753,0,0,1,348.94355,44.53223Zm3.46-5.77246a.69852.69852,0,0,1-.59766-1.05664l1.48242-2.47363a.69772.69772,0,0,1,1.19727.7168l-1.48242,2.47363A.69753.69753,0,0,1,352.40351,38.75977Zm3.46-5.77148a.69852.69852,0,0,1-.59766-1.05664l1.4834-2.47363a.698.698,0,1,1,1.19727.71777l-1.4834,2.47266A.69753.69753,0,0,1,355.86348,32.98828Zm3.46-5.77246a.69852.69852,0,0,1-.59766-1.05664l1.4834-2.47363a.698.698,0,1,1,1.19727.71777L359.923,26.876A.69753.69753,0,0,1,359.32344,27.21582Zm3.46-5.77148a.69852.69852,0,0,1-.59766-1.05664l1.4834-2.47461a.698.698,0,0,1,1.19727.71777l-1.4834,2.47363A.69753.69753,0,0,1,362.7834,21.44434Zm3.46094-5.77246a.69852.69852,0,0,1-.59766-1.05664l1.48242-2.47363a.69772.69772,0,0,1,1.19727.7168L366.84394,15.332A.69753.69753,0,0,1,366.24433,15.67188Z" style="fill: #fff"/>
        <circle cx="327.33266" cy="79.66656" r="2.96558" style="fill: #fff"/>
        <circle cx="383.22689" cy="233.1668" r="3.13245" style="fill: none;stroke: #fff;stroke-linecap: round;stroke-linejoin: round;stroke-width: 1.39605529856682px;opacity: 0.2"/>
        <g>
          <path d="M521.31562,70.09668a4.17783,4.17783,0,1,0,2.13379,2.38281A4.15219,4.15219,0,0,0,521.31562,70.09668Zm.35449,4.80664a2.40168,2.40168,0,1,1,.10156-1.83594A2.38123,2.38123,0,0,1,521.67012,74.90332Z" style="fill: #fff"/>
          <path d="M527.90156,75.47754l-.52637-.35059a.36015.36015,0,0,1-.0752-.26367l.06152-1.21582a.35266.35266,0,0,1,.09863-.17578l.59277-.30762a1.69083,1.69083,0,0,0,.80566-2.0293l-.34863-.99219a1.69162,1.69162,0,0,0-1.89551-1.082l-.64746.12891a.47111.47111,0,0,1-.23926-.12793l-.82129-.91406a.35091.35091,0,0,1-.05371-.18652l.20117-.63281a1.69462,1.69462,0,0,0-.86523-2.00586l-.94531-.45508a1.69345,1.69345,0,0,0-2.10937.57617l-.36523.54785a.33049.33049,0,0,1-.26367.07617l-1.207-.05957a.36764.36764,0,0,1-.17578-.09668l-.292-.56641A1.6967,1.6967,0,0,0,516.8,64.53906l-.99219.34863a1.696,1.696,0,0,0-1.082,1.89648l.123.61621a.36166.36166,0,0,1-.12793.23926l-.915.82129a.39319.39319,0,0,1-.1875.05469l-.61328-.19531a1.68747,1.68747,0,0,0-2.00586.86523l-.45605.94727a1.69727,1.69727,0,0,0,.57715,2.10742l.52832.35254a.35971.35971,0,0,1,.07617.26367l-.06152,1.20508a.36749.36749,0,0,1-.09766.17773l-.6084.31543a1.69657,1.69657,0,0,0-.80469,2.03125l.34766.99023a1.70147,1.70147,0,0,0,1.89844,1.082l.66211-.13184a.345.345,0,0,1,.23633.125l.80469.89844a.35668.35668,0,0,1,.05469.19238l-.207.65625a1.69515,1.69515,0,0,0,.86621,2.00586l.94629.45508a1.69414,1.69414,0,0,0,2.10742-.57715l.375-.56348a.34847.34847,0,0,1,.26074-.07422l1.22266.06152a.374.374,0,0,1,.17383.09668l.29883.5791a1.70106,1.70106,0,0,0,1.499.89453,1.60612,1.60612,0,0,0,.53125-.08984l.98828-.34766a1.6938,1.6938,0,0,0,1.08594-1.89746l-.126-.62793a.36342.36342,0,0,1,.12793-.24023l.91113-.81738a.45692.45692,0,0,1,.18555-.05371l.61426.19629a1.69771,1.69771,0,0,0,2.00488-.86719l.45605-.94727A1.69681,1.69681,0,0,0,527.90156,75.47754Zm-1.52148,1.12109.4541.30371-.37109.77148-.51953-.165a1.99857,1.99857,0,0,0-1.96289.47363l-.79883.7168a2.0562,2.0562,0,0,0-.748,1.95215l.1084.542-.80859.2832-.25293-.49023a2.03206,2.03206,0,0,0-1.67383-1.05664l-.05273.001-1.07129-.05273a2.03293,2.03293,0,0,0-1.91211.84766l-.32617.48926-.77246-.37012.17969-.56641a2.015,2.015,0,0,0-.47363-1.96289l-.70605-.78809a2.04609,2.04609,0,0,0-1.95117-.74512l-.5752.11426-.28418-.80859.52441-.27148a2.02616,2.02616,0,0,0,1.05371-1.72754l.05176-1.05469a2.04757,2.04757,0,0,0-.84668-1.91309l-.457-.30566.37109-.77246.51953.166a2.009,2.009,0,0,0,1.96484-.47363l.80176-.7207a2.05143,2.05143,0,0,0,.749-1.95117l-.10547-.53125.80762-.2832.24707.47754a2.10279,2.10279,0,0,0,1.72852,1.05762l1.05664.0498a2.03458,2.03458,0,0,0,1.91309-.84863l.31738-.47461.77246.37109-.17187.53809a2.00328,2.00328,0,0,0,.47363,1.96484l.71973.80078a2.05729,2.05729,0,0,0,1.95117.749l.56152-.11133.2832.80762-.50488.26172a2.01875,2.01875,0,0,0-1.05859,1.72754l-.05176,1.06543A2.046,2.046,0,0,0,526.38008,76.59863Z" style="fill: #fff"/>
        </g>
        <g style="opacity: 0.45">
          <path d="M485.90083,129.988,412.94545,203.6814q.93164,1.96326,1.7998,3.9718l73.46344-74.20691Q487.07051,131.70715,485.90083,129.988Z" style="fill: #fff"/>
          <path d="M482.94575,125.76086l-72.39886,73.13147q.997,1.89514,1.941,3.83008l72.84625-73.58325C484.55342,128.00269,483.747,126.88354,482.94575,125.76086Z" style="fill: #fff"/>
          <path d="M491.55049,138.7041,417.226,213.78052c.24109.6416.48694,1.27991.719,1.92737.27759.77673.53076,1.55579.79346,2.33411l74.97833-75.73572C493.00288,141.10059,492.28608,139.89673,491.55049,138.7041Z" style="fill: #fff"/>
          <path d="M488.77534,134.29529,415.17372,208.6416q.86353,2.033,1.66711,4.10669l74.16278-74.91321C490.26631,136.65161,489.53389,135.46533,488.77534,134.29529Z" style="fill: #fff"/>
          <path d="M473.61622,113.55078l-71.19836,71.91772q1.18121,1.70581,2.31079,3.45679l71.44928-72.17212C475.33052,115.68066,474.4828,114.60864,473.61622,113.55078Z" style="fill: #fff"/>
          <path d="M476.80268,117.54334l-71.52521,72.2489q1.12134,1.7666,2.19141,3.57642l71.83868-72.56494Q478.06941,119.16272,476.80268,117.54334Z" style="fill: #fff"/>
          <path d="M479.913,121.61328l-71.9162,72.64331c.707,1.22034,1.38953,2.46033,2.05969,3.70984l72.30328-73.03479C481.55659,123.81665,480.73628,122.71411,479.913,121.61328Z" style="fill: #fff"/>
          <path d="M470.348,109.64038l-70.94531,71.66309q1.23926,1.645,2.42883,3.33618l71.1405-71.8595C472.1034,111.72888,471.23573,110.67676,470.348,109.64038Z" style="fill: #fff"/>
          <path d="M499.37666,152.43335l-67.65094,68.33411,7.9856-2.276,61.63654-62.25952C500.70674,154.95728,500.041,153.69568,499.37666,152.43335Z" style="fill: #fff"/>
          <path d="M397.66737,53.17853,379.54945,71.47968l-3.473,7.77808L374.841,82.0257l26.6604-26.92993C400.23426,54.4411,398.95008,53.8111,397.66737,53.17853Z" style="fill: #fff"/>
          <path d="M501.81245,157.18372,441.6714,217.93286l7.94592-2.26465L503.69648,161.042C503.0832,159.74854,502.44966,158.46521,501.81245,157.18372Z" style="fill: #fff"/>
          <path d="M407.09169,58.08148,367.81007,97.76056l-4.70984,10.547,47.65845-48.14C409.54139,59.46552,408.32484,58.76251,407.09169,58.08148Z" style="fill: #fff"/>
          <path d="M392.82276,50.86023l-7.4071,7.482-4.71008,10.54846,16.01855-16.1806C395.43251,52.08044,394.12989,51.46722,392.82276,50.86023Z" style="fill: #fff"/>
          <path d="M494.2436,143.19543,419.098,219.09985q.7229,2.20056,1.3678,4.40894l75.88055-76.64758Q495.31111,145.0188,494.2436,143.19543Z" style="fill: #fff"/>
          <path d="M402.42286,55.58624,373.68568,84.61383l-.22717.50916h-.005l-4.4873,10.04846,37.21069-37.58716C404.9347,56.90564,403.68055,56.24335,402.42286,55.58624Z" style="fill: #fff"/>
          <path d="M496.85273,147.771l-75.07208,75.83093,7.98511-2.27576,69.12506-69.82349C498.2248,150.25122,497.54145,149.00977,496.85273,147.771Z" style="fill: #fff"/>
          <path d="M433.236,74.94122l-71.81616,72.54242q1.80579,1.05981,3.58008,2.17444L436.496,77.43878C435.414,76.60107,434.33448,75.76068,433.236,74.94122Z" style="fill: #fff"/>
          <path d="M424.84816,68.991l-72.76843,73.50439q1.92847.93091,3.82446,1.92749l72.35889-73.0907C427.13636,70.538,425.9911,69.76593,424.84816,68.991Z" style="fill: #fff"/>
          <path d="M429.08522,71.92291l-72.25354,72.98444q1.86548.99628,3.698,2.05432l71.88818-72.61536Q430.762,73.12271,429.08522,71.92291Z" style="fill: #fff"/>
          <path d="M437.29432,78.05371,365.8639,150.20654q1.74573,1.12024,3.45386,2.30115L440.49769,80.6084Q438.90687,79.31915,437.29432,78.05371Z" style="fill: #fff"/>
          <path d="M389.45179,49.30334l-2.88,6.44989,5.28552-5.33893C391.05409,50.0459,390.26063,49.66315,389.45179,49.30334Z" style="fill: #fff"/>
          <path d="M411.65882,60.67957l-49.71472,50.2171-4.71057,10.54864L415.25709,62.8349C414.063,62.10944,412.86866,61.38458,411.65882,60.67957Z" style="fill: #fff"/>
          <path d="M416.13624,63.3681,356.0774,124.03442l-4.71008,10.54736L419.674,65.585Q417.9167,64.46176,416.13624,63.3681Z" style="fill: #fff"/>
          <path d="M466.9889,105.82245,396.2472,177.2793c.86426,1.05762,1.71777,2.12573,2.55078,3.21387l70.8927-71.61C468.80116,107.85382,467.89711,106.83655,466.9889,105.82245Z" style="fill: #fff"/>
          <path d="M420.53236,66.1391l-70.321,71.0318-1.64551,3.68481c.8584.3833,1.71069.77966,2.56055,1.1814L424.01,68.41632C422.86109,67.64471,421.6974,66.89117,420.53236,66.1391Z" style="fill: #fff"/>
          <path d="M456.46254,94.821l-70.53369,71.24713q1.46375,1.41266,2.882,2.87866L459.34413,97.7C458.39051,96.73389,457.434,95.77094,456.46254,94.821Z" style="fill: #fff"/>
          <path d="M460.04554,98.41272l-70.54016,71.25354q1.40881,1.4707,2.77808,2.98462L462.8722,101.348Q461.47383,99.86716,460.04554,98.41272Z" style="fill: #fff"/>
          <path d="M463.55458,102.08008l-70.60645,71.32056q1.35278,1.52783,2.658,3.105l70.71948-71.43451C465.41493,104.06311,464.48378,103.07257,463.55458,102.08008Z" style="fill: #fff"/>
          <path d="M449.01356,87.85059l-70.70618,71.42065q1.57562,1.29749,3.11023,2.6488l70.60986-71.324Q450.53352,89.21082,449.01356,87.85059Z" style="fill: #fff"/>
          <path d="M445.18226,84.50873l-70.88293,71.59991q1.63165,1.23944,3.22546,2.532l70.7489-71.464C447.25624,86.27429,446.21693,85.39392,445.18226,84.50873Z" style="fill: #fff"/>
          <path d="M441.27626,81.24316l-71.1228,71.84155c1.1261.78735,2.2439,1.58752,3.3457,2.41113l70.92407-71.64154C443.38441,82.97339,442.33216,82.10657,441.27626,81.24316Z" style="fill: #fff"/>
          <path d="M452.76722,91.2699,382.16493,162.5863q1.52014,1.35516,3.00171,2.75793l70.53857-71.25183C454.73024,93.14752,453.7599,92.1983,452.76722,91.2699Z" style="fill: #fff"/>
          <path d="M514.36543,187.74365l-13.064,13.196,7.98389-2.2749,6.47852-6.54395Q515.08784,189.92358,514.36543,187.74365Z" style="fill: #fff"/>
          <path d="M508.5417,171.99194,471.468,209.44067l7.9101-2.25452.075-.02136L510.18721,176.12C509.64863,174.7395,509.1064,173.36108,508.5417,171.99194Z" style="fill: #fff"/>
          <path d="M516.09175,193.21094l-4.84644,4.89551,5.82056-1.65845C516.75556,195.36389,516.41767,194.28955,516.09175,193.21094Z" style="fill: #fff"/>
          <path d="M512.52851,182.38721l-21.17163,21.38586,7.98462-2.275,14.67163-14.81982Q513.2917,184.52454,512.52851,182.38721Z" style="fill: #fff"/>
          <path d="M510.58613,177.13818l-29.17334,29.46826,7.98438-2.2749,22.75537-22.98584Q511.38752,179.2345,510.58613,177.13818Z" style="fill: #fff"/>
          <path d="M506.39888,166.94458,461.522,212.27539l7.986-2.27612,38.61237-39.00293C507.55439,169.64209,506.99018,168.28723,506.39888,166.94458Z" style="fill: #fff"/>
          <path d="M504.15864,162.02539l-52.54218,53.073,7.94543-2.2644,46.39362-46.86292C505.36689,164.65088,504.77168,163.33386,504.15864,162.02539Z" style="fill: #fff"/>
        </g>
        <path d="M455.74182,94.1277l-.03662-.03528-70.53857,71.25177.03723.035Z" style="fill: #fff;stroke: #fff;stroke-miterlimit: 10;stroke-width: 0.5px"/>
        <path d="M456.42591,94.78578l-70.53345,71.24646.03638.03589L456.46253,94.821Z" style="fill: #fff;stroke: #fff;stroke-miterlimit: 10;stroke-width: 0.5px"/>
        <path d="M504.14954,162.00563l-52.57227,53.104.03918-.01117,52.54211-53.07306Z" style="fill: #fff;stroke: #fff;stroke-miterlimit: 10;stroke-width: 0.5px"/>
        <path d="M503.70594,161.06136l-.0094-.01935-54.07922,54.62622.03906-.01111Z" style="fill: #fff;stroke: #fff;stroke-miterlimit: 10;stroke-width: 0.5px"/>
        <circle cx="146.2095" cy="155.50049" r="35.50725" style="fill: #fff"/>
        <path d="M191.31758,152.33789a43.98753,43.98753,0,0,0-27.72363-37.56543,1.00032,1.00032,0,0,0-.72852,1.86328,41.9759,41.9759,0,0,1,26.458,35.84863,41.74231,41.74231,0,1,1-83.26172,6.09668,42.10553,42.10553,0,0,1,.08392-7.09485,4.11784,4.11784,0,1,0-1.98834-.22839,44.12238,44.12238,0,0,0-.08972,7.46973,43.746,43.746,0,0,0,43.55566,40.5498c1.083,0,2.17285-.04,3.26367-.12012a43.74136,43.74136,0,0,0,40.43066-46.81934Zm-87.82812-4.93066a2.13232,2.13232,0,1,1,2.13379,2.13184A2.13576,2.13576,0,0,1,103.48945,147.40723Z" style="fill: #fff"/>
        <g style="opacity: 0.2">
          <path d="M130.20338,143.37146l6.42761,3.56311a.62935.62935,0,0,0,.34937.06995.50556.50556,0,0,0,.41925-.27942,14.97436,14.97436,0,0,1,6.84674-3.70288.61182.61182,0,0,0,.559-.62891v-7.266a.62365.62365,0,0,0-.76855-.62878,22.22982,22.22982,0,0,0-14.04291,7.825.54346.54346,0,0,0-.13977.559C129.9239,143.092,129.99385,143.30164,130.20338,143.37146Z" style="fill: #f58523"/>
          <path d="M150.674,143.092a13.0675,13.0675,0,0,1,2.79456.9082.42054.42054,0,0,0,.27954.06982,1.33453,1.33453,0,0,0,.5589-.20947l4.40155-5.729a.5434.5434,0,0,0,.13977-.559.89085.89085,0,0,0-.34943-.489,23.989,23.989,0,0,0-7.54541-2.51526.62366.62366,0,0,0-.76855.62891v7.266A.67106.67106,0,0,0,150.674,143.092Z" style="fill: #f58523"/>
          <path d="M164.01832,141.20569a.793.793,0,0,0-.5589-.20959.70672.70672,0,0,0-.489.27942l-4.40155,5.729a.63735.63735,0,0,0,0,.83826,14.23649,14.23649,0,0,1,3.42334,9.43188,14.50614,14.50614,0,0,1-2.51508,8.24414.73234.73234,0,0,0,.06982.8385l4.75079,5.58923a.54409.54409,0,0,0,.48914.20959c.20953,0,.3493-.13977.62878-.20959a22.8163,22.8163,0,0,0,5.17-14.532A23.17843,23.17843,0,0,0,164.01832,141.20569Z" style="fill: #f58523"/>
          <path d="M155.77418,169.85059a.74264.74264,0,0,0-.83832-.13977,14.07676,14.07676,0,0,1-7.33594,1.95618,14.64027,14.64027,0,0,1-14.60187-14.60181,15.6208,15.6208,0,0,1,.9082-5.24.75648.75648,0,0,0-.3493-.83838l-6.2879-3.42334a.52724.52724,0,0,0-.559-.06982.62959.62959,0,0,0-.41919.41919,25.00409,25.00409,0,0,0-1.81647,9.292,23.03393,23.03393,0,0,0,22.98572,23.12549,22.68681,22.68681,0,0,0,12.85529-3.9823.7068.7068,0,0,0,.27948-.489.54337.54337,0,0,0-.13971-.559Z" style="fill: #f58523"/>
        </g>
        <g>
          <g>
            <path d="M140.85461,162.98794h-3.07409a.70011.70011,0,0,1-.69866-.69866v-9.64145a.70011.70011,0,0,1,.69866-.69866h3.07409a.70011.70011,0,0,1,.69866.69866v9.71132A.68926.68926,0,0,1,140.85461,162.98794Zm-2.4453-1.32745H140.156v-8.38387h-1.74664Z" style="fill: url(#linear-gradient)"/>
            <g>
              <path d="M147.00278,162.98794h-3.07409a.70011.70011,0,0,1-.69866-.69866V147.338a.70011.70011,0,0,1,.69866-.69866h3.07409a.70011.70011,0,0,1,.69866.69866v15.0211A.64511.64511,0,0,1,147.00278,162.98794Zm-2.37543-1.32745H146.374V147.96684h-1.74664Z" style="fill: url(#linear-gradient-2)"/>
              <g>
                <path d="M147.00278,160.05358h-3.07409a.70011.70011,0,0,1-.69866-.69866.66007.66007,0,0,1,.69866-.69866h3.07409a.70011.70011,0,0,1,.69866.69866A.66007.66007,0,0,1,147.00278,160.05358Z" style="fill: url(#linear-gradient-3)"/>
                <path d="M147.00278,156.90963h-3.07409a.70011.70011,0,0,1-.69866-.69866.66007.66007,0,0,1,.69866-.69866h3.07409a.70011.70011,0,0,1,.69866.69866A.66007.66007,0,0,1,147.00278,156.90963Z" style="fill: url(#linear-gradient-4)"/>
                <path d="M147.00278,153.69582h-3.07409a.70011.70011,0,0,1-.69866-.69866.66007.66007,0,0,1,.69866-.69866h3.07409a.70011.70011,0,0,1,.69866.69866A.66007.66007,0,0,1,147.00278,153.69582Z" style="fill: url(#linear-gradient-5)"/>
                <path d="M147.00278,150.97106h-3.07409a.70011.70011,0,0,1-.69866-.69866.66007.66007,0,0,1,.69866-.69866h3.07409a.70011.70011,0,0,1,.69866.69866A.66007.66007,0,0,1,147.00278,150.97106Z" style="fill: url(#linear-gradient-6)"/>
              </g>
            </g>
            <path d="M153.22082,162.98794h-3.07409a.70011.70011,0,0,1-.69866-.69866v-6.14817a.70011.70011,0,0,1,.69866-.69866h3.07409a.70011.70011,0,0,1,.69866.69866v6.14817A.74854.74854,0,0,1,153.22082,162.98794Zm-2.4453-1.32745h1.74664v-4.82073h-1.74664Z" style="fill: url(#linear-gradient-7)"/>
          </g>
          <g>
            <path d="M134.7763,145.03248a.62985.62985,0,0,1-.34933-.06986l-6.42763-3.56314c-.2096-.06986-.27946-.27946-.34933-.48906a.54336.54336,0,0,1,.13973-.55892,22.22961,22.22961,0,0,1,14.043-7.82495.6236.6236,0,0,1,.76852.62879v7.266a.61169.61169,0,0,1-.55892.62879,14.97583,14.97583,0,0,0-6.84683,3.70288A.50519.50519,0,0,1,134.7763,145.03248Zm-5.37965-4.4714,5.30978,2.86449a15.53242,15.53242,0,0,1,6.56736-3.56314v-5.86871A20.76691,20.76691,0,0,0,129.39665,140.56109Z" style="fill: url(#linear-gradient-8)"/>
            <path d="M151.544,142.09813a.42006.42006,0,0,1-.27946-.06986A13.0696,13.0696,0,0,0,148.47,141.12a.67106.67106,0,0,1-.48906-.62879v-7.266a.62361.62361,0,0,1,.76853-.62879,23.98588,23.98588,0,0,1,7.54548,2.51516.89111.89111,0,0,1,.34933.48906.54337.54337,0,0,1-.13973.55892l-4.40153,5.729A1.334,1.334,0,0,1,151.544,142.09813Zm-2.2357-2.16583c.62879.2096,1.32745.41919,2.0261.62879l3.633-4.681a22.87473,22.87473,0,0,0-5.58925-1.88637v5.93857Z" style="fill: url(#linear-gradient-9)"/>
            <path d="M162.5828,170.18409a.54392.54392,0,0,1-.48906-.2096l-4.75086-5.58925a.73223.73223,0,0,1-.06986-.83838,14.50654,14.50654,0,0,0,2.51516-8.24414,14.23561,14.23561,0,0,0-3.42341-9.43185.63752.63752,0,0,1,0-.83839l4.40153-5.729a.70718.70718,0,0,1,.48906-.27946.79333.79333,0,0,1,.55893.2096,23.17817,23.17817,0,0,1,6.56737,16.20881,22.81634,22.81634,0,0,1-5.17005,14.532c-.27946.06987-.4192.2096-.62879.2096Zm-3.91248-6.2879,3.91247,4.54126a21.34912,21.34912,0,0,0,4.40153-13.06486,21.58124,21.58124,0,0,0-5.58925-14.67177l-3.56314,4.681a15.547,15.547,0,0,1,3.42341,9.92091A17.87969,17.87969,0,0,1,158.67033,163.89619Z" style="fill: url(#linear-gradient-10)"/>
            <path d="M145.25614,178.35837a23.034,23.034,0,0,1-22.98578-23.1255,25.00586,25.00586,0,0,1,1.8165-9.29212.62988.62988,0,0,1,.41919-.41919.52742.52742,0,0,1,.55892.06986l6.2879,3.42341a.75647.75647,0,0,1,.34933.83839,15.61945,15.61945,0,0,0-.90825,5.23992A14.64032,14.64032,0,0,0,145.39587,169.695a14.07694,14.07694,0,0,0,7.33589-1.95624.743.743,0,0,1,.83838.13973l4.681,5.44952a.54336.54336,0,0,1,.13973.55893.70716.70716,0,0,1-.27946.48906A22.687,22.687,0,0,1,145.25614,178.35837Zm-20.19115-31.16a22.70615,22.70615,0,0,0-1.46718,8.03454,21.692,21.692,0,0,0,21.65833,21.7282,21.12509,21.12509,0,0,0,11.31822-3.28368l-3.84261-4.4714a15.44768,15.44768,0,0,1-7.54548,1.8165,15.92228,15.92228,0,0,1-15.92935-15.92935,16.67469,16.67469,0,0,1,.83839-5.17005Z" style="fill: url(#linear-gradient-11)"/>
          </g>
        </g>
      </g>
    </g>
  </g>
</svg>
