<svg xmlns="http://www.w3.org/2000/svg" viewBox="0 0 285.5 285.5"><defs><style>.cls-1,.cls-3,.cls-4,.cls-5{fill:#fff;}.cls-2{fill:#f58524;}.cls-3{opacity:0.4;}.cls-3,.cls-4{isolation:isolate;}.cls-5{opacity:0.4;}</style></defs><title>analytics_hover_2</title><g id="Layer_2" data-name="Layer 2"><g id="Layer_9" data-name="Layer 9"><path class="cls-1" d="M15.83,140.38l-.09,0a4.83,4.83,0,0,1-1.24-.62,1,1,0,0,1-.44-.88,1.1,1.1,0,0,1,.44-.89,1.66,1.66,0,0,1,1-.31h.29a3.54,3.54,0,0,1,1.51.49l.4-1.17a4.34,4.34,0,0,0-1.91-.53V135H14.49v1.6a2.51,2.51,0,0,0-2,2.45c0,1,.63,1.79,2,2.36l.37.14a4.56,4.56,0,0,1,1,.45,1.28,1.28,0,0,1,.67,1.17,1.19,1.19,0,0,1-.67,1.1,2.28,2.28,0,0,1-1,.21h-.29a4.26,4.26,0,0,1-1.82-.63L12.27,145a5,5,0,0,0,2.23.59V147h1.33v-1.45A2.54,2.54,0,0,0,18.05,143C18.05,141.72,17.3,141,15.83,140.38Z"/><circle class="cls-1" cx="94.42" cy="133.59" r="2.15"/><rect class="cls-2" width="285.5" height="285.5"/><rect class="cls-2" x="79.12" y="41.91" width="140.27" height="55.01" rx="3.04" ry="3.04"/><path class="cls-1" d="M216.34,98.41H82.16a4.55,4.55,0,0,1-4.54-4.54V45a4.55,4.55,0,0,1,4.54-4.54H216.34A4.55,4.55,0,0,1,220.89,45V93.87A4.55,4.55,0,0,1,216.34,98.41Zm-134.18-55A1.55,1.55,0,0,0,80.62,45V93.87a1.54,1.54,0,0,0,1.54,1.54H216.34a1.55,1.55,0,0,0,1.54-1.54V45a1.55,1.55,0,0,0-1.54-1.54Z"/><path class="cls-1" d="M277.71,125.44v7.42H197v-7.42a3.38,3.38,0,0,1,3.37-3.38h74A3.38,3.38,0,0,1,277.71,125.44Z"/><path class="cls-1" d="M279.21,134.37H195.46v-8.92a4.88,4.88,0,0,1,4.86-4.88h74a4.88,4.88,0,0,1,4.87,4.88Zm-80.75-3h77.75v-5.92a1.88,1.88,0,0,0-1.87-1.88h-74a1.87,1.87,0,0,0-1.86,1.88Z"/><path class="cls-1" d="M38.1,120.53a4.3,4.3,0,1,0-6.93.09l-9.32,11.65a10.68,10.68,0,1,0,1.55,1.5L32.84,122a4.17,4.17,0,0,0,3.61-.06l1.12,1.33a4.62,4.62,0,0,1,1.67-.32h.87ZM23.77,140.66a8.55,8.55,0,1,1-8.55-8.55A8.56,8.56,0,0,1,23.77,140.66ZM34.59,120.2a2.15,2.15,0,1,1,2.15-2.15A2.15,2.15,0,0,1,34.59,120.2Z"/><path class="cls-1" d="M60.37,107.31a4.3,4.3,0,0,0-4.3,4.3,4.26,4.26,0,0,0,1.07,2.81l-5.81,8.49h2.6l5-7.28a4.29,4.29,0,1,0,1.46-8.32Zm0,6.44a2.15,2.15,0,1,1,2.15-2.15A2.15,2.15,0,0,1,60.37,113.76Z"/><path class="cls-3" d="M35.18,100.46a1.19,1.19,0,0,0-.83-.38,1.08,1.08,0,0,0-.82.4l-21,26.31,1.68,1.34,20.23-25.29L44.68,115a1.06,1.06,0,0,0,.87.38,1.07,1.07,0,0,0,.83-.47l4.5-6.58.58,3.38,2.12-.36-1-6a1.07,1.07,0,0,0-1.24-.88l-6,1,.36,2.12,3.49-.6-3.77,5.51Z"/><path class="cls-4" d="M61.56,156.84l7.26,4a.71.71,0,0,0,.39.08.57.57,0,0,0,.47-.32,16.91,16.91,0,0,1,7.73-4.18.69.69,0,0,0,.63-.71v-8.2a.7.7,0,0,0-.87-.71,25.1,25.1,0,0,0-15.85,8.83.61.61,0,0,0-.16.63C61.24,156.53,61.32,156.76,61.56,156.84Z"/><path class="cls-4" d="M84.67,156.53a14.76,14.76,0,0,1,3.16,1,.47.47,0,0,0,.32.08,1.51,1.51,0,0,0,.63-.24l5-6.47a.61.61,0,0,0,.16-.63,1,1,0,0,0-.39-.55A27.08,27.08,0,0,0,85,146.91a.7.7,0,0,0-.87.71v8.2A.76.76,0,0,0,84.67,156.53Z"/><path class="cls-4" d="M99.73,154.4a.9.9,0,0,0-.63-.24.8.8,0,0,0-.55.32l-5,6.47a.72.72,0,0,0,0,.95,16.07,16.07,0,0,1,3.86,10.65,16.38,16.38,0,0,1-2.84,9.31.83.83,0,0,0,.08.95l5.36,6.31a.61.61,0,0,0,.55.24c.24,0,.39-.16.71-.24a25.76,25.76,0,0,0,5.84-16.41A26.17,26.17,0,0,0,99.73,154.4Z"/><path class="cls-4" d="M90.43,186.74a.84.84,0,0,0-.95-.16,15.89,15.89,0,0,1-8.28,2.21A16.53,16.53,0,0,1,64.71,172.3a17.64,17.64,0,0,1,1-5.92.85.85,0,0,0-.39-.95l-7.1-3.86a.6.6,0,0,0-.63-.08.71.71,0,0,0-.47.47,28.23,28.23,0,0,0-2.05,10.49,26,26,0,0,0,26,26.11,25.61,25.61,0,0,0,14.51-4.5.8.8,0,0,0,.32-.55.61.61,0,0,0-.16-.63Z"/><rect class="cls-1" x="36.74" y="127.07" width="137.27" height="6.88" rx="3.44" ry="3.44"/><path class="cls-3" d="M204.17,91.2v-23c-9.15,0-9.15,7-18.31,7s-9.15-27.89-18.31-27.89-9.15,27.89-18.31,27.89S140.1,63.1,130.94,63.1s-9.15,12.13-18.31,12.13-9.15-10-18.31-10v26Z"/><path class="cls-1" d="M274.32,178.57h-7.82a1.5,1.5,0,0,1,0-3h7.82a1.88,1.88,0,0,0,1.88-1.88V125.44a1.88,1.88,0,0,0-1.88-1.88H200a1.88,1.88,0,0,0-1.88,1.88v48.24a1.88,1.88,0,0,0,1.88,1.88h6.83a1.5,1.5,0,0,1,0,3H200a4.89,4.89,0,0,1-4.88-4.88V125.44a4.89,4.89,0,0,1,4.88-4.88h74.37a4.89,4.89,0,0,1,4.88,4.88v48.24A4.89,4.89,0,0,1,274.32,178.57Z"/><path class="cls-1" d="M139.65,233.42h7.63A8.43,8.43,0,0,0,155.7,225v-.37a2.2,2.2,0,0,0-2.2-2.2h-44V218h61.54a4.4,4.4,0,0,0,0-8.79h-2.2V134.52h2.2a4.4,4.4,0,0,0,0-8.79H39.22a4.4,4.4,0,0,0,0,8.79h2.2v74.73h-2.2a4.4,4.4,0,0,0,0,8.79h61.54v4.4h-44a2.2,2.2,0,0,0-2.2,2.2V225A8.43,8.43,0,0,0,63,233.42h7.63m11.11,0h46.77M39.22,132.32a2.2,2.2,0,1,1,0-4.4H171.09a2.2,2.2,0,0,1,0,4.4H39.22Zm114.29,92.31V225a6.23,6.23,0,0,1-6.23,6.23H63A6.23,6.23,0,0,1,56.8,225v-.37h96.7Zm-46.15-2.2H103V218h4.4Zm63.74-11a2.2,2.2,0,0,1,0,4.4H39.22a2.2,2.2,0,1,1,0-4.4H171.09Zm-4.4-2.2H43.62V134.52H166.69Z"/><path class="cls-1" d="M75.91,181.22H72.44a.79.79,0,0,1-.79-.79V169.54a.79.79,0,0,1,.79-.79h3.47a.79.79,0,0,1,.79.79v11A.78.78,0,0,1,75.91,181.22Zm-2.76-1.5h2v-9.47h-2Z"/><path class="cls-1" d="M82.85,181.22H79.38a.79.79,0,0,1-.79-.79V163.55a.79.79,0,0,1,.79-.79h3.47a.79.79,0,0,1,.79.79v17A.73.73,0,0,1,82.85,181.22Zm-2.68-1.5h2V164.26h-2Z"/><path class="cls-1" d="M82.85,177.9H79.38a.79.79,0,0,1-.79-.79.75.75,0,0,1,.79-.79h3.47a.79.79,0,0,1,.79.79A.75.75,0,0,1,82.85,177.9Z"/><path class="cls-1" d="M82.85,174.35H79.38a.79.79,0,0,1-.79-.79.75.75,0,0,1,.79-.79h3.47a.79.79,0,0,1,.79.79A.75.75,0,0,1,82.85,174.35Z"/><path class="cls-1" d="M82.85,170.73H79.38a.79.79,0,0,1-.79-.79.75.75,0,0,1,.79-.79h3.47a.79.79,0,0,1,.79.79A.75.75,0,0,1,82.85,170.73Z"/><path class="cls-1" d="M82.85,167.65H79.38a.79.79,0,0,1-.79-.79.75.75,0,0,1,.79-.79h3.47a.79.79,0,0,1,.79.79A.75.75,0,0,1,82.85,167.65Z"/><path class="cls-1" d="M89.87,181.22H86.4a.79.79,0,0,1-.79-.79v-6.94a.79.79,0,0,1,.79-.79h3.47a.79.79,0,0,1,.79.79v6.94A.85.85,0,0,1,89.87,181.22Zm-2.76-1.5h2v-5.44h-2Z"/><path class="cls-1" d="M69,160.95a.71.71,0,0,1-.39-.08l-7.26-4c-.24-.08-.32-.32-.39-.55a.61.61,0,0,1,.16-.63A25.1,25.1,0,0,1,77,146.83a.7.7,0,0,1,.87.71v8.2a.69.69,0,0,1-.63.71,16.91,16.91,0,0,0-7.73,4.18A.57.57,0,0,1,69,160.95Zm-6.07-5,6,3.23a17.54,17.54,0,0,1,7.41-4v-6.63A23.45,23.45,0,0,0,63,155.9Z"/><path class="cls-1" d="M88,157.63a.47.47,0,0,1-.32-.08,14.76,14.76,0,0,0-3.16-1,.76.76,0,0,1-.55-.71v-8.2a.7.7,0,0,1,.87-.71,27.08,27.08,0,0,1,8.52,2.84,1,1,0,0,1,.39.55.61.61,0,0,1-.16.63l-5,6.47A1.51,1.51,0,0,1,88,157.63Zm-2.52-2.45c.71.24,1.5.47,2.29.71l4.1-5.28a25.83,25.83,0,0,0-6.31-2.13v6.7Z"/><path class="cls-1" d="M100.44,189.34a.61.61,0,0,1-.55-.24l-5.36-6.31a.83.83,0,0,1-.08-.95,16.38,16.38,0,0,0,2.84-9.31,16.07,16.07,0,0,0-3.87-10.65.72.72,0,0,1,0-.95l5-6.47a.8.8,0,0,1,.55-.32.9.9,0,0,1,.63.24A26.17,26.17,0,0,1,107,172.7a25.76,25.76,0,0,1-5.84,16.41c-.32.08-.47.24-.71.24ZM96,182.24l4.42,5.13a24.1,24.1,0,0,0,5-14.75,24.37,24.37,0,0,0-6.31-16.56l-4,5.28a17.55,17.55,0,0,1,3.87,11.2A20.19,20.19,0,0,1,96,182.24Z"/><path class="cls-1" d="M80.88,198.57a26,26,0,0,1-26-26.11A28.23,28.23,0,0,1,57,162a.71.71,0,0,1,.47-.47.6.6,0,0,1,.63.08l7.1,3.87a.85.85,0,0,1,.39.95,17.63,17.63,0,0,0-1,5.92A16.53,16.53,0,0,0,81,188.79a15.89,15.89,0,0,0,8.28-2.21.84.84,0,0,1,.95.16l5.28,6.15a.61.61,0,0,1,.16.63.8.8,0,0,1-.32.55A25.61,25.61,0,0,1,80.88,198.57Zm-22.8-35.18a25.64,25.64,0,0,0-1.66,9.07A24.49,24.49,0,0,0,80.88,197a23.85,23.85,0,0,0,12.78-3.71l-4.34-5a17.44,17.44,0,0,1-8.52,2.05,18,18,0,0,1-18-18,18.83,18.83,0,0,1,.95-5.84Z"/><circle class="cls-2" cx="203.79" cy="127.07" r="1.72"/><circle class="cls-2" cx="210.08" cy="127.07" r="1.72"/><circle class="cls-2" cx="216.36" cy="127.07" r="1.72"/><path class="cls-1" d="M223.56,155.77V148.9a1.43,1.43,0,0,0-1.31-1.42h-4.47a1.44,1.44,0,0,0-1.42,1.42v14.83H218a2,2,0,0,1,1.85,2V177.8h1.2V157.62a1.82,1.82,0,0,1,1.74-1.85Z"/><path class="cls-1" d="M239,161.33v-6.87a1.44,1.44,0,0,0-1.42-1.42h-4.25a1.44,1.44,0,0,0-1.42,1.42v14.83h1.64a2.11,2.11,0,0,1,2,2v6.54h1.09V163.18a1.82,1.82,0,0,1,1.74-1.85Z"/><path class="cls-1" d="M254.86,151.29v-6.76a1.44,1.44,0,0,0-1.42-1.42H249a1.44,1.44,0,0,0-1.42,1.42v14.83h1.64a1.93,1.93,0,0,1,2,1.85v16.47h1.2V153.15a1.91,1.91,0,0,1,1.85-1.85Z"/><path class="cls-1" d="M218,164.93h-2.18a.75.75,0,0,0-.76.76V177.8h3.71V165.69A.75.75,0,0,0,218,164.93Z"/><path class="cls-1" d="M225.09,157H222.8a.7.7,0,0,0-.65.65v20.07h3.71v-20A.75.75,0,0,0,225.09,157Z"/><path class="cls-1" d="M233.7,170.49h-2.18a.75.75,0,0,0-.76.76v6.54h3.71v-6.54A.75.75,0,0,0,233.7,170.49Z"/><path class="cls-1" d="M240.68,162.53h-2.29a.7.7,0,0,0-.65.65v14.51h3.71v-14.4A.75.75,0,0,0,240.68,162.53Z"/><path class="cls-1" d="M249.3,160.46h-2.18a.75.75,0,0,0-.76.76v16.47h3.71V161.22A.75.75,0,0,0,249.3,160.46Z"/><path class="cls-1" d="M256.5,152.49h-2.4a.7.7,0,0,0-.65.65v24.54h3.82V153.26A.75.75,0,0,0,256.5,152.49Z"/><path class="cls-1" d="M261.84,178.89H211.46a1,1,0,0,0-1,.87,1,1,0,0,0,1,1H262a1,1,0,0,0,1-1A1.17,1.17,0,0,0,261.84,178.89Z"/><path class="cls-1" d="M215.82,182.6a.86.86,0,0,0-.87.87v1.64a.87.87,0,1,0,1.75,0v-1.64A.86.86,0,0,0,215.82,182.6Z"/><path class="cls-1" d="M220,182.6a.86.86,0,0,0-.87.87v1.64a.87.87,0,0,0,1.75,0v-1.64A.86.86,0,0,0,220,182.6Z"/><path class="cls-1" d="M224.11,182.6a.86.86,0,0,0-.87.87v1.64a.87.87,0,1,0,1.74,0v-1.64A.8.8,0,0,0,224.11,182.6Z"/><path class="cls-1" d="M228.36,182.6a.86.86,0,0,0-.87.87v1.64a.87.87,0,1,0,1.75,0v-1.64C229.12,182.92,228.8,182.6,228.36,182.6Z"/><path class="cls-1" d="M232.5,182.6a.86.86,0,0,0-.87.87v1.64a.87.87,0,1,0,1.74,0v-1.64C233.27,182.92,232.94,182.6,232.5,182.6Z"/><path class="cls-1" d="M236.65,182.6a.86.86,0,0,0-.87.87v1.64a.87.87,0,1,0,1.74,0v-1.64A.86.86,0,0,0,236.65,182.6Z"/><path class="cls-1" d="M240.79,182.6a.86.86,0,0,0-.87.87v1.64a.87.87,0,1,0,1.74,0v-1.64A.86.86,0,0,0,240.79,182.6Z"/><path class="cls-1" d="M244.94,182.6a.86.86,0,0,0-.87.87v1.64a.87.87,0,1,0,1.74,0v-1.64A.8.8,0,0,0,244.94,182.6Z"/><path class="cls-1" d="M249.19,182.6a.86.86,0,0,0-.87.87v1.64a.87.87,0,0,0,1.75,0v-1.64C250,182.92,249.63,182.6,249.19,182.6Z"/><path class="cls-1" d="M253.34,182.6a.86.86,0,0,0-.87.87v1.64a.87.87,0,1,0,1.74,0v-1.64C254.1,182.92,253.77,182.6,253.34,182.6Z"/><path class="cls-1" d="M257.48,182.6a.86.86,0,0,0-.87.87v1.64a.87.87,0,1,0,1.74,0v-1.64C258.24,182.92,257.92,182.6,257.48,182.6Z"/><rect class="cls-1" x="124.54" y="151.27" width="29.99" height="3.54" rx="1.77" ry="1.77"/><rect class="cls-1" x="124.54" y="160.7" width="29.99" height="3.54" rx="1.77" ry="1.77"/><rect class="cls-1" x="124.54" y="170.13" width="29.99" height="3.54" rx="1.77" ry="1.77"/><rect class="cls-1" x="116.68" y="151.27" width="3.86" height="3.54" rx="1.48" ry="1.48"/><rect class="cls-1" x="116.68" y="160.7" width="3.86" height="3.54" rx="1.48" ry="1.48"/><rect class="cls-1" x="116.68" y="170.13" width="3.86" height="3.54" rx="1.48" ry="1.48"/><rect class="cls-1" x="116.61" y="180.01" width="37.92" height="16.31" rx="1.73" ry="1.73"/><path class="cls-1" d="M222.89,68.55h-3.5a1.5,1.5,0,0,1,0-3h3.5a1.5,1.5,0,0,1,0,3Z"/><path class="cls-1" d="M257.08,112.61a1.5,1.5,0,0,1-1.5-1.5v-7.44a1.5,1.5,0,1,1,3,0v7.44A1.5,1.5,0,0,1,257.08,112.61Zm0-14.88a1.5,1.5,0,0,1-1.5-1.5V88.8a1.5,1.5,0,0,1,3,0v7.44A1.5,1.5,0,0,1,257.08,97.74Zm0-14.88a1.5,1.5,0,0,1-1.5-1.5V76.09a7.54,7.54,0,0,0-.21-1.79,1.5,1.5,0,0,1,2.91-.71,10.52,10.52,0,0,1,.3,2.5v5.27A1.5,1.5,0,0,1,257.08,82.86Zm-4.64-13.17a1.5,1.5,0,0,1-.73-.19,7.54,7.54,0,0,0-3.67-1H245.2a1.5,1.5,0,0,1,0-3H248a10.55,10.55,0,0,1,5.13,1.33,1.5,1.5,0,0,1-.73,2.81Zm-14.68-1.14h-7.44a1.5,1.5,0,0,1,0-3h7.44a1.5,1.5,0,0,1,0,3Z"/><path class="cls-1" d="M257.08,123.56a1.5,1.5,0,0,1-1.5-1.5v-3.5a1.5,1.5,0,0,1,3,0v3.5A1.5,1.5,0,0,1,257.08,123.56Z"/><path class="cls-1" d="M197.63,233.57h-7a1.5,1.5,0,0,1,0-3h7a1.5,1.5,0,0,1,0,3Zm-14,0h-7a1.5,1.5,0,0,1,0-3h7a1.5,1.5,0,0,1,0,3Zm-14,0h-7a1.5,1.5,0,0,1,0-3h7a1.5,1.5,0,0,1,0,3Zm-14,0h-7a1.5,1.5,0,0,1,0-3h7a1.5,1.5,0,0,1,0,3Zm48.18-2.63a1.5,1.5,0,0,1-1.18-2.43,5.32,5.32,0,0,0,1.15-3.32,8.34,8.34,0,0,1,.51-2.89,1.5,1.5,0,0,1,2.82,1,5.34,5.34,0,0,0-.33,1.85,8.29,8.29,0,0,1-1.79,5.18A1.5,1.5,0,0,1,203.81,230.95Zm7-11a1.5,1.5,0,0,1-.3-3,8.35,8.35,0,0,1,1.66-.17h5.63a1.5,1.5,0,0,1,0,3h-5.62a5.34,5.34,0,0,0-1.07.11A1.52,1.52,0,0,1,210.78,220Zm21-.14h-7a1.5,1.5,0,0,1,0-3h7a1.5,1.5,0,0,1,0,3Zm5.87-3.24a1.5,1.5,0,0,1-1.27-2.29,5.35,5.35,0,0,0,.81-2.84v-3.16a1.5,1.5,0,0,1,3,0v3.16a8.34,8.34,0,0,1-1.27,4.44A1.5,1.5,0,0,1,237.64,216.59Zm1-13.8a1.5,1.5,0,0,1-1.5-1.5v-7a1.5,1.5,0,0,1,3,0v7A1.5,1.5,0,0,1,238.68,202.78Z"/><path class="cls-5" d="M256.69,212.17a1.5,1.5,0,0,1,1.88-2.11,3.81,3.81,0,0,0,5.09-2.45,1.5,1.5,0,0,1,2.82-.16,3.81,3.81,0,0,0,5,2l.35-.17a1.5,1.5,0,0,1,2.11,1.88,3.81,3.81,0,0,0,2.09,5l.37.13a1.5,1.5,0,0,1,.16,2.82,3.81,3.81,0,0,0-1.86,5.33,1.5,1.5,0,0,1-1.88,2.11A3.81,3.81,0,0,0,267.7,229a1.5,1.5,0,0,1-2.82.16,3.81,3.81,0,0,0-5-2l-.35.17a1.5,1.5,0,0,1-2.11-1.88,3.81,3.81,0,0,0-2.09-5l-.37-.13a1.5,1.5,0,0,1-.16-2.82,3.81,3.81,0,0,0,1.86-5.33Z"/><path class="cls-1" d="M266.26,231.58a3,3,0,0,1-2.76-1.84,2.3,2.3,0,0,0-3-1.23l-.21.1a3,3,0,0,1-4.21-3.76,2.31,2.31,0,0,0-1.26-3l-.22-.08a3,3,0,0,1-.32-5.64,2.31,2.31,0,0,0,1.23-3c0-.08-.07-.15-.1-.21a3,3,0,0,1,3.77-4.21,2.31,2.31,0,0,0,3-1.26c0-.07.06-.15.08-.23a3,3,0,0,1,5.64-.31,2.3,2.3,0,0,0,3,1.23l.21-.1a3,3,0,0,1,4.22,3.76,2.31,2.31,0,0,0,1.26,3l.22.08a3,3,0,0,1,.32,5.64,2.3,2.3,0,0,0-1.23,3,2.32,2.32,0,0,0,.1.22,3,3,0,0,1-3.76,4.21,2.31,2.31,0,0,0-3,1.26,2.24,2.24,0,0,0-.08.23A3,3,0,0,1,266.26,231.58Zm-4.89-6.25a5.32,5.32,0,0,1,4.89,3.25,4.5,4.5,0,0,1,.18-.52,5.3,5.3,0,0,1,6.91-2.9,4.79,4.79,0,0,1-.24-.49,5.3,5.3,0,0,1,2.83-6.94,4.68,4.68,0,0,1-.51-.18,5.31,5.31,0,0,1-2.91-6.92,4.84,4.84,0,0,1-.48.24A5.31,5.31,0,0,1,265.1,208a4.8,4.8,0,0,1-.18.51,5.31,5.31,0,0,1-6.92,2.91h0a5.19,5.19,0,0,1,.23.49,5.31,5.31,0,0,1-2.83,6.94,4.69,4.69,0,0,1,.51.18,5.31,5.31,0,0,1,2.91,6.92,4.7,4.7,0,0,1,.49-.24A5.27,5.27,0,0,1,261.37,225.32Z"/><circle class="cls-2" cx="265.68" cy="218.31" r="3.46" transform="translate(-28.08 397.05) rotate(-70.73)"/><path class="cls-1" d="M265.52,223.47a5.09,5.09,0,0,1-2.21-9.67,5.09,5.09,0,0,1,7,6.26,1.5,1.5,0,1,1-2.83-1,2.09,2.09,0,1,0-1.25,1.27,1.5,1.5,0,1,1,1,2.81A5.06,5.06,0,0,1,265.52,223.47Z"/><rect class="cls-1" x="194.34" y="190.17" width="86.64" height="3.41" rx="1.7" ry="1.7"/><path class="cls-1" d="M153.51,224.63V225a6.23,6.23,0,0,1-6.23,6.23H63A6.23,6.23,0,0,1,56.8,225v-.36Z"/></g></g></svg>