<svg xmlns="http://www.w3.org/2000/svg" viewBox="0 0 217.48913 217.48913">
  <title>api-driven</title>
  <g id="Layer_2" data-name="Layer 2">
    <g id="Layer_10" data-name="Layer 10">
      <g>
        <rect width="217.48913" height="217.48913" style="fill: none"/>
        <g>
          <path d="M198.14193,24.75383H19.3472C8.8223,24.76651.29309,34.03434.28141,45.47068V172.01844C.29309,183.45479,8.8223,192.72261,19.3472,192.7353H198.14193c10.52491-.01269,19.05411-9.28051,19.06579-20.71686V45.47068C217.196,34.03434,208.66683,24.76651,198.14193,24.75383Zm6.35526,147.26462a6.64761,6.64761,0,0,1-6.35526,6.90562H19.3472a6.64761,6.64761,0,0,1-6.35526-6.90562V72.83535H204.49719Zm0-112.99434H12.99194V45.4891a6.64761,6.64761,0,0,1,6.35526-6.90562H198.14193a6.64761,6.64761,0,0,1,6.35526,6.90562Z" style="fill: #fff"/>
          <g>
            <path d="M73.04485,93.63736a20.57816,20.57816,0,0,0-20.553,20.55713v27.73438a6.35535,6.35535,0,0,0,12.71069,0v-12.0498H80.87884v12.0498a6.35535,6.35535,0,0,0,12.71069,0V114.19449A20.57829,20.57829,0,0,0,73.04485,93.63736Zm7.84253,20.56543v2.96582H65.21111v-2.96582a7.84237,7.84237,0,0,1,15.67627-.51538Q80.8958,113.94486,80.88738,114.20279Z" style="fill: #fff"/>
            <path d="M125.37835,93.63736H108.74456a6.355,6.355,0,0,0-6.35522,6.355v41.94482a6.35522,6.35522,0,1,0,12.71045,0V129.87906h10.27856a18.12085,18.12085,0,1,0,0-36.2417Zm0,23.53125H115.09978V106.352h10.27856a5.41044,5.41044,0,0,1,0,10.81665Z" style="fill: #fff"/>
            <path d="M158.64178,93.63736a6.35518,6.35518,0,0,0-6.35522,6.355v41.94482a6.35535,6.35535,0,1,0,12.71069,0V99.99259A6.35528,6.35528,0,0,0,158.64178,93.63736Z" style="fill: #fff"/>
          </g>
        </g>
      </g>
    </g>
  </g>
</svg>
