<svg xmlns="http://www.w3.org/2000/svg" viewBox="0 0 217.49 217.49"><defs><style>.cls-1{fill:none;}.cls-2{fill:#f58524;stroke:#f58426;}</style></defs><title>API_Driven_hover</title><g id="Layer_2" data-name="Layer 2"><g id="Layer_10" data-name="Layer 10"><rect class="cls-1" width="217.49" height="217.49"/><path class="cls-2" d="M194,35H23.51A18.2,18.2,0,0,0,5.33,53.22v111a18.2,18.2,0,0,0,18.18,18.18H194a18.2,18.2,0,0,0,18.18-18.18v-111A18.2,18.2,0,0,0,194,35ZM200,164.26a6.06,6.06,0,0,1-6.06,6.06H23.51a6.06,6.06,0,0,1-6.06-6.06v-87H200Zm0-99.15H17.45V53.24a6.06,6.06,0,0,1,6.06-6.06H194A6.06,6.06,0,0,1,200,53.24Z"/><path class="cls-2" d="M74.71,93.1a19.62,19.62,0,0,0-19.6,19.6v26.44a6.06,6.06,0,1,0,12.12,0V127.65H82.18v11.49a6.06,6.06,0,1,0,12.12,0V112.7A19.62,19.62,0,0,0,74.71,93.1Zm7.48,22.44H67.24V112.7h0a7.48,7.48,0,0,1,14.95-.49q0,.25,0,.49Z"/><path class="cls-2" d="M124.6,93.1H108.74a6.06,6.06,0,0,0-6.06,6.06v40a6.06,6.06,0,1,0,12.12,0v-11.5h9.8a17.28,17.28,0,1,0,0-34.55Zm0,22.44h-9.8V105.22h9.8a5.16,5.16,0,0,1,0,10.31Z"/><path class="cls-2" d="M156.32,93.1a6.06,6.06,0,0,0-6.06,6.06v40a6.06,6.06,0,1,0,12.12,0v-40a6.06,6.06,0,0,0-6.06-6.06Z"/></g></g></svg>