<svg xmlns="http://www.w3.org/2000/svg" viewBox="0 0 217.48913 217.48913">
  <title>Asset_Inventory_hover_1</title>
  <g id="Layer_2" data-name="Layer 2">
    <g id="Layer_10" data-name="Layer 10">
      <g>
        <rect width="217.48913" height="217.48913" style="fill: none"/>
        <path d="M183.4246,209.65932H100.48137A19.53676,19.53676,0,0,1,80.9673,190.14526v-60.3441H34.06453A19.53676,19.53676,0,0,1,14.55046,110.2871V27.34386A19.53676,19.53676,0,0,1,34.06453,7.8298h82.94429a19.53676,19.53676,0,0,1,19.51406,19.51406V87.688H183.4246A19.53676,19.53676,0,0,1,202.93866,107.202v82.94323A19.53676,19.53676,0,0,1,183.4246,209.65932ZM34.06453,23.0074a4.34075,4.34075,0,0,0-4.33646,4.33646V110.2871a4.34075,4.34075,0,0,0,4.33646,4.33646H96.14491v75.52171a4.34075,4.34075,0,0,0,4.33646,4.33646H183.4246a4.34075,4.34075,0,0,0,4.33646-4.33646V107.202a4.34075,4.34075,0,0,0-4.33646-4.33646H121.34528V27.34386a4.34075,4.34075,0,0,0-4.33646-4.33646Z" style="fill: #f58524;stroke: #f58426"/>
      </g>
    </g>
  </g>
</svg>
