<svg xmlns="http://www.w3.org/2000/svg" viewBox="0 0 217.48913 217.48913">
  <title>asset_discovery</title>
  <g id="Layer_2" data-name="Layer 2">
    <g id="Layer_10" data-name="Layer 10">
      <g>
        <rect width="217.48913" height="217.48913" style="fill: none"/>
        <g>
          <path d="M191.8579,135.66906a53.43525,53.43525,0,0,1-1.74756,13.57458l4.40112,2.541V107.202a19.537,19.537,0,0,0-19.51416-19.514H161.86645A53.36352,53.36352,0,0,1,191.8579,135.66906Z" style="fill: #595b5d"/>
          <path d="M179.33373,190.14538a4.34071,4.34071,0,0,1-4.33643,4.33643H92.05419a4.34071,4.34071,0,0,1-4.33643-4.33643v-38.042a53.42405,53.42405,0,0,1,0-32.86865v-4.61108H25.6372a4.34074,4.34074,0,0,1-4.33643-4.33655V27.34387a4.34071,4.34071,0,0,1,4.33643-4.33643h82.94434a4.34071,4.34071,0,0,1,4.33643,4.33643v61.48a52.992,52.992,0,0,1,15.17773-5.49976V27.34387a19.5368,19.5368,0,0,0-19.51416-19.514H25.6372A19.537,19.537,0,0,0,6.123,27.34387V110.2871a19.53688,19.53688,0,0,0,19.51416,19.514H72.54v60.34424A19.5367,19.5367,0,0,0,92.05419,209.6593h82.94312a19.53685,19.53685,0,0,0,19.51416-19.51392v-6.61719l-15.17773-8.7627Z" style="fill: #595b5d"/>
          <path d="M207.147,166.78112q-6.61377-4.25977-13.21484-8.541-6.42773-4.16162-12.86328-8.31348a43.60945,43.60945,0,0,0,1.89648-19.40527,44.059,44.059,0,0,0-13.24316-26.64844c-15.52051-15.05469-38.18262-17.21191-56.38965-5.374A45.06246,45.06246,0,0,0,134.82079,181.037a43.98831,43.98831,0,0,0,32.56543-10.67773,62.97916,62.97916,0,0,0,4.7627-4.65625q.63281-.665,1.27539-1.332l16.77051,10.8623c2.876,1.86914,5.752,3.73926,8.64941,5.57422a7.86923,7.86923,0,0,0,8.53711.15039,7.79191,7.79191,0,0,0,3.9707-7.4502A8.32333,8.32333,0,0,0,207.147,166.78112Zm-40.10937-30.64941a28.88794,28.88794,0,0,1-28.80469,28.76172h-.082a28.79644,28.79644,0,0,1,.05762-57.59277h.03613a28.82241,28.82241,0,0,1,28.793,28.83105Z" style="fill: #595b5d"/>
        </g>
      </g>
    </g>
  </g>
</svg>
