<svg xmlns="http://www.w3.org/2000/svg" viewBox="0 0 217.48913 217.48913">
  <title>automation</title>
  <g id="Layer_2" data-name="Layer 2">
    <g id="Layer_10" data-name="Layer 10">
      <g>
        <rect width="217.48913" height="217.48913" style="fill: none"/>
        <path d="M191.61877,95.68011a5.41846,5.41846,0,0,0,0-10.83691H178.26721V77.185h13.35156a5.41846,5.41846,0,0,0,0-10.83691H178.26721V61.4096a5.5367,5.5367,0,0,0-1.57617-3.83105L165.36682,46.25433a5.53334,5.53334,0,0,0-3.84277-1.57617h-4.92676V31.32659a5.41846,5.41846,0,0,0-10.83691,0v13.3125h-7.6582V31.32659a5.41846,5.41846,0,0,0-10.83691,0v13.3125h-7.6582V32.1098a25.21118,25.21118,0,0,0-25.18262-25.165h-.01953A25.28841,25.28841,0,0,0,70.483,24.31,36.88492,36.88492,0,0,0,40.72229,73.6762a40.455,40.455,0,0,0-.00293,70.123,36.82558,36.82558,0,0,0,29.76172,49.3291,25.17644,25.17644,0,0,0,49.126-7.76367V172.7973h7.6582v13.35156a5.41846,5.41846,0,1,0,10.83691,0V172.7973h7.6582v13.35156a5.41846,5.41846,0,1,0,10.83691,0V172.7973h4.93848a5.53749,5.53749,0,0,0,3.83105-1.5752l11.32422-11.3252a5.40136,5.40136,0,0,0,1.57617-3.84277v-4.92578h13.35156a5.41895,5.41895,0,0,0,0-10.83789H178.26721v-7.6582h13.35156a5.41846,5.41846,0,0,0,0-10.83691H178.26721V114.1762h13.35156a5.41846,5.41846,0,0,0,0-10.83691H178.26721V95.68011Zm-32.78711,52.34082V126.391a5.41895,5.41895,0,0,0-10.83789,0V142.603H119.60705V74.95159h28.38672V91.12445a5.41895,5.41895,0,0,0,10.83789,0V69.53265a5.42454,5.42454,0,0,0-5.41895-5.418H119.60705V55.476h39.68945l8.17285,8.17285v90.17773l-8.21191,8.21191H119.60705v-8.59863h33.80566A5.42474,5.42474,0,0,0,158.83166,148.02093ZM72.37659,104.184a4.57373,4.57373,0,1,1-4.57324,4.57324A4.58414,4.58414,0,0,1,72.37659,104.184ZM68.05041,94.01019a15.41061,15.41061,0,1,0,18.76953,20.20508H108.8092v13.84961H96.20178l-.11133.00391a5.5119,5.5119,0,0,0-3.457,1.57227L81.83459,140.4389a15.38784,15.38784,0,0,0-21.77246,14.002,15.23359,15.23359,0,0,0,4.5127,10.8623,15.40269,15.40269,0,0,0,24.94531-17.21973l9.18555-9.2207h10.06348v46.541A14.3269,14.3269,0,0,1,82.026,192.55609a34.5779,34.5779,0,0,0,6.73047-2.34082,36.236,36.236,0,0,0,10.75-7.56152,5.4183,5.4183,0,0,0-7.15918-8.13477,5.29718,5.29718,0,0,0-.543.54492,25.98865,25.98865,0,0,1-7.55078,5.293,25.457,25.457,0,0,1-9.42383,2.29395,26.04077,26.04077,0,0,1-22.26953-38.708,5.33885,5.33885,0,0,0,.38281-4.459,5.52445,5.52445,0,0,0-3.08691-3.23828,29.62959,29.62959,0,0,1,0-54.97656l.15527-.07324c3.00781-1.63086,3.94238-4.27734,2.63184-7.4541l-.08008-.16406A26.01649,26.01649,0,0,1,74.70178,34.82464,25.42827,25.42827,0,0,1,91.8053,42.45452a5.5083,5.5083,0,0,0,7.67871.09473,5.43461,5.43461,0,0,0,.10254-7.64746A35.92592,35.92592,0,0,0,88.7467,27.29534a37.24714,37.24714,0,0,0-6.72754-2.291,14.33146,14.33146,0,0,1,26.75,7.14551v46.502H98.70373l-9.18457-9.18457A15.41558,15.41558,0,0,0,64.5758,52.21136,15.41773,15.41773,0,0,0,64.60022,74.016a15.52069,15.52069,0,0,0,17.23438,3.1377L92.65588,87.97405a5.5745,5.5745,0,0,0,3.82031,1.55469h12.333v13.84961H86.81995a15.4121,15.4121,0,0,0-18.76953-9.36816Zm11.99609,60.40234a4.54539,4.54539,0,0,1-1.31836,3.20117,4.61394,4.61394,0,0,1-6.46582.00586,4.55065,4.55065,0,0,1-1.32422-3.208,4.51551,4.51551,0,0,1,4.56055-4.57324,4.55439,4.55439,0,0,1,3.21191,1.30859,4.65282,4.65282,0,0,1,1.33594,3.26465ZM72.26428,66.31878A4.55374,4.55374,0,1,1,80.04651,63.103v.00781a4.5414,4.5414,0,0,1-1.31836,3.2002A4.61521,4.61521,0,0,1,72.26428,66.31878Z" style="fill: #595b5d"/>
      </g>
    </g>
  </g>
</svg>
