<svg xmlns="http://www.w3.org/2000/svg" viewBox="0 0 217.49 217.49"><defs><style>.cls-1{fill:none;}.cls-2{fill:#f58524;stroke:#f58426;}</style></defs><title>Behavioral_Analytics_hover</title><g id="Layer_2" data-name="Layer 2"><g id="Layer_10" data-name="Layer 10"><rect class="cls-1" width="217.49" height="217.49"/><path class="cls-2" d="M183.23,30.85A43,43,0,0,1,178,29.73a1.76,1.76,0,0,0-2.3.55Q166,41.48,156.27,52.63c-4.18,4.82-8.33,9.66-12.58,14.43a2,2,0,0,0-.27,2.8,14.54,14.54,0,0,1-1.81,16.5,14.87,14.87,0,0,1-16.48,4A14.49,14.49,0,0,1,116,76.5a21.78,21.78,0,0,1,1.54-6.24,2,2,0,0,0-.45-2.48q-6.69-7-13.28-14a1.68,1.68,0,0,0-2.2-.45C96,55.59,90.86,54.95,86.2,51.12c-.9-.74-1.49-.39-2.24.06L57.34,67.12c-2.43,1.45-4.84,2.93-7.3,4.31a2.51,2.51,0,0,0-1.47,3c1.51,10.67-7.44,18.87-17.87,16.48A14.63,14.63,0,0,1,31,62.46a13.88,13.88,0,0,1,12.22,2.81,2,2,0,0,0,2.81.21Q63.19,55.14,80.41,44.9c1-.59,1-1.21.88-2.21-1.07-7.37,2.27-13.47,8.82-16.26a14.67,14.67,0,0,1,16.12,3.46,14.49,14.49,0,0,1,2.5,16.57A1.87,1.87,0,0,0,109.2,49q6.66,6.87,13.19,13.87a1.68,1.68,0,0,0,2.29.49,13.54,13.54,0,0,1,11-.3,1.87,1.87,0,0,0,2.47-.59Q154.11,44,170.13,25.67a1.91,1.91,0,0,0,.23-2.65,14.63,14.63,0,1,1,26.92-2.84A15,15,0,0,1,183.23,30.85Zm0-7.41a7.38,7.38,0,0,0,7.4-7.3,7.6,7.6,0,0,0-7.44-7.56,7.68,7.68,0,0,0-7.42,7.4A7.43,7.43,0,0,0,183.25,23.44Zm-149,60.68a7.36,7.36,0,0,0,7.39-7.3,7.41,7.41,0,1,0-14.81-.16A7.37,7.37,0,0,0,34.24,84.12Zm96.29,0A7.36,7.36,0,0,0,138,76.68a7.61,7.61,0,0,0-7.37-7.42,7.47,7.47,0,0,0-7.41,7.52A7.28,7.28,0,0,0,130.53,84.11ZM88.28,39.92a7.34,7.34,0,0,0,7.4,7.48,7.41,7.41,0,0,0,.13-14.81A7.32,7.32,0,0,0,88.28,39.92Z"/><path class="cls-2" d="M60.69,216.06H40.78a13.35,13.35,0,0,1-13.33-13.33V140.16a13.35,13.35,0,0,1,13.33-13.33H60.69A13.35,13.35,0,0,1,74,140.16v62.56A13.35,13.35,0,0,1,60.69,216.06ZM40.78,136.83a3.34,3.34,0,0,0-3.33,3.33v62.56a3.34,3.34,0,0,0,3.33,3.33H60.69A3.34,3.34,0,0,0,64,202.72V140.16a3.34,3.34,0,0,0-3.33-3.33Z"/><path class="cls-2" d="M121.57,216.06H101.65a13.35,13.35,0,0,1-13.33-13.33V120.51a13.35,13.35,0,0,1,13.33-13.33h19.92a13.35,13.35,0,0,1,13.33,13.33v82.21A13.35,13.35,0,0,1,121.57,216.06Zm-19.92-98.88a3.34,3.34,0,0,0-3.33,3.33v82.21a3.34,3.34,0,0,0,3.33,3.33h19.92a3.34,3.34,0,0,0,3.33-3.33V120.51a3.34,3.34,0,0,0-3.33-3.33Z"/><path class="cls-2" d="M182.44,216.06H162.53a13.35,13.35,0,0,1-13.33-13.33v-99.1a13.35,13.35,0,0,1,13.33-13.33h19.92a13.35,13.35,0,0,1,13.33,13.33v99.1A13.35,13.35,0,0,1,182.44,216.06ZM162.53,100.29a3.34,3.34,0,0,0-3.33,3.33v99.1a3.34,3.34,0,0,0,3.33,3.33h19.92a3.34,3.34,0,0,0,3.33-3.33v-99.1a3.34,3.34,0,0,0-3.33-3.33Z"/></g></g></svg>