<svg xmlns="http://www.w3.org/2000/svg" viewBox="0 0 217.49 217.49"><defs><style>.cls-1{fill:none;}.cls-2{fill:#595b5d;stroke:#595b5d;stroke-miterlimit:10;stroke-width:3px;}</style></defs><title>Compliance</title><g id="Layer_2" data-name="Layer 2"><g id="Layer_10" data-name="Layer 10"><rect class="cls-1" width="217.49" height="217.49"/><path class="cls-2" d="M144,88.28a6.51,6.51,0,0,0-9.13-.14L100,122.23l-17.36-17a6.42,6.42,0,0,0-9,9.11l22,21.46a6.48,6.48,0,0,0,9,0L143.9,97.34A6.41,6.41,0,0,0,144,88.28Z"/><path class="cls-2" d="M166.21,10.86H51.28A23.88,23.88,0,0,0,27.45,34.69V189.26A23.88,23.88,0,0,0,51.28,213.1H166.21A23.88,23.88,0,0,0,190,189.26V34.69A23.88,23.88,0,0,0,166.21,10.86ZM78.79,21.58h58.87v4.6a13,13,0,0,1-13,13H91.77a13,13,0,0,1-13-13Zm100.4,167.68a13,13,0,0,1-13,13H51.28a13,13,0,0,1-13-13V34.69a13,13,0,0,1,13-13h9.48v-.13H68v4.6A23.87,23.87,0,0,0,91.81,50h32.92a23.87,23.87,0,0,0,23.83-23.84v-4.6h16.37v.13h1.33a13,13,0,0,1,13,13Z"/></g></g></svg>