<svg xmlns="http://www.w3.org/2000/svg" viewBox="0 0 217.48913 217.48913">
  <title>Customer_white</title>
  <g id="Layer_2" data-name="Layer 2">
    <g id="Layer_10" data-name="Layer 10">
      <g>
        <rect width="217.48913" height="217.48913" style="fill: none"/>
        <g>
          <g>
            <path d="M39.81953,157.593c.181-1.34165.30885-2.693.55141-4.02345A38.24045,38.24045,0,0,1,59.355,126.37077a37.125,37.125,0,0,1,18.97-5.12374,4.30273,4.30273,0,1,1,.1785,8.597,29.9908,29.9908,0,0,0-7.026.86445c-10.44618,2.78073-17.56019,9.26587-21.36067,19.36708a28.32075,28.32075,0,0,0-1.68623,9.2906c-.08235,3.10042,1.702,4.94256,4.79169,4.94263q36.88478.00084,73.76957.00032,18.60063,0,37.20125-.0002c3.17536-.00012,5.00115-1.86277,4.82313-5.0335-.70536-12.56365-6.783-21.54967-18.13907-26.91746a27.09865,27.09865,0,0,0-11.44765-2.48735,4.99347,4.99347,0,0,1-3.17316-.927,4.31726,4.31726,0,0,1-1.47459-4.72523,4.24777,4.24777,0,0,1,4.095-2.96669,37.61064,37.61064,0,0,1,11.28743,1.65553,38.7979,38.7979,0,0,1,26.9503,30.82112,25.07424,25.07424,0,0,1,.2774,8.73718,12.92108,12.92108,0,0,1-10.81382,10.32319,3.025,3.025,0,0,0-.45394.13523H51.35292a2.169,2.169,0,0,0-.38463-.128,12.91658,12.91658,0,0,1-10.74964-9.64783c-.146-.58261-.26669-1.17155-.39912-1.75755Z" style="fill: #fff"/>
            <path d="M166.50545,175.42439H50.93612l-.39551-.13574c-.04395-.01562-.08887-.03125-.13281-.04883a15.33569,15.33569,0,0,1-12.61426-11.48437c-.10742-.42969-.20215-.85937-.2959-1.29l-.17773-.79785.02246-4.4082c.05566-.41309.10645-.82715.15625-1.24121.11523-.94141.2334-1.91406.41211-2.89648a40.76607,40.76607,0,0,1,20.17285-28.90332,39.70185,39.70185,0,0,1,20.22559-5.47168H78.358a6.80117,6.80117,0,0,1,6.74512,4.85449,6.73284,6.73284,0,0,1-.99414,5.91211,6.99026,6.99026,0,0,1-5.54395,2.83008,27.20928,27.20928,0,0,0-6.44531.78125c-9.68652,2.57813-16.11816,8.41113-19.66309,17.832a25.71505,25.71505,0,0,0-1.52734,8.47559,2.60374,2.60374,0,0,0,.50488,1.83008,2.56158,2.56158,0,0,0,1.78809.54688H164.193a2.66472,2.66472,0,0,0,1.877-.57129,2.54351,2.54351,0,0,0,.4502-1.82324c-.65527-11.67969-6.12207-19.79-16.71094-24.79687a24.71076,24.71076,0,0,0-10.40332-2.24707,7.484,7.484,0,0,1-4.68555-1.45508,6.852,6.852,0,0,1-2.32031-7.457,6.7193,6.7193,0,0,1,6.45313-4.707,40.78071,40.78071,0,0,1,12.03516,1.76172,41.54679,41.54679,0,0,1,28.69238,32.80566,27.5771,27.5771,0,0,1,.26953,9.60254A15.44644,15.44644,0,0,1,167.065,175.2447Zm-114.71582-5H165.72127a3.59209,3.59209,0,0,1,.51172-.1123,10.38692,10.38692,0,0,0,8.70117-8.30273,22.58182,22.58182,0,0,0-.28613-7.87207,36.51246,36.51246,0,0,0-25.207-28.83789,35.12,35.12,0,0,0-10.542-1.54785,1.74535,1.74535,0,0,0-1.73535,1.22754,1.812,1.812,0,0,0,.62891,1.99316,2.50239,2.50239,0,0,0,1.66016.39844,29.64476,29.64476,0,0,1,12.49316,2.72754c12.22656,5.7793,18.80957,15.54883,19.56641,29.03711a7.1632,7.1632,0,0,1-1.80859,5.53711,7.34426,7.34426,0,0,1-5.51074,2.13672H53.22225a6.86946,6.86946,0,0,1-7.291-7.50977,30.6063,30.6063,0,0,1,1.8457-10.10352c4.09668-10.88867,11.85449-17.9209,23.05762-20.90332a31.8795,31.8795,0,0,1,7.6084-.94727,2.00821,2.00821,0,0,0,1.626-.77832,1.74656,1.74656,0,0,0,.2373-1.55566,1.84056,1.84056,0,0,0-1.9668-1.26465A34.767,34.767,0,0,0,60.62655,128.523a35.96164,35.96164,0,0,0-17.79687,25.49512c-.15234.83789-.25684,1.69629-.36719,2.60547-.04687.37793-.09277.75684-.14258,1.13574v3.3584l.06152.27734c.084.38379.168.7666.2627,1.14746a10.35943,10.35943,0,0,0,8.667,7.77637A3.17568,3.17568,0,0,1,51.78963,170.42439Z" style="fill: #fff"/>
          </g>
          <g>
            <path d="M110.6214,44.5652c1.03974.14724,2.08512.26285,3.11829.44694a30.96359,30.96359,0,0,1,15.41809,7.66715,42.00789,42.00789,0,0,1,12.64021,21.056,49.80544,49.80544,0,0,1-3.11372,35.24979,37.747,37.747,0,0,1-14.64127,16.523,29.30378,29.30378,0,0,1-32.84861-1.4414,40.777,40.777,0,0,1-14.36014-19.593,50.11837,50.11837,0,0,1-2.8071-21.64884,47.09949,47.09949,0,0,1,7.35665-22.139A35.69352,35.69352,0,0,1,96.36923,47.29713a28.73493,28.73493,0,0,1,9.96755-2.62638,3.54145,3.54145,0,0,0,.48714-.10554Zm25.22547,44.30757c.00645-7.34035-.99822-12.84247-3.20276-18.10048a31.56116,31.56116,0,0,0-10.89287-14.13451c-6.452-4.51823-13.44244-5.624-20.87775-2.80846A26.48376,26.48376,0,0,0,88.46376,64.03668,38.92692,38.92692,0,0,0,81.8597,82.39086,42.741,42.741,0,0,0,84.80407,103.641a31.45726,31.45726,0,0,0,10.329,13.72637c7.194,5.27244,14.945,6.29844,23.11325,2.48641a27.36056,27.36056,0,0,0,11.56718-10.74322A39.48337,39.48337,0,0,0,135.84688,88.87278Z" style="fill: #fff"/>
            <path d="M108.68026,132.359a32.18169,32.18169,0,0,1-18.95508-6.26855A43.47683,43.47683,0,0,1,74.4869,105.33357a52.81062,52.81062,0,0,1-2.95117-22.71582,49.82,49.82,0,0,1,7.751-23.29395A38.37231,38.37231,0,0,1,95.317,45.02986a31.35629,31.35629,0,0,1,10.71484-2.84277l.5166-.12207,4.4248.02441.96777.13086c.748.09863,1.49609.19824,2.23828.33105A33.558,33.558,0,0,1,130.82381,50.816a44.60042,44.60042,0,0,1,13.39063,22.27734A52.37854,52.37854,0,0,1,140.94,110.06306,40.33983,40.33983,0,0,1,125.33358,127.649,32.16084,32.16084,0,0,1,108.68026,132.359ZM107.13143,47.065a3.79126,3.79126,0,0,1-.60254.09766A26.38344,26.38344,0,0,0,97.42244,49.565a33.0051,33.0051,0,0,0-13.94336,12.4834,44.87625,44.87625,0,0,0-6.96094,20.9834,47.86784,47.86784,0,0,0,2.66406,20.582c2.90234,7.92383,7.31152,13.95215,13.48047,18.42969a26.86681,26.86681,0,0,0,30.08887,1.32422,35.41785,35.41785,0,0,0,13.67676-15.46094,47.50815,47.50815,0,0,0,2.9541-33.53125,39.70146,39.70146,0,0,0-11.89062-19.833,28.6455,28.6455,0,0,0-14.19043-7.06934c-.668-.11914-1.34082-.207-2.01367-.2959q-.42041-.0542-.84082-.1123Zm1.39941,77.60059a24.909,24.909,0,0,1-14.875-5.28125,33.65635,33.65635,0,0,1-11.16016-14.7832,45.39693,45.39693,0,0,1-3.12207-22.47363,41.58777,41.58777,0,0,1,7.0332-19.51172c3.76855-5.45312,8.21094-9.09082,13.582-11.124,8.084-3.06152,15.88867-2.01855,23.19727,3.09863,5.12891,3.5918,8.97754,8.56836,11.76367,15.21484,2.35547,5.62012,3.40332,11.501,3.39746,19.06934v.0166a41.86306,41.86306,0,0,1-6.41406,21.54492,29.59162,29.59162,0,0,1-12.62891,11.68359A25.356,25.356,0,0,1,108.53084,124.6656Zm.38574-69.8877a20.11251,20.11251,0,0,0-7.15723,1.38965,23.89239,23.89239,0,0,0-11.23926,9.291,36.65521,36.65521,0,0,0-6.17383,17.19629,40.44814,40.44814,0,0,0,2.7666,20.02637,28.80782,28.80782,0,0,0,9.498,12.66992c6.6416,4.86816,13.373,5.59961,20.5791,2.2373a24.74962,24.74962,0,0,0,10.50293-9.80273,36.79887,36.79887,0,0,0,5.6543-18.92383c.00488-6.86719-.92285-12.14844-3.00879-17.123A28.93957,28.93957,0,0,0,120.318,58.68611,19.61262,19.61262,0,0,0,108.91659,54.7779Z" style="fill: #fff"/>
          </g>
        </g>
      </g>
    </g>
  </g>
</svg>
