<svg xmlns="http://www.w3.org/2000/svg" viewBox="0 0 217.48913 217.48913">
  <title>Customer_hover</title>
  <g id="Layer_2" data-name="Layer 2">
    <g id="Layer_10" data-name="Layer 10">
      <g>
        <rect width="217.48913" height="217.48913" style="fill: none"/>
        <g>
          <path d="M39.81953,157.593c.181-1.34165.30885-2.693.55141-4.02345A38.24045,38.24045,0,0,1,59.355,126.37077a37.125,37.125,0,0,1,18.97-5.12374,4.30273,4.30273,0,1,1,.1785,8.597,29.9908,29.9908,0,0,0-7.026.86445c-10.44618,2.78073-17.56019,9.26587-21.36067,19.36708a28.32075,28.32075,0,0,0-1.68623,9.2906c-.08235,3.10042,1.702,4.94256,4.79169,4.94263q36.88478.00084,73.76957.00032,18.60063,0,37.20125-.0002c3.17536-.00012,5.00115-1.86277,4.82313-5.0335-.70536-12.56365-6.783-21.54967-18.13907-26.91746a27.09865,27.09865,0,0,0-11.44765-2.48735,4.99347,4.99347,0,0,1-3.17316-.927,4.31726,4.31726,0,0,1-1.47459-4.72523,4.24777,4.24777,0,0,1,4.095-2.96669,37.61064,37.61064,0,0,1,11.28743,1.65553,38.7979,38.7979,0,0,1,26.9503,30.82112,25.07424,25.07424,0,0,1,.2774,8.73718,12.92108,12.92108,0,0,1-10.81382,10.32319,3.025,3.025,0,0,0-.45394.13523H51.35292a2.169,2.169,0,0,0-.38463-.128,12.91658,12.91658,0,0,1-10.74964-9.64783c-.146-.58261-.26669-1.17155-.39912-1.75755Z" style="fill: #f58426;stroke: #f58426;stroke-miterlimit: 10;stroke-width: 5px"/>
          <path d="M110.6214,44.5652c1.03974.14724,2.08512.26285,3.11829.44694a30.96359,30.96359,0,0,1,15.41809,7.66715,42.00789,42.00789,0,0,1,12.64021,21.056,49.80544,49.80544,0,0,1-3.11372,35.24979,37.747,37.747,0,0,1-14.64127,16.523,29.30378,29.30378,0,0,1-32.84861-1.4414,40.777,40.777,0,0,1-14.36014-19.593,50.11837,50.11837,0,0,1-2.8071-21.64884,47.09949,47.09949,0,0,1,7.35665-22.139A35.69352,35.69352,0,0,1,96.36923,47.29713a28.73493,28.73493,0,0,1,9.96755-2.62638,3.54145,3.54145,0,0,0,.48714-.10554Zm25.22547,44.30757c.00645-7.34035-.99822-12.84247-3.20276-18.10048a31.56116,31.56116,0,0,0-10.89287-14.13451c-6.452-4.51823-13.44244-5.624-20.87775-2.80846A26.48376,26.48376,0,0,0,88.46376,64.03668,38.92692,38.92692,0,0,0,81.8597,82.39086,42.741,42.741,0,0,0,84.80407,103.641a31.45726,31.45726,0,0,0,10.329,13.72637c7.194,5.27244,14.945,6.29844,23.11325,2.48641a27.36056,27.36056,0,0,0,11.56718-10.74322A39.48337,39.48337,0,0,0,135.84688,88.87278Z" style="fill: #f58426;stroke: #f58426;stroke-miterlimit: 10;stroke-width: 5px"/>
        </g>
      </g>
    </g>
  </g>
</svg>
