<?xml version="1.0" encoding="UTF-8"?>
<svg width="149px" height="37px" viewBox="0 0 149 37" version="1.1" xmlns="http://www.w3.org/2000/svg" xmlns:xlink="http://www.w3.org/1999/xlink">
    <!-- Generator: Sketch 62 (91390) - https://sketch.com -->
    <title>Cylerian_Orange_01</title>
    <desc>Created with Sketch.</desc>
    <g id="Page-1" stroke="none" stroke-width="1" fill="none" fill-rule="evenodd">
        <g id="Cylerian-homepage-modification-Copy" transform="translate(-130.000000, -51.000000)" fill-rule="nonzero">
            <g id="Cylerian_Orange_01" transform="translate(130.000000, 51.000000)">
                <path d="M20.0701205,27.3243011 C19.033045,26.709516 18.0751681,25.9706734 17.2177778,25.1241935 C12.7657296,20.7816667 11.3794511,14.4817204 13.9445649,8.87204301 C8.42338688,10.7260215 4.5537751,15.0387097 4.5537751,20.0456452 C4.57384923,20.5458474 4.63118711,21.0438689 4.72531459,21.5355914 C8.21993307,25.3589247 14.652664,30.918871 20.0701205,27.3243011 Z" id="Shape" fill="#FE7518"></path>
                <path d="M26.3133601,8.90188172 L26.2934137,8.90188172 C23.345328,8.07435484 19.1625569,7.12349462 13.9485542,8.87602151 C8.42737617,10.73 4.55776439,15.0426882 4.55776439,20.0496237 C4.55776439,21.2809677 5.39950469,24.9451613 6.07967871,27.1472581 C3.54647925,20.4753226 0.957429719,16.8529032 0.277255689,13.5030108 C0.186831772,13.062724 0.116354306,12.6410036 0.0658232932,12.2378495 C-0.454779116,8.1738172 2.19410977,4.37634409 6.23925033,3.36978495 C11.2258635,2.12053763 13.10083,0.47344086 15.2390897,0.244677419 C19.0548461,-0.16311828 23.9935877,2.49650538 26.3133601,8.90188172 Z" id="Shape" fill="#FFBD12"></path>
                <path d="M15.2390897,0.244677419 L15.2390897,0.244677419 C19.0548461,-0.16311828 23.9935877,2.49650538 26.3133601,8.90188172 L26.2954083,8.90188172 L26.2954083,8.91978495 L26.3073762,8.90784946 C26.3073762,8.90784946 41.1176171,13.8073656 36.316506,20.9726344 C37.750656,19.023172 40.0006158,17.3104301 41.067751,15.339086 C44.5184873,8.97150538 27.4842169,-1.75451613 15.2390897,0.244677419 Z" id="Shape" fill="#FE7518"></path>
                <path d="M26.3133601,8.90188172 L26.3133601,8.90188172 C26.5682972,9.59726016 26.7807832,10.3073945 26.9496519,11.0283871 C28.5353949,17.8296237 25.6870415,23.7595699 20.0820884,27.3123656 C26.3851673,30.9984409 33.117095,27.8216129 35.3929853,22.5719892 C35.6414395,21.9850048 35.9631201,21.4316074 36.350415,20.9248925 C41.0737349,13.7854839 26.3133601,8.90188172 26.3133601,8.90188172 Z" id="Shape" fill="#FE4C0B"></path>
                <path d="M35.2772959,22.8206452 C32.903668,27.9230645 26.2814458,30.9506989 20.0721151,27.3223118 C14.652664,30.918871 8.21993307,25.360914 4.72730924,21.5336022 C5.0702932,23.4267115 5.52047361,25.2989367 6.07568942,27.1412903 L6.07568942,27.1412903 C6.39882195,28.1690681 6.76650156,29.214086 7.17872825,30.2763441 C12.1035074,43.0075269 22.6851004,33.9365591 29.3851138,29.7472043 C32.0997095,28.0588135 34.202536,25.5497776 35.3870013,22.585914 L35.2772959,22.8206452 Z" id="Shape" fill="#E03D0B"></path>
                <path d="M62.6318608,13.7258065 C62.4064551,13.3670783 62.1523054,13.0271333 61.8719009,12.7093011 C61.6255951,12.4310344 61.338431,12.1915961 61.0201874,11.9991398 C60.6968642,11.8084761 60.3465046,11.6676384 59.9809772,11.5813978 C59.553233,11.4834784 59.115314,11.4367331 58.6764793,11.4421505 C57.9109686,11.426763 57.1527608,11.5931309 56.4644177,11.9275269 C55.8258682,12.2538759 55.2778034,12.7321349 54.8687015,13.32 C54.4065115,13.9855031 54.0705164,14.7298386 53.8773628,15.516129 C53.6455235,16.4591955 53.533609,17.4276104 53.544257,18.3985484 C53.5338649,19.3707853 53.6457733,20.3404843 53.8773628,21.2849462 C54.0660038,22.068232 54.398025,22.8100547 54.8567336,23.4731183 C55.2665098,24.0603821 55.8144085,24.5384961 56.4524498,24.8655914 C57.1407171,25.2002047 57.8989781,25.3665844 58.6645114,25.3509677 C59.6591745,25.3509677 60.4849576,25.152043 61.1418608,24.7541935 C61.8463697,24.3084957 62.4354643,23.7032749 62.861245,22.9877419 L65.2548193,24.5691935 C64.902698,25.1602873 64.4800797,25.706668 63.9961981,26.1963978 C63.590598,26.5809993 63.143764,26.9198876 62.6637751,27.2069355 C62.1211443,27.52473 61.5390629,27.7701744 60.932423,27.9369892 C60.1968915,28.1372038 59.4368533,28.2336255 58.6744846,28.2234409 C57.8460436,28.2351912 57.0210782,28.1142998 56.2310442,27.8653763 C54.8073174,27.4103108 53.5631426,26.5202417 52.6745917,25.321129 C52.214522,24.7229124 51.8318611,24.0692704 51.5356493,23.3756452 C51.2341603,22.647492 51.006306,21.8911439 50.8554752,21.1178495 C50.6806635,20.2207173 50.5958054,19.3084626 50.6021553,18.3945699 C50.5874203,17.0513342 50.7784485,15.7137307 51.1686345,14.4280108 C51.5079761,13.3062335 52.0560788,12.2582089 52.7842972,11.3387097 C53.4709424,10.4831462 54.3404899,9.79129373 55.3294645,9.31365591 C56.373504,8.8201701 57.5172518,8.57243888 58.67249,8.58956989 C60.2269835,8.58956989 61.5321464,8.8952509 62.5879786,9.5066129 C63.6664269,10.1366005 64.5551568,11.0442246 65.161071,12.1344086 L62.6318608,13.7258065 Z" id="Shape" fill="#939598"></path>
                <polygon id="Shape" fill="#939598" points="73.2453681 32.9598387 70.2753414 32.9598387 72.3537617 27.6505376 67.0918876 13.6422581 70.1696252 13.6422581 73.7599866 24.404086 77.4760107 13.6422581 80.4460375 13.6422581"></polygon>
                <polygon id="Shape" fill="#939598" points="83.1607497 27.9250538 83.1607497 9.56430108 85.9692102 8.09026882 85.9692102 27.9250538"></polygon>
                <path d="M101.607288,20.4892473 C101.607288,20.7465233 101.598585,20.9858961 101.581299,21.2073656 C101.563347,21.428172 101.545395,21.6052151 101.527443,21.7643548 L92.0548728,21.7643548 C92.1139743,22.3754278 92.2666768,22.9738506 92.5076573,23.5387634 C92.7020249,23.9897026 92.9771206,24.4015666 93.3194779,24.7541935 C93.6259418,25.0662166 93.9969103,25.3078815 94.4065596,25.4623656 C94.8089233,25.6131465 95.2353502,25.6899786 95.6651807,25.6891398 C95.9602689,25.6906963 96.2548277,25.6640512 96.5448193,25.6095699 C96.8183787,25.5579143 97.0857815,25.4779106 97.3426774,25.3708602 C97.5730307,25.2755035 97.7974923,25.1665656 98.0148728,25.0446237 C98.2103481,24.934552 98.463668,24.7687814 98.7748327,24.5473118 L100.440361,26.3376344 C100.126888,26.6412336 99.7856498,26.9149507 99.4210977,27.1552151 C99.0856351,27.368829 98.7334344,27.5550967 98.367925,27.7122043 C97.9548169,27.8863861 97.523199,28.0131853 97.0813788,28.0901613 C96.5579555,28.1825398 96.0271792,28.2271508 95.4956359,28.2234409 C94.3623967,28.232254 93.2519119,27.9062396 92.3042035,27.2865054 C91.8929586,27.0125644 91.5153814,26.691424 91.1792236,26.3296774 C90.8039668,25.910977 90.4835868,25.4464131 90.2257831,24.9471505 C89.9119992,24.3520448 89.6792318,23.7178477 89.5336412,23.0613441 C89.3682964,22.3134955 89.2880037,21.5494428 89.2942838,20.7836559 C89.2790345,19.7009492 89.4358967,18.6226705 89.7590361,17.5889247 C90.0251213,16.731525 90.4620327,15.9365225 91.0435877,15.2515591 C91.5885794,14.6278288 92.2714073,14.1388851 93.0382329,13.8232796 C93.8416533,13.4909948 94.7036751,13.3225743 95.573427,13.327957 C96.4960678,13.3122114 97.4090972,13.5168313 98.2362784,13.9247312 C98.972365,14.2941965 99.6148081,14.8253964 100.115234,15.4783333 C100.628387,16.1607201 101.008009,16.9334311 101.23423,17.7560215 C101.484872,18.6454757 101.610405,19.5653422 101.607288,20.4892473 Z M98.7688487,19.4528495 C98.7367918,18.9834966 98.6497652,18.5194981 98.5095448,18.0703226 C98.3808026,17.6540447 98.1729001,17.2663798 97.8971888,16.9284946 C97.6188948,16.5951606 97.2683302,16.3292077 96.8719411,16.1506989 C96.4032859,15.9489018 95.8962331,15.8511595 95.3859304,15.8642473 C94.9384846,15.8556924 94.4941753,15.9403841 94.0814324,16.1129032 C93.71426,16.2728497 93.3867509,16.5111961 93.122008,16.811129 C92.8394381,17.1400652 92.6166768,17.5157149 92.4637751,17.921129 C92.2776515,18.4142606 92.1589022,18.9301247 92.1107229,19.4548387 L98.7688487,19.4528495 Z" id="Shape" fill="#939598"></path>
                <path d="M112.543869,16.6042473 C112.244045,16.436654 111.924428,16.3070151 111.592423,16.2183333 C111.200899,16.1227741 110.798652,16.077978 110.395636,16.0850538 C109.498046,16.0850538 108.805239,16.392724 108.317216,17.0080645 C107.829192,17.623405 107.585181,18.5424373 107.585181,19.7651613 L107.585181,27.9210753 L104.77672,27.9210753 L104.77672,13.6422581 L107.587175,13.6422581 L107.587175,14.9969355 C107.751833,14.7519701 107.949114,14.5304622 108.173601,14.3384946 C108.409025,14.1362075 108.665856,13.9601139 108.939545,13.8133333 C109.224405,13.6609349 109.526373,13.5427449 109.83913,13.4612366 C110.170051,13.3760225 110.510642,13.3338982 110.85241,13.335914 C111.33675,13.3249939 111.820389,13.3785118 112.290549,13.4950538 C112.643577,13.588917 112.979974,13.7365311 113.287871,13.9326882 L112.543869,16.6042473 Z" id="Shape" fill="#939598"></path>
                <path d="M119.186037,9.99 C119.188199,10.2304556 119.138542,10.4685687 119.040428,10.6882258 C118.851297,11.1154797 118.510225,11.4577547 118.082999,11.6490323 C117.862707,11.7467624 117.623974,11.7962791 117.382878,11.7942473 C117.139894,11.7958524 116.899298,11.7463723 116.676774,11.6490323 C116.460494,11.5540392 116.264217,11.4190424 116.098327,11.2511828 C115.931203,11.0870265 115.795953,10.8934686 115.699398,10.6802688 C115.601284,10.4606117 115.551627,10.2224986 115.553788,9.98204301 C115.552239,9.73972248 115.601851,9.49979009 115.699398,9.27784946 C115.887692,8.84219887 116.235952,8.49488145 116.672784,8.30709677 C116.895364,8.20992736 117.135923,8.16045481 117.378889,8.16188172 C117.619967,8.16003423 117.858661,8.20954291 118.079009,8.30709677 C118.292562,8.40378602 118.486577,8.53862204 118.651473,8.70494624 C118.819409,8.87146584 118.954702,9.06778491 119.050402,9.2838172 C119.144802,9.50711128 119.191016,9.74772161 119.186037,9.99 L119.186037,9.99 Z M115.962691,27.9250538 L115.962691,13.6422581 L118.773146,13.6422581 L118.773146,27.9230645 L115.962691,27.9250538 Z" id="Shape" fill="#939598"></path>
                <path d="M130.778916,27.9250538 L130.778916,26.5166667 C130.49777,26.7869156 130.194901,27.0337445 129.873347,27.2546774 C129.633989,27.4098387 129.385324,27.5557168 129.127349,27.6923118 C128.815021,27.8505432 128.486722,27.9752392 128.147979,28.0643011 C127.724763,28.1783744 127.287841,28.2339295 126.849465,28.2294086 C126.256305,28.227127 125.666538,28.1400402 125.098166,27.9708065 C124.515298,27.801269 123.972614,27.5164543 123.50245,27.1333333 C123.009923,26.7256891 122.612407,26.2158823 122.337577,25.6394086 C122.012574,24.9409868 121.853532,24.1771995 121.872825,23.4074731 C121.854889,22.6950584 122.003059,21.9882199 122.305663,21.3426344 C122.58389,20.7738086 122.994176,20.2793877 123.50245,19.9004301 C124.045608,19.5048158 124.660745,19.2183488 125.313588,19.0569892 C126.051506,18.8705187 126.810308,18.7789334 127.571526,18.7844624 C128.20993,18.7749205 128.847788,18.8262107 129.476412,18.9376344 C129.921292,19.0197181 130.355062,19.1532355 130.768942,19.3354839 L130.768942,18.2652688 C130.768942,17.4854839 130.538228,16.8887097 130.076801,16.4749462 C129.615373,16.0611828 128.948496,15.8523118 128.076171,15.8483333 C127.405254,15.8417211 126.735852,15.9131533 126.081526,16.0611828 C125.476036,16.2073209 124.893495,16.4355572 124.350174,16.7395161 L123.257108,14.6269355 C123.941907,14.20081 124.684979,13.875842 125.463186,13.6621505 C126.341716,13.4309717 127.247409,13.3185682 128.155957,13.327957 C128.897612,13.3198545 129.63657,13.418339 130.350067,13.6203763 C130.972451,13.7985516 131.550168,14.1056075 132.045515,14.5215054 C132.523638,14.93041 132.899892,15.4445713 133.144565,16.0233871 C133.421413,16.6928428 133.557204,17.4119412 133.543494,18.1359677 L133.543494,27.927043 L130.778916,27.9250538 Z M130.778916,21.8280108 C130.545461,21.7168608 130.304918,21.6211697 130.058849,21.5415591 C129.845422,21.475914 129.624016,21.4182258 129.392637,21.3684946 C129.117097,21.3136373 128.838763,21.2737932 128.558876,21.2491398 C128.234413,21.218638 127.881361,21.2033871 127.499719,21.2033871 C126.59415,21.2033871 125.876743,21.3936918 125.347497,21.7743011 C124.833375,22.1226673 124.532644,22.7082546 124.549639,23.3279032 C124.538719,23.7014637 124.616641,24.0722949 124.777028,24.4100538 C124.913693,24.6894906 125.108911,24.9364148 125.349491,25.1341398 C125.59235,25.3261132 125.871,25.468104 126.16929,25.5518817 C126.540395,25.6519289 126.923885,25.6988145 127.308233,25.691129 C127.673898,25.6923162 128.037665,25.6386701 128.387336,25.5319892 C128.726334,25.4291886 129.052806,25.2890788 129.360723,25.1142473 C129.65173,24.949137 129.923928,24.7530448 130.172544,24.5294086 C130.394578,24.331432 130.595143,24.1107405 130.770937,23.8709677 L130.778916,21.8280108 Z" id="Shape" fill="#939598"></path>
                <path d="M146.061888,27.9250538 L146.061888,19.8467204 C146.061888,18.5537097 145.831174,17.5769892 145.369746,16.9165591 C144.908318,16.256129 144.157666,15.9245878 143.117791,15.9219355 C142.688438,15.9171364 142.262484,15.9983086 141.865154,16.1606452 C141.483966,16.3198004 141.152622,16.5781129 140.90573,16.9086022 C140.639499,17.2640683 140.449396,17.6703289 140.347229,18.1021505 C140.228601,18.5824419 140.170309,19.0755789 140.173695,19.5702151 L140.173695,27.9250538 L137.36324,27.9250538 L137.36324,13.6422581 L140.173695,13.6422581 L140.173695,14.9969355 C140.355172,14.7350445 140.573497,14.5005624 140.821954,14.3006989 C141.082454,14.0904378 141.368642,13.913976 141.673668,13.7755376 C141.993114,13.6306651 142.327565,13.5212622 142.670991,13.4493011 C143.030372,13.3735161 143.396729,13.3355127 143.764056,13.335914 C144.533178,13.3186694 145.297449,13.4616247 146.008032,13.7556452 C146.625736,14.0195484 147.169917,14.4291401 147.593775,14.9491935 C148.04807,15.5381847 148.372929,16.2159676 148.547216,16.9384409 C148.774294,17.8550992 148.881564,18.7971937 148.866359,19.7412903 L148.866359,27.9250538 L146.061888,27.9250538 Z" id="Shape" fill="#939598"></path>
            </g>
        </g>
    </g>
</svg>