<svg xmlns="http://www.w3.org/2000/svg" viewBox="0 0 118.87579 29.39357">
  <title>cylerian_logo_white</title>
  <g id="Layer_2" data-name="Layer 2">
    <g id="Layer_31" data-name="Layer 31">
      <g>
        <g>
          <path id="Shape" d="M16.02618,21.81937a11.8242,11.8242,0,0,1-2.2777-1.75687A11.32883,11.32883,0,0,1,11.1347,7.08457C6.72584,8.565,3.63582,12.00888,3.63582,16.0071a8.04379,8.04379,0,0,0,.137,1.18978C6.56338,20.24994,11.70015,24.68976,16.02618,21.81937Z" style="fill: #fff;opacity: 0.65"/>
          <path id="Shape-2" data-name="Shape" d="M21.01164,7.1084h-.01593a15.79909,15.79909,0,0,0-9.85782-.02065C6.729,8.56821,3.639,12.01205,3.639,16.01027A30.07376,30.07376,0,0,0,4.85431,21.678C2.83146,16.35021.764,13.45758.22086,10.78256Q.11255,10.25519.052,9.77229A6.479,6.479,0,0,1,4.98173,2.69082C8.96372,1.69325,10.461.378,12.16843.1953,15.21545-.13034,19.15921,1.99347,21.01164,7.1084Z" style="fill: #fff;opacity: 0.75"/>
          <path id="Shape-3" data-name="Shape" d="M12.16843.1953h0c3.047-.32564,6.99078,1.79817,8.84321,6.91309H20.9973v.0143l.00956-.00953s11.82652,3.91244,7.99265,9.63417c1.14522-1.55672,2.94189-2.9244,3.794-4.49859C35.54909,7.164,21.94661-1.40113,12.16843.1953Z" style="fill: #fff;opacity: 0.65"/>
          <path id="Shape-4" data-name="Shape" d="M21.01164,7.1084h0a14.61773,14.61773,0,0,1,.5081,1.69809,11.72011,11.72011,0,0,1-5.484,13.00335A8.47164,8.47164,0,0,0,28.262,18.02447a6.04824,6.04824,0,0,1,.76454-1.31527C32.79833,11.00813,21.01164,7.1084,21.01164,7.1084Z" style="fill: #fff;opacity: 0.8"/>
          <path id="Shape-5" data-name="Shape" d="M28.16966,18.223a8.47642,8.47642,0,0,1-12.14189,3.59474c-4.32763,2.872-9.4644-1.56625-12.25338-4.62249a40.60822,40.60822,0,0,0,1.07673,4.47794h0q.387,1.23108.88082,2.50345c3.93261,10.16631,12.3824,2.92281,17.73261-.42254a11.96446,11.96446,0,0,0,4.79272-5.71855Z" style="fill: #fff;opacity: 0.85"/>
        </g>
        <g>
          <path id="Shape-6" data-name="Shape" d="M50.01328,10.96047a6.2664,6.2664,0,0,0-.60686-.81172,2.94,2.94,0,0,0-.68013-.56709,2.98157,2.98157,0,0,0-.82985-.33358,4.42353,4.42353,0,0,0-1.04169-.11119,3.86492,3.86492,0,0,0-1.76641.38759,3.48375,3.48375,0,0,0-1.27424,1.11194,5.28436,5.28436,0,0,0-.79162,1.75369,9.21793,9.21793,0,0,0-.266,2.30172,9.26234,9.26234,0,0,0,.266,2.30489,5.21924,5.21924,0,0,0,.78207,1.74733A3.50125,3.50125,0,0,0,45.0788,19.856a3.86011,3.86011,0,0,0,1.76641.38759,3.76257,3.76257,0,0,0,1.97825-.47655,4.22743,4.22743,0,0,0,1.373-1.41058l1.91136,1.26285a6.80109,6.80109,0,0,1-1.00506,1.29938,6.086,6.086,0,0,1-1.064.807,5.75526,5.75526,0,0,1-1.38255.583,6.53279,6.53279,0,0,1-1.803.22874,6.2003,6.2003,0,0,1-1.95118-.28593,5.69054,5.69054,0,0,1-2.84-2.03167,7.16278,7.16278,0,0,1-.90949-1.55354,9.434,9.434,0,0,1-.54314-1.80293,10.97151,10.97151,0,0,1-.20229-2.17464,10.51,10.51,0,0,1,.45236-3.16744,7.44615,7.44615,0,0,1,1.29016-2.46692,5.89063,5.89063,0,0,1,2.03241-1.61708A6.03772,6.03772,0,0,1,46.85158,6.859a6.15344,6.15344,0,0,1,3.12666.73229,5.55718,5.55718,0,0,1,2.05471,2.09839Z" style="fill: #fff"/>
          <polygon id="Shape-7" data-name="Shape" points="58.489 26.32 56.117 26.32 57.777 22.08 53.575 10.894 56.032 10.894 58.899 19.487 61.867 10.894 64.239 10.894 58.489 26.32" style="fill: #fff"/>
          <polygon id="Shape-8" data-name="Shape" points="66.406 22.299 66.406 7.637 68.649 6.46 68.649 22.299 66.406 22.299" style="fill: #fff"/>
          <path id="Shape-9" data-name="Shape" d="M81.13657,16.36133q0,.30817-.02075.57344c-.01434.17632-.02867.3177-.043.44478H73.50862a4.78522,4.78522,0,0,0,.36157,1.41693,3.22712,3.22712,0,0,0,.64827.97057,2.40727,2.40727,0,0,0,.86807.5655,2.84841,2.84841,0,0,0,1.00505.18109,3.69868,3.69868,0,0,0,.70242-.06354,3.19986,3.19986,0,0,0,.63711-.19062,5.02792,5.02792,0,0,0,.53677-.26051,7.231,7.231,0,0,0,.60686-.39712l1.33,1.42964a5.59754,5.59754,0,0,1-.81392.65287,5.913,5.913,0,0,1-.841.44478,4.737,4.737,0,0,1-1.02736.30181,7.00446,7.00446,0,0,1-1.26627.10643,4.59147,4.59147,0,0,1-2.54847-.74818,5.0424,5.0424,0,0,1-.89834-.76406,5.29258,5.29258,0,0,1-.76135-1.104,6.02594,6.02594,0,0,1-.5527-1.50589,8.11673,8.11673,0,0,1-.19114-1.81882,8.16519,8.16519,0,0,1,.37112-2.55111,5.32048,5.32048,0,0,1,1.02576-1.86647,4.27635,4.27635,0,0,1,1.5928-1.14053,5.21278,5.21278,0,0,1,2.02444-.39553,4.62949,4.62949,0,0,1,2.12638.47655,4.34725,4.34725,0,0,1,1.50042,1.24061,5.4155,5.4155,0,0,1,.89356,1.81882A7.94785,7.94785,0,0,1,81.13657,16.36133ZM78.87,15.53373a4.80315,4.80315,0,0,0-.20707-1.104,2.70756,2.70756,0,0,0-.489-.91179,2.29292,2.29292,0,0,0-.8187-.6211,2.81792,2.81792,0,0,0-1.18663-.22874,2.57367,2.57367,0,0,0-1.04169.19856,2.18656,2.18656,0,0,0-.76614.55756,2.96716,2.96716,0,0,0-.52562.88638,4.68,4.68,0,0,0-.28192,1.22472Z" style="fill: #fff"/>
          <path id="Shape-10" data-name="Shape" d="M89.86983,13.259a3.30527,3.30527,0,0,0-.75976-.30817,3.75272,3.75272,0,0,0-.95568-.10643,1.99563,1.99563,0,0,0-1.6597.73706,3.49739,3.49739,0,0,0-.58455,2.20164v6.51279H83.66748V10.89376h2.24425v1.08176a2.60106,2.60106,0,0,1,.46828-.52579,3.41538,3.41538,0,0,1,.61164-.41936,3.27209,3.27209,0,0,1,.71835-.28116,3.16987,3.16987,0,0,1,.80914-.10008,4.36441,4.36441,0,0,1,1.14841.12708,2.84069,2.84069,0,0,1,.7964.34947Z" style="fill: #fff"/>
          <path id="Shape-11" data-name="Shape" d="M95.17384,7.9773a1.33751,1.33751,0,0,1-.11627.55756,1.51109,1.51109,0,0,1-.76454.76724,1.35064,1.35064,0,0,1-.55907.116,1.38418,1.38418,0,0,1-.56385-.116,1.49413,1.49413,0,0,1-.46191-.3177,1.51543,1.51543,0,0,1-.31856-.4559,1.33761,1.33761,0,0,1-.11627-.55756,1.37569,1.37569,0,0,1,.11627-.56232,1.4857,1.4857,0,0,1,.77729-.77518,1.389,1.389,0,0,1,.56385-.116,1.35545,1.35545,0,0,1,.55907.116,1.53549,1.53549,0,0,1,.45713.3177,1.5152,1.5152,0,0,1,.31856.46225,1.37552,1.37552,0,0,1,.10831.56391Zm-2.574,14.32179V10.89376h2.24425V22.2975Z" style="fill: #fff"/>
          <path id="Shape-12" data-name="Shape" d="M104.43118,22.29909V21.17444a5.70725,5.70725,0,0,1-.72313.58933q-.28671.18585-.59571.34947a3.95675,3.95675,0,0,1-.78206.297,3.83248,3.83248,0,0,1-1.03691.13184,4.9676,4.9676,0,0,1-1.39847-.2065,3.61574,3.61574,0,0,1-1.27424-.66875,3.50869,3.50869,0,0,1-.93019-1.193,3.98737,3.98737,0,0,1-.37112-1.78228,3.66728,3.66728,0,0,1,.34564-1.64885,3.179,3.179,0,0,1,.95568-1.15165,4.14634,4.14634,0,0,1,1.44626-.67352A7.14769,7.14769,0,0,1,101.87,15a8.02824,8.02824,0,0,1,1.52112.12231,4.65861,4.65861,0,0,1,1.03213.3177V14.5854a1.82065,1.82065,0,0,0-.5527-1.42964,2.33379,2.33379,0,0,0-1.59757-.50037,6.91,6.91,0,0,0-1.5928.17,5.45135,5.45135,0,0,0-1.38255.54167l-.87285-1.687a6.68468,6.68468,0,0,1,1.76163-.77042,8.12013,8.12013,0,0,1,2.15028-.26687,6.183,6.183,0,0,1,1.75207.23351,3.681,3.681,0,0,1,1.35388.71958,3.23625,3.23625,0,0,1,.87763,1.19931,4.20561,4.20561,0,0,1,.31856,1.687v7.81853Zm0-4.86871a4.71172,4.71172,0,0,0-.575-.22874c-.17043-.05242-.34723-.09849-.532-.1382a6.1925,6.1925,0,0,0-.6658-.09531q-.38864-.03654-.84577-.03654a2.8897,2.8897,0,0,0-1.71863.4559,1.45069,1.45069,0,0,0-.63712,1.24061,1.88592,1.88592,0,0,0,.18158.86414,1.73538,1.73538,0,0,0,.45713.57821,1.87187,1.87187,0,0,0,.65464.33358,3.24494,3.24494,0,0,0,.90949.11119,2.92055,2.92055,0,0,0,.8617-.12708,3.81831,3.81831,0,0,0,.77729-.33358,3.69788,3.69788,0,0,0,.64827-.467,3.39015,3.39015,0,0,0,.47784-.52579Z" style="fill: #fff"/>
          <path id="Shape-13" data-name="Shape" d="M116.63519,22.29909V15.84825a4.08522,4.08522,0,0,0-.5527-2.33984,2.0452,2.0452,0,0,0-1.79827-.79424,2.56886,2.56886,0,0,0-1.00028.19062,1.84211,1.84211,0,0,0-.76614.59727,2.58133,2.58133,0,0,0-.446.95309,4.75336,4.75336,0,0,0-.13858,1.1723v6.67164H109.689V10.89376h2.24425v1.08176a2.65263,2.65263,0,0,1,.51767-.556,3.16606,3.16606,0,0,1,.68013-.41936,3.82986,3.82986,0,0,1,.79639-.26051,4.208,4.208,0,0,1,.87285-.09054,4.42733,4.42733,0,0,1,1.79189.33517,3.31218,3.31218,0,0,1,1.26628.95309,4.22218,4.22218,0,0,1,.76135,1.58849,8.7238,8.7238,0,0,1,.25486,2.23818v6.535Z" style="fill: #fff"/>
        </g>
      </g>
    </g>
  </g>
</svg>
