<svg xmlns="http://www.w3.org/2000/svg" viewBox="0 0 210.24394 193.83442">
  <title>endopoint_detection_hover</title>
  <g id="Layer_2" data-name="Layer 2">
    <g id="Layer_10" data-name="Layer 10">
      <g>
        <path d="M83.38921,141.41548H61.6682l-.90764-5.46665c-.26-1.5515-.51811-3.0926-.762-4.63276-1.04379-.43113-2.11783-.88968-3.23726-1.38321q-1.73728,1.17-3.48875,2.32867L51.634,133.35164c-.18342.122-.35928.23353-.52473.33753l-2.773,1.768-15.012-15.01486,2.28423-3.48119c.40749-.62211.82255-1.25652,1.24234-1.88808l.87171-1.3019q.50771-.7559,1.01164-1.51368a27.48912,27.48912,0,0,1-1.54488-3.47929c-1.66117-.28931-3.23064-.54931-4.76039-.78851-3.75821-.58713-5.131-2.202-5.12912-5.96964l.00567-16.21559,8.75024-1.07783a7.03991,7.03991,0,0,1,.95775-.13236,24.11618,24.11618,0,0,1,1.28394-3.09449c.00662-.01418.01324-.02931.0208-.04349-.9067-1.37943-1.81812-2.74751-2.72009-4.09952l-2.75318-4.13828L48.06964,58.01073l2.6766,1.95994q.87219.63819,1.769,1.282c1.22532.8859,2.48467,1.79448,3.73646,2.74751,1.10335-.52189,2.19441-.97193,3.26846-1.39455.24487-1.53637.50109-3.0718.76015-4.61952L61.168,52.632H82.53829l.537,4.68665c.1352,1.178.27135,2.36082.40182,3.54359l.01135.10022q.09786.88353.191,1.76612c1.0003.41884,2.01289.85753,3.05006,1.3227q1.67914-1.24234,3.36868-2.47238l4.9476-3.57573L110.30742,73.295,104.62236,81.08c-.13615.18436-.27324.36873-.40938.55309.46895,1.10241.91993,2.13958,1.35957,3.12664,2.1859.37913,4.125.70153,6.0916.99462a4.54043,4.54043,0,0,1,4.09574,4.7585c-.02458,4.17043-.02458,8.45525-.00189,13.09936a4.596,4.596,0,0,1-3.93312,4.70745c-1.04852.19-2.097.40088-3.14555.61171q-.75306.15175-1.50517.30066c-.4472,1.08444-.91615,2.1774-1.40117,3.2694.94452,1.27354,1.87863,2.5518,2.80518,3.81966l3.26468,4.45785-15.33537,15.273-6.79124-4.95043q-.6623-.4836-1.32364-.96815a24.60278,24.60278,0,0,1-3.36111,1.4995c-.26189,1.5203-.51622,3.04722-.77339,4.58832Zm-15.15762-7.74521h8.59991c.29026-1.73776.58146-3.46039.88684-5.18112a4.80829,4.80829,0,0,1,3.46889-3.7913,17.73914,17.73914,0,0,0,4.96556-2.19536,4.68,4.68,0,0,1,5.39291.31767c.89819.68451,1.81623,1.353,2.73333,2.02234l1.4475,1.05608,5.93655-5.91291c-1.01448-1.387-2.03841-2.78249-3.07747-4.1657a4.79915,4.79915,0,0,1-.485-5.14425c.84524-1.84838,1.64416-3.7081,2.37311-5.52716a5.00252,5.00252,0,0,1,3.84992-3.25617c.94641-.17586,1.88808-.36495,2.82882-.554.28364-.05673.56728-.1144.85-.17018-.00851-2.81653-.00851-5.512,0-8.14514-1.75288-.28364-3.4878-.58429-5.14425-.87455a4.85919,4.85919,0,0,1-3.65231-2.66525c-.88306-1.93441-1.79921-4.03806-2.79762-6.42535a4.84306,4.84306,0,0,1,.4784-4.48621c.48218-.711.99841-1.40874,1.51557-2.10649l1.74721-2.3854-5.91764-5.929Q92.1385,69.681,90.05754,71.22827a4.7938,4.7938,0,0,1-5.0828.53419c-1.97412-.91142-3.82912-1.716-5.66615-2.45631a4.83375,4.83375,0,0,1-3.18242-4.2073c-.09455-1.09673-.21557-2.19252-.33658-3.28737l-.0104-.09927q-.07375-.668-.15033-1.335H67.73333c-.27418,1.64794-.54364,3.28358-.79513,4.923a4.90953,4.90953,0,0,1-3.27886,4.00592,49.79779,49.79779,0,0,0-4.84265,2.063A5.52954,5.52954,0,0,1,52.432,70.835c-1.16008-.90859-2.37405-1.79921-3.57195-2.66714l-6.05,6.04338c.96059,1.44372,1.92779,2.90256,2.88176,4.36992a4.94114,4.94114,0,0,1,.4056,4.46257c-.24487.59375-.52189,1.18277-.79986,1.7699a16.01769,16.01769,0,0,0-.94546,2.26911c-1.39928,4.924-5.02418,5.3844-6.91037,5.26527-.16924.0312-.33753.06051-.50488.08036L35.0497,92.66l-.00378,7.9031c1.70939.277,3.44809.57579,5.305.91048a4.69713,4.69713,0,0,1,3.73551,3.3838,20.50493,20.50493,0,0,0,2.28707,5.21516,4.84372,4.84372,0,0,1-.15789,4.889c-.67033,1.05324-1.36714,2.09041-2.06394,3.12853l-.85091,1.2707c-.01418.0208-.02742.0416-.0416.06335l6.12186,6.12375c1.41441-.93979,2.82882-1.88147,4.23188-2.83733a4.97584,4.97584,0,0,1,5.0081-.42735c1.99209.89535,3.814,1.67347,5.56593,2.37689a5.03585,5.03585,0,0,1,3.25238,4.09857C67.68794,130.39424,67.9574,132.02705,68.23158,133.67026ZM55.4395,129.34478l.00473.00189Zm-16.4652-20.24893.00567.00095Zm71.46925-8.39758-.00473.00095ZM106.2495,86.262l.00473.00945Zm-69.4819-.91142Zm66.534-2.4374-.00662.00851Zm-64.107-.11535.00567.00945Zm64.3575-2.73144.00284.00662ZM88.22146,64.73106l.00567.00189ZM71.54921,115.7916h-.13142a18.8561,18.8561,0,0,1-13.44161-5.53567,19.29211,19.29211,0,0,1-5.42505-13.84249A18.65067,18.65067,0,0,1,71.4764,77.80111c.05389,0,.10778.00095.16167.00095H71.639a18.93992,18.93992,0,0,1,13.53427,5.5924A19.13339,19.13339,0,0,1,90.5,97.06865,18.72123,18.72123,0,0,1,71.54921,115.7916Zm-.07375-30.24528A10.86,10.86,0,0,0,60.29633,96.47679a11.60769,11.60769,0,0,0,3.1966,8.34274,11.16547,11.16547,0,0,0,7.974,3.22686A10.96491,10.96491,0,0,0,82.7548,97.0053a11.44641,11.44641,0,0,0-3.12-8.1962,11.25334,11.25334,0,0,0-8.05816-3.26184C71.54353,85.54727,71.50855,85.54632,71.47546,85.54632Z" style="fill: #595b5d"/>
        <g>
          <g>
            <path d="M187.03012,102.41215q0,20.21489-.00969,40.43c0,6.98034-1.56852,7.60008-6.05095,7.60954H79.03276q-30.19186,0-60.39342-.00945c-1.0939,0-2.22656,0-3.29162-.1066-2.062-.20327-3.27224-.95846-3.78562-4.35668a22.41828,22.41828,0,0,1-.13544-3.098l.00969-.43586q-.01454-44.59785-.00969-89.19569V30.94314c0-7.18361,1.67488-7.8615,6.12848-7.8615h121.929a33.05645,33.05645,0,0,1,3.00136-12.30517c.04845-.09667.087-.19358.13544-.29026-43.24726,0-85.51691.01938-126.07267.05815C6.402,10.55381.06057,17.93124.01211,29.79109-.00727,34.71883.00242,39.64681.00242,44.57479V76.34935q0,33.692.00969,67.39314c0,9.85572,4.27939,16.66185,11.71473,18.6563a24.56777,24.56777,0,0,0,6.69953.61006h.59068q23.72917.02907,47.4685.01938H99.04438l2.70118-.05815h20.35057q29.49482.01418,59.00879-.00969c7.89034-.00969,17.301-3.50482,17.32036-20.07.00945-13.0119.02884-26.45942.02884-40.47824Zm-4.8313-79.30121c-.05791-.14536-.10636-.27135-.16451-.40678a6.862,6.862,0,0,0-4.43421-4.09526,7.76358,7.76358,0,0,0-2.401-.42593,6.11814,6.11814,0,0,0-3.15595.91,6.78393,6.78393,0,0,0-3.45637,3.98866h12.32455C181.36634,23.08163,181.802,23.09156,182.19882,23.11094Z" style="fill: #595b5d"/>
            <path d="M153.03821,183.11738a11.03147,11.03147,0,0,0-4.90859-1.36525c-3.67879-.19358-7.3675-.11629-11.04652-.03876-1.75241.03876-2.65273-.54222-2.856-1.97507.00969-.02884.03876-.3484.07753-1.18112.12575-2.67211-.794-3.553-3.50482-3.54335q-30.54039.13047-61.08077-.01938c-2.80755-.00969-3.49489.94877-3.38853,3.56273.02907.65828.04845,1.07475.05815,1.33617v1.30686c-2.275.15506-4.28885.35833-6.31237.41624-2.9626.09691-5.93466-.03853-8.89726.16475-3.45637.242-6.11878,2.769-6.28329,5.64416-.15506,2.81747,2.01383,5.31538,5.4312,6.09964a15.46549,15.46549,0,0,0,3.34977.29995q46.50035.01454,93.01039-.04845a13.97407,13.97407,0,0,0,6.16724-1.365A5.25757,5.25757,0,0,0,153.03821,183.11738Zm-18.86927-4.29877c.07753-2.86569.00969.30018.03876.84241A5.71988,5.71988,0,0,1,134.16895,178.8186Z" style="fill: #595b5d"/>
          </g>
          <path d="M175.38994,91.811q-14.22585-.00017-28.4517-.00236a5.82674,5.82674,0,0,1-5.72455-3.46491,7.02756,7.02756,0,0,1-.60608-2.85476q-.05547-22.12547-.02112-44.25114a5.85616,5.85616,0,0,1,4.45879-6.09358,15.66278,15.66278,0,0,1,3.55749-.26215c1.35-.03939,1.34152-.00919,1.35283-1.37622.02706-3.27232.01737-6.54587.11036-9.81643a22.33162,22.33162,0,0,1,2.08535-8.56258A25.24454,25.24454,0,0,1,163.0934,3.18042,24.655,24.655,0,0,1,175.5081.001a24.93632,24.93632,0,0,1,16.1047,5.87276,25.05186,25.05186,0,0,1,7.59162,10.706,26.66959,26.66959,0,0,1,1.60985,9.30557c.01233,2.76958.01678,5.53939-.00888,8.30879-.00515.55612.15975.74126.71472.70955.75289-.043,1.51011-.01366,2.26545-.00964a6.12668,6.12668,0,0,1,6.45532,6.43714c.0061,1.154.00115,2.308.00115,3.462q0,20.20574.00028,40.41149a6.54248,6.54248,0,0,1-1.24823,4.19722,6.15792,6.15792,0,0,1-5.15278,2.41186q-12.87233-.0104-25.74467-.00269Q176.74329,91.81107,175.38994,91.811Zm-27.17573-7.66326h.84625q26.341,0,52.68207-.00022c.82746,0,.82851-.00134.82853-.80742q.00035-19.95247.00008-39.90493c0-.89371-.00071-.89473-.87528-.89474q-26.30955-.00032-52.6191,0c-.86109,0-.86239.0011-.86241.84733q-.00039,19.98394-.00015,39.96788Zm27.12524-49.28655c5.7058,0,11.41162-.00636,17.11737.01059.52638.00156.73111-.09927.72479-.68384-.03106-2.87355-.00682-5.74763-.01683-8.62147A17.77822,17.77822,0,0,0,180.899,8.53537a16.85648,16.85648,0,0,0-14.15467,1.37994c-6.06072,3.49735-9.05855,8.8811-9.13622,15.874-.03075,2.76865.01154,5.53811-.01835,8.30677-.00639.5925.1403.78138.75822.77882C164.01172,34.85157,169.67561,34.86119,175.33945,34.86114Z" style="fill: #595b5d"/>
          <path d="M179.16832,69.71064c-.00076,1.76173.05851,3.52594-.01672,5.28441a3.77844,3.77844,0,0,1-7.53011-.02666q-.10678-5.28293.00224-10.56941a3.77827,3.77827,0,0,1,7.52951.0272C179.22842,66.18466,179.16909,67.9489,179.16832,69.71064Z" style="fill: #595b5d"/>
        </g>
      </g>
    </g>
  </g>
</svg>
