<svg xmlns="http://www.w3.org/2000/svg" viewBox="0 0 180.86029 178.61209">
  <title>endpoint_managment</title>
  <g id="Layer_2" data-name="Layer 2">
    <g id="Layer_10" data-name="Layer 10">
      <g>
        <path d="M180.85425,81.07047a8.59406,8.59406,0,0,0-7.637-8.64795c-4.45288-.59924-8.98389-1.10937-13.36548-1.60266l-.18042-.02039a67.32689,67.32689,0,0,0-6.6748-15.77637q4.151-5.11469,8.25488-10.26978a8.59134,8.59134,0,0,0-.6062-11.74048c-4.00977-3.99878-8.22729-8.14551-12.53662-12.32275a8.952,8.952,0,0,0-5.47119-2.50562,8.43928,8.43928,0,0,0-7.04224,1.46558c-3.44409,2.55908-6.84424,5.27246-10.13257,7.89648l-.40747.32361a70.193,70.193,0,0,0-7.60547-3.58606,71.63218,71.63218,0,0,0-7.77026-2.78394c-.52173-4.75-1.02661-8.99585-1.54126-12.95679A8.62932,8.62932,0,0,0,103.991,2.15274,9.48873,9.48873,0,0,0,98.04785.14285Q89.71106.0687,81.37524.0004c-5.14551-.041-8.69409,3.08374-9.26074,8.155l-.1001.90222c-.44043,3.93481-.88062,7.86975-1.30078,11.89a67.219,67.219,0,0,0-15.85034,6.453c-3.166-2.54028-6.90234-5.517-10.79907-8.50537a8.61889,8.61889,0,0,0-11.44629.75647L20.39282,31.88492a8.71205,8.71205,0,0,0-2.59033,5.59766,8.82662,8.82662,0,0,0,1.99658,7.51563l.56738.70874c2.42163,3.032,4.84521,6.06519,7.33716,9.14075a69.12648,69.12648,0,0,0-3.59692,7.68164,66.3835,66.3835,0,0,0-2.67993,7.5365q-4.4458.46948-8.887.96558l-3.59717.39478a8.84744,8.84744,0,0,0-7.00415,4.12146A8.68607,8.68607,0,0,0,0,81.05582L.00562,98.35025a8.81536,8.81536,0,0,0,8.27319,8.85559c2.77417.28333,5.54614.6073,8.31665.93005q2.29431.26917,4.5918.5293a68.67711,68.67711,0,0,0,6.67139,15.798q-2.87476,3.55188-5.7251,7.12073l-2.2644,2.82275c-3.28516,4.09253-3.02222,8.72925.70508,12.40308l11.62939,11.4762a9.88394,9.88394,0,0,0,5.9082,2.98157,8.68253,8.68253,0,0,0,7.502-1.65674c3.90894-3.04614,7.14136-5.594,10.16284-8.00916a69.25545,69.25545,0,0,0,9.41333,4.295c.06592.0271.1272.05347.1936.08069a5.89272,5.89272,0,0,0,.8623.2948c1.613.56567,3.24756,1.08118,4.90625,1.53076.33643,3.03149.70386,6.05981,1.07007,9.08691l.44336,3.66589a8.77742,8.77742,0,0,0,9.16748,8.05408l2.89355.00122q3.82031,0,7.64038.0011,3.41895,0,6.83789-.00232a8.76112,8.76112,0,0,0,8.95068-7.77759c.61987-4.99878,1.11035-9.14111,1.54443-13.04053,1.65527-.4541,3.35205-1.00146,5.20068-1.67542.062.03162.11914.0675.18652.09436a3.4511,3.4511,0,0,0,2.99731-.42163,4.48271,4.48271,0,0,1,.42651-.209,58.2525,58.2525,0,0,0,7.46533-3.50977c4.07813,3.28784,7.43433,5.95776,10.54858,8.38892a8.781,8.781,0,0,0,11.73438-.68225q6.12451-6.10767,12.23145-12.23157a8.59393,8.59393,0,0,0,.71484-11.515c-2.72485-3.57251-5.56812-7.13708-8.31763-10.58411l-.113-.14185a67.35453,67.35453,0,0,0,4.80688-10.61108c.7251-1.791,1.33154-3.53625,1.84814-5.28833,4.29468-.44751,8.58838-.92261,12.87964-1.40088a8.70228,8.70228,0,0,0,6.64795-4.14465,8.81486,8.81486,0,0,0,1.89673-5.49109Q180.86633,89.71878,180.85425,81.07047ZM141.63379,148.7316q-3.0824-2.50049-6.18774-4.97314l-2.18115-1.74536c-.47656-.37109-.9563-.73755-1.4375-1.10388-1.17578-.89636-2.28662-1.74231-3.34741-2.66418a2.7943,2.7943,0,0,0-3.751-.17712,54.95019,54.95019,0,0,1-8.10083,4.62073,5.23908,5.23908,0,0,0-3.021.61426,58.43944,58.43944,0,0,1-12.96924,3.8374,2.91,2.91,0,0,0-2.69043,2.87256c-.10107,1.3396-.29736,2.66357-.50635,4.06543-.0874.58569-.17456,1.17261-.25952,1.79907l-.32251,2.8645c-.28613,2.52271-.5708,5.04639-.84766,7.58582-3.69482-.02136-7.39917-.02039-11.14478-.00452-.05151-.438-.11011-.87585-.1687-1.31262-.085-.62537-.16992-1.25061-.22754-1.87805-.085-.9165-.21-1.82849-.33521-2.74048a33.06468,33.06468,0,0,1-.41089-4.37915l-.00244-.60388-.21924-.26978c-.00684-.12415-.01514-.24719-.02979-.36792-.062-.51355-.13574-1.026-.21021-1.53943a28.90608,28.90608,0,0,1-.33423-3.07007,3.09932,3.09932,0,0,0-2.93848-3.0564,65.27606,65.27606,0,0,1-8.14673-2.02148c-.72729-.23645-1.45264-.49255-2.17651-.76147-.22656-.10669-.46558-.21375-.73169-.32275a58.43324,58.43324,0,0,1-11.88428-6.45728,3.45461,3.45461,0,0,0-1.738-.68237,2.81186,2.81186,0,0,0-2.71851.55908c-.50659.3894-1.00244.79126-1.49854,1.19312a31.80122,31.80122,0,0,1-3.25635,2.4187l-.24927.15344-.186.22571c-.03662.04407-.07227.09143-.11816.15356L44.77,143.515q-2.49866,1.93652-4.9895,3.8894-3.68555-3.72327-7.446-7.44971c.27319-.34619.5415-.69727.80884-1.04749.38208-.50232.76416-1.00452,1.16724-1.48889.58813-.708,1.14429-1.44141,1.70068-2.1748a33.1259,33.1259,0,0,1,2.80591-3.38721l.42529-.42859.03564-.34583c.083-.09265.16431-.1853.23926-.28125.31934-.407.62964-.82129.93994-1.2373a28.96628,28.96628,0,0,1,1.93457-2.407,3.09932,3.09932,0,0,0,.0835-4.239,65.271,65.271,0,0,1-4.3313-7.18994,62.09763,62.09763,0,0,1-5.5603-16.55176,2.83839,2.83839,0,0,0-2.6311-2.47925c-.63354-.08276-1.26831-.14941-1.90308-.21606a31.7707,31.7707,0,0,1-4.01294-.59229l-.28491-.06763-.291.02808c-.05713.00513-.11572.01343-.19214.0249l-3.15894-.39917c-2.27563-.28833-4.55054-.57764-6.834-.84668l-.001-.19885c-.02148-3.39941-.04443-6.80359-.09229-10.2616a6.72433,6.72433,0,0,0,.83984-.05835l.13794-.0293c1.208-.1106,2.41235-.26306,3.61694-.4165,1.80518-.22913,3.51123-.4447,5.24634-.5271l.29614-.03833a36.76313,36.76313,0,0,1,4.3772-.5813c.45361-.04175.906-.0835,1.3562-.12988a3.07255,3.07255,0,0,0,2.49048-1.43457A3.37216,3.37216,0,0,0,32.49,79.01493a58.36169,58.36169,0,0,1,3.35864-11.93616,61.33742,61.33742,0,0,1,6.137-10.88525,3.10554,3.10554,0,0,0,.64917-1.9165,2.80685,2.80685,0,0,0-.739-2.61792c-.91968-1.06812-1.76636-2.17969-2.66357-3.3562-.36719-.48218-.73364-.96338-1.12109-1.46094l-1.71436-2.14062c-1.49268-1.86572-2.9895-3.73242-4.51294-5.61353q3.71338-3.66064,7.425-7.34131,3.21753,2.53784,6.45093,5.05981l1.91772,1.5c.43848.33179.88281.65808,1.32715.98315,1.01636.74487,1.9751,1.448,2.86719,2.22229a3.65082,3.65082,0,0,0,4.92261.31042,59.69594,59.69594,0,0,1,23.64819-9.52148,2.58844,2.58844,0,0,0,2.41919-2.65576,5.37834,5.37834,0,0,1,.09546-.79346c.02637-.16016.05273-.31934.07568-.47974l.65918-4.73242.0127-.123c.16162-2.44922.48218-4.948.79224-7.3645.12622-.98413.25244-1.96851.36963-2.95483l1.68457.0022c2.92627.00317,5.85669.00513,8.80249-.0105q.44714,3.76538.91016,7.53113l.29541,2.41663c.07544.5448.15918,1.0896.24341,1.63379.19189,1.24524.37256,2.42041.45581,3.59875A3.87859,3.87859,0,0,0,98.448,31.11441a2.92072,2.92072,0,0,0,2.03027,1.19983,64.2252,64.2252,0,0,1,8.27661,2.01917q1.99548.64014,3.96289,1.43445a61.07521,61.07521,0,0,1,11.25659,6.29041,2.90547,2.90547,0,0,0,1.98975.61255,3.15233,3.15233,0,0,0,2.54517-.77979c1.08374-.87476,2.20117-1.70874,3.31836-2.54407l3.87183-2.98865q2.68762-2.10516,5.36694-4.22363l.73413.73608c2.22485,2.22961,4.44873,4.46155,6.70752,6.69141q-2.33789,2.92474-4.66675,5.85693l-1.84985,2.32568L140.93262,49.133c-.87476,1.15405-1.77881,2.34729-2.70679,3.46875a2.75144,2.75144,0,0,0-.09375,3.63354,64.20635,64.20635,0,0,1,4.4248,7.28,61.90122,61.90122,0,0,1,5.65527,16.55737,3.12669,3.12669,0,0,0,2.96924,2.75513c1.38477.14795,2.76465.34814,4.14526.54761l4.85107.62451c2.46582.2998,4.93237.60022,7.40112.88232l.06348,10.43884q-3.58887.3783-7.17529.78088l-2.77637.30811c-.59937.07458-1.19775.15479-1.79687.236-1.46533.19751-2.84888.38489-4.251.483a2.73715,2.73715,0,0,0-2.406,1.42969,3.31033,3.31033,0,0,0-.86523,1.81543,62.3017,62.3017,0,0,1-2.406,9.47583c-.38184.97192-.78394,1.93286-1.22021,2.8739a3.30518,3.30518,0,0,0-.28857,1.028,53.31881,53.31881,0,0,1-5.44751,9.85547,3.54372,3.54372,0,0,0,.333,4.73682c.28149.34863.56763.694.85474,1.04016a29.88072,29.88072,0,0,1,2.33911,3.07483l.175.23254c1.49561,1.68713,2.92017,3.517,4.29736,5.28528.77881.99915,1.55688,1.99756,2.373,3.00671C146.47144,143.85977,144.00293,146.32974,141.63379,148.7316Z" style="fill: #595b5d"/>
        <path d="M142.92432,99.85587C145.83521,83.98014,142.303,69.637,132.42822,57.225a52.02,52.02,0,0,0-16.65088-13.91125,50.28539,50.28539,0,0,0-36.08716-5.9071c-13.561,2.78271-24.29053,9.69312-31.97607,20.56592a50.01432,50.01432,0,0,0-9.81055,22.0459c-2.8833,15.60718.65552,29.80469,10.51563,42.19873a54.02837,54.02837,0,0,0,41.95,20.09473,55.8576,55.8576,0,0,0,6.54346-.40356,6.62849,6.62849,0,0,0,3.84106.27991c15.80664-3.26575,27.77271-11.92664,35.56641-25.7406a53.46581,53.46581,0,0,0,5.499-13.87292A6.98506,6.98506,0,0,0,142.92432,99.85587ZM112.845,123.94144a41.42009,41.42009,0,0,1-10.73389,4.97485,8.0712,8.0712,0,0,0-3.09912.10437,41.16368,41.16368,0,0,1-40.719-14.4613,8.33013,8.33013,0,0,0-1.063-2.11267,41.17064,41.17064,0,0,1-.41064-45.62476,41.20808,41.20808,0,0,1,55.68213-10.87671c.38892.24536.76514.50562,1.144.76257a42.85227,42.85227,0,0,1,9.58179,9.70154,41.11191,41.11191,0,0,1,6.79419,31.09009A39.90476,39.90476,0,0,1,112.845,123.94144Z" style="fill: #595b5d"/>
      </g>
    </g>
  </g>
</svg>
