<svg xmlns="http://www.w3.org/2000/svg" viewBox="0 0 217.48913 217.48913">
  <title>enrichments</title>
  <g id="Layer_2" data-name="Layer 2">
    <g id="Layer_10" data-name="Layer 10">
      <g>
        <rect width="217.48913" height="217.48913" style="fill: none"/>
        <path d="M189.13693,77.70878a279.78864,279.78864,0,0,0,5.5277-49.85,5.03433,5.03433,0,0,0-5.03433-5.03433,279.78852,279.78852,0,0,0-49.85,5.5277,243.6822,243.6822,0,0,0-27.58478,7.15211l-.17452.05706Q103.63049,38.3,96.032,41.55221a153.40949,153.40949,0,0,0-17.34159,8.72617,4.78242,4.78242,0,0,0-.47323.28528A113.7071,113.7071,0,0,0,55.77413,67.73074a66.45318,66.45318,0,0,0-3.41328,90.29241L24.29949,186.06774a5.03594,5.03594,0,1,0,7.1219,7.1219L59.466,165.14506a66.45317,66.45317,0,0,0,90.28234-3.4267,113.91515,113.91515,0,0,0,17.1805-22.433,4.78184,4.78184,0,0,0,.28528-.47323,153.40463,153.40463,0,0,0,8.72617-17.3416q3.25889-7.60184,6.00092-16.00917c.01678-.047.0302-.094.047-.141A243.21113,243.21113,0,0,0,189.13693,77.70878ZM141.5625,38.26312a287.59742,287.59742,0,0,1,42.88915-5.22564A287.54628,287.54628,0,0,1,179.226,75.92663a235.22293,235.22293,0,0,1-5.77941,22.90621H125.78826l29.273-29.283a5.03476,5.03476,0,0,0-7.11854-7.1219l-29.283,29.283V44.0526A234.93512,234.93512,0,0,1,141.5625,38.26312ZM159.82034,131.405H93.20271l22.50346-22.48668h54.3473A157.68563,157.68563,0,0,1,159.82034,131.405ZM108.591,47.43567V101.7796L86.08416,124.28306V57.66879A157.76253,157.76253,0,0,1,108.591,47.43567ZM46.37671,114.72455a56.00527,56.00527,0,0,1,16.516-39.87862,96.51845,96.51845,0,0,1,13.11947-10.901v70.4068l-16.52267,16.526A55.9415,55.9415,0,0,1,46.37671,114.72455Zm96.26649,39.87526a56.38451,56.38451,0,0,1-76.02848,3.39649L83.1374,141.47362h70.40345A96.8269,96.8269,0,0,1,142.6432,154.59981Z" style="fill: #595b5d;stroke: #595b5d;stroke-width: 3px"/>
      </g>
    </g>
  </g>
</svg>
