<svg xmlns="http://www.w3.org/2000/svg" viewBox="0 0 217.48913 217.48913">
  <title>extensible</title>
  <g id="Layer_2" data-name="Layer 2">
    <g id="Layer_10" data-name="Layer 10">
      <g>
        <path d="M184.76787,140.29368a7.69058,7.69058,0,0,0-8.75371-7.00627,7.79179,7.79179,0,0,0-6.85274,8.73342c.30172,2.68446.65649,5.363.95484,8.04782.41318,3.71591.79586,7.43509,1.252,11.72068-.94692-.899-1.4771-1.38039-1.98313-1.88612q-14.82563-14.81791-29.67423-29.61207c-1.118-1.10679-1.2516-1.82376-.4205-3.199a33.2903,33.2903,0,0,0,4.47485-24.50151c-.90614-4.4308-2.7392-8.67194-4.00288-12.53871,10.34821-10.40978,20.85776-20.98209,31.32713-31.51382-.61907,5.49245-1.25616,11.18931-1.90433,16.88488a7.86878,7.86878,0,0,0,6.55221,8.80281,7.76769,7.76769,0,0,0,9.018-6.94589q.9485-8.03956,1.84335-16.08565c.89723-8.04664,1.89107-16.08486,2.61982-24.14694.508-5.62163-3.09931-9.14709-8.73015-8.74124-3.96843.286-7.921.79725-11.87718,1.23982-9.58936,1.07263-19.18328,2.10726-28.76136,3.27294-4.36022.53077-7.05408,4.38319-6.52489,8.9501a7.73974,7.73974,0,0,0,8.39319,6.55043c2.55528-.22827,5.10244-.5482,7.65375-.82219,3.30976-.35547,6.62012-.70618,10.06332-1.073-10.75861,10.7209-21.30717,21.23233-31.987,31.87464a4.14394,4.14394,0,0,1-.57611-.25984c-12.403-6.83255-24.72681-6.715-36.92886.4886-1.06788.63055-1.61707.37883-2.39115-.39872C77.40309,67.93354,56.43328,46.8091,55.98783,46.24507c.61432,0,13.48712,1.401,19.59686,2.0546a7.76312,7.76312,0,0,0,8.6274-6.5c.58185-4.614-2.19041-8.41269-6.69238-9.00781-4.013-.53048-8.04238-.93781-12.06565-1.3886-9.1853-1.02918-18.38267-1.96105-27.55312-3.10911-6.0159-.7532-10.373,3.20523-9.586,9.74359,1.57985,13.129,2.97122,26.28053,4.482,39.418a7.7633,7.7633,0,0,0,8.97782,6.766A7.85258,7.85258,0,0,0,48.37565,75.64c-.15937-1.54491-2.22792-16.90775-1.99451-17.077,2.2013,2.55627,24.01083,24.6295,30.31359,30.843a2.05639,2.05639,0,0,1,.46643,2.92341,32.96149,32.96149,0,0,0-3.3941,22.559c.93148,4.42942,2.74692,8.673,4.06682,12.703-10.33316,10.32346-20.894,20.8742-31.25309,31.22359a7.46539,7.46539,0,0,1,.00772-1.1638c.57037-5.10115,1.13262-10.20359,1.75031-15.29909.55413-4.57236-2.32642-8.51534-6.68189-9.05255a7.70423,7.70423,0,0,0-8.89091,7.06438q-.46059,4.02253-.9093,8.04624c-1.17875,10.45888-2.4452,20.90874-3.50338,31.37979-.65312,6.46065,3.22483,10.12251,9.66519,9.40574q19.61834-2.18313,39.23093-4.41754c4.59978-.52365,7.478-4.28915,6.96183-9.0182a7.8999,7.8999,0,0,0-8.73015-6.64744c-2.88411.299-5.75615.71261-8.6367,1.04749-2.88986.33587-5.78347.63768-8.67551.95434q-.07988-.22332-.16-.44653c8.32252-8.40755,29.16028-29.20829,30.78844-30.817,1.50165-1.48383,3.28026-1.24656,4.74252.24945a8.58692,8.58692,0,0,0,3.093,2.11785,34.75081,34.75081,0,0,0,28.4444-1.81821,2.19552,2.19552,0,0,1,3.091.4593q13.55255,13.67846,27.21636,27.24645a30.70939,30.70939,0,0,0,2.44718,1.99758q-.21381.26653-.42783.53315a22.85263,22.85263,0,0,1-2.53884-.01356c-4.15611-.46752-8.30806-.97206-12.45942-1.48076-4.45406-.54582-8.53257,2.35681-9.06869,6.473a7.84848,7.84848,0,0,0,7.2087,9.199q19.41373,2.17378,38.82448,4.37666c6.6415.75142,10.44522-2.95558,9.81862-9.65569C188.84934,175.9063,185.54473,147.06149,184.76787,140.29368Zm-76.10238-11.64733A19.93793,19.93793,0,1,1,128.746,108.80351,19.96844,19.96844,0,0,1,108.66549,128.64635Z" style="fill: #fff"/>
        <rect width="217.48913" height="217.48913" style="fill: none"/>
      </g>
    </g>
  </g>
</svg>
