<svg xmlns="http://www.w3.org/2000/svg" viewBox="0 0 217.48913 217.48913">
  <title>feature_rich</title>
  <g id="Layer_2" data-name="Layer 2">
    <g id="Layer_10" data-name="Layer 10">
      <g>
        <path d="M108.746,126.98773a18.7537,18.7537,0,0,1-9.0332-2.44727Q77.07952,112.23138,54.40228,99.9887,42.20745,93.39251,30.01556,86.79144C23.912,83.4848,20.412,78.28265,20.41107,72.519c0-5.72949,3.46094-10.8916,9.49609-14.16113C50.76068,47.05511,75.35638,33.73577,99.663,20.641a30.06864,30.06864,0,0,1,4.7998-1.96c.52246-.17676,1.05273-.35449,1.58008-.55371l2.56738-.96875,2.58594.916c.50684.17969,1.00684.333,1.49512.48535a25.39959,25.39959,0,0,1,4.68066,1.833c22.60449,12.17969,46.30762,25,70.45312,38.10547,5.88184,3.19238,9.25488,8.30176,9.25293,14.01855-.002,5.7627-3.4248,10.92188-9.39258,14.15527q-12.5332,6.791-25.07422,13.57031-22.43848,12.13623-44.85547,24.30762A18.72018,18.72018,0,0,1,108.746,126.98773ZM35.6513,72.52874A6.32777,6.32777,0,0,0,37.16107,73.602Q49.34564,80.204,61.539,86.79534q22.68164,12.2666,45.34082,24.56836a3.13114,3.13114,0,0,0,3.709.00879q22.4209-12.19482,44.88672-24.32324Q168.00872,80.27,180.539,73.48382a5.41974,5.41974,0,0,0,1.333-.95508,5.38544,5.38544,0,0,0-1.20215-.84668c-24.13281-13.09863-47.82227-25.91113-70.41211-38.083a10.53589,10.53589,0,0,0-1.47461-.54395,14.731,14.731,0,0,0-2.00781.793c-24.29,13.08594-48.875,26.39941-69.72168,37.69727A6.3639,6.3639,0,0,0,35.6513,72.52874Z" style="fill: #fff"/>
        <g>
          <path d="M193.32065,108.77125a10.20233,10.20233,0,0,1-5.557,9.08249q-27.57391,16.08694-55.07519,32.29832c-6.25324,3.67111-12.52158,7.31694-18.75006,11.02962a9.69143,9.69143,0,0,1-10.65979-.02533q-36.887-21.7072-73.80521-43.36137c-6.81321-4.01115-7.37561-11.97684-1.32851-16.20035a3.83086,3.83086,0,0,1,4.80051-.12781c22.78185,13.45945,45.67646,26.72934,68.38472,40.31106,5.18,3.09815,9.4756,3.06617,14.64405-.02648,22.2208-13.29629,44.619-26.2961,66.95238-39.40426,4.10868-2.41152,7.23747-1.50244,9.33756,2.87626A18.84528,18.84528,0,0,1,193.32065,108.77125Z" style="fill: #fff"/>
          <path d="M108.65716,163.268a11.03014,11.03014,0,0,1-5.63281-1.68066q-17.86084-10.51172-35.73926-20.99609Q48.248,129.41741,29.21966,118.226c-3.51953-2.07227-5.61719-5.26855-5.75293-8.76855a9.624,9.624,0,0,1,4.3916-8.27344,4.31485,4.31485,0,0,1,5.34082-.14746q12.8833,7.61133,25.79883,15.168c13.98145,8.20117,28.44043,16.68164,42.58887,25.14453,5.00293,2.99316,9.09668,2.98535,14.13086-.02637,16.28711-9.74609,32.94336-19.49219,49.05078-28.918q8.95459-5.24121,17.90527-10.48926c2.18066-1.2793,4.13867-1.66895,5.82813-1.15234,1.69238.51758,3.11035,1.94531,4.21289,4.24414a13.64078,13.64078,0,0,1,.92188,2.94141c.06055.27051.11328.50488.16406.68457l.02344.08105-.00488.085a10.75436,10.75436,0,0,1-5.80371,9.48633c-13.82031,8.06348-27.84668,16.30371-41.41113,24.27246L127.665,153.67523q-6.74561,3.95068-13.4707,7.93652A10.7219,10.7219,0,0,1,108.65716,163.268Zm-78.084-62.085a3.72919,3.72919,0,0,0-2.14258.82129,8.64036,8.64036,0,0,0-3.96387,7.415c.12207,3.15234,2.03906,6.04883,5.26074,7.94531q19.02246,11.19873,38.06348,22.36426,17.874,10.49121,35.74121,20.99707a9.14248,9.14248,0,0,0,10.15039.02637q6.71777-4.00488,13.47754-7.93945l18.9375-11.11719c13.56543-7.96875,27.59277-16.21,41.41406-24.27344a9.71019,9.71019,0,0,0,5.30469-8.59863c-.04883-.18066-.09863-.40332-.15527-.65625a12.86486,12.86486,0,0,0-.84863-2.72754c-.97656-2.03711-2.18848-3.28809-3.60254-3.7207-1.40625-.42773-3.09961-.07324-5.03027,1.05957q-8.94873,5.25146-17.90625,10.48828c-16.10547,9.4248-32.75879,19.16992-49.042,28.91309-5.32812,3.18848-9.86133,3.19727-15.1582.02637-14.14453-8.46-28.60059-16.93945-42.58105-25.13965q-12.9082-7.57031-25.80078-15.16895A4.19818,4.19818,0,0,0,30.57318,101.183Z" style="fill: #fff"/>
        </g>
        <g>
          <path d="M108.77482,199.79641a29.80226,29.80226,0,0,1-5.00781-1.79473Q66.32918,176.12164,28.9718,154.10421c-6.5496-3.86737-6.69-11.97237-.57241-16.05435,1.70553-1.138,2.93655-.878,4.56629.08327,22.62832,13.34649,45.36762,26.50693,67.895,40.02087,5.43284,3.25913,9.8971,3.38952,15.387.0928,22.44042-13.47557,45.12379-26.54609,67.62174-39.92708,2.459-1.46249,4.0433-1.09475,5.97026.48806,5.09439,4.18457,4.49594,11.71655-1.3922,15.21618-11.81807,7.02412-23.70046,13.94-35.55645,20.90036-12.83042,7.53238-25.64423,15.09336-38.51135,22.56247A43.19033,43.19033,0,0,1,108.77482,199.79641Z" style="fill: #fff"/>
          <path d="M108.787,200.3305l-.17773-.0625c-.61035-.21289-1.20312-.38965-1.77441-.55957a14.88921,14.88921,0,0,1-3.32031-1.27539c-20.60645-12.043-47.73047-27.915-74.79688-43.89844a10.07427,10.07427,0,0,1-5.28223-8.37988,9.88567,9.88567,0,0,1,4.68652-8.52051c1.94629-1.29785,3.39258-.93652,5.09766.06836Q44.934,144.61224,56.67376,151.477c14.59668,8.55273,29.68945,17.39746,44.44336,26.248,5.34082,3.20215,9.65039,3.22949,14.873.09277,12.71582-7.63574,25.72168-15.26562,38.29883-22.64453,9.623-5.64551,19.57324-11.4834,29.32422-17.2832,2.83789-1.68848,4.66895-1.00781,6.54395.53125a9.58742,9.58742,0,0,1,3.6123,8.18652,10.01279,10.01279,0,0,1-5.06641,7.8457c-8.41406,5.001-17.002,10.03027-25.30664,14.89355q-5.127,3.00146-10.25293,6.00879l-9.19727,5.40332c-9.59766,5.6416-19.52246,11.47559-29.31543,17.16016a23.8027,23.8027,0,0,1-3.90234,1.67871c-.5957.21387-1.18848.42773-1.7666.66211ZM30.54388,137.79925a3.33971,3.33971,0,0,0-1.86719.667,8.905,8.905,0,0,0-4.24219,7.66113,9.09648,9.09648,0,0,0,4.791,7.5459c27.06543,15.98242,54.18848,31.85449,74.793,43.89648a14.23891,14.23891,0,0,0,3.10156,1.18066c.53027.15723,1.07813.32031,1.6416.5127.53418-.21191,1.08008-.40918,1.627-.60645a22.95152,22.95152,0,0,0,3.74023-1.60254c9.79-5.68262,19.71387-11.51562,29.31055-17.15625l9.19824-5.40527q5.124-3.00732,10.25391-6.00879c8.30273-4.8623,16.88965-9.89062,25.2998-14.88965a9.02569,9.02569,0,0,0,4.58105-7.0625,8.5957,8.5957,0,0,0-3.25-7.33691c-1.67383-1.376-3.03027-1.85449-5.39746-.44531-9.75391,5.80078-19.70605,11.63965-29.33008,17.28613-12.5752,7.37793-25.5791,15.00684-38.28906,22.63965-5.58984,3.35645-10.19531,3.33105-15.90234-.09277-14.751-8.84863-29.84082-17.69141-44.43457-26.24316q-11.73486-6.876-23.457-13.77539A4.34366,4.34366,0,0,0,30.54388,137.79925Z" style="fill: #fff"/>
        </g>
      </g>
      <rect width="217.48913" height="217.48913" style="fill: none"/>
    </g>
  </g>
</svg>
