<svg xmlns="http://www.w3.org/2000/svg" viewBox="0 0 217.49 217.49"><defs><style>.cls-1{fill:none;}.cls-2{fill:#f58524;stroke:#f58426;}</style></defs><title>File_Integrity_Monitoring_hover</title><g id="Layer_2" data-name="Layer 2"><g id="Layer_10" data-name="Layer 10"><rect class="cls-1" width="217.49" height="217.49"/><path class="cls-2" d="M159.91,186.58A13,13,0,0,1,147,199H32a13,13,0,0,1-13-13V31.46a13,13,0,0,1,13-13h9.48v-.13H145.68v.13H147a13,13,0,0,1,13,13l0,57.64a53.47,53.47,0,0,1,10.83,6.57V31.46A23.88,23.88,0,0,0,147,7.62H32A23.88,23.88,0,0,0,8.2,31.46V186A23.88,23.88,0,0,0,32,209.86H147A23.88,23.88,0,0,0,170.79,186v-6A53.48,53.48,0,0,1,159.91,186.58Z"/><path class="cls-2" d="M172.62,162.46c-2.29,2.3-4.38,4.72-6.78,6.75a42.41,42.41,0,0,1-31.49,10.33,43.56,43.56,0,0,1-20.78-79.78A43.34,43.34,0,0,1,168.11,105a42.47,42.47,0,0,1,12.8,25.76A41.94,41.94,0,0,1,179,149.57c-.28.83,0,1.18.63,1.61,8.71,5.61,17.39,11.26,26.1,16.87a6.84,6.84,0,0,1,3.52,5.55,6.26,6.26,0,0,1-3.23,6.08,6.33,6.33,0,0,1-7-.12c-4-2.53-8-5.13-11.94-7.71l-13.9-9C173,162.67,172.72,162.52,172.62,162.46ZM137.67,105.8A30.3,30.3,0,1,0,168,136.13,30.27,30.27,0,0,0,137.67,105.8Z"/><path class="cls-2" d="M90.73,64.08H44.19a6.65,6.65,0,0,1-.64-13.28c.31,0,.61,0,.92,0h92.67c3.51,0,6.09,1.84,6.92,4.92a6.63,6.63,0,0,1-6.18,8.37c-1.74.05-3.48,0-5.22,0Z"/><path class="cls-2" d="M128.11,84.32a54.38,54.38,0,0,0-25.61,12.81,2.21,2.21,0,0,1-1.36.47q-28.48,0-57,0a6.65,6.65,0,1,1,0-13.29h83.95Z"/><path class="cls-2" d="M88.17,117.85c-.8,3.41-1.59,6.72-2.33,10a11.91,11.91,0,0,0-.3,2.33c0,.76-.31,1-1.05,1-3.41,0-6.82,0-10.23,0h-30a6.65,6.65,0,0,1-1.12-13.25c.51,0,1,0,1.53,0H88.17Z"/></g></g></svg>