<?xml version="1.0"?>
<svg xmlns="http://www.w3.org/2000/svg" xmlns:xlink="http://www.w3.org/1999/xlink" version="1.1" id="Layer_1" x="0px" y="0px" width="152px" height="60px" viewBox="0 0 152 60" xml:space="preserve">
<path fill="#54B948" d="M31.57129,49.7876c0.51367-0.08643,1.2085-0.16162,2.1416-0.16162  c1.02734,0,1.76611,0.22266,2.25684,0.63232c0.45605,0.37646,0.75244,0.98047,0.75244,1.69922  c0,0.7251-0.229,1.32275-0.64844,1.73242c-0.57129,0.55713-1.43701,0.83398-2.42725,0.83398  c-0.2627,0-0.49072-0.01416-0.68506-0.06201v2.90869h-1.39014V49.7876z M32.96143,53.354  c0.18066,0.06055,0.39893,0.07422,0.68506,0.07422c1.04736,0,1.68506-0.52393,1.68506-1.4165  c0-0.85352-0.59131-1.29639-1.56055-1.29639c-0.38721,0-0.6626,0.03369-0.80957,0.06641V53.354z M37.84961,49.27734h1.39941v3.29053  h0.02295c0.17139-0.26172,0.40967-0.47705,0.6958-0.62451c0.28516-0.16064,0.61377-0.24756,0.9707-0.24756  c0.94727,0,1.9375,0.62354,1.9375,2.40381v3.271h-1.4043v-3.12354c0-0.79834-0.29541-1.41748-1.07129-1.41748  c-0.54736,0-0.93311,0.37109-1.09473,0.78613c-0.04199,0.12793-0.05664,0.27588-0.05664,0.42334v3.33154h-1.39941V49.27734z   M45.07324,51.81592l0.99121,2.9751c0.11377,0.34277,0.23828,0.76514,0.31934,1.07471h0.0332  c0.08057-0.30957,0.18555-0.73193,0.29541-1.08057l0.86621-2.96924h1.49365l-1.38965,3.7876  c-0.76172,2.07568-1.27539,2.99463-1.92773,3.56689c-0.55664,0.47607-1.12695,0.65771-1.47021,0.70459l-0.31885-1.17529  c0.2417-0.05322,0.52783-0.18115,0.80957-0.38135c0.2749-0.17676,0.58008-0.50439,0.77539-0.88135  c0.05664-0.10059,0.08105-0.18066,0.08105-0.24902c0-0.05957-0.00977-0.14062-0.06738-0.27393l-2.0415-5.09814H45.07324z   M49.68701,56.06689c0.30957,0.19531,0.91309,0.40918,1.41357,0.40918c0.61426,0,0.88965-0.26123,0.88965-0.62402  c0-0.37598-0.22803-0.55762-0.91406-0.80518c-1.07959-0.37061-1.52734-0.96094-1.52734-1.61865  c0-0.98047,0.80908-1.73242,2.09912-1.73242c0.61475,0,1.15137,0.14795,1.48047,0.3291l-0.28564,0.98047  c-0.22803-0.13379-0.68115-0.32275-1.1709-0.32275c-0.50488,0-0.77637,0.25586-0.77637,0.59766  c0,0.34961,0.26221,0.51123,0.9668,0.77246c1.01416,0.35547,1.4707,0.86621,1.48438,1.68555  c0,1.01416-0.79004,1.74609-2.25586,1.74609c-0.67627,0-1.28027-0.16113-1.68896-0.38965L49.68701,56.06689z M55.98877,50.27246  c0,0.40918-0.30908,0.75244-0.79492,0.75244c-0.47119,0-0.77588-0.34326-0.77588-0.75244c0-0.43701,0.31836-0.76611,0.78516-0.76611  C55.67969,49.50635,55.979,49.83545,55.98877,50.27246z M54.49414,57.37061v-5.55469h1.40381v5.55469H54.49414z M61.4917,57.19482  c-0.2959,0.1416-0.87695,0.28955-1.57129,0.28955c-1.73242,0-2.86084-1.12207-2.86084-2.84082  c0-1.66602,1.13721-2.94775,3.08887-2.94775c0.50977,0,1.0376,0.11328,1.35742,0.24756l-0.25293,1.06201  c-0.22803-0.11426-0.55762-0.21533-1.06104-0.21533c-1.07129,0-1.7085,0.78613-1.69531,1.80078  c0,1.13281,0.73877,1.78564,1.69531,1.78564c0.47998,0,0.83301-0.10107,1.10449-0.21484L61.4917,57.19482z M66.83643,56.03369  c0,0.50391,0.01904,0.99365,0.09033,1.33691h-1.26562l-0.1001-0.61816h-0.03369c-0.33252,0.43555-0.91357,0.7373-1.64258,0.7373  c-1.11816,0-1.74268-0.8042-1.74268-1.65137c0-1.38965,1.24316-2.10889,3.29492-2.09473v-0.08691  c0-0.37012-0.15234-0.97412-1.13281-0.97412c-0.54785,0-1.11377,0.1748-1.49072,0.40918l-0.27588-0.90527  c0.41016-0.25635,1.12793-0.49072,2.00928-0.49072c1.77588,0,2.28955,1.12842,2.28955,2.34326V56.03369z M65.47021,54.65723  c-0.99463-0.01367-1.9375,0.19434-1.9375,1.0332c0,0.55176,0.35205,0.7998,0.7959,0.7998c0.5708,0,0.97021-0.3623,1.1084-0.7666  c0.0332-0.1001,0.0332-0.19922,0.0332-0.30127V54.65723z M68.31641,49.27734h1.40039v8.09326h-1.40039V49.27734z M70.9585,56.59082  c0-0.52393,0.36572-0.90039,0.86621-0.90039c0.51367,0,0.8667,0.37061,0.8667,0.90039c0,0.51807-0.34326,0.89893-0.87744,0.89893  C71.31445,57.48975,70.9585,57.10889,70.9585,56.59082z M77.5791,57.37061l-2.48486-7.68262h1.52344l1.05518,3.49805  c0.29639,0.9668,0.55762,1.86084,0.75342,2.79492h0.01904c0.20947-0.91406,0.49023-1.84766,0.78613-2.78027l1.11426-3.5127h1.49902  l-2.66064,7.68262H77.5791z M83.85645,50.27246c0,0.40918-0.30713,0.75244-0.79883,0.75244  c-0.4624,0-0.77148-0.34326-0.77148-0.75244c0-0.43701,0.31494-0.76611,0.78516-0.76611  C83.54932,49.50635,83.84375,49.83545,83.85645,50.27246z M82.3667,57.37061v-5.55469h1.396v5.55469H82.3667z M85.28027,53.60938  c0-0.75195-0.01416-1.30322-0.04736-1.79346h1.20898l0.06104,1.05566h0.03369c0.27588-0.78076,0.91846-1.17578,1.52441-1.17578  c0.1416,0,0.22266,0.00635,0.32812,0.03369v1.30908c-0.11963-0.02002-0.24756-0.0332-0.41504-0.0332  c-0.66553,0-1.12891,0.42285-1.25635,1.06152c-0.02002,0.11963-0.0332,0.26758-0.0332,0.41455v2.88916h-1.4043V53.60938z   M91.20996,50.39258v1.42334h1.3291v1.05566h-1.3291v2.44287c0,0.68555,0.18115,1.02832,0.71045,1.02832  c0.25684,0,0.39014-0.01416,0.55176-0.05371l0.02002,1.05371c-0.20166,0.08105-0.57764,0.14697-1.01416,0.14697  c-0.52344,0-0.94629-0.1665-1.20996-0.44873c-0.2998-0.32275-0.44189-0.83203-0.44189-1.56494v-2.60449h-0.78613v-1.05566h0.78613  v-1.03418L91.20996,50.39258z M98.57031,55.7041c0,0.6582,0.01953,1.20996,0.04639,1.6665h-1.22217l-0.06689-0.83301h-0.03418  c-0.2417,0.38965-0.78467,0.95215-1.79346,0.95215c-1.00049,0-1.91943-0.5957-1.91943-2.40967v-3.26416h1.396v3.02246  c0,0.92773,0.29541,1.51758,1.0415,1.51758c0.5708,0,0.93311-0.39014,1.06689-0.75244  c0.06055-0.11328,0.08008-0.2749,0.08008-0.43701v-3.35059h1.40527V55.7041z M104.39062,56.03369  c0,0.50391,0.02051,0.99365,0.08643,1.33691h-1.26172l-0.10107-0.61816h-0.0332c-0.32812,0.43555-0.91406,0.7373-1.64648,0.7373  c-1.11377,0-1.7373-0.8042-1.7373-1.65137c0-1.38965,1.24219-2.10889,3.29053-2.09473v-0.08691  c0-0.37012-0.14844-0.97412-1.12891-0.97412c-0.54346,0-1.11426,0.1748-1.49072,0.40918l-0.27588-0.90527  c0.41016-0.25635,1.12891-0.49072,2.00879-0.49072c1.78076,0,2.28955,1.12842,2.28955,2.34326V56.03369z M103.02002,54.65723  c-0.98633-0.01367-1.93262,0.19434-1.93262,1.0332c0,0.55176,0.34717,0.7998,0.79932,0.7998  c0.56299,0,0.96582-0.3623,1.10107-0.7666c0.03223-0.1001,0.03223-0.19922,0.03223-0.30127V54.65723z M105.86621,49.27734h1.4043  v8.09326h-1.4043V49.27734z M108.51172,56.59082c0-0.52393,0.36328-0.90039,0.86719-0.90039  c0.51025,0,0.86621,0.37061,0.86621,0.90039c0,0.51807-0.34229,0.89893-0.87988,0.89893  C108.86914,57.48975,108.51172,57.10889,108.51172,56.59082z M119.28906,57.15576c-0.32715,0.15332-1.05273,0.33398-1.99365,0.33398  c-2.43701,0-3.91504-1.52393-3.91504-3.87402c0-2.52441,1.7666-4.05615,4.10986-4.05615c0.92725,0,1.57129,0.19434,1.86133,0.34229  l-0.2959,1.12305c-0.37012-0.16162-0.87988-0.30322-1.50391-0.30322c-1.56641,0-2.69336,0.98047-2.69336,2.82666  c0,1.69971,0.98047,2.77441,2.67871,2.77441c0.55811,0,1.14844-0.11377,1.52441-0.27637L119.28906,57.15576z M120.39746,49.27734  h1.40332v8.09326h-1.40332V49.27734z M128.60352,54.54297c0,2.04102-1.43701,2.94678-2.85596,2.94678  c-1.55664,0-2.7793-1.06689-2.7793-2.86084c0-1.81885,1.20361-2.93311,2.875-2.93311  C127.49512,51.6958,128.60352,52.85742,128.60352,54.54297z M124.42041,54.59619c0,1.07568,0.53613,1.87988,1.375,1.87988  c0.80078,0,1.35645-0.77197,1.35645-1.8999c0-0.86572-0.38135-1.86621-1.34229-1.86621  C124.81543,52.70996,124.42041,53.67578,124.42041,54.59619z M134.72021,55.7041c0,0.6582,0.02783,1.20996,0.04736,1.6665h-1.22217  l-0.06689-0.83301h-0.03418c-0.2417,0.38965-0.78516,0.95215-1.79395,0.95215c-1.00098,0-1.91943-0.5957-1.91943-2.40967v-3.26416  h1.39551v3.02246c0,0.92773,0.3042,1.51758,1.0415,1.51758c0.57129,0,0.93457-0.39014,1.06787-0.75244  c0.06104-0.11328,0.08008-0.2749,0.08008-0.43701v-3.35059h1.4043V55.7041z M141.35498,49.27734v6.52734  c0,0.57178,0.01904,1.18994,0.03857,1.56592h-1.24121l-0.06738-0.88037h-0.02051c-0.32812,0.61865-1,0.99951-1.79932,0.99951  c-1.33594,0-2.38379-1.12744-2.38379-2.83252c-0.01367-1.86133,1.14697-2.96143,2.48389-2.96143  c0.76709,0,1.31006,0.30957,1.55811,0.71924h0.02783v-3.1377H141.35498z M139.95117,54.1333  c0-0.11475-0.01367-0.26172-0.03418-0.37598c-0.12793-0.53809-0.5708-0.98047-1.20947-0.98047  c-0.89844,0-1.40283,0.79932-1.40283,1.81934c0,1.02734,0.50439,1.76611,1.39014,1.76611c0.5708,0,1.07471-0.38135,1.20898-0.98633  c0.03369-0.12793,0.04736-0.26221,0.04736-0.40967V54.1333z M142.56787,56.59082c0-0.52393,0.36377-0.90039,0.8667-0.90039  c0.51855,0,0.86719,0.37061,0.86719,0.90039c0,0.51807-0.34277,0.89893-0.87988,0.89893  C142.92578,57.48975,142.56787,57.10889,142.56787,56.59082z"/>
<path d="M150.67676,15.26514c0,1.39795-1.12598,2.50732-2.5498,2.50732c-1.42578,0-2.56689-1.10938-2.56689-2.50732  c0-1.39746,1.14111-2.48779,2.58154-2.48779C149.55078,12.77734,150.67676,13.86768,150.67676,15.26514z M146.19824,15.26514  c0,1.10986,0.83447,1.9917,1.94336,1.9917c1.07861,0.01221,1.89844-0.88184,1.89844-1.97607  c0-1.10596-0.81982-2.00391-1.9292-2.00391C147.03271,13.27686,146.19824,14.1748,146.19824,15.26514z M147.7334,16.55566h-0.5752  v-2.4873c0.22852-0.03174,0.54346-0.07861,0.95264-0.07861c0.47217,0,0.68457,0.07861,0.8501,0.19678  c0.1499,0.10645,0.25928,0.2915,0.25928,0.53125c0,0.30811-0.22754,0.50391-0.51953,0.59521v0.03027  c0.24463,0.07568,0.37158,0.27197,0.44092,0.60693c0.07861,0.37744,0.1416,0.51611,0.18164,0.60547h-0.60645  c-0.0708-0.08936-0.11768-0.30225-0.19629-0.60547c-0.04736-0.25977-0.19727-0.38184-0.51172-0.38184h-0.27539V16.55566z   M147.74902,15.15869h0.27588c0.31445,0,0.57422-0.10547,0.57422-0.36182c0-0.22852-0.16504-0.38232-0.53564-0.38232  c-0.1499,0-0.25977,0.01611-0.31445,0.03223V15.15869z"/>
<path d="M44.56006,15.46777c-1.20215-0.55762-2.76904-0.82568-4.01465-0.82568c-3.6377,0-5.64697,2.4541-5.64697,5.64258  c0,3.16992,1.96191,5.55811,5.28906,5.55811c0.84912,0,1.51855-0.08887,2.05176-0.22266v-4.06104h-3.30225v-2.45312h6.29443v8.3877  c-1.65234,0.44775-3.36963,0.80713-5.04395,0.80713c-5.04346,0-8.54443-2.52441-8.54443-7.79492  c0-5.33008,3.25537-8.32129,8.54443-8.32129c1.80664,0,3.23584,0.24951,4.57568,0.65039L44.56006,15.46777z M46.53076,16.53857  h2.65674v2.60889h0.04248c0.13086-1.07031,1.36279-2.87695,3.14697-2.87695c0.2915,0,0.60205,0,0.91455,0.08936v3.00977  c-0.26855-0.15527-0.80127-0.24561-1.33887-0.24561c-2.43018,0-2.43018,3.0376-2.43018,4.68945v4.21826h-2.9917V16.53857z   M63.06982,27.37988c-1.08936,0.60449-2.34082,0.9209-3.94873,0.9209c-3.79346,0-6.00049-2.18945-6.00049-5.95947  c0-3.32568,1.76221-6.0708,5.33057-6.0708c4.26562,0,5.46777,2.9248,5.46777,6.94092h-7.94482  c0.13672,1.85254,1.42969,2.8999,3.2832,2.8999c1.44775,0,2.69873-0.5376,3.8125-1.16113V27.37988z M61.06396,21.15674  c-0.08887-1.45166-0.75928-2.69824-2.43359-2.69824c-1.6709,0-2.51953,1.16113-2.65625,2.69824H61.06396z M74.81445,27.37988  c-1.09424,0.60449-2.34521,0.9209-3.94873,0.9209c-3.79883,0-6.00586-2.18945-6.00586-5.95947  c0-3.32568,1.76465-6.0708,5.33545-6.0708c4.26025,0,5.46777,2.9248,5.46777,6.94092h-7.94434  c0.13184,1.85254,1.42529,2.8999,3.27881,2.8999c1.44922,0,2.69873-0.5376,3.81689-1.16113V27.37988z M72.80469,21.15674  c-0.08984-1.45166-0.75879-2.69824-2.42969-2.69824c-1.67529,0-2.52441,1.16113-2.65625,2.69824H72.80469z M77.11816,16.53857  h2.83154v1.56201h0.04736c0.93506-1.31641,2.20801-1.83008,3.76562-1.83008c2.72607,0,3.90576,1.91846,3.90576,4.50977v7.25146  h-2.99121v-6.13818c0-1.40576-0.01807-3.30176-1.93555-3.30176c-2.16943,0-2.64111,2.34326-2.64111,3.81641v5.62354h-2.98242  V16.53857z M89.85938,12.45312h3.95312c3.38721,0,6.49121,0.98193,6.49121,4.7085c0,3.6377-2.66016,4.95264-6.00049,4.95264  h-1.32178v5.91748h-3.12207V12.45312z M92.98145,19.6626h1.09473c1.56592,0,2.97314-0.51514,2.97314-2.32227  c0-1.80615-1.35889-2.43018-2.97314-2.43018h-1.09473V19.6626z M101.44727,17.14258  c1.16113-0.53809,2.71826-0.87207,3.99268-0.87207c3.5,0,4.95312,1.45166,4.95312,4.83984v1.47705  c0,1.16016,0.01855,2.02832,0.04785,2.87695c0.01807,0.86865,0.06494,1.67529,0.13086,2.56738h-2.63232  c-0.11328-0.60352-0.11328-1.36475-0.13232-1.72217h-0.04736c-0.68945,1.27344-2.1875,1.99121-3.54736,1.99121  c-2.02881,0-4.01807-1.23193-4.01807-3.4165c0-1.71729,0.82764-2.72266,1.9707-3.27832c1.13184-0.56152,2.604-0.6709,3.8584-0.6709  h1.65039c0-1.85303-0.82861-2.47656-2.59375-2.47656c-1.27295,0-2.53662,0.49023-3.54688,1.24658L101.44727,17.14258z   M104.94824,26.11133c0.91553,0,1.63232-0.40088,2.09473-1.02344c0.49121-0.65039,0.63086-1.47705,0.63086-2.36768h-1.30078  c-1.33057,0-3.32129,0.2207-3.32129,1.98584C103.05176,25.68604,103.88184,26.11133,104.94824,26.11133z M123.01025,16.53857  v10.37549c0,3.12305-1.25391,6.07129-6.07666,6.07129c-1.1792,0-2.53809-0.1792-3.97168-0.78223l0.24609-2.54443  c0.91357,0.49072,2.4126,1.00488,3.34766,1.00488c3.30322,0,3.4624-2.47656,3.4624-4.46191h-0.04541  c-0.55811,0.97998-1.89648,1.83008-3.56836,1.83008c-3.39502,0-4.68848-2.72217-4.68848-5.80371  c0-2.76416,1.42432-5.95752,4.86914-5.95752c1.50977,0,2.69727,0.51367,3.52002,1.83008h0.04541v-1.56201H123.01025z   M120.01807,22.16162c0-1.9668-0.7627-3.56982-2.50098-3.56982c-2.02832,0-2.67822,1.87207-2.67822,3.63623  c0,1.56104,0.82959,3.48242,2.54688,3.48242C119.25537,25.71045,120.01807,24.08252,120.01807,22.16162z M134.40918,27.37988  c-1.09326,0.60449-2.34082,0.9209-3.94336,0.9209c-3.79395,0-6.00977-2.18945-6.00977-5.95947  c0-3.32568,1.76465-6.0708,5.33887-6.0708c4.25781,0,5.46436,2.9248,5.46436,6.94092h-7.94434  c0.1333,1.85254,1.42529,2.8999,3.28369,2.8999c1.44336,0,2.69873-0.5376,3.81055-1.16113V27.37988z M132.40137,21.15674  c-0.08545-1.45166-0.75635-2.69824-2.42676-2.69824c-1.67871,0-2.52637,1.16113-2.65967,2.69824H132.40137z M143.54541,18.94873  c-0.91553-0.31494-1.58545-0.49023-2.67871-0.49023c-0.80273,0-1.76465,0.28857-1.76465,1.27002  c0,1.83057,5.19971,0.67041,5.19971,4.81982c0,2.67725-2.38867,3.75244-4.82178,3.75244c-1.1333,0-2.29443-0.20312-3.38916-0.49512  l0.17969-2.4541c0.93555,0.4668,1.91602,0.75977,2.94531,0.75977c0.75439,0,1.96094-0.29297,1.96094-1.40527  c0-2.25586-5.19873-0.71338-5.19873-4.86475c0-2.47754,2.16064-3.5708,4.51074-3.5708c1.40527,0,2.32178,0.22119,3.25586,0.42432  L143.54541,18.94873z M34.12939,35.64014h-2.2085v-1.55615h6.28809v1.55615H35.9751v6.62598h-1.8457V35.64014z M39.41016,39.87598  c0.05957,0.77344,0.81152,1.14355,1.67529,1.14355c0.63086,0,1.13867-0.09131,1.63721-0.25781l0.24414,1.24561  c-0.60596,0.25879-1.34863,0.38477-2.1499,0.38477c-2.01221,0-3.16602-1.17041-3.16602-3.03809  c0-1.50488,0.94385-3.17041,2.99561-3.17041c1.91943,0,2.64795,1.49072,2.64795,2.96143c0,0.31982-0.03516,0.59912-0.05957,0.74512  L39.41016,39.87598z M41.58398,38.61523c0-0.43799-0.19482-1.20508-1.03467-1.20508c-0.7876,0-1.10449,0.71777-1.15381,1.20508  H41.58398z M48.67285,42.12012c-0.32764,0.15967-0.94775,0.27881-1.65186,0.27881c-1.91895,0-3.146-1.17725-3.146-3.04492  c0-1.73535,1.19189-3.15625,3.40039-3.15625c0.48828,0,1.021,0.08398,1.41162,0.22998l-0.29297,1.37256  c-0.21973-0.09668-0.54736-0.18164-1.03125-0.18164c-0.97119,0-1.60205,0.68945-1.59229,1.65869  c0,1.09326,0.72803,1.6792,1.62646,1.6792c0.43506,0,0.77734-0.07715,1.05615-0.19482L48.67285,42.12012z M49.50781,33.64697  h1.84668v3.40088h0.02441c0.19531-0.27197,0.43896-0.47412,0.72803-0.62012c0.27881-0.146,0.62012-0.22998,0.96191-0.22998  c1.17725,0,2.07617,0.81592,2.07617,2.61328v3.45508h-1.84668v-3.26807c0-0.77295-0.26904-1.30957-0.96143-1.30957  c-0.48438,0-0.78711,0.31348-0.91943,0.65479c-0.04883,0.1123-0.06299,0.27197-0.06299,0.40527v3.51758h-1.84668V33.64697z   M56.44043,38.2251c0-0.73779-0.0249-1.3584-0.04883-1.89453h1.60645l0.0835,0.82959h0.03467  c0.24316-0.39062,0.83936-0.9624,1.83594-0.9624c1.2124,0,2.12061,0.81592,2.12061,2.56445v3.50391h-1.84229v-3.28809  c0-0.76611-0.26807-1.28955-0.9375-1.28955c-0.5083,0-0.81152,0.35596-0.94287,0.68945  c-0.04883,0.12598-0.06299,0.29346-0.06299,0.46826v3.41992h-1.84668V38.2251z M66.10303,42.39893  c-1.73438,0-3.06885-1.14307-3.06885-3.05859c0-1.91602,1.26123-3.14258,3.18115-3.14258c1.80713,0,3.02393,1.24707,3.02393,3.04346  c0,2.16064-1.54346,3.15771-3.12207,3.15771H66.10303z M66.1416,41.07422c0.72803,0,1.17773-0.70947,1.17773-1.78271  c0-0.87012-0.3374-1.76904-1.17773-1.76904c-0.87451,0-1.21582,0.89893-1.21582,1.78223c0,1.01123,0.4248,1.76953,1.20166,1.76953  H66.1416z M70.19629,33.64697h1.84668v8.61914h-1.84668V33.64697z M76.07275,42.39893c-1.73828,0-3.07178-1.14307-3.07178-3.05859  c0-1.91602,1.26074-3.14258,3.18408-3.14258c1.8042,0,3.01514,1.24707,3.01514,3.04346c0,2.16064-1.53809,3.15771-3.1123,3.15771  H76.07275z M76.10791,41.07422c0.73096,0,1.17725-0.70947,1.17725-1.78271c0-0.87012-0.34131-1.76904-1.17725-1.76904  c-0.875,0-1.21143,0.89893-1.21143,1.78223c0,1.01123,0.4248,1.76953,1.19775,1.76953H76.10791z M85.81982,41.40186  c0,1.14307-0.22998,2.07666-0.91357,2.67627c-0.63965,0.55664-1.52441,0.72314-2.40234,0.72314  c-0.78711,0-1.60254-0.15234-2.13135-0.44531l0.36133-1.40674c0.37646,0.21533,1.01709,0.44482,1.71973,0.44482  c0.87891,0,1.54834-0.4585,1.54834-1.56738v-0.37549h-0.02783c-0.34863,0.4873-0.91943,0.76562-1.60254,0.76562  c-1.47021,0-2.50732-1.19092-2.50732-2.89111c0-1.91553,1.2251-3.12793,2.6875-3.12793c0.81641,0,1.32422,0.34814,1.63135,0.83643  h0.021l0.0625-0.70361h1.60254c-0.021,0.39014-0.04932,0.88477-0.04932,1.76904V41.40186z M83.97412,38.74854  c0-0.1123-0.01562-0.22998-0.03467-0.34229c-0.1333-0.4873-0.48926-0.81543-0.99756-0.81543  c-0.6748,0-1.21143,0.60645-1.21143,1.68652c0,0.8916,0.43945,1.58105,1.19775,1.58105c0.48877,0,0.86475-0.31299,0.99023-0.73828  c0.04004-0.146,0.05566-0.34131,0.05566-0.50146V38.74854z M88.4873,36.33057l0.89258,2.91064  c0.09766,0.35693,0.21582,0.78809,0.29395,1.10889h0.0332c0.08398-0.3208,0.18115-0.76562,0.26465-1.10889l0.73242-2.91064h1.97852  l-1.38672,3.9082c-0.84961,2.35449-1.4209,3.28809-2.09033,3.8877c-0.62646,0.55762-1.31006,0.7666-1.78369,0.80762  l-0.38965-1.55322c0.22949-0.04883,0.52197-0.15283,0.80078-0.31348c0.27832-0.14746,0.59961-0.4458,0.76611-0.73779  c0.06348-0.09912,0.09814-0.18115,0.09814-0.27295c0-0.05518-0.01465-0.15283-0.07031-0.29932l-2.1875-5.42676H88.4873z   M95.66309,40.37061c0.48877,0.2583,1.26953,0.50879,2.05615,0.50879c0.8501,0,1.2959-0.34766,1.2959-0.89062  c0-0.50293-0.39062-0.81006-1.37256-1.14258c-1.35889-0.48828-2.25732-1.24072-2.25732-2.43896  c0-1.40088,1.17725-2.45557,3.10156-2.45557c0.93311,0,1.60107,0.18115,2.08154,0.41211l-0.41016,1.47949  c-0.31396-0.15479-0.91406-0.38477-1.70068-0.38477c-0.80078,0-1.19189,0.37695-1.19189,0.78809  c0,0.52295,0.45361,0.75293,1.52002,1.16357c1.44922,0.53711,2.10986,1.28857,2.10986,2.45312  c0,1.37207-1.03662,2.53564-3.28809,2.53564c-0.93311,0-1.85156-0.25049-2.31982-0.50977L95.66309,40.37061z M104.69971,42.39893  c-1.7334,0-3.07324-1.14307-3.07324-3.05859c0-1.91602,1.26172-3.14258,3.17822-3.14258c1.81152,0,3.02246,1.24707,3.02246,3.04346  c0,2.16064-1.53857,3.15771-3.12109,3.15771H104.69971z M104.73438,41.07422c0.73291,0,1.17773-0.70947,1.17773-1.78271  c0-0.87012-0.34131-1.76904-1.17773-1.76904c-0.87012,0-1.21143,0.89893-1.21143,1.78223c0,1.01123,0.42432,1.76953,1.19678,1.76953  H104.73438z M108.78955,33.64697h1.84668v8.61914h-1.84668V33.64697z M117.5332,40.36475c0,0.77197,0.021,1.40674,0.04004,1.90137  h-1.59326l-0.09229-0.83594H115.854c-0.22998,0.3623-0.78711,0.96875-1.85254,0.96875c-1.21973,0-2.09033-0.75293-2.09033-2.58545  v-3.48291h1.8457v3.18994c0,0.86426,0.27881,1.3877,0.93408,1.3877c0.50781,0,0.81494-0.35547,0.91943-0.6416  c0.04785-0.1123,0.07568-0.24365,0.07568-0.40332v-3.53271h1.84717V40.36475z M120.89062,34.71387v1.6167h1.32324v1.35791h-1.32324  v2.15918c0,0.71826,0.18115,1.04541,0.73193,1.04541c0.25098,0,0.37549-0.01367,0.54346-0.04834l0.01367,1.40137  c-0.229,0.0835-0.68359,0.15283-1.19092,0.15283c-0.59326,0-1.09473-0.20264-1.39258-0.50977  c-0.34229-0.34717-0.51025-0.91895-0.51025-1.7627v-2.43799h-0.79443v-1.35791h0.79443v-1.1167L120.89062,34.71387z   M124.01172,35.55029c-0.62012,0-1.01758-0.43213-1.01758-0.98096c0-0.55908,0.41162-0.98486,1.0459-0.98486  c0.62646,0,1.0166,0.42578,1.03076,0.98486c0,0.54883-0.4043,0.98096-1.04492,0.98096H124.01172z M123.09912,42.26611v-5.93555  h1.84619v5.93555H123.09912z M128.979,42.39893c-1.73486,0-3.07178-1.14307-3.07178-3.05859  c0-1.91602,1.25977-3.14258,3.17627-3.14258c1.81201,0,3.02246,1.24707,3.02246,3.04346c0,2.16064-1.5376,3.15771-3.12061,3.15771  H128.979z M129.01416,41.07422c0.73193,0,1.17676-0.70947,1.17676-1.78271c0-0.87012-0.34131-1.76904-1.17676-1.76904  c-0.87061,0-1.21289,0.89893-1.21289,1.78223c0,1.01123,0.42627,1.76953,1.19775,1.76953H129.01416z M133.06885,38.2251  c0-0.73779-0.02881-1.3584-0.04883-1.89453h1.60254l0.08252,0.82959h0.03467c0.24414-0.39062,0.84473-0.9624,1.84131-0.9624  c1.21191,0,2.12402,0.81592,2.12402,2.56445v3.50391h-1.84619v-3.28809c0-0.76611-0.27197-1.28955-0.94141-1.28955  c-0.5083,0-0.80762,0.35596-0.93994,0.68945c-0.04834,0.12598-0.0625,0.29346-0.0625,0.46826v3.41992h-1.84619V38.2251z   M139.98682,40.66357c0.3418,0.20898,1.04492,0.43945,1.59521,0.43945c0.55811,0,0.78711-0.18115,0.78711-0.48828  c0-0.31299-0.18018-0.46045-0.86377-0.68945c-1.24023-0.40479-1.71387-1.0791-1.69971-1.77686  c0-1.11426,0.94775-1.95068,2.41797-1.95068c0.68945,0,1.29443,0.16797,1.65625,0.34814l-0.31201,1.26855  c-0.26562-0.14014-0.7876-0.32715-1.28076-0.32715c-0.45459,0-0.70508,0.18115-0.70508,0.47363  c0,0.28467,0.23047,0.43115,0.95508,0.68994c1.12695,0.37549,1.5874,0.95361,1.60205,1.81787  c0,1.11377-0.86475,1.93018-2.55713,1.93018c-0.78027,0-1.46924-0.18213-1.92285-0.42578L139.98682,40.66357z"/>
<path fill="#54B948" d="M0,0l23.9458,11.97119v35.93164L0,59.875V0z M17.95996,17.96045L5.98389,11.97119v35.93164l11.97607-5.99414  V17.96045z"/>
</svg>
