<?xml version="1.0" encoding="UTF-8"?>
<svg width="811px" height="357px" viewBox="0 0 811 357" version="1.1" xmlns="http://www.w3.org/2000/svg" xmlns:xlink="http://www.w3.org/1999/xlink">
    <!-- Generator: Sketch 62 (91390) - https://sketch.com -->
    <title>Illustration</title>
    <desc>Created with Sketch.</desc>
    <g id="Page-1" stroke="none" stroke-width="1" fill="none" fill-rule="evenodd">
        <g id="Cylerian-homepage-modification-Copy" transform="translate(-629.000000, -267.000000)">
            <g id="Section-2" transform="translate(129.000000, 205.000000)">
                <g id="Illustration" transform="translate(502.000000, 62.000000)">
                    <g id="Group-35" transform="translate(269.000000, 41.000000)" stroke="#4C4C4C" stroke-linecap="round">
                        <g id="Group-36" transform="translate(233.000000, 83.000000)" stroke-width="3">
                            <path d="M0.579544579,5.04239215 L11.2202326,5.04239215 C11.4662868,5.04239215 11.6986535,5.15561991 11.8502812,5.34940255 L23.0999573,19.7266686 C23.2100783,19.867405 23.2699087,20.0409592 23.2699087,20.2196582 L23.2699087,38.419008 L23.2699087,38.419008" id="Path-12" transform="translate(11.924727, 21.730700) scale(-1, 1) translate(-11.924727, -21.730700) "></path>
                            <rect id="Rectangle-15" x="23.7209302" y="0" width="10.2790698" height="10.3469388" rx="0.8"></rect>
                        </g>
                        <g id="Group-36" transform="translate(17.000000, 221.500000) scale(-1, 1) translate(-17.000000, -221.500000) translate(0.000000, 202.000000)" stroke-width="3">
                            <path d="M0.579544579,5.04239215 L11.2202326,5.04239215 C11.4662868,5.04239215 11.6986535,5.15561991 11.8502812,5.34940255 L23.0999573,19.7266686 C23.2100783,19.867405 23.2699087,20.0409592 23.2699087,20.2196582 L23.2699087,38.419008 L23.2699087,38.419008" id="Path-12" transform="translate(11.924727, 21.730700) scale(-1, 1) translate(-11.924727, -21.730700) "></path>
                            <rect id="Rectangle-15" x="23.7209302" y="0" width="10.2790698" height="10.3469388" rx="0.8"></rect>
                        </g>
                        <g id="Group-27" transform="translate(18.465116, 0.659574)">
                            <path d="M268.150892,121.382979 C268.150892,115.460606 263.355811,110.659574 257.440779,110.659574 C251.525746,110.659574 246.730665,115.460606 246.730665,121.382979" id="Oval-5" stroke-width="4"></path>
                            <line x1="268.406113" y1="121.784086" x2="308.878665" y2="121.784086" id="Path-4" stroke-width="4"></line>
                            <line x1="159.187733" y1="121.961745" x2="246.660285" y2="121.961745" id="Path-4" stroke-width="4"></line>
                            <polyline id="Path-4" stroke-width="4" points="55.187733 121.961745 116.660285 121.961745 162.103275 121.961745"></polyline>
                            <g id="Group-34" stroke-width="3">
                                <line x1="57.187733" y1="1.96174454" x2="77.660285" y2="1.96174454" id="Path-4"></line>
                                <line x1="47.187733" y1="15.9617445" x2="77.660285" y2="15.9617445" id="Path-4"></line>
                                <path d="M0.187732984,44.9617445 L110.660285,44.9617445 C113.973994,44.9617445 116.660285,47.648036 116.660285,50.9617445 L116.660285,77.7529749 C116.660285,81.0666834 119.346577,83.7529749 122.660285,83.7529749 L188.765159,83.7529749 C192.078868,83.7529749 194.765159,81.0666834 194.765159,77.7529749 L194.765159,50.7446796 L194.765159,50.7446796" id="Path-4" stroke-dasharray="7"></path>
                            </g>
                        </g>
                    </g>
                    <g id="Group-2" transform="translate(564.331200, 254.191489)">
                        <path d="M10.9684814,16.1012906 L10.9684814,7.11788967 C10.9684814,3.18678775 14.1513194,0 18.0775491,0 L130.022784,0 C133.949013,0 137.131851,3.18678775 137.131851,7.11788967 L137.131851,87.9191672 L10.9684814,87.9191672 L10.9684814,58.5525739" id="Rectangle-18" stroke="#4C4C4C" stroke-width="4" stroke-linecap="round"></path>
                        <line x1="29.004915" y1="73.6364163" x2="46.8265964" y2="73.6364163" id="Path-33-Copy-5" stroke="#4C4C4C" stroke-width="5" stroke-linecap="round" stroke-linejoin="round"></line>
                        <line x1="64.1451314" y1="73.6364163" x2="81.9668128" y2="73.6364163" id="Path-33-Copy-7" stroke="#4C4C4C" stroke-width="5" stroke-linecap="round" stroke-linejoin="round"></line>
                        <line x1="101.28001" y1="73.6364163" x2="119.101692" y2="73.6364163" id="Path-33-Copy-7" stroke="#4C4C4C" stroke-width="5" stroke-linecap="round" stroke-linejoin="round"></line>
                        <path d="M2.89604824,16.0168334 L91.5912663,16.0168334 C92.8999957,16.0168334 93.9609304,17.0777682 93.9609304,18.3864975 L93.9609304,56.0446696 C93.9609304,57.353399 92.8999957,58.4143337 91.5912663,58.4143337 L2.89604824,58.4143337 C1.58731889,58.4143337 0.526384135,57.353399 0.526384135,56.0446696 L0.526384135,18.3864975 C0.526384135,17.0777682 1.58731889,16.0168334 2.89604824,16.0168334 Z" id="Rectangle-22" stroke="#4C4C4C" stroke-width="3" fill="#F58524"></path>
                        <path d="M0.473932821,87.9245024 L147.937641,87.9245024 C148.199387,87.9245024 148.411574,88.1366894 148.411574,88.3984352 L148.411574,92.8804014 C148.411574,95.6174688 146.192742,97.8363004 143.455675,97.8363004 L4.95589897,97.8363004 C2.21883155,97.8363004 3.35194086e-16,95.6174688 0,92.8804014 L0,88.3984352 C-3.20546241e-17,88.1366894 0.212186951,87.9245024 0.473932821,87.9245024 Z" id="Rectangle-17" stroke="#4C4C4C" stroke-width="4" stroke-linecap="round"></path>
                        <g id="Group" transform="translate(10.881671, 25.974280)" stroke="#FFFFFF">
                            <ellipse id="Oval" stroke-width="2.6540238" cx="5.38830704" cy="5.2199655" rx="4.65596904" ry="4.6070234"></ellipse>
                            <line x1="0.732338005" y1="20.3105516" x2="15.0197437" y2="20.3105516" id="Line" stroke-width="3" opacity="0.5" stroke-linecap="round"></line>
                        </g>
                        <path d="" id="Path-35" stroke="#979797" stroke-width="0.5"></path>
                        <g id="Group-22" transform="translate(43.542239, 26.265553)">
                            <path d="M2.68018418,20.4955935 C1.11864767,21.3162757 6.05278801,19.0843442 7.58577483,17.8324452 C9.11876165,16.5805462 8.9065962,14.3332375 10.651769,12.8020539 C12.3969418,11.2708703 10.9873934,8.43044651 13.7177631,7.77166258 C16.4481329,7.11287865 18.4431372,10.3738236 20.7695497,9.25118944 C23.0959622,8.12855529 23.713875,13.5747785 25.9817398,11.9143378 C28.2496046,10.2538971 28.1573559,1.62615502 30.2741316,0.374028313 C32.3909073,-0.878098393 36.6096432,2.70158991 37.5503756,3.49331257" id="Path-38" stroke="#FFFFFF" stroke-width="3" opacity="0.400000006" stroke-linecap="round" stroke-linejoin="round"></path>
                            <ellipse id="Oval-8" fill="#FFFFFF" cx="2.43135459" cy="20.7655618" rx="2.43135459" ry="2.38191508"></ellipse>
                            <ellipse id="Oval-8" fill="#FFFFFF" cx="13.290738" cy="7.70913839" rx="2.43135459" ry="2.38191508"></ellipse>
                            <ellipse id="Oval-8" fill="#FFFFFF" cx="25.6309465" cy="12.0612795" rx="2.43135459" ry="2.38191508"></ellipse>
                            <ellipse id="Oval-8" fill="#FFFFFF" cx="37.971155" cy="3.8405685" rx="2.43135459" ry="2.38191508"></ellipse>
                        </g>
                    </g>
                    <line x1="740.652849" y1="352.621319" x2="781.125401" y2="352.621319" id="Path-4" stroke="#4C4C4C" stroke-width="4" stroke-linecap="round"></line>
                    <g id="ipad" transform="translate(573.561054, 93.808511)">
                        <rect id="Rectangle-16" stroke="#4C4C4C" stroke-width="4" x="-2" y="-2" width="107" height="72" rx="4"></rect>
                        <ellipse id="Oval-11" fill="#4C4C4C" cx="97.2222222" cy="34.2033898" rx="2.22222222" ry="2.20338983"></ellipse>
                        <rect id="Rectangle-16" stroke="#4C4C4C" stroke-width="3" fill="#F58524" x="7.5" y="6.5" width="82" height="55" rx="3.2"></rect>
                        <g id="Group-31" transform="translate(25.000000, 25.000000)" stroke="#FFFFFF" stroke-linecap="round" stroke-width="2.5">
                            <g id="Group-44">
                                <path d="M20.7683009,10.9199072 C19.5920913,11.8933611 18.4998692,12.7945525 17.4916682,13.6238425 C16.6477626,14.3179922 15.9240571,14.911277 15.3206089,15.4043138 C15.1092068,15.5770362 14.9278906,15.7249278 14.7766672,15.8480657 C14.6251113,15.9713911 14.6251113,15.9713911 14.5940132,15.9966285 L14.4889349,16.07464 C12.7837608,17.2302436 11.4575434,17.5989774 9.67526286,17.6250767 C9.53173959,17.6271785 9.42011695,17.6275862 9.17115987,17.6275862 C4.31496425,17.6275862 0.380689655,13.7635665 0.380689655,9 C0.380689655,4.23643349 4.31496425,0.372413793 9.17115987,0.372413793 C10.8505842,0.372413793 12.8966235,1.04973 14.5349533,2.22100382 C16.7022398,3.80982477 18.7785829,5.40899889 20.7639683,7.01857776" id="Combined-Shape" fill-rule="nonzero"></path>
                                <polyline id="Rectangle-23" stroke-linejoin="round" points="19.9215951 2.01676013 20.8044317 7.02961759 15.6297275 7.02961759"></polyline>
                                <polyline id="Rectangle-23" stroke-linejoin="round" transform="translate(27.439536, 13.329664) rotate(184.000000) translate(-27.439536, -13.329664) " points="28.8918927 10.9115936 30.1017623 15.621423 24.7773092 15.7477347"></polyline>
                                <path d="M45.3545078,10.9199072 C44.1782982,11.8933611 43.0860761,12.7945525 42.0778751,13.6238425 C41.2339695,14.3179922 40.510264,14.911277 39.9068158,15.4043138 C39.6954137,15.5770362 39.5140975,15.7249278 39.3628741,15.8480657 C39.2113182,15.9713911 39.2113182,15.9713911 39.1802201,15.9966285 L39.0751418,16.07464 C37.3699677,17.2302436 36.0437503,17.5989774 34.2614698,17.6250767 C34.1179465,17.6271785 34.0063238,17.6275862 33.7573668,17.6275862 C28.9011712,17.6275862 24.9668966,13.7635665 24.9668966,9 C24.9668966,4.23643349 28.9011712,0.372413793 33.7573668,0.372413793 C35.4367911,0.372413793 37.4828303,1.04973 39.1211602,2.22100382 C41.2884467,3.80982477 43.3647898,5.40899889 45.3501752,7.01857776" id="Combined-Shape" fill-rule="nonzero" transform="translate(35.160702, 9.000000) scale(-1, 1) translate(-35.160702, -9.000000) "></path>
                            </g>
                        </g>
                        <circle id="Oval-10" stroke="#4C4C4C" stroke-width="3.06" fill="#FFFFFF" stroke-linecap="round" cx="98.5" cy="72.5" r="19.5"></circle>
                        <path d="M106.000828,10.6435948 L149.065035,10.6435948 C152.378744,10.6435948 155.065035,13.3298863 155.065035,16.6435948 L155.065035,31.0067826 L155.065035,31.0067826" id="Path-13" stroke="#4C4C4C" stroke-width="4" stroke-linecap="round"></path>
                    </g>
                    <g id="Group-6" transform="translate(452.270026, 17.000000)">
                        <rect id="Rectangle-13" stroke="#4C4C4C" stroke-width="4" stroke-linecap="round" x="0" y="0" width="60.5886425" height="73.7847552" rx="5.8752"></rect>
                        <rect id="Rectangle-13" stroke="#4C4C4C" stroke-width="3" fill="#F58524" stroke-linecap="round" x="7" y="7" width="47" height="59" rx="4.70016"></rect>
                        <g id="Group-13" transform="translate(18.000000, 20.000000)">
                            <polygon id="Rectangle-6" fill="#FFFFFF" opacity="0.300000012" points="10.2184913 0 14.3611228 0 14.3611228 24.6365044 10.2184913 24.6365044"></polygon>
                            <polygon id="Rectangle-6-Copy" fill="#FFFFFF" opacity="0.300000012" points="18.5037544 6.36896334 22.646386 6.36896334 22.646386 24.6365044 18.5037544 24.6365044"></polygon>
                            <polygon id="Rectangle-6-Copy" fill="#FFFFFF" opacity="0.300000012" points="1.93322807 8.60274968 6.07585966 8.60274968 6.07585966 24.6365044 1.93322807 24.6365044"></polygon>
                            <path d="M0.15909109,20.0225321 C5.67489331,20.0225321 6.10098376,11.8211319 9.93821336,11.1938489 C13.775443,10.5665659 15.0385809,16.0394772 18.4775404,16.0394772 C20.2242096,16.0394772 21.7652221,14.5108193 22.8589003,13.0063334" id="Path-27" stroke="#FFFFFF" stroke-width="2.24" stroke-linecap="round" stroke-linejoin="round"></path>
                            <ellipse id="Oval-8" stroke="#FFFFFF" stroke-width="2.24" cx="24.0067367" cy="11.4286857" rx="1.7746138" ry="1.79419832"></ellipse>
                        </g>
                    </g>
                    <g id="Group-49" transform="translate(293.616279, 141.800000)" stroke-linecap="round">
                        <path d="M1.8,0.2 L45.9273902,0.2 C46.9215027,0.2 47.7273902,1.00588745 47.7273902,2 L47.7273902,33.2084648 C47.7273902,41.5069152 43.1346514,49.1238154 35.7955426,52.9970261 L25.5439556,58.4072956 C24.492503,58.9621991 23.2348872,58.9621991 22.1834346,58.4072956 L11.9318475,52.9970261 C4.59273875,49.1238154 4.56898075e-15,41.5069152 0,33.2084648 L0,2 C-3.4378828e-16,1.00588745 0.80588745,0.2 1.8,0.2 Z" id="Rectangle-13" stroke="#4C4C4C" stroke-width="4"></path>
                        <path d="M9.26,8.81543122 L38.74,8.81543122 C39.4358788,8.81543122 40,9.37955244 40,10.0754312 L40,32.2794554 C40,37.9299313 36.9380478,43.1367068 32,45.8832614 L25.2249088,49.6515842 C24.4632467,50.0752226 23.5367533,50.0752226 22.7750912,49.6515842 L16,45.8832614 C11.0619522,43.1367068 8,37.9299313 8,32.2794554 L8,10.0754312 C8,9.37955244 8.56412122,8.81543122 9.26,8.81543122 Z" id="Rectangle-13" stroke="#4C4C4C" stroke-width="3" fill="#F58524"></path>
                        <polyline id="Rectangle-25" stroke="#FFFFFF" stroke-width="2.52" stroke-linejoin="round" transform="translate(23.500000, 24.500000) rotate(-315.000000) translate(-23.500000, -24.500000) " points="27 19 26.20609 30 20 29.2347101"></polyline>
                    </g>
                    <g id="Group" transform="translate(714.997240, 125.280099)">
                        <path d="M3.06,0 L52.7855922,0 C54.4755835,2.24749208e-15 55.8455922,1.37000867 55.8455922,3.06 L55.8455922,35.2378723 C55.8455922,36.9278637 54.4755835,38.2978723 52.7855922,38.2978723 L3.06,38.2978723 C1.37000867,38.2978723 2.18314199e-15,36.9278637 0,35.2378723 L0,3.06 C-2.06964248e-16,1.37000867 1.37000867,-1.46591047e-15 3.06,0 Z" id="Rectangle-18" stroke="#4C4C4C" stroke-width="3" fill="#F58524"></path>
                        <g id="Group-17" transform="translate(13.005138, 10.723404)" stroke="#FFFFFF" stroke-linecap="round" stroke-width="4">
                            <line x1="0.765008112" y1="7.65957447" x2="0.765008112" y2="15.3191489" id="Path-2"></line>
                            <line x1="9.94510546" y1="5.36170213" x2="9.94510546" y2="15.3191489" id="Path-2"></line>
                            <line x1="19.1252028" y1="2.29787234" x2="19.1252028" y2="15.3191489" id="Path-2"></line>
                            <line x1="28.3053002" y1="0" x2="28.3053002" y2="15.3191489" id="Path-2"></line>
                        </g>
                        <line x1="55.6056622" y1="20.6200208" x2="94.4323279" y2="20.6200208" id="Path-21" stroke="#4C4C4C" stroke-width="3" stroke-linecap="round"></line>
                    </g>
                    <g id="Group-2" transform="translate(254.000000, 69.000000)">
                        <path d="M13.0080306,34.2136144 C12.1258071,35.1908098 10.6184503,35.2677997 9.64125492,34.3855762 C9.10907848,33.9051211 8.82141948,33.2106508 8.85799195,32.4946121 C9.02848179,29.1566556 6.46074271,26.3124979 3.12278619,26.1420081 C2.91712079,26.1315035 2.71105325,26.1315035 2.50538786,26.1420081 C1.19058018,26.2091633 0.0702778698,25.1977412 0.00312260605,23.8829335 C-0.0334498654,23.1668948 0.254209132,22.4724246 0.786385578,21.9919694 C3.26723179,19.7522323 3.46268929,15.9254433 1.22295212,13.4445971 C1.08495259,13.2917418 0.93924084,13.1460301 0.786385578,13.0080306 C-0.190809787,12.1258071 -0.267799712,10.6184503 0.614423769,9.64125492 C1.09487893,9.10907848 1.78934918,8.82141948 2.50538786,8.85799195 C5.84334438,9.02848179 8.68750211,6.46074271 8.85799195,3.12278619 C8.86849654,2.91712079 8.86849654,2.71105325 8.85799195,2.50538786 C8.79083669,1.19058018 9.8022588,0.0702778698 11.1170665,0.00312260605 C11.8331052,-0.0334498654 12.5275754,0.254209132 13.0080306,0.786385578 C15.2477677,3.26723179 19.0745567,3.46268929 21.5554029,1.22295212 C21.7082582,1.08495259 21.8539699,0.93924084 21.9919694,0.786385578 C22.8741929,-0.190809787 24.3815497,-0.267799712 25.3587451,0.614423769 C25.8909215,1.09487893 26.1785805,1.78934918 26.1420081,2.50538786 C25.9715182,5.84334438 28.5392573,8.68750211 31.8772138,8.85799195 C32.0828792,8.86849654 32.2889467,8.86849654 32.4946121,8.85799195 C33.8094198,8.79083669 34.9297221,9.8022588 34.9968774,11.1170665 C35.0334499,11.8331052 34.7457909,12.5275754 34.2136144,13.0080306 C31.7327682,15.2477677 31.5373107,19.0745567 33.7770479,21.5554029 C33.9150474,21.7082582 34.0607592,21.8539699 34.2136144,21.9919694 C35.1908098,22.8741929 35.2677997,24.3815497 34.3855762,25.3587451 C33.9051211,25.8909215 33.2106508,26.1785805 32.4946121,26.1420081 C29.1566556,25.9715182 26.3124979,28.5392573 26.1420081,31.8772138 C26.1315035,32.0828792 26.1315035,32.2889467 26.1420081,32.4946121 C26.2091633,33.8094198 25.1977412,34.9297221 23.8829335,34.9968774 C23.1668948,35.0334499 22.4724246,34.7457909 21.9919694,34.2136144 C19.7522323,31.7327682 15.9254433,31.5373107 13.4445971,33.7770479 C13.2917418,33.9150474 13.1460301,34.0607592 13.0080306,34.2136144 Z" id="Star" stroke="#4C4C4C" stroke-width="3" fill="#F58524" stroke-linecap="round"></path>
                        <circle id="Oval-6" fill="#FFFFFF" cx="17.5" cy="17.5" r="5.5"></circle>
                        <path d="M17.7075109,12 C14.5553397,12 12,14.5553397 12,17.7075109 C12,20.8596821 14.5553397,23.4150217 17.7075109,23.4150217 L17.7075109,23.4150217 C20.8596821,23.4150217 23.4150217,20.8596821 23.4150217,17.7075109 C23.4150217,16.3297894 22.9268733,15.066081 22.1140999,14.0799094" id="Oval-2" stroke="#4C4C4C" stroke-width="3" stroke-linecap="round"></path>
                    </g>
                    <g id="Group-2" transform="translate(229.000000, 51.000000)">
                        <path d="M9.29145041,24.438296 C8.66129078,25.1362927 7.58460735,25.1912855 6.88661066,24.5611259 C6.50648463,24.2179436 6.30101391,23.7218934 6.32713711,23.2104372 C6.44891556,20.8261826 4.61481622,18.7946414 2.23056156,18.6728629 C2.08365771,18.6653596 1.93646661,18.6653596 1.78956276,18.6728629 C0.850414416,18.7208309 0.0501984784,17.9983866 0.00223043289,17.0592382 C-0.023892761,16.547782 0.181577952,16.0517319 0.561703984,15.7085496 C2.33373699,14.1087373 2.47334949,11.3753167 0.87353723,9.60328365 C0.774966137,9.49410132 0.670886314,9.3900215 0.561703984,9.29145041 C-0.136292705,8.66129078 -0.191285508,7.58460735 0.43887412,6.88661066 C0.782056378,6.50648463 1.27810656,6.30101391 1.78956276,6.32713711 C4.17381741,6.44891556 6.20535865,4.61481622 6.32713711,2.23056156 C6.33464038,2.08365771 6.33464038,1.93646661 6.32713711,1.78956276 C6.27916906,0.850414416 7.00161343,0.0501984784 7.94076177,0.00223043289 C8.45221797,-0.023892761 8.94826815,0.181577952 9.29145041,0.561703984 C10.8912627,2.33373699 13.6246833,2.47334949 15.3967163,0.87353723 C15.5058987,0.774966137 15.6099785,0.670886314 15.7085496,0.561703984 C16.3387092,-0.136292705 17.4153927,-0.191285508 18.1133893,0.43887412 C18.4935154,0.782056378 18.6989861,1.27810656 18.6728629,1.78956276 C18.5510844,4.17381741 20.3851838,6.20535865 22.7694384,6.32713711 C22.9163423,6.33464038 23.0635334,6.33464038 23.2104372,6.32713711 C24.1495856,6.27916906 24.9498015,7.00161343 24.9977696,7.94076177 C25.0238928,8.45221797 24.818422,8.94826815 24.438296,9.29145041 C22.666263,10.8912627 22.5266505,13.6246833 24.1264628,15.3967163 C24.2250339,15.5058987 24.3291137,15.6099785 24.438296,15.7085496 C25.1362927,16.3387092 25.1912855,17.4153927 24.5611259,18.1133893 C24.2179436,18.4935154 23.7218934,18.6989861 23.2104372,18.6728629 C20.8261826,18.5510844 18.7946414,20.3851838 18.6728629,22.7694384 C18.6653596,22.9163423 18.6653596,23.0635334 18.6728629,23.2104372 C18.7208309,24.1495856 17.9983866,24.9498015 17.0592382,24.9977696 C16.547782,25.0238928 16.0517319,24.818422 15.7085496,24.438296 C14.1087373,22.666263 11.3753167,22.5266505 9.60328365,24.1264628 C9.49410132,24.2250339 9.3900215,24.3291137 9.29145041,24.438296 Z" id="Star" stroke="#4C4C4C" stroke-width="3" fill="#F58524" stroke-linecap="round"></path>
                        <circle id="Oval-6" fill="#FFFFFF" cx="12.5" cy="12.5" r="4.5"></circle>
                        <path d="M12.648222,8.57142857 C10.3966712,8.57142857 8.57142857,10.3966712 8.57142857,12.648222 C8.57142857,14.8997729 10.3966712,16.7250155 12.648222,16.7250155 C14.8997729,16.7250155 16.7250155,14.8997729 16.7250155,12.648222" id="Oval-2" stroke="#4C4C4C" stroke-width="3" stroke-linecap="round"></path>
                    </g>
                    <line x1="383.570928" y1="328.53809" x2="416.04348" y2="328.53809" id="Path-4" stroke="#4C4C4C" stroke-width="4" stroke-linecap="round"></line>
                    <g id="Group-32" transform="translate(293.000000, 328.000000)" stroke="#4C4C4C" stroke-linecap="round" stroke-width="4">
                        <path d="M79.579202,13.5744681 L54.579202,13.5744681 C50.9893511,13.5744681 48.079202,10.664319 48.079202,7.07446809 C48.079202,3.48461721 50.9893511,0.574468085 54.579202,0.574468085 L99.579202,0.574468085" id="Rectangle-11"></path>
                        <path d="M55.579202,13.5744681 L79.579202,13.5744681 C83.1690528,13.5744681 86.079202,16.4846172 86.079202,20.0744681 C86.079202,23.664319 83.1690528,26.5744681 79.579202,26.5744681 L0.579201971,26.5744681" id="Rectangle-11"></path>
                    </g>
                    <g id="Group-32" transform="translate(236.000000, 144.000000) scale(-1, 1) translate(-236.000000, -144.000000) translate(178.000000, 124.000000)" stroke="#4C4C4C" stroke-linecap="round" stroke-width="4">
                        <path d="M65.579202,26.5744681 L40.579202,26.5744681 C36.9893511,26.5744681 34.079202,23.664319 34.079202,20.0744681 C34.079202,16.4846172 36.9893511,13.5744681 40.579202,13.5744681 L85.579202,13.5744681" id="Rectangle-11"></path>
                        <path d="M41.579202,26.5744681 L65.579202,26.5744681 C69.1690528,26.5744681 72.079202,29.4846172 72.079202,33.0744681 C72.079202,36.664319 69.1690528,39.5744681 65.579202,39.5744681 L0.579201971,39.5744681" id="Rectangle-11"></path>
                        <path d="M84.579202,0.574468085 L108.579202,0.574468085 C112.169053,0.574468085 115.079202,3.48461721 115.079202,7.07446809 C115.079202,10.664319 112.169053,13.5744681 108.579202,13.5744681 L43.579202,13.5744681" id="Rectangle-11"></path>
                    </g>
                    <line x1="229.266935" y1="328" x2="271.739487" y2="328" id="Path-4" stroke="#4C4C4C" stroke-width="4" stroke-linecap="round"></line>
                    <path d="M293.616009,354.357142 L293.616009,328.042553 C293.616009,322.120181 288.820927,317.319149 282.905895,317.319149 C276.990863,317.319149 272.195782,322.120181 272.195782,328.042553" id="Oval-5" stroke="#4C4C4C" stroke-width="4" stroke-linecap="round"></path>
                    <g id="Group-27" transform="translate(402.869329, 46.287234)" stroke="#4C4C4C" stroke-linecap="round" stroke-width="4">
                        <path d="M21.4202271,10.7234043 C21.4202271,4.80103162 16.625146,0 10.7101136,0 C4.79508118,0 0,4.80103162 0,10.7234043" id="Oval-5"></path>
                        <line x1="21.6754482" y1="11.1245112" x2="47.1480002" y2="11.1245112" id="Path-4"></line>
                    </g>
                    <line x1="523.46281" y1="341.911745" x2="533.935362" y2="341.911745" id="Path-4" stroke="#4C4C4C" stroke-width="4" stroke-linecap="round" transform="translate(528.699086, 341.911745) scale(-1, 1) translate(-528.699086, -341.911745) "></line>
                    <path d="M471.399824,292.22766 L532.092015,292.22766 C534.301154,292.22766 536.092015,294.018521 536.092015,296.22766 L536.092015,323.901875 C536.092015,326.111014 537.882876,327.901875 540.092015,327.901875 L563.468954,327.901875 L563.468954,327.901875" id="Path-4" stroke="#4C4C4C" stroke-width="4" stroke-linecap="round" transform="translate(517.434389, 310.064767) scale(-1, 1) translate(-517.434389, -310.064767) "></path>
                    <path d="M700.398211,255.150998 L749.74434,255.150998 C759.685465,255.150998 767.74434,263.209873 767.74434,273.150998 L767.74434,288.14016 C767.74434,290.128385 769.356115,291.74016 771.34434,291.74016 L823.028261,291.74016 L823.028261,291.74016" id="Path-4" stroke="#4C4C4C" stroke-width="3" stroke-linecap="round" transform="translate(761.713236, 273.445579) scale(-1, 1) translate(-761.713236, -273.445579) "></path>
                    <line x1="24.7303766" y1="326.84016" x2="166.045306" y2="326.84016" id="Path-4" stroke="#4C4C4C" stroke-width="4" stroke-linecap="round" transform="translate(95.387841, 326.840160) scale(-1, 1) translate(-95.387841, -326.840160) "></line>
                    <line x1="0.967786516" y1="326.84016" x2="9.97295447" y2="326.84016" id="Path-4" stroke="#4C4C4C" stroke-width="4" stroke-linecap="round" transform="translate(5.470370, 326.840160) scale(-1, 1) translate(-5.470370, -326.840160) "></line>
                    <g id="Group-29" transform="translate(52.000000, 309.500000) scale(-1, 1) translate(-52.000000, -309.500000) translate(43.000000, 293.000000)" stroke="#4C4C4C" stroke-linecap="round" stroke-width="3">
                        <circle id="Oval-9" cx="9" cy="9" r="9"></circle>
                        <line x1="8.96368351" y1="10.0576819" x2="8.96368351" y2="32.2700357" id="Path-12"></line>
                    </g>
                    <g id="Group-29" transform="translate(372.000000, 147.500000) scale(-1, 1) translate(-372.000000, -147.500000) translate(363.000000, 131.000000)" stroke="#4C4C4C" stroke-linecap="round" stroke-width="3">
                        <circle id="Oval-9" cx="9" cy="9" r="9"></circle>
                        <line x1="8.96368351" y1="10.0576819" x2="8.96368351" y2="32.2700357" id="Path-12"></line>
                    </g>
                    <g id="Group-29" transform="translate(761.000000, 335.500000) scale(-1, 1) translate(-761.000000, -335.500000) translate(752.000000, 319.000000)" stroke="#4C4C4C" stroke-linecap="round" stroke-width="3">
                        <circle id="Oval-9" cx="9" cy="9" r="9"></circle>
                        <line x1="8.96368351" y1="10.0576819" x2="8.96368351" y2="32.2700357" id="Path-12"></line>
                    </g>
                    <g id="Group-29" transform="translate(559.500000, 50.500000) scale(-1, 1) translate(-559.500000, -50.500000) translate(558.000000, 42.000000)" stroke="#4C4C4C" stroke-linecap="round" stroke-width="3">
                        <line x1="1.96368351" y1="0.0576818635" x2="1.96368351" y2="16.2700357" id="Path-12"></line>
                    </g>
                    <g id="Group-6" transform="translate(418.000000, 264.000000)">
                        <path d="M17.7754036,0 L44.7048074,0 C46.8517451,0 48.592182,1.73654335 48.592182,3.87867813 L48.592182,80.285979 C48.592182,82.4281138 46.8517451,84.1646572 44.7048074,84.1646572 L3.88737456,84.1646572 C1.74043687,84.1646572 0,82.4281138 0,80.285979 L0,3.87867813 C0,1.73654335 1.74043687,0 3.88737456,0 L7.50089905,0 L17.7754036,0 Z" id="Rectangle-13" stroke="#4C4C4C" stroke-width="3.6" stroke-linecap="round"></path>
                        <ellipse id="Oval" fill="#FFFFFF" cx="24.1499491" cy="77.4384171" rx="2.63055421" ry="2.6353388"></ellipse>
                        <path d="M9.71894766,8.31145315 L38.8732343,8.31145315 C40.289278,8.31145315 41.4372083,9.45938341 41.4372083,10.8754271 L41.4372083,62.432814 C41.4372083,63.8488578 40.289278,64.996788 38.8732343,64.996788 L9.71894766,64.996788 C8.30290392,64.996788 7.15497366,63.8488578 7.15497366,62.432814 L7.15497366,10.8754271 C7.15497366,9.45938341 8.30290392,8.31145315 9.71894766,8.31145315 Z" id="Rectangle-13" stroke="#4C4C4C" stroke-width="3" fill="#F58524"></path>
                        <ellipse id="Oval-11" fill="#4C4C4C" cx="23.7716762" cy="74.1319138" rx="2" ry="1.99152542"></ellipse>
                    </g>
                    <g id="Group-39" transform="translate(497.000000, 197.000000)">
                        <g id="Loop" transform="translate(31.425547, 37.435279) scale(-1, 1) rotate(8.000000) translate(-31.425547, -37.435279) translate(10.925547, 10.935279)">
                            <ellipse id="Oval" stroke="#4C4C4C" stroke-width="3.3" fill="#F58524" cx="26.8230083" cy="14.3668014" rx="14.0475505" ry="13.778226"></ellipse>
                            <ellipse id="Oval-11" fill="#FFFFFF" cx="24.2136241" cy="8.66095949" rx="2.22222222" ry="2.20338983"></ellipse>
                            <line x1="19.2295652" y1="26.631112" x2="16.2628102" y2="31.0235361" id="Path-6" stroke="#4C4C4C" stroke-width="3.3" stroke-linecap="round"></line>
                            <rect id="Rectangle-19" stroke="#4C4C4C" stroke-width="3.3" transform="translate(9.715808, 41.040200) rotate(-57.000000) translate(-9.715808, -41.040200) " x="-2.28419226" y="37.9554547" width="24" height="6.16949153" rx="3.08474576"></rect>
                        </g>
                        <path d="M47,58.3681023 L47,64 C38.6300802,64 19.7398397,64 3,64 C1.34314575,64 0,62.6568542 0,61 L0,3 C0,1.34314575 1.34314575,0 3,0 L44,0 C45.6568542,0 47,1.34314575 47,3 L47,48.3640705" id="Rectangle-21" stroke="#4C4C4C" stroke-width="3" stroke-linecap="round" stroke-linejoin="round"></path>
                        <line x1="9.46281043" y1="55.2276596" x2="16.9353625" y2="55.2276596" id="Path-4" stroke="#4C4C4C" stroke-width="3" stroke-linecap="round" transform="translate(13.199086, 55.227660) scale(-1, 1) translate(-13.199086, -55.227660) "></line>
                    </g>
                    <g id="Group-39" transform="translate(212.000000, 33.000000)" stroke="#4C4C4C" stroke-linecap="round" stroke-width="3">
                        <path d="M41.6646393,60 C33.2947195,60 19.7398397,60 3,60 C1.34314575,60 0,58.6568542 0,57 L0,3 C0,1.34314575 1.34314575,0 3,0 L54,0 C55.6568542,0 57,1.34314575 57,3 L57,37.3640705" id="Rectangle-21"></path>
                    </g>
                    <g id="Group" transform="translate(166.652729, 213.769460)" stroke="#4C4C4C">
                        <path d="M3.06,61.6382979 L58.140649,61.6382979 C59.8306403,61.6382979 61.200649,63.0083065 61.200649,64.6982979 L61.200649,119.854894 C61.200649,121.544885 59.8306403,122.914894 58.140649,122.914894 L3.06,122.914894 C1.37000867,122.914894 2.6272312e-15,121.544885 0,119.854894 L0,64.6982979 C-2.06964248e-16,63.0083065 1.37000867,61.6382979 3.06,61.6382979 Z" id="Rectangle-18" stroke-width="4" stroke-linecap="round"></path>
                        <path d="M15.3001298,31 L47.4305354,31 C49.1205268,31 50.4905354,32.3700087 50.4905354,34.06 L50.4905354,58.5782979 C50.4905354,60.2682892 49.1205268,61.6382979 47.4305354,61.6382979 L15.3001298,61.6382979 C13.6101385,61.6382979 12.2401298,60.2682892 12.2401298,58.5782979 L12.2401298,34.06 C12.2401298,32.3700087 13.6101385,31 15.3001298,31 Z" id="Rectangle-18" stroke-width="4" stroke-linecap="round"></path>
                        <line x1="23.0405584" y1="41.953944" x2="23.0405584" y2="49.6135184" id="Path-2" stroke-width="3" stroke-linecap="round"></line>
                        <line x1="31.4556476" y1="41.953944" x2="31.4556476" y2="49.6135184" id="Path-2" stroke-width="3" stroke-linecap="round"></line>
                        <line x1="31.4556476" y1="0.953943964" x2="31.4556476" y2="29.6135184" id="Path-2" stroke-width="3" stroke-linecap="round"></line>
                        <line x1="39.8707369" y1="41.953944" x2="39.8707369" y2="49.6135184" id="Path-2" stroke-width="3" stroke-linecap="round"></line>
                        <g id="Group-18" transform="translate(18.000000, 75.000000)" stroke-width="3">
                            <path d="M11.4368713,0 C14.8380149,-6.24779949e-16 17.5951866,2.75717168 17.5951866,6.15831531 L17.5951866,11.5506383 L17.5951866,11.5506383 L5.27855598,11.5506383 L5.27855598,6.15831531 C5.27855598,2.75717168 8.03572765,6.24779949e-16 11.4368713,0 Z" id="Rectangle-9"></path>
                            <rect id="Rectangle-8" fill="#F58524" x="0" y="12.093617" width="22.8737426" height="16.8817021" rx="2.8152"></rect>
                        </g>
                    </g>
                    <path d="M512.740869,58.6116338 L592.628077,58.6116338 C595.941786,58.6116338 598.628077,61.2979253 598.628077,64.6116338 L598.628077,91.185197 L598.628077,91.185197" id="Path-15" stroke="#4C4C4C" stroke-width="4" stroke-linecap="round"></path>
                    <path d="M561.487862,26.88 C561.487862,28.5284262 560.136023,29.8623934 558.465412,29.8623934 C556.794601,29.8623934 555.442563,28.5284262 555.442563,26.88 C555.442563,25.2309836 556.794601,23.8970164 558.465412,23.8970164 C560.135923,23.8970164 561.487862,25.2309836 561.487862,26.88 Z M551.507257,19.1380984 L553.824682,21.055541 C556.136026,18.331541 560.80018,18.331541 563.108534,21.0578033 L565.428949,19.1466557 C563.696039,17.1025246 561.157428,15.9312459 558.465312,15.9312459 C555.772997,15.9312459 553.237376,17.099377 551.507257,19.1380984 Z M547.262749,12.8652131 L549.503222,14.8694098 C551.790942,12.3758689 555.055711,10.9486557 558.465412,10.9486557 C561.872222,10.9486557 565.13699,12.3758689 567.42491,14.8635082 L569.662492,12.8593115 C566.801521,9.7482623 562.721582,7.96577049 558.465412,7.96577049 C554.205653,7.96567213 550.123023,9.75416393 547.262749,12.8652131 Z M543,6.62714754 L545.207878,8.66331148 C548.626151,5.05377049 553.458762,2.98268852 558.465312,2.98268852 C563.545923,2.98268852 568.250945,4.99868852 571.716765,8.65731148 L573.925042,6.618 C569.939598,2.41209836 564.304077,-1.24344979e-14 558.465212,-1.24344979e-14 C552.623257,-1.24344979e-14 546.988035,2.41485246 543,6.62714754 Z" id="Shape" fill="#4C4C4C" fill-rule="nonzero"></path>
                    <g id="Group-28" transform="translate(672.000000, 165.500000) rotate(-40.000000) translate(-672.000000, -165.500000) translate(665.000000, 155.000000)" stroke="#4C4C4C" stroke-linecap="round" stroke-width="3">
                        <path d="M7.70097273,1.27449587 L13.3479558,11.5417377 C13.5608809,11.9288743 13.4196546,12.4153204 13.032518,12.6282455 C12.914402,12.6932092 12.7817854,12.7272727 12.646983,12.7272727 L1.35301698,12.7272727 C0.911189177,12.7272727 0.553016977,12.3691005 0.553016977,11.9272727 C0.553016977,11.7924704 0.587080458,11.6598537 0.65204425,11.5417377 L6.29902727,1.27449587 C6.51195237,0.88735932 6.99839845,0.746133039 7.385535,0.95905814 C7.51846277,1.03216841 7.62786245,1.14156809 7.70097273,1.27449587 Z" id="Triangle"></path>
                        <line x1="7.04060583" y1="12.9989706" x2="7.04060583" y2="20.5493311" id="Path-3"></line>
                    </g>
                    <g id="Group-33" transform="translate(76.000000, 236.000000)" stroke="#4C4C4C" stroke-linecap="round">
                        <path d="M31.8172727,29.4006667 L44.8172727,19.8673334 C45.5212545,19.35108 46.4787455,19.35108 47.1827273,19.8673334 L60.1827273,29.4006667 C60.6964775,29.7774169 61,30.3763896 61,31.0134767 L61,90.8068482 L61,90.8068482 L31,90.8068482 L31,31.0134767 C31,30.3763896 31.3035225,29.7774169 31.8172727,29.4006667 Z" id="Rectangle-14" stroke-width="4"></path>
                        <path d="M37,90.8068482 L7,90.8068482 L7,2 C7,0.8954305 7.8954305,0 9,0 L35,0 C36.1045695,0 37,0.8954305 37,2 L37,14.587569 L37,24.7038504" id="Rectangle-14" stroke-width="4"></path>
                        <line x1="0.967786516" y1="15" x2="26.9729545" y2="15" id="Path-4" stroke-width="3" transform="translate(13.970370, 15.000000) scale(-1, 1) translate(-13.970370, -15.000000) "></line>
                        <line x1="40.5078021" y1="38" x2="40.5078021" y2="42" id="Path-7" stroke-width="3"></line>
                        <line x1="51.5078021" y1="38" x2="51.5078021" y2="42" id="Path-7" stroke-width="3"></line>
                        <line x1="40.5078021" y1="54" x2="40.5078021" y2="58" id="Path-7" stroke-width="3"></line>
                        <line x1="51.5078021" y1="54" x2="51.5078021" y2="58" id="Path-7" stroke-width="3"></line>
                        <line x1="40.5078021" y1="71" x2="40.5078021" y2="75" id="Path-7" stroke-width="3"></line>
                        <line x1="51.5078021" y1="71" x2="51.5078021" y2="75" id="Path-7" stroke-width="3"></line>
                        <line x1="18.8075122" y1="90.696298" x2="18.8075122" y2="31.3907079" id="Path-16" stroke-width="3"></line>
                    </g>
                    <g id="Group-33" transform="translate(252.000000, 273.000000)" stroke="#4C4C4C" stroke-linecap="round">
                        <path d="M110,0 L136,0 C137.104569,-2.02906125e-16 138,0.8954305 138,2 L138,54.8068482 L138,54.8068482 L108,54.8068482 L108,2 C108,0.8954305 108.895431,2.02906125e-16 110,0 Z" id="Rectangle-14" stroke-width="4"></path>
                        <line x1="122.507802" y1="2" x2="122.507802" y2="54" id="Path-7" stroke-width="3"></line>
                        <line x1="108.46281" y1="18" x2="129.935362" y2="18" id="Path-4" stroke-width="4" transform="translate(119.199086, 18.000000) scale(-1, 1) translate(-119.199086, -18.000000) "></line>
                        <line x1="116.46281" y1="37" x2="137.935362" y2="37" id="Path-4" stroke-width="4" transform="translate(127.199086, 37.000000) scale(-1, 1) translate(-127.199086, -37.000000) "></line>
                        <path d="M0.121830391,55.3989939 L0.121830391,14.0639609 C0.121830391,11.3025371 2.36040664,9.06396089 5.12183039,9.06396089 L108.398369,9.06396089 L108.398369,9.06396089" id="Path-14" stroke-width="3" stroke-dasharray="9"></path>
                    </g>
                    <path d="M604.682916,165.116329 L604.682916,212.5809 L648.786284,212.5809 C652.099992,212.5809 654.786284,215.267191 654.786284,218.5809 L654.786284,253.667801 L654.786284,253.667801" id="Path-19" stroke="#4C4C4C" stroke-width="3" stroke-linecap="round" stroke-dasharray="7"></path>
                    <line x1="425.747973" y1="263.023764" x2="425.747973" y2="127.050448" id="Path-20" stroke="#4C4C4C" stroke-width="3" stroke-linecap="round" stroke-dasharray="7"></line>
                    <line x1="608.26905" y1="212.583021" x2="545.172264" y2="212.583021" id="Path-22" stroke="#4C4C4C" stroke-width="3" stroke-linecap="round" stroke-dasharray="7"></line>
                    <path d="M651.76755,28.5313143 L632.085512,28.5313143 C628.771804,28.5313143 626.085512,31.2176058 626.085512,34.5313143 L626.085512,90.9017506 L626.085512,90.9017506" id="Path-23" stroke="#4C4C4C" stroke-width="3" stroke-linecap="round" stroke-linejoin="round"></path>
                    <path d="M682.922018,9 C688.556037,9 693.479569,12.0783938 696.139784,16.6637471 C698.016149,15.5120762 700.21826,14.8490566 702.573394,14.8490566 C709.436419,14.8490566 715,20.4792871 715,27.4245283 C715,33.0853476 711.303946,37.8725657 706.220748,39.4496127 C705.570612,39.8004387 704.825712,40 704.034202,40 L702.65,39.999 L702.573394,40 C702.547703,40 702.522029,39.9999211 702.496374,39.9997635 L683,39.999 L682.922018,40 C682.895993,40 682.869984,39.9999343 682.843989,39.9998031 L665.65,39.999 L665.582569,40 C665.559783,40 665.537015,39.9999191 665.514266,39.9997577 L656.608,40 C654.063072,40 652,37.9369281 652,35.392 L652,35.2495094 C652,32.8929801 653.768923,30.949605 656.051367,30.6747868 C656.04767,30.5674356 656.045872,30.4584587 656.045872,30.3490566 C656.045872,25.0189877 660.315596,20.6981132 665.582569,20.6981132 C666.416138,20.6981132 667.224729,20.8063396 667.99537,21.0096646 C669.560145,14.12985 675.649103,9 682.922018,9 Z" id="Combined-Shape" stroke="#4C4C4C" stroke-width="3" stroke-linecap="round" stroke-linejoin="round" transform="translate(683.500000, 24.500000) scale(-1, 1) translate(-683.500000, -24.500000) "></path>
                </g>
            </g>
        </g>
    </g>
</svg>