<svg xmlns="http://www.w3.org/2000/svg" viewBox="0 0 217.49 217.49"><defs><style>.cls-1{fill:none;}.cls-2{fill:#f58524;stroke:#f58426;}</style></defs><title>Intelligence_hover</title><g id="Layer_2" data-name="Layer 2"><g id="Layer_10" data-name="Layer 10"><rect class="cls-1" width="217.49" height="217.49"/><path class="cls-2" d="M196.85,114.56a33,33,0,0,0-4.86-6.48c-.15-.16-.16-.19-.07-.42l1.09-2.6c1.09-2.58,2.22-5.26,3.21-7.94,3.22-8.77,4.22-17,3-25.14A49.73,49.73,0,0,0,188,46.29a43.33,43.33,0,0,0-23.8-14.61c-.2,0-.28-.1-.42-.37l-.55-1.14a35.8,35.8,0,0,0-1.95-3.71c-4.5-7.16-11-12-20-14.91a50.72,50.72,0,0,0-12.83-2.29,36,36,0,0,0-10.06.5,16,16,0,0,0-9.61,5.86l-.07-.09c-.31-.39-.62-.77-1-1.12-3.08-3.21-7.21-4.91-12.62-5.19a62.27,62.27,0,0,0-15.42,1.21,48.65,48.65,0,0,0-19.16,8,31.59,31.59,0,0,0-11,13.11.58.58,0,0,1-.29.21A35.75,35.75,0,0,0,29.83,44c-7,8.35-10.88,18.24-11.89,30.23a53.64,53.64,0,0,0,1.76,18.3,91.49,91.49,0,0,0,5.16,14.17c.1.22.1.29-.07.51-.76,1-1.55,2-2.27,3.1-4.93,7.62-6.05,15.71-3.32,24.05,2.09,6.38,6.34,11.81,12.63,16.14,1.4,1,2.84,1.79,4.36,2.67l1.7,1-.06.15a30.3,30.3,0,0,0-2.31,10.5A22.16,22.16,0,0,0,42.14,182c4.91,4.84,11.4,7.61,19.84,8.46a.77.77,0,0,1,.81.58c3.28,7.82,8.75,13,16.25,15.35a44.85,44.85,0,0,0,14.25,2,19.76,19.76,0,0,0,13.08-5c.67-.58,1.32-1.19,2-1.79l.54-.5c.21.24.44.5.69.76a19.82,19.82,0,0,0,12.76,6.37q1.69.16,3.42.16a42.81,42.81,0,0,0,11-1.53,25,25,0,0,0,13-7.83,28.94,28.94,0,0,0,4.8-7.68c.2-.47.29-.51.63-.49a10.56,10.56,0,0,0,1.59-.06l.64-.05a43.51,43.51,0,0,0,12.86-2.51c10-3.76,15.59-11,16.52-21.59a22.1,22.1,0,0,0-2.13-11l-.61-1.42-.11-.25.11-.06,1.16-.63c.56-.31,1.11-.63,1.65-1,5.94-3.54,9.67-8.26,11.41-14.43A43,43,0,0,0,199.7,125,22.48,22.48,0,0,0,196.85,114.56Zm-53.12,10.93v-3q0-4.8,0-9.61c0-.29,0-.33.27-.43a13.48,13.48,0,0,0,8.33-13.14,13.62,13.62,0,0,0-11.54-12.48,13.37,13.37,0,0,0-7.21,25.51l.54.22V135H172.9c0,.09,0,.19,0,.28q0,2.08,0,4.15c0,3.69,0,7.5,0,11.24a9.16,9.16,0,0,0,1,4.37l.21.44a27.14,27.14,0,0,1,2.85,7.55c1,6.1-1.22,11.27-6,14.17a28.59,28.59,0,0,1-10.11,3.52,61.67,61.67,0,0,1-11.6.69,1.29,1.29,0,0,0-1.4,1.07l-.26,1a39.62,39.62,0,0,1-1.28,4.34,14.62,14.62,0,0,1-8.11,8.25,27.82,27.82,0,0,1-10,2.42,36,36,0,0,1-5.8,0,9.67,9.67,0,0,1-8.62-8.31,18.47,18.47,0,0,1-.22-2.76q0-8.46,0-16.91v-5.29h16.89c.26,0,.33,0,.47.34a13.38,13.38,0,1,0,21.14-15.21,13.2,13.2,0,0,0-10-3.25c-5.2.53-9,3.33-11.19,8.32-.11.25-.1.24-.26.24h-17V66.14h34c.35,0,.42,0,.58.37,2.43,5.29,6.51,8.07,12.12,8.25a13.41,13.41,0,1,0-12-18.76.74.74,0,0,1-.86.57h0q-13.59,0-27.18,0h-6.65c0-.08,0-.16,0-.24q0-3.28,0-6.55c0-5.55,0-11.28.1-16.92a27.26,27.26,0,0,1,1.65-9.39,6.57,6.57,0,0,1,6.12-4.54,46,46,0,0,1,19.28,2.41C147.59,23.82,152.2,28,154.81,34a29.75,29.75,0,0,1,1.51,4.6,1.8,1.8,0,0,0,1.8,1.48l.38,0a43.54,43.54,0,0,1,4.57.76,31,31,0,0,1,12.88,6.73,40.22,40.22,0,0,1,13.71,25.1,41.58,41.58,0,0,1-1.71,19.1,122,122,0,0,1-7,16.93,1.32,1.32,0,0,0,.28,1.72c2,2,3.7,3.72,5.37,5.54a13.49,13.49,0,0,1,3.5,9.53,31,31,0,0,1-1.56,10.9,15.37,15.37,0,0,1-6,7.59V125.49Zm-8.64-25.35a3.8,3.8,0,0,1,3.84-3.83,3.79,3.79,0,0,1,3.79,3.82,3.72,3.72,0,0,1-1.09,2.65,3.83,3.83,0,0,1-2.72,1.08h0A3.73,3.73,0,0,1,135.1,100.14ZM156.7,61.3a3.69,3.69,0,0,1,3.77-3.75h0a3.83,3.83,0,0,1,2.65,6.51,3.87,3.87,0,0,1-2.75,1.08h0A3.73,3.73,0,0,1,156.7,61.3Zm-17.23,99.08a3.71,3.71,0,0,1,3.79-3.74h0a3.73,3.73,0,0,1,2.65,1.1,3.83,3.83,0,0,1,1.07,2.75,3.71,3.71,0,0,1-3.8,3.74h0a3.71,3.71,0,0,1-2.65-1.1A3.81,3.81,0,0,1,139.47,160.38Zm-93.77-.7a40.51,40.51,0,0,1,3.83-7.53l.12-.19.94-1.6.7-1.2L49,148.41c-1.28-.43-2.53-.84-3.78-1.28a30.62,30.62,0,0,1-11.62-6.85,19.63,19.63,0,0,1-6.14-12.35,19,19,0,0,1,4.6-15c1-1.19,2.08-2.37,3.16-3.53a.65.65,0,0,1,.38-.16H48.76c.15,0,.17,0,.25.21a13.33,13.33,0,0,0,13.24,8.37,13.51,13.51,0,0,0,12.3-10.92A13.38,13.38,0,0,0,49,99.33c-.12.29-.13.28-.28.29q-6.21,0-12.42,0H32.11a68.24,68.24,0,0,1-3.56-11.06,45.88,45.88,0,0,1,4-31.38A33.72,33.72,0,0,1,44.43,43.59a21.19,21.19,0,0,1,9.64-3.41c2.24-.2,2.51-.3,3-2.5.7-2.86,2.28-5.36,5.13-8.12a36,36,0,0,1,13.51-8,51.82,51.82,0,0,1,18.75-2.75,18.14,18.14,0,0,1,2.69.3,6.36,6.36,0,0,1,5.06,4.5,25.24,25.24,0,0,1,1.55,8.53c.1,7.72.12,15.58.15,23.18l0,5.11q0,5.93,0,11.87V78H92V56.54H87.21c-4.34,0-8.68,0-13,0-.35,0-.39,0-.52-.36A13.38,13.38,0,0,0,60.4,47.95a13.41,13.41,0,0,0-5.87,24.92,13.23,13.23,0,0,0,15.21-1.12,13.84,13.84,0,0,0,4-5.35c0-.08.17-.22.17-.23,2.36,0,4.72,0,7.14,0h1.33V87.69h21.55v33.45H73.81V127q0,10.28,0,20.57c0,.34,0,.4-.35.53a13.39,13.39,0,1,0,10.19,0c-.29-.12-.29-.12-.29-.28q0-6.41,0-12.83v-4.16H104v36.31q0,10.3,0,20.61a10.66,10.66,0,0,1-3.4,8.39,9.56,9.56,0,0,1-6.09,2.5,33.39,33.39,0,0,1-14.84-2.34c-5.06-2.15-8.13-5.94-9.4-11.61-.08-.34-.16-.69-.25-1s-.21-.84-.3-1.27a1.08,1.08,0,0,0-1.16-.94l-1.9,0a41,41,0,0,1-5-.28c-5.76-.81-10.14-3-13.4-6.79C44.56,170.17,43.75,165.37,45.7,159.68Zm11.9-55.25a3.84,3.84,0,0,1,1.13-2.75,3.69,3.69,0,0,1,2.62-1.08h0a3.78,3.78,0,0,1,3.8,3.82,3.79,3.79,0,0,1-6.44,2.74A3.82,3.82,0,0,1,57.6,104.43Zm23.68,58.74a3.84,3.84,0,0,1-2.74,1.06,3.81,3.81,0,0,1-2.63-6.48,3.83,3.83,0,0,1,2.7-1.07h0a3.7,3.7,0,0,1,3.73,3.83A3.74,3.74,0,0,1,81.28,163.17ZM65.13,61.42A3.75,3.75,0,0,1,64,64.09a3.8,3.8,0,0,1-2.67,1h-.06a3.79,3.79,0,0,1,.1-7.58h0a3.71,3.71,0,0,1,2.64,1.11A3.84,3.84,0,0,1,65.13,61.42Z"/></g></g></svg>