<svg xmlns="http://www.w3.org/2000/svg" viewBox="0 0 191.31299 44.44434">
  <title>kryptos_logo</title>
  <g id="Layer_2" data-name="Layer 2">
    <g id="Layer_1-2" data-name="Layer 1">
      <g>
        <g>
          <path d="M0,0H8.98535V13.76758H9.082L19.22705,0H30.04834L17.58447,15.7002,31.01465,33.71973H19.56543L9.082,18.40527H8.98535V33.71973H0Z" style="fill: #0e73b3"/>
          <path d="M52.417,15.50684a10.01478,10.01478,0,0,0-2.94678-.29c-4.05811,0-6.32861,2.94727-6.32861,7.875V33.71973H34.44629V8.55078h7.92236v4.6377h.09668C43.96289,10,46.13672,7.9707,49.90527,7.9707a18.50759,18.50759,0,0,1,2.94678.29Z" style="fill: #0e73b3"/>
          <path d="M55.94385,37.24609a10.38426,10.38426,0,0,0,3.43018.53125A4.41879,4.41879,0,0,0,63.77,34.2998L53.57715,8.55078h9.37158l5.41064,16.4248h.09668l5.16943-16.4248H82.3208L73.09375,31.98047c-2.46387,6.3291-4.34766,12.46387-12.31885,12.46387a25.407,25.407,0,0,1-5.41064-.58008Z" style="fill: #0e73b3"/>
          <path d="M85.22119,8.55078h8.019v4.541h.09668C95.07617,9.56543,98.74756,7.9707,102.709,7.9707c6.95654,0,10.77295,6.61816,10.77295,12.70508,0,7.44043-4.00977,13.624-11.49756,13.624-3.04346,0-6.32861-1.11133-7.97119-4.10645H93.917v13.6709h-8.6958ZM99.231,14.6377c-3.18848,0-5.314,2.80176-5.314,6.57031,0,3.6709,2.415,6.4248,5.314,6.4248,3.28467,0,5.26562-2.75391,5.26562-6.76367C104.49658,17.53613,102.6123,14.6377,99.231,14.6377Z" style="fill: #0e73b3"/>
          <path d="M115.46484,8.55078h5.12109V2.89844L129.13672.24121V8.55078h6.08691V14.6377h-6.08691v9.27539c0,3.043.72461,4.58887,3.478,4.58887a16.7075,16.7075,0,0,0,2.65723-.33789l.28955,5.65234a41.63945,41.63945,0,0,1-5.459.4834c-7.77734,0-9.66162-3.43066-9.66162-9.4209V14.6377h-4.97607Z" style="fill: #0e73b3"/>
          <path d="M170.92627,26.76367a21.5398,21.5398,0,0,0,8.16455,1.73828c1.78711,0,3.52637-.28906,3.52637-2.02832,0-4.252-12.36719-1.25684-12.36719-10.33887,0-5.79687,5.70068-8.16406,10.72461-8.16406a23.93135,23.93135,0,0,1,8.84082,1.44922l-.67627,6.03906a14.18221,14.18221,0,0,0-6.76367-1.69141c-1.88379,0-4.00928.33887-4.00928,1.73926,0,3.91309,12.94678.82129,12.94678,10.38672,0,6.71484-6.03857,8.40625-11.73926,8.40625a28.414,28.414,0,0,1-9.13037-1.208Z" style="fill: #0e73b3"/>
        </g>
        <g>
          <path d="M146.788,32.64161a13.702,13.702,0,0,0,4.31578-.136,12.915,12.915,0,0,0,4.86849-2.12705,18.82537,18.82537,0,0,0,5.77434-7.08645,20.75422,20.75422,0,0,1,2.71969-4.20554,6.28679,6.28679,0,0,1,3.03966-2.161,3.68855,3.68855,0,0,1,1.00208-.11123c.09532.00064.26.19162.27319.3088a15.38489,15.38489,0,0,1-.19888,4.39684,15.23852,15.23852,0,0,1-9.99222,11.81581,13.31525,13.31525,0,0,1-4.7779.84537A17.99264,17.99264,0,0,1,146.788,32.64161Z" style="fill: #ea5c18"/>
          <path d="M142.93717,29.1524c.79-.0501,1.58652-.053,2.36883-.1598A9.84251,9.84251,0,0,0,150.1004,26.767a22.24274,22.24274,0,0,0,5.303-6.48671,20.446,20.446,0,0,1,4.21961-5.359,7.55847,7.55847,0,0,1,5.23134-2.11322,5.65948,5.65948,0,0,1,3.2178,1.06422c-.72352.19819-1.476.35065-2.18931.61059a9.94951,9.94951,0,0,0-4.01328,2.92563,46.70722,46.70722,0,0,0-4.53552,6.68121,11.74216,11.74216,0,0,1-6.243,5.2693,10.39139,10.39139,0,0,1-4.93925.4974c-1.083-.16071-2.15562-.39087-3.2329-.58991Z" style="fill: #ea5c18"/>
          <path d="M161.819,6.71052c-3.20969-.07257-5.58388,1.61749-7.73712,3.7188a31.7966,31.7966,0,0,0-4.29885,5.64421,16.296,16.296,0,0,1-4.59126,4.91228,6.57921,6.57921,0,0,1-4.02106,1.26831,4.12816,4.12816,0,0,1-3.08157-1.4607,11.991,11.991,0,0,0,6.81868-4.33332,46.47028,46.47028,0,0,0,2.84133-4.02757,16.58545,16.58545,0,0,1,5.25454-5.252,9.34063,9.34063,0,0,1,8.33026-.70284c.15865.059.31391.12725.47.19294C161.812,6.674,161.81309,6.69387,161.819,6.71052Z" style="fill: #ea5c18"/>
          <path d="M166.58732,9.89666a6.18227,6.18227,0,0,0-5.567,1.06488,20.3154,20.3154,0,0,0-5.1182,5.06507c-1.21678,1.63846-2.3019,3.37576-3.5392,4.99766a13.18164,13.18164,0,0,1-6.80181,4.94126,8.77566,8.77566,0,0,1-5.79012-.1292,8.15938,8.15938,0,0,1-.74521-.37345c.583,0,1.198.00055,1.813-.00012a7.39332,7.39332,0,0,0,3.314-.92311,13.29162,13.29162,0,0,0,4.40978-3.55557c1.219-1.508,2.3199-3.11234,3.45637-4.68615a24.11242,24.11242,0,0,1,5.93887-6.21261,9.03964,9.03964,0,0,1,4.24326-1.60059A6.502,6.502,0,0,1,166.58732,9.89666Z" style="fill: #ea5c18"/>
          <path d="M157.67978,3.86553c-.90134.15885-1.794.27383-2.66559.47833a14.47687,14.47687,0,0,0-5.417,2.66158,27.0408,27.0408,0,0,0-5.49253,5.953,14.38451,14.38451,0,0,1-4.01029,3.94609,3.86229,3.86229,0,0,1-2.05459.6551A15.75835,15.75835,0,0,1,144.69191,6.0757,15.11856,15.11856,0,0,1,157.67978,3.86553Z" style="fill: #ea5c18"/>
        </g>
      </g>
    </g>
  </g>
</svg>
