<svg xmlns="http://www.w3.org/2000/svg" viewBox="0 0 217.48913 217.48913">
  <title>light_weight</title>
  <g id="Layer_2" data-name="Layer 2">
    <g id="Layer_10" data-name="Layer 10">
      <g>
        <rect width="217.48913" height="217.48913" style="fill: none"/>
        <g>
          <path d="M184.411,8.91009h-11.207a63.894,63.894,0,0,0-31.80566,8.49512,6.07458,6.07458,0,1,0,6.05762,10.53125,51.49694,51.49694,0,0,1,22.60059-6.80664L158.619,33.08489c-14.68066,15.32422-29.49219,31.81836-44.085,49.09082a40.69541,40.69541,0,0,0-4.91895-15.69824c4.75977-5.67285,9.42578-11.05762,14.22852-16.42188a6.06222,6.06222,0,0,0-8.65625-8.48926q-.20068.20361-.38086.42285C97.66,61.15814,82.3514,80.249,63.62093,105.82025a25.81113,25.81113,0,0,0-1.03906,29.01465c-11.74707,16.06348-22.208,30.93164-34.59473,50.45117a6.08478,6.08478,0,0,0-.9707,3.24219V202.537a6.21894,6.21894,0,0,0,2.56348,4.95117,6.01221,6.01221,0,0,0,3.45215,1.09082h.05176a5.81579,5.81579,0,0,0,2-.35645l14.17676-4.99219a5.98094,5.98094,0,0,0,3.09961-2.48047c12.32715-19.4248,22.53516-33.92187,33.92773-49.46875a27.82893,27.82893,0,0,0,5.25488.501,1.37676,1.37676,0,0,1,.16895,0,29.337,29.337,0,0,0,23.53418-11.89551c19.9834-27.1875,36.334-47.05176,56.43164-68.55664a68.78014,68.78014,0,0,0,18.79492-47.51367V14.97259A6.06866,6.06866,0,0,0,184.411,8.91009Zm-6.42676,21.43066a57.31762,57.31762,0,0,1-13.40234,30.80371,41.18525,41.18525,0,0,0-12.73145-2.01562q-.48486,0-.9707.01172c5.43164-5.94824,10.959-11.87988,16.47852-17.68359ZM155.22054,71.42864c-10.55469,11.60938-20.1377,22.918-29.86914,35.24609A41.23582,41.23582,0,0,0,113.98812,105.08q-1.37842,0-2.75684.0918c7.75879-9.56641,15.999-19.33594,24.55469-29.10938A28.7335,28.7335,0,0,1,155.22054,71.42864Zm-38.17871,45.92188c-3.37109,4.41992-7.09375,9.38867-11.51562,15.36719l-.00293.00293A17.12019,17.12019,0,0,1,86.87679,138.957q-.79541-.24316-1.57617-.53613c4.03027-5.37988,8.14844-10.78613,12.26855-16.10645A28.95108,28.95108,0,0,1,117.04183,117.35052ZM74.67073,146.71087c-7.94434,10.91113-14.47559,20.209-20.81543,29.63281l-3.78613-2.73828c6.292-9.36523,12.80859-18.63086,20.78809-29.55566A36.73635,36.73635,0,0,0,74.67073,146.71087Zm22.77051-43.7832-.12012.18848c-7.47656,9.34961-14.88379,18.918-22.0459,28.47949a26.49572,26.49572,0,0,1-2.29687-2.98242,13.827,13.827,0,0,1,.458-15.64746c10.45117-14.24121,19.292-25.78711,27.58789-36.02344A29.065,29.065,0,0,1,97.44124,102.92767ZM47.1678,186.45892c-1.39355,2.127-2.67383,4.12109-3.877,6.041l-4.13379,1.458.01855-3.623c1.10742-1.7334,2.19238-3.42187,3.26172-5.085l.96973-1.50977Z" style="fill: #fff"/>
          <path d="M130.93636,39.36907h.06445a6.294,6.294,0,0,0,4.292-1.792,6.16269,6.16269,0,0,0,1.7373-4.248,6.09235,6.09235,0,0,0-1.80273-4.35645A6.25078,6.25078,0,0,0,130.992,27.246a5.9282,5.9282,0,0,0-4.34863,1.792,6.16269,6.16269,0,0,0-1.7373,4.248,6.09317,6.09317,0,0,0,1.80371,4.35742A6.24692,6.24692,0,0,0,130.93636,39.36907Z" style="fill: #fff"/>
        </g>
      </g>
    </g>
  </g>
</svg>
