<svg xmlns="http://www.w3.org/2000/svg" viewBox="0 0 217.49 217.49"><defs><style>.cls-1{fill:none;}.cls-2,.cls-3{fill:#595b5d;stroke:#595b5d;stroke-width:3px;}.cls-2{stroke-miterlimit:10;}</style></defs><title>SIEM_&amp;amp;_Log_Management</title><g id="Layer_2" data-name="Layer 2"><g id="Layer_10" data-name="Layer 10"><rect class="cls-1" width="217.49" height="217.49"/><path class="cls-2" d="M194.84,63.33H190V31.46A23.88,23.88,0,0,0,166.21,7.62H51.28A23.88,23.88,0,0,0,27.45,31.46V63.33h-4.8A13.35,13.35,0,0,0,9.31,76.67v64.5A13.35,13.35,0,0,0,22.65,154.5h4.8V186a23.88,23.88,0,0,0,23.84,23.84H166.21A23.88,23.88,0,0,0,190,186V154.5h4.8a13.35,13.35,0,0,0,13.33-13.33V76.67A13.35,13.35,0,0,0,194.84,63.33ZM38.3,31.46a13,13,0,0,1,13-13h9.48v-.13H164.92v.13h1.33a13,13,0,0,1,13,13V63.33H38.3ZM179.19,186a13,13,0,0,1-13,13H51.28a13,13,0,0,1-13-13V154.5H179.2Zm19-44.86a3.34,3.34,0,0,1-3.33,3.33H22.65a3.34,3.34,0,0,1-3.33-3.33V76.67a3.34,3.34,0,0,1,3.33-3.33h172.2a3.34,3.34,0,0,1,3.33,3.33Z"/><polygon class="cls-3" points="42.61 134.2 42.61 83.37 54.16 83.37 54.16 124.57 74.4 124.57 74.4 134.24 42.61 134.2"/><path class="cls-3" d="M174.88,131.85a57.3,57.3,0,0,1-17,2.85c-9.28,0-16-2.35-20.68-6.85s-7.24-11-7.17-18.48c.07-16.9,12.36-26.57,29-26.57,6.55,0,11.63,1.27,14.09,2.5l-2.43,9.2a28.38,28.38,0,0,0-11.86-2.2c-9.59,0-16.83,5.43-16.83,16.44,0,10.47,6.55,16.67,16,16.67a15.13,15.13,0,0,0,5.66-.77V114h-7.86v-9h18.94l.07,26.8Z"/><path class="cls-3" d="M101.23,82.48c-15.06,0-24.84,11.41-24.8,26.64,0,14.48,8.82,25.88,23.92,25.88,14.83,0,25-10.09,25-26.76C125.3,94.23,116.75,82.52,101.23,82.48Zm-.29,43.46c-7.71,0-12.36-7-12.36-17S93,91.67,100.87,91.67s12.28,7.86,12.28,17C113.15,118.58,108.65,125.94,100.94,125.94Z"/></g></g></svg>