<svg xmlns="http://www.w3.org/2000/svg" viewBox="0 0 217.48913 217.48913">
  <title>Managment_hover</title>
  <g id="Layer_2" data-name="Layer 2">
    <g id="Layer_10" data-name="Layer 10">
      <g>
        <rect width="217.48913" height="217.48913" style="fill: none"/>
        <path d="M97.58571,177.49456c-.77758-4.69065-1.57655-9.29643-2.27887-13.91688a2.04316,2.04316,0,0,0-1.46793-1.84314c-3.26236-1.30916-6.49377-2.69985-9.6994-4.14293a1.8709,1.8709,0,0,0-2.09525.1677c-3.54742,2.415-7.13068,4.77736-10.70248,7.15648-.35616.23723-.72055.4621-1.03443.66284l-17.9581-17.964c.9808-1.494,1.9965-3.05707,3.02847-4.60934,1.62872-2.4499,3.29507-4.87555,4.87511-7.35629a1.73547,1.73547,0,0,0,.111-1.48834,40.38105,40.38105,0,0,1-4.56988-10.58,1.59521,1.59521,0,0,0-1.11739-.819q-5.62015-1.01342-11.26237-1.90319c-3.13993-.49078-3.14634-.45374-3.1451-3.63344q.00389-9.9909.00888-19.98181c.00023-.52564,0-1.05129,0-1.71924,3.0527-.373,6.0115-.73376,8.97-1.09681a7.51817,7.51817,0,0,1,1.71957-.20544c3.17374.37523,4.52045-1.24548,5.34354-4.14028.74309-2.61343,2.16372-5.03036,3.20839-7.56574a1.84983,1.84983,0,0,0-.12466-1.4826c-2.599-3.99877-5.25719-7.95907-7.83638-11.8356L69.60044,51.17881c3.51162,2.56907,7.22526,5.16549,10.78839,7.95423,1.35378,1.05956,2.28566,1.01121,3.77632.24252a89.63479,89.63479,0,0,1,8.86725-3.792,1.8494,1.8494,0,0,0,1.4263-1.663c.70819-4.61819,1.50035-9.2235,2.27812-13.926h24.8247c.307,2.69181.62377,5.40318.92331,8.11644.217,1.9654.43516,3.93125.60454,5.90105A1.70736,1.70736,0,0,0,124.399,55.621c3.34253,1.34778,6.64927,2.79071,9.92143,4.302a1.59906,1.59906,0,0,0,1.9258-.20795c3.47609-2.59961,6.98953-5.14929,10.49085-7.71515.42275-.3098.85054-.61273,1.20349-.86667L165.922,69.15023c-1.707,2.34035-3.51339,4.82009-5.32336,7.29719-1.13845,1.55807-2.31535,3.08978-3.39795,4.68559a1.70637,1.70637,0,0,0-.18232,1.38132c1.50276,3.595,3.04826,7.17307,4.66606,10.71743a1.99906,1.99906,0,0,0,1.35109.76993c4.27216.74948,8.5483,1.48263,12.83816,2.12039,1.03538.15392,1.35235.49017,1.34625,1.53576q-.06506,11.1489-.003,22.2983c.00488.97865-.33134,1.31778-1.2716,1.48873-3.46042.62915-6.89859,1.38-10.35689,2.0218a1.99969,1.99969,0,0,0-1.63439,1.507q-1.95653,4.8841-4.15225,9.67065a1.68562,1.68562,0,0,0,.10482,2.0481c2.92106,3.89161,5.77417,7.83423,8.59932,11.68867l-18.0438,17.96911c-1.75339-1.27748-3.7252-2.70932-5.6918-4.14826-2.02391-1.48086-4.05965-2.94648-6.05387-4.46647a1.38124,1.38124,0,0,0-1.801-.11343,35.90514,35.90514,0,0,1-10.29952,4.47985,1.69217,1.69217,0,0,0-.90073,1.18245c-.83679,4.69736-1.60573,9.40681-2.4097,14.2102ZM108.8762,82.70218a25.10743,25.10743,0,0,0-25.76214,25.0601c-.12243,14.922,10.78564,26.16153,25.48217,26.25656a25.19342,25.19342,0,0,0,25.76547-25.25243C134.48243,93.92444,123.62456,82.82,108.8762,82.70218Z" style="fill: none;stroke: #f58426;stroke-miterlimit: 10;stroke-width: 12px"/>
      </g>
    </g>
  </g>
</svg>
