<svg xmlns="http://www.w3.org/2000/svg" viewBox="0 0 217.48913 217.48913">
  <title>Managment_white</title>
  <g id="Layer_2" data-name="Layer 2">
    <g id="Layer_10" data-name="Layer 10">
      <g>
        <rect width="217.48913" height="217.48913" style="fill: none"/>
        <path d="M128.38449,183.4947H92.49777l-1.45312-8.73926c-.45215-2.69629-.917-5.4668-1.35254-8.22949-1.96094-.80859-3.96777-1.666-6.06348-2.59277q-3.19922,2.15771-6.417,4.28516l-2.54492,1.69141c-.27441.18359-.56055.36426-.8291.53516l-4.35645,2.79395L44.655,148.40486l3.55273-5.418c.71191-1.08789,1.43945-2.19922,2.17383-3.30469q.74854-1.125,1.50586-2.249c.62012-.92383,1.252-1.86523,1.875-2.80859a46.28185,46.28185,0,0,1-2.85742-6.43945c-2.94141-.51562-5.7168-.97559-8.418-1.39844l-.10937-.0166c-5.98828-.93652-8.11035-3.43457-8.1084-9.54687L34.278,90.21247,48.66672,88.441a10.49592,10.49592,0,0,1,1.94043-.23242,38.61534,38.61534,0,0,1,2.26465-5.55469c.05859-.124.11719-.24609.1748-.36816-1.60645-2.44727-3.22754-4.87793-4.82812-7.28027l-4.37988-6.57812,25.15723-25.124,4.14648,3.0332q1.46338,1.06934,2.96582,2.15039c2.17969,1.57324,4.42188,3.19238,6.64453,4.88965,2.03809-.98047,4.09668-1.82324,6.127-2.61816.43359-2.73145.8916-5.47168,1.33789-8.14062l1.43066-8.623h35.2666l.86523,7.5625q.33838,2.93994.66895,5.89453l.0127.11816c.12207,1.10938.24707,2.23926.36426,3.38086,1.89258.78809,3.80664,1.61914,5.77832,2.50781q2.96484-2.1958,5.94531-4.36621l2.64063-1.93164c.30566-.22461.61133-.44336.89258-.64453l4.49609-3.23633,25.21289,25.26172-8.34863,11.44629c-.33984.46484-.68457.92969-1.02832,1.39355q-.44385.59766-.86816,1.1748c.88281,2.07715,1.73145,4.02832,2.56152,5.8916,3.44922.59863,7.05957,1.20605,10.64746,1.73926a7.16619,7.16619,0,0,1,6.46484,7.50391c-.041,6.99414-.043,14.26758-.00391,22.23633a7.16652,7.16652,0,0,1-6.19824,7.4209c-1.78809.3252-3.57031.68359-5.35254,1.042q-1.42529.28711-2.85352.56836c-.832,2.02539-1.709,4.07129-2.623,6.12012,1.67773,2.26074,3.335,4.52832,4.94922,6.73828l5.25488,7.17676-25.32422,25.2207-5.59082-4.07129c-1.36133-.99023-2.80762-2.043-4.252-3.09961l-1.333-.97266q-1.24512-.9082-2.48828-1.82227a41.21259,41.21259,0,0,1-6.25684,2.79c-.48437,2.79688-.95117,5.59961-1.42187,8.42969Zm-25.71875-12h15.55762c.51855-3.1084,1.03711-6.1875,1.585-9.2627a7.55265,7.55265,0,0,1,5.46973-5.97852,30.60623,30.60623,0,0,0,8.56934-3.78809,7.3034,7.3034,0,0,1,8.50684.499c1.51855,1.15723,3.06445,2.2832,4.6084,3.40918l1.35059.98633q.77344.56543,1.543,1.127l10.76563-10.72266c-1.80664-2.47266-3.66016-5.001-5.51367-7.4707a7.5964,7.5964,0,0,1-.76465-8.14062c1.44824-3.165,2.80664-6.3291,4.04-9.40918a7.93953,7.93953,0,0,1,6.11133-5.17676c1.60449-.29785,3.20508-.62012,4.80664-.94141q.94922-.19189,1.89941-.38086c-.01758-5.16113-.0166-10.04492.001-14.77441-3.15137-.50488-6.25488-1.041-9.2041-1.55957a7.84639,7.84639,0,0,1-5.77051-4.18359c-1.51855-3.33008-3.07031-6.89355-4.74414-10.89844a7.63609,7.63609,0,0,1,.75586-7.06836c.833-1.22852,1.69922-2.39648,2.53613-3.52637q.49072-.66064.97852-1.3252l2.29785-3.15039L147.321,59.00642c-2.501,1.8291-5.001,3.65918-7.48242,5.51367a7.59066,7.59066,0,0,1-8.0293.85254c-3.376-1.55957-6.53125-2.92871-9.65332-4.1875A7.64645,7.64645,0,0,1,117.112,54.526c-.16113-1.85742-.36328-3.69531-.57812-5.64062l-.0127-.11621q-.15381-1.38721-.31152-2.77441H101.81906c-.502,3.00879-.97949,5.89746-1.42969,8.835a7.79611,7.79611,0,0,1-5.19824,6.35156,84.1873,84.1873,0,0,0-8.27637,3.52734A8.85991,8.85991,0,0,1,76.69113,63.859c-2.10254-1.64648-4.30469-3.25488-6.46875-4.82031L59.28,69.96638c1.71484,2.57324,3.44238,5.17676,5.14551,7.7959a7.804,7.804,0,0,1,.63867,7.04492c-.43066,1.04785-.89551,2.03027-1.34473,2.97949a27.448,27.448,0,0,0-1.63672,3.93652c-2.28125,8.01758-8.207,8.7168-11.208,8.51367-.30078.05762-.60059.10938-.89941.14648l-3.69922.45215-.00586,14.40137c3.00781.48438,6.125,1.0166,9.46973,1.61914a7.39885,7.39885,0,0,1,5.88574,5.31543,35.34423,35.34423,0,0,0,3.94043,8.999,7.63544,7.63544,0,0,1-.25781,7.71c-1.13379,1.78027-2.31543,3.54-3.458,5.24121q-.73975,1.10156-1.47656,2.20508c-.11035.166-.21973.332-.33008.498l11.04785,11.05176c2.53223-1.68262,5.06348-3.36621,7.57715-5.07715a7.79836,7.79836,0,0,1,7.93555-.67871c3.36719,1.5166,6.46582,2.83984,9.46973,4.0459a7.988,7.988,0,0,1,5.165,6.51367C101.6843,165.608,102.16184,168.48884,102.66574,171.4947Zm25.293-3.54492-.00391.001Zm3.665-3.62012-.002.00977Zm-76.43164-31.9043-.00781.01172Zm-5.23047-7.43262.002.00684Zm.30176-35.78027ZM162.17063,84.4947l-.00391.00586Zm.38184-4.29687.002.00293Zm-53.77539,59.82227c-.07324,0-.14551-.001-.21973-.001A31.423,31.423,0,0,1,86.155,130.79451a32.15829,32.15829,0,0,1-9.041-23.08105A31.07759,31.07759,0,0,1,108.653,76.70076c.08984,0,.18066,0,.27148.001h0a31.56721,31.56721,0,0,1,22.56055,9.31641,31.90913,31.90913,0,0,1,8.877,22.79688A31.20437,31.20437,0,0,1,108.77707,140.02009Zm-.11719-51.31934A19.20655,19.20655,0,0,0,89.114,107.81111a20.25062,20.25062,0,0,0,5.58789,14.56055,19.51139,19.51139,0,0,0,13.93359,5.64746c.04785,0,.09668.001.14355.001a19.10391,19.10391,0,0,0,19.583-19.30273,19.997,19.997,0,0,0-5.457-14.31055,19.66009,19.66009,0,0,0-14.07617-5.70508C108.77317,88.70076,108.71555,88.70076,108.65988,88.70076Z" style="fill: #fff"/>
      </g>
    </g>
  </g>
</svg>
