<svg xmlns="http://www.w3.org/2000/svg" viewBox="0 0 217.48913 217.48913">
  <title>Marketing_white</title>
  <g id="Layer_2" data-name="Layer 2">
    <g id="Layer_10" data-name="Layer 10">
      <g>
        <rect width="217.48913" height="217.48913" style="fill: none"/>
        <g>
          <path d="M154.17559,125.64984l-.8252-5.66406q-2.48584-17.05957-4.97559-34.11621l-1.00488-6.88281q-2.20459-15.09814-4.43164-30.19238a12.2775,12.2775,0,0,0-8.38281-10.05176,11.93527,11.93527,0,0,0-12.41309,2.17676,17.42567,17.42567,0,0,0-4.33887,5.85645l-.56543,1.14746c-1.04,2.11328-2.11621,4.29883-3.24121,6.38672A38.607,38.607,0,0,1,97.00274,70.726c-9.67187,4.86426-19.99707,6.90527-28.82031,8.26074-3.08789.47363-6.251.88965-9.31055,1.292-1.97754.26074-3.95605.52051-5.93066.79785l-1.84668.25781C46.202,82.019,41.14141,82.727,36.1668,83.50727l-1.21777.1875a47.963,47.963,0,0,0-7.91895,1.6748c-7.61719,2.52246-12.7793,8.1709-14.93066,16.334A36.9922,36.9922,0,0,0,13.785,125.18891,26.30344,26.30344,0,0,0,23.491,137.811a21.6494,21.6494,0,0,0,12.49121,3.85352,38.62358,38.62358,0,0,0,6.0332-.64844c.4082-.06641.81641-.13281,1.26172-.19922q7.86768,9.47021,15.75586,18.92676,6.022,7.22607,12.04,14.457a14.64276,14.64276,0,0,0,7.30859,4.7627,15.79582,15.79582,0,0,0,4.42188.64258,15.57287,15.57287,0,0,0,8.123-2.334c4.11523-2.49121,8.08984-5.28516,11.93359-7.98828l1.05859-.74414a5.63381,5.63381,0,0,0,2.58691-3.76758,5.94952,5.94952,0,0,0-1.51074-4.5625L84.91875,134.76117c.64355-.05859,1.28809-.1123,1.93359-.15723a81.70509,81.70509,0,0,1,17.99316.47461,39.82679,39.82679,0,0,1,15.89648,5.68262,57.82147,57.82147,0,0,1,11.14648,10.01563l.46094.502a39.97383,39.97383,0,0,0,3.14063,3.18652,12.64815,12.64815,0,0,0,14.74414,1.69629c4.55469-2.58887,7.25977-7.68164,6.5791-12.38281Q155.49785,134.71283,154.17559,125.64984Zm-9.22266,21.125a1.1592,1.1592,0,0,1-1.46484.10352,10.32711,10.32711,0,0,1-2.25586-1.82617l-.35059-.38086a88.34668,88.34668,0,0,0-10.77246-10.41113,50.17158,50.17158,0,0,0-22.71582-9.62012,80.875,80.875,0,0,0-13.33887-1.04883q-2.231,0-4.56055.10352L84.06035,86.853c.60645-.1582,1.209-.31836,1.80859-.48437a82.75687,82.75687,0,0,0,17.14551-6.6748,49.08248,49.08248,0,0,0,20.41113-20.21484c.75977-1.40625,1.46875-2.84277,2.15527-4.23145.59766-1.21094,1.19629-2.42285,1.82813-3.61621a11.46763,11.46763,0,0,1,1.62012-2.40039,1.23562,1.23562,0,0,1,1.5293-.31445c1.37012.47461,1.45313,1.02637,1.50879,1.3916q.98291,6.52148,1.9375,13.04688l10.21191,69.10547q.271,1.83691.55176,3.67383c.43945,2.89648.89355,5.8916,1.2793,8.832C146.08379,145.24359,146.16875,145.893,144.95293,146.77484ZM66.8582,126.32563q-2.80078.44092-5.60449.87109-3.46.52588-6.917,1.07422c-5.79492.91016-11.78711,1.85059-17.68359,2.5752-4.13086.51074-7.665-1.13281-10.50977-4.876a23.32379,23.32379,0,0,1-4.24512-10.61523c-.86328-5.25879-.415-9.7002,1.37109-13.57617a10.31043,10.31043,0,0,1,6.7627-6.13281,50.20258,50.20258,0,0,1,5.96973-1.127l.64258-.0957c4.73926-.709,9.48535-1.37891,14.23242-2.04883l2.72754-.38477q3.62109-.5127,7.24316-1.01465,4.91748-.68555,9.832-1.38281c.92676-.13281,1.85059-.28906,2.78906-.4541L78.7,124.58344c-1.73828.22754-3.4502.45313-5.15723.708C71.31328,125.62543,69.08574,125.975,66.8582,126.32563Zm-2.6543,11.5791c2.8125-.39355,5.625-.78711,8.43457-1.19824l20.55273,26.00977c-.72363.502-1.44434.998-2.17285,1.48145-.50488.33594-1.00781.67676-1.50977,1.01758-1.50977,1.02441-2.93555,1.99219-4.43164,2.81152a4.34365,4.34365,0,0,1-4.61621.16992,3.22532,3.22532,0,0,1-.85156-.6709q-11.19287-13.32129-22.35645-26.6709l-1.47656-1.7627Z" style="fill: #fff"/>
          <path d="M206.57207,94.5932c-.02637-.37793-.05273-.80566-.08008-1.27051-.07031-1.165-.15723-2.61621-.30469-4.05566a56.12942,56.12942,0,0,0-9.75586-26.459A54.55419,54.55419,0,0,0,178.3582,46.20551a5.44292,5.44292,0,0,0-5.88086.05469,5.26285,5.26285,0,0,0-2.4502,4.5752,5.65236,5.65236,0,0,0,2.94434,4.72656,43.57772,43.57772,0,0,1,11.2627,9.16113A45.82363,45.82363,0,0,1,195.741,93.27a43.97965,43.97965,0,0,1-8.31543,28.44043c-.80371,1.12012-1.71777,2.18066-2.68555,3.30273-.47852.55469-.957,1.11035-1.42383,1.6748a5.392,5.392,0,0,0,.67578,7.62109,5.04087,5.04087,0,0,0,3.33691,1.2666,5.462,5.462,0,0,0,3.98633-1.79687c10.07715-10.81152,15.06934-23.56152,15.2627-38.97949l.001-.10352Z" style="fill: #fff"/>
          <path d="M182.31133,93.95746l-.02832-.21191c-.09473-.69434-.17285-1.3916-.251-2.08887a43.897,43.897,0,0,0-.74512-4.92676C178.949,76.49457,172.90508,68.476,162.80645,62.2143a5.67228,5.67228,0,0,0-3.72949-.69238,5.40212,5.40212,0,0,0-1.96484,9.8457,34.49263,34.49263,0,0,1,7.26172,5.98438c6.94922,7.77734,8.66113,16.15625,5.2334,25.61621a32.9996,32.9996,0,0,1-6.07715,10.041,5.712,5.712,0,0,0-1.45508,4.04688,5.3958,5.3958,0,0,0,1.98438,3.80566,5.15675,5.15675,0,0,0,3.33984,1.251c.15137,0,.30371-.00684.45508-.02051a5.87163,5.87163,0,0,0,3.96777-2.23145l.08887-.1084c.77051-.93945,1.56836-1.91113,2.31348-2.94043a40.05669,40.05669,0,0,0,8.0791-22.64062Z" style="fill: #fff"/>
          <path d="M33.00469,109.9516l.31641-.02148c.12012-.0127.30566-.0332.4834-.05957l4.97949-.72949q7.88379-1.1543,15.76758-2.31836a5.35152,5.35152,0,0,0,4.63184-6.05176,5.43049,5.43049,0,0,0-2.13867-3.60742,5.492,5.492,0,0,0-4.11816-1.0293Q42.428,97.6767,31.93535,99.24945a5.40162,5.40162,0,0,0-4.60742,5.75293,5.5663,5.5663,0,0,0,5.62793,4.94922Z" style="fill: #fff"/>
          <path d="M57.19316,110.31586A7.78539,7.78539,0,0,0,54.407,110.27c-3.7002.51563-7.39551,1.06055-11.08984,1.60742l-1.93555.28418c-2.46875.3623-5.02148.7373-7.53613,1.165a5.28111,5.28111,0,0,0-4.415,5.96191,5.55063,5.55063,0,0,0,5.71973,4.69043h.02637l.37012-.02734c.1709-.01855.459-.05078.74512-.09277l1.30859-.19238q5.332-.78076,10.66406-1.56934l1.874-.27637c2.21777-.32617,4.51172-.66406,6.77148-1.04492a5.24776,5.24776,0,0,0,4.3877-5.04687A5.33015,5.33015,0,0,0,57.19316,110.31586Z" style="fill: #fff"/>
        </g>
      </g>
    </g>
  </g>
</svg>
