<svg xmlns="http://www.w3.org/2000/svg" viewBox="0 0 217.48913 217.48913">
  <title>Marketing_hover</title>
  <g id="Layer_2" data-name="Layer 2">
    <g id="Layer_10" data-name="Layer 10">
      <g>
        <rect width="217.48913" height="217.48913" style="fill: none"/>
        <g>
          <path d="M80.1905,132.77021c.3913.50919.71964.94635,1.05815,1.37547q10.89089,13.8064,21.78313,27.61175c1.47933,1.87563,1.40114,3.36608-.54958,4.73592-4.22462,2.96662-8.4394,5.97013-12.851,8.63991a12.91992,12.91992,0,0,1-10.55274,1.42919,12.11415,12.11415,0,0,1-6.08381-3.96044q-14.00467-16.83674-28.02537-33.66016a1.66043,1.66043,0,0,0-1.76321-.64445,51.06627,51.06627,0,0,1-7.23433.86674,19.32448,19.32448,0,0,1-11.078-3.42373A23.99089,23.99089,0,0,1,16.109,124.26811a34.43206,34.43206,0,0,1-1.59154-21.92776c1.87811-7.12785,6.208-12.24884,13.29914-14.59772a54.74047,54.74047,0,0,1,8.73825-1.76531c5.56759-.87359,11.15185-1.6425,16.73337-2.42515,5.08908-.71363,10.19487-1.315,15.27349-2.09477,10.21267-1.568,20.24163-3.80929,29.56424-8.49821a40.8862,40.8862,0,0,0,18.07132-17.46251c1.34913-2.50265,2.58919-5.06485,3.84864-7.61487a14.92832,14.92832,0,0,1,3.698-5.04287,9.46528,9.46528,0,0,1,9.933-1.75568,9.8187,9.8187,0,0,1,6.78868,8.07819q2.7479,18.53,5.43514,37.069,2.90591,19.8889,5.80168,39.77932,1.32106,9.06334,2.63615,18.12756c.52847,3.64693-1.72436,7.79562-5.34011,9.85136a10.1164,10.1164,0,0,1-11.85956-1.40271,45.61817,45.61817,0,0,1-3.40921-3.5018,60.17615,60.17615,0,0,0-11.64086-10.42973,42.51244,42.51244,0,0,0-16.8723-6.04875,85.16313,85.16313,0,0,0-18.53589-.49586c-1.8107.1245-3.61642.32258-5.4237.49451C80.934,132.63507,80.61474,132.70307,80.1905,132.77021Zm7.15422-6.515c.42874,0,.732.01452,1.03349-.00215a84.59218,84.59218,0,0,1,18.60533.853,47.42016,47.42016,0,0,1,21.59964,9.13335,89.22665,89.22665,0,0,1,10.81242,10.50809,12.82743,12.82743,0,0,0,2.81022,2.27782,3.64063,3.64063,0,0,0,4.21452-.22666,4.353,4.353,0,0,0,2.10567-4.15645c-.54933-4.19085-1.21744-8.36609-1.83675-12.54778q-1.62111-10.94611-3.24112-21.89241-1.63111-11.02818-3.259-22.05684-1.6101-10.906-3.21815-21.81229-1.21108-8.19967-2.4323-16.39784a4.2013,4.2013,0,0,0-3.16283-3.38067,3.72094,3.72094,0,0,0-4.18649.98444,13.99247,13.99247,0,0,0-1.98909,2.92244c-1.37,2.58562-2.58323,5.25494-3.9735,7.829a46.418,46.418,0,0,1-19.392,19.19969A80.59071,80.59071,0,0,1,85.20123,83.9597c-1.2951.359-2.59909.686-3.94183,1.039C83.294,98.79239,85.31688,112.50707,87.34473,126.25517Zm-5.80144.473c-1.99753-13.53392-3.98478-26.99827-5.97722-40.49765-1.81672.31-3.523.64085-5.24137.887-5.688.81472-11.38137,1.59235-17.07092,2.39661-5.66171.80034-11.32508,1.59046-16.98,2.43674a58.42474,58.42474,0,0,0-6.90594,1.28536,12.85661,12.85661,0,0,0-8.36936,7.49664c-2.21708,4.81318-2.40847,9.89894-1.56741,15.027a25.89678,25.89678,0,0,0,4.722,11.72277c3.21383,4.22984,7.51263,6.49557,12.80459,5.84534,8.24922-1.01355,16.45139-2.4115,24.67152-3.65959,4.0964-.622,8.1857-1.291,12.2834-1.90411C76.422,127.38874,78.94134,127.07907,81.54328,126.72812ZM50.99661,137.24425c.18874.24238.28432.37333.38816.49734q13.14844,15.70224,26.31055,31.393A5.66564,5.66564,0,0,0,79.23,170.37234a6.91739,6.91739,0,0,0,7.04811-.15337c2.12319-1.16289,4.10061-2.59518,6.12276-3.93815,1.46894-.97554,2.90627-1.99865,4.39861-3.02881-1.05341-1.3341-2.06042-2.61031-3.06838-3.88579Q83.98972,147.03964,74.2493,134.7123c-.29253-.37029-.53286-.69129-1.13545-.60224-4.26118.62971-8.5291,1.21379-12.79453,1.81477C57.25807,136.35616,54.19734,136.79113,50.99661,137.24425Z" style="fill: #f58524;stroke: #f58426;stroke-width: 5px"/>
          <path d="M204.0779,94.76762c-.18451,14.72184-4.96254,26.97575-14.59207,37.30625a2.70086,2.70086,0,0,1-3.84926.35242,2.89213,2.89213,0,0,1-.39346-4.14514c1.40772-1.70289,2.92957-3.32327,4.21422-5.11406A46.25686,46.25686,0,0,0,198.238,93.14821a48.08473,48.08473,0,0,0-12.11984-30.06827,45.88768,45.88768,0,0,0-11.906-9.68879c-2.08179-1.1899-2.27427-3.80109-.37373-5.0338a2.95208,2.95208,0,0,1,3.284.02195,51.85515,51.85515,0,0,1,17.25187,15.84834,53.44651,53.44651,0,0,1,9.3261,25.294C203.90014,91.47119,203.98414,93.43258,204.0779,94.76762Z" style="fill: #f58524;stroke: #f58426;stroke-width: 5px"/>
          <path d="M179.80569,94.08261a37.8575,37.8575,0,0,1-7.60524,21.26218c-.72911,1.00654-1.52153,1.96861-2.31079,2.92981-1.22864,1.49628-2.93686,1.76034-4.21719.67818a2.8665,2.8665,0,0,1-.23284-4.3291,35.53687,35.53687,0,0,0,6.51783-10.80269c3.81624-10.53047,1.6585-19.878-5.71943-28.13521a36.94549,36.94549,0,0,0-7.77892-6.42416,2.64125,2.64125,0,0,1-1.26835-2.91847,2.66841,2.66841,0,0,1,2.25208-2.349,3.2699,3.2699,0,0,1,2.04867.34653c8.72831,5.41207,15.02114,12.71389,17.35823,22.94631C179.35728,89.50906,179.49672,91.8152,179.80569,94.08261Z" style="fill: #f58524;stroke: #f58426;stroke-width: 5px"/>
          <path d="M32.984,107.452a3.05217,3.05217,0,0,1-3.1683-2.7027,2.87511,2.87511,0,0,1,2.48978-3.02713q10.48993-1.5707,20.984-3.11387a2.97784,2.97784,0,0,1,3.41917,2.51856,2.84836,2.84836,0,0,1-2.52426,3.2229q-10.369,1.53712-20.742,3.04765C33.2514,107.4254,33.05891,107.4432,32.984,107.452Z" style="fill: #f58524;stroke: #f58426;stroke-width: 5px"/>
          <path d="M35.16711,121.4786a3.04421,3.04421,0,0,1-3.25685-2.51076,2.75437,2.75437,0,0,1,2.35531-3.17639c3.13015-.53354,6.27612-.97524,9.41762-1.44092,3.68792-.54667,7.37637-1.09046,11.06891-1.60452a5.36367,5.36367,0,0,1,1.88567.00695,2.86443,2.86443,0,0,1,2.16139,2.8847,2.76889,2.76889,0,0,1-2.30361,2.67248c-2.85908.48189-5.7311.88763-8.59942,1.31385q-5.98207.889-11.96661,1.76138C35.60221,121.43336,35.27263,121.46586,35.16711,121.4786Z" style="fill: #f58524;stroke: #f58426;stroke-width: 5px"/>
        </g>
      </g>
    </g>
  </g>
</svg>
