<svg xmlns="http://www.w3.org/2000/svg" xmlns:xlink="http://www.w3.org/1999/xlink" viewBox="0 0 730.47846 381.35658">
  <defs>
    <linearGradient id="linear-gradient" x1="283.41788" y1="221.5478" x2="319.94299" y2="221.5478" gradientUnits="userSpaceOnUse">
      <stop offset="0" stop-color="#ff8f33"/>
      <stop offset="1" stop-color="#fb7d14"/>
    </linearGradient>
    <linearGradient id="linear-gradient-2" x1="188.34482" y1="244.07751" x2="226.42615" y2="244.07751" xlink:href="#linear-gradient"/>
    <linearGradient id="linear-gradient-3" x1="65.19169" y1="244.33777" x2="103.43607" y2="244.33777" xlink:href="#linear-gradient"/>
  </defs>
  <title>mission</title>
  <g id="Layer_2" data-name="Layer 2">
    <g id="Layer_31" data-name="Layer 31">
      <g>
        <path d="M319.943,234.30811a22.05347,22.05347,0,0,1-17.29839,5.33078v-2.89044a1.36087,1.36087,0,0,0-.683-1.18l-8.21115-4.71831a1.36094,1.36094,0,0,0-1.92356.631l-1.17117,2.65661q-.40994-.37136-.801-.76191a21.979,21.979,0,0,1-.93313-30.08889l2.421,2.421a18.42289,18.42289,0,0,0-4.50871,12.12767,1.361,1.361,0,0,0,2.72208,0,15.71882,15.71882,0,0,1,3.71822-10.19622l1.52858,1.52858.00354.00354L314.024,228.38908l.00354.00354Z" style="fill: url(#linear-gradient)"/>
        <g id="Group-32">
          <path id="Rectangle-11" d="M366.22827,366.35658h25a6.5,6.5,0,1,0,0-13H2" style="fill: none;stroke: #4c4c4c;stroke-linecap: round;stroke-width: 4px"/>
          <path id="Rectangle-11-2" data-name="Rectangle-11" d="M390.22827,366.35658h-24a6.5,6.5,0,0,0,0,13h79" style="fill: none;stroke: #4c4c4c;stroke-linecap: round;stroke-width: 4px"/>
        </g>
        <line id="Path-4" x1="509.54053" y1="352.78211" x2="467.06797" y2="352.78211" style="fill: none;stroke: #4c4c4c;stroke-linecap: round;stroke-width: 4px"/>
        <path id="Oval-5" d="M445.19147,379.13926V352.82465a10.71012,10.71012,0,1,1,21.42023,0" style="fill: none;stroke: #4c4c4c;stroke-linecap: round;stroke-width: 4px"/>
        <line id="Path-4-2" data-name="Path-4" x1="572.76217" y1="351.62226" x2="727.83496" y2="351.62226" style="fill: none;stroke: #4c4c4c;stroke-linecap: round;stroke-width: 4px"/>
        <g id="Group">
          <path id="Rectangle-18" d="M569.09475,300.18986H514.0141a3.06,3.06,0,0,0-3.06,3.06v55.1566a3.06,3.06,0,0,0,3.06,3.06h55.08065a3.06,3.06,0,0,0,3.06-3.06v-55.1566A3.06,3.06,0,0,0,569.09475,300.18986Z" style="fill: none;stroke: #4c4c4c;stroke-linecap: round;stroke-width: 4px"/>
          <path id="Rectangle-18-2" data-name="Rectangle-18" d="M556.85462,269.55157h-32.1304a3.06,3.06,0,0,0-3.06,3.06v24.5183a3.06,3.06,0,0,0,3.06,3.06h32.1304a3.06,3.06,0,0,0,3.06-3.06v-24.5183A3.06,3.06,0,0,0,556.85462,269.55157Z" style="fill: none;stroke: #4c4c4c;stroke-linecap: round;stroke-width: 4px"/>
          <line id="Path-2" x1="549.11419" y1="280.50551" x2="549.11419" y2="288.16508" style="fill: none;stroke: #4c4c4c;stroke-linecap: round;stroke-width: 3px"/>
          <line id="Path-2-2" data-name="Path-2" x1="540.6991" y1="280.50551" x2="540.6991" y2="288.16508" style="fill: none;stroke: #4c4c4c;stroke-linecap: round;stroke-width: 3px"/>
          <line id="Path-2-3" data-name="Path-2" x1="540.6991" y1="239.50551" x2="540.6991" y2="268.16508" style="fill: none;stroke: #4c4c4c;stroke-linecap: round;stroke-width: 3px"/>
          <line id="Path-2-4" data-name="Path-2" x1="532.28401" y1="280.50551" x2="532.28401" y2="288.16508" style="fill: none;stroke: #4c4c4c;stroke-linecap: round;stroke-width: 3px"/>
          <g id="Group-18">
            <path id="Rectangle-9" d="M542.71787,313.55157a6.15832,6.15832,0,0,0-6.15831,6.15832v5.39232h12.31663v-5.39232A6.15832,6.15832,0,0,0,542.71787,313.55157Z" style="fill: none;stroke: #4c4c4c;stroke-width: 3px"/>
            <rect id="Rectangle-8" x="531.281" y="325.64518" width="22.87374" height="16.8817" rx="2.8152" ry="2.8152" style="fill: #f58524;stroke: #4c4c4c;stroke-width: 3px"/>
          </g>
        </g>
        <g id="Group-33">
          <path id="Rectangle-14" d="M630.9902,290.18278l-13-9.53333a2,2,0,0,0-2.36546,0l-13,9.53333a2,2,0,0,0-.81727,1.61281V351.589h30V291.79559A2,2,0,0,0,630.9902,290.18278Z" style="fill: none;stroke: #4c4c4c;stroke-linecap: round;stroke-width: 4px"/>
          <path id="Rectangle-14-2" data-name="Rectangle-14" d="M625.80747,351.589h30V262.78211a2,2,0,0,0-2-2h-26a2,2,0,0,0-2,2V285.486" style="fill: none;stroke: #4c4c4c;stroke-linecap: round;stroke-width: 4px"/>
          <line id="Path-4-3" data-name="Path-4" x1="635.83452" y1="275.78211" x2="661.83968" y2="275.78211" style="fill: none;stroke: #4c4c4c;stroke-linecap: round;stroke-width: 3px"/>
          <line id="Path-7" x1="622.29967" y1="298.78211" x2="622.29967" y2="302.78211" style="fill: none;stroke: #4c4c4c;stroke-linecap: round;stroke-width: 3px"/>
          <line id="Path-7-2" data-name="Path-7" x1="611.29967" y1="298.78211" x2="611.29967" y2="302.78211" style="fill: none;stroke: #4c4c4c;stroke-linecap: round;stroke-width: 3px"/>
          <line id="Path-7-3" data-name="Path-7" x1="622.29967" y1="314.78211" x2="622.29967" y2="318.78211" style="fill: none;stroke: #4c4c4c;stroke-linecap: round;stroke-width: 3px"/>
          <line id="Path-7-4" data-name="Path-7" x1="611.29967" y1="314.78211" x2="611.29967" y2="318.78211" style="fill: none;stroke: #4c4c4c;stroke-linecap: round;stroke-width: 3px"/>
          <line id="Path-7-5" data-name="Path-7" x1="622.29967" y1="331.78211" x2="622.29967" y2="335.78211" style="fill: none;stroke: #4c4c4c;stroke-linecap: round;stroke-width: 3px"/>
          <line id="Path-7-6" data-name="Path-7" x1="611.29967" y1="331.78211" x2="611.29967" y2="335.78211" style="fill: none;stroke: #4c4c4c;stroke-linecap: round;stroke-width: 3px"/>
          <line id="Path-16" x1="643.99996" y1="351.47841" x2="643.99996" y2="292.17282" style="fill: none;stroke: #4c4c4c;stroke-linecap: round;stroke-width: 3px"/>
        </g>
        <g id="Group-33-2" data-name="Group-33">
          <path id="Rectangle-14-3" data-name="Rectangle-14" d="M376.80747,297.78211h-26a2,2,0,0,0-2,2V352.589h30V299.78211A2,2,0,0,0,376.80747,297.78211Z" style="fill: none;stroke: #4c4c4c;stroke-linecap: round;stroke-width: 4px"/>
          <line id="Path-7-7" data-name="Path-7" x1="364.29967" y1="299.78211" x2="364.29967" y2="351.78211" style="fill: none;stroke: #4c4c4c;stroke-linecap: round;stroke-width: 3px"/>
          <line id="Path-4-4" data-name="Path-4" x1="356.8721" y1="315.78211" x2="378.34466" y2="315.78211" style="fill: none;stroke: #4c4c4c;stroke-linecap: round;stroke-width: 4px"/>
          <line id="Path-4-5" data-name="Path-4" x1="348.8721" y1="334.78211" x2="370.34466" y2="334.78211" style="fill: none;stroke: #4c4c4c;stroke-linecap: round;stroke-width: 4px"/>
          <path id="Path-14" d="M486.68564,353.18111v-41.335a5,5,0,0,0-5-5H378.4091" style="fill: none;stroke: #4c4c4c;stroke-linecap: round;stroke-width: 3px;stroke-dasharray: 9"/>
        </g>
        <path d="M4.3999,230.18c.3501-.22.70007-.45,1.05-.67v.88C5.13989,230.34,4.79,230.26,4.3999,230.18Z"/>
        <rect x="262.83496" y="256.51501" width="59.25" height="73.375" rx="2.5" ry="2.5" style="fill: none;stroke: #4c4c4c;stroke-linecap: round;stroke-width: 4px"/>
        <path d="M314.98438,329.47333a1.67489,1.67489,0,0,0,.05884-.41943V305.726a1.686,1.686,0,0,0-1.686-1.686H295.624a1.68609,1.68609,0,0,0-1.68616,1.686v23.32788a1.67494,1.67494,0,0,0,.059.41943Z" style="fill: none;stroke: #4c4c4c;stroke-linecap: round;stroke-width: 4px"/>
        <line x1="304.49054" y1="304.72335" x2="304.49054" y2="329.47333" style="fill: none;stroke: #4c4c4c;stroke-linecap: round;stroke-width: 4px"/>
        <rect x="269.95996" y="266.30668" width="45.08325" height="14.85242" rx="2.33333" ry="2.33333" style="fill: none;stroke: #4c4c4c;stroke-linecap: round;stroke-width: 4px"/>
        <rect x="2" y="45.04999" width="27.77002" height="285.50954" rx="3.14999" ry="3.14999" style="fill: none;stroke: #4c4c4c;stroke-linecap: round;stroke-width: 4px"/>
        <rect x="29.73999" y="304.22136" width="233.09497" height="25.66865" style="fill: none;stroke: #4c4c4c;stroke-linecap: round;stroke-width: 4px"/>
        <rect x="67.33496" y="329.89001" width="10.25" height="23.46656" style="fill: none;stroke: #4c4c4c;stroke-linecap: round;stroke-width: 4px"/>
        <rect x="273.9435" y="329.89001" width="10.25" height="23.46656" style="fill: none;stroke: #4c4c4c;stroke-linecap: round;stroke-width: 4px"/>
        <rect x="29.73999" y="294.76501" width="43.96997" height="9.28497" rx="0.95833" ry="0.95833" style="fill: none;stroke: #4c4c4c;stroke-linecap: round;stroke-width: 4px"/>
        <rect x="219.11499" y="294.76501" width="43.96997" height="9.28497" rx="0.95833" ry="0.95833" style="fill: none;stroke: #4c4c4c;stroke-linecap: round;stroke-width: 4px"/>
        <g>
          <path d="M685.17847,318.10738c8.01,8.76,4.55,21.58-6.84,24.73-1.83.5-2.44006,1.27-2.33,3.04.05994,1.01.05994,4.639.03992,5.709h-2.4c.04-1.46.07007-5.539-.09-6.969-.28992-2.72.76-3.66,3.42-4.06a11.1932,11.1932,0,0,0,9.68994-8.92c1.22-4.82-.1499-8.99-4-12.37-.99.49-1.88989.94-2.78,1.38-.28992-.17-.56995-.34-.85986-.52.5-1.03.95-2.1,1.5199-3.09a6.73178,6.73178,0,0,0-2.4-9.39c-3.22-1.82-7.49-.8-9.04993,2.53-.74011,1.6-2.93005,4.2,1.19006,4.98a2.72066,2.72066,0,0,1,.0199,1.92c-.36.55-1.26.73-1.88,1.13a12.19593,12.19593,0,0,0-.08,20.77,6.30614,6.30614,0,0,1,1.36.82,9.06114,9.06114,0,0,1,1.03,1.7c-.72.14-1.61011.62-2.15.37a13.97887,13.97887,0,0,1-8.36-11.92c-.46-4.48,1.13989-8.29,4.08-11.68a6.12734,6.12734,0,0,0,1.38-3.82c-.13-5.89,3.81006-10.3,9.3501-10.17,5.48.14,9.37988,4.85,8.97,10.58A4.819,4.819,0,0,0,685.17847,318.10738Z" style="fill: #4c4c4c;stroke: #4c4c4c"/>
          <path d="M720.99854,326.08742a17.74542,17.74542,0,0,1-.48,1.94,1.46532,1.46532,0,0,1-.70007.64c-4.34,2.4-5.03992,6.26-4.71008,10.79.22009,3.1.13013,9.61659.08008,12.89656h-2.47c.02-3.05.05-9.41658-.09009-12.3766a4.31035,4.31035,0,0,0-1.59985-2.51c-1.90015-1.7-3.99-3.18-5.90015-4.86-.45-.39-.5-1.23-.73-1.87.75,0,1.70007-.29,2.22.06,1.89014,1.3,3.64014,2.81,5.94006,4.63-.06995-3.75,1.41-7.03-1.86-9.61-.7-.55-.90991-1.71-1.35-2.59l2.73478,1.33289a.87786.87786,0,0,0,1.25345-.6457c.20925-1.30787.168-3.10683.63177-3.90716a23.12261,23.12261,0,0,1,1.16992,3.83,45.68172,45.68172,0,0,1,.05,5.36,45.98672,45.98672,0,0,1,3.8501-2.99C719.53858,325.90736,720.33851,326.10738,720.99854,326.08742Z" style="fill: #4c4c4c;stroke: #4c4c4c"/>
          <path d="M723.44849,338.93739c-2.52,2.61-4.06006,3.34-6.8,3.01.4-.69.59009-1.49,1.07007-1.77,7.32007-4.22,9.33-11.27,9.8-18.92a25.06455,25.06455,0,0,0-4.86011-17.11c-4.86-6.43005-12.17993-6.48-17.23-.22-6.72,8.32-6.81006,24.02-.04,32.21,1.25,1.52,3.09009,2.54,4.58008,3.87a6.69734,6.69734,0,0,1,1.02,1.73c-.73.13-1.72.64-2.15.34a25.9951,25.9951,0,0,1-5.35-4.4c-7.65-9.41-7.42-26.36.33-35.67,5.59-6.7,13.62-6.99,19.64-.71C732.15845,310.36739,732.14844,329.89741,723.44849,338.93739Z" style="fill: #4c4c4c;stroke: #4c4c4c"/>
        </g>
        <g>
          <path d="M325.45874,201.8212a4.08286,4.08286,0,0,0-8.02237-1.07264l-21.254,5.94951-6.32747-6.32747a1.36124,1.36124,0,0,0-1.92492,0,24.69932,24.69932,0,0,0,0,34.93c.503.50317,1.03262.98675,1.57635,1.44461l-4.08162,9.25833h-2.243a8.72046,8.72046,0,0,0-8.71065,8.71065,1.361,1.361,0,0,0,1.361,1.361H310.8929a1.361,1.361,0,0,0,1.361-1.361,8.72046,8.72046,0,0,0-8.71065-8.71065h-.89869V242.3807a24.73723,24.73723,0,0,0,20.21551-7.08,1.36124,1.36124,0,0,0,0-1.92492l-6.36149-6.36149,5.94964-21.254A4.08985,4.08985,0,0,0,325.45874,201.8212Zm-31.75167,32.14338,6.21546,3.5715v8.46743h-11.523Zm9.83623,14.761a5.99927,5.99927,0,0,1,5.8326,4.62753H277.34915a5.99927,5.99927,0,0,1,5.8326-4.62753Zm16.3997-14.41748a22.05347,22.05347,0,0,1-17.29839,5.33078v-2.89044a1.36087,1.36087,0,0,0-.683-1.18l-8.21115-4.71831a1.36094,1.36094,0,0,0-1.92356.631l-1.17117,2.65661q-.40994-.37136-.801-.76191a21.979,21.979,0,0,1-.93313-30.08889l2.421,2.421a18.42289,18.42289,0,0,0-4.50871,12.12767,1.361,1.361,0,0,0,2.72208,0,15.71882,15.71882,0,0,1,3.71822-10.19622l1.52858,1.52858.00354.00354L314.024,228.38908l.00354.00354Zm-5.65294-9.50223-6.98717-6.98717,6.59832-6.59832a1.36112,1.36112,0,0,0-1.92492-1.92492l-6.59832,6.59832-6.98717-6.98717,19.26972-5.39407a4.10707,4.10707,0,0,0,2.02359,2.02359Zm7.08543-21.62364a1.361,1.361,0,1,1,1.361-1.361A1.36258,1.36258,0,0,1,321.37549,203.18224Z" style="fill: #4c4c4c;stroke: #4c4c4c"/>
          <path d="M321.37549,192.10638a1.361,1.361,0,1,0,0,2.72208,7.00065,7.00065,0,0,1,6.99274,6.99274,1.361,1.361,0,0,0,2.72208,0A9.72582,9.72582,0,0,0,321.37549,192.10638Z" style="fill: #4c4c4c;stroke: #4c4c4c"/>
          <path d="M321.37549,186.39a1.361,1.361,0,0,0,0,2.72208,12.72347,12.72347,0,0,1,12.70911,12.70911,1.361,1.361,0,0,0,2.72208,0A15.44863,15.44863,0,0,0,321.37549,186.39Z" style="fill: #4c4c4c;stroke: #4c4c4c"/>
          <path d="M317.009,206.18768a1.36034,1.36034,0,1,0,.39878.96226A1.37133,1.37133,0,0,0,317.009,206.18768Z" style="fill: #4c4c4c;stroke: #4c4c4c"/>
          <circle cx="289.06007" cy="223.22653" r="1.36104" style="fill: #4c4c4c;stroke: #4c4c4c"/>
        </g>
        <g>
          <path d="M103.97,73.98a3.21231,3.21231,0,0,0-3.12-.19l-.42.2-71.05,33.63a3.15175,3.15175,0,0,0-1.80994,2.83v15.73A3.129,3.129,0,0,0,29.03,128.82a3.27482,3.27482,0,0,0,1.73.5,3.204,3.204,0,0,0,1.38989-.31L94.75,99.38l5.24-2.48c.29-1.61.6-3.24005.93994-4.87L95.55,94.58l-63.9801,30.28V111.01L98.98,79.09l2.46-1.16V89.62q.91516-4.245,2.01-8.54c.01-.24.68994-2.46,1.75-5.67A3.15214,3.15214,0,0,0,103.97,73.98Z" style="fill: #4c4c4c"/>
          <path d="M98.27,185.05l-4.03,1.91-62.67,29.66V202.77l61.62-29.16,4.04-1.92c-.11011-1.45-.2-2.88-.28-4.29l-4.02,1.9-63.55,30.08a3.15175,3.15175,0,0,0-1.80994,2.83v15.73A3.10281,3.10281,0,0,0,29.04,220.58a3.14143,3.14143,0,0,0,1.72.51,3.29133,3.29133,0,0,0,1.3999-.32L94.54,191.24l4.11987-1.95C98.52,187.86,98.38989,186.45,98.27,185.05Z" style="fill: #4c4c4c"/>
        </g>
        <path d="M98.98,79.09Q96.96985,86.65,95.55,94.58l5.37988-2.55c.16-.8.33008-1.6.51-2.41V77.93ZM219.97,222.27a148.27628,148.27628,0,0,0-20.28-25.78,8.31945,8.31945,0,0,1-2.42993-7.07,411.59769,411.59769,0,0,0,2.02-64.35A221.88938,221.88938,0,0,0,190.58,72.96a170.72013,170.72013,0,0,0-42.15-71.31C147.03.22,146.23.01,145.87988,0,145.6,0,144.8.16,143.36,1.62A168.72079,168.72079,0,0,0,117.1,35.98l-.72009,1.23a164.13989,164.13989,0,0,0-15.95,36.78c-.51,1.69-.99,3.38-1.45,5.1Q96.96985,86.65,95.55,94.58c-.29,1.59-.56006,3.19-.8,4.8a220.044,220.044,0,0,0-2.48,29c-.3,14.15-.08008,27.68.65991,40.92.07007,1.44.16,2.88.26,4.31.28,4.48.63,8.92,1.05,13.35.08.98.16992,1.95.27,2.92a7.80523,7.80523,0,0,1,.03,1.36,7.2849,7.2849,0,0,1-2.22009,4.91C80.96,208.02,73.52,218.1,68.21,228.82c-5.78,11.66-8.02,23.09-6.85,34.95,1.25,12.76,6.29993,24.45,10.55994,33.21.54,1.1,1.23,1.83,1.8501,1.93a3.37415,3.37415,0,0,0,2.53-1.31q6.76483-6.75,13.5-13.54,5.83484-5.865,11.67993-11.72c6.06006-6.05,12.35-5.73,15.12-4.58a4.5438,4.5438,0,0,1,3.16,4.18c-.03,6.88-.01,18.8941.06995,28.37408.02,2.02.48,2.61.77,2.82l49.59.36c1.01-.16,1.39-.45,1.6001-1.75a18.68144,18.68144,0,0,0,.1499-2.95l.01-4.08c.02-5.74.03-16.32409-.05-22.07409a4.99033,4.99033,0,0,1,5.84009-5.58,32.31055,32.31055,0,0,0,3.54-.02l.09985.99005-.03992-1c.61-.02,1.21008-.05,1.81995-.06006l1.01-.02.87012.52c.27991.17.75.46,30.29993,30.06006,1.16,1.17,2.09,1.49,2.56995,1.42.64014-.11,1.41-.95,2.05-2.26A136.9417,136.9417,0,0,0,227.02,279.61C233.6499,259.78,231.34,241.02,219.97,222.27ZM101.25,266.83c-5.89,5.83-11.84009,11.8-17.6001,17.58l-3.98,4a5.03788,5.03788,0,0,1-3.54,1.79,4.89972,4.89972,0,0,1-.7699-.07,4.66821,4.66821,0,0,1-3.4-3.1c-6.59009-15.8-8.27-28.48-5.46-41.12006,2.1-9.44,6.35-18.48,13.3999-28.46C82.85,213.28,86.03,209.48,89.71,205.09l5.55-6.61,1.77,13.87c.48,3.78.93994,7.34,1.3999,10.91l.62012,4.68q2.12988,16.29,4.30994,32.58A7.05383,7.05383,0,0,1,101.25,266.83Zm66.3999,6.29c-.09.9-.09985,1.85-.10986,2.85l-.01.13c0,.47-.01.94-.02,1.4l.02,3.52c.02,2.9.03992,10.51409.09985,13.40411a4.75852,4.75852,0,0,1-1.27991,3.57,5.0373,5.0373,0,0,1-3.55994,1.34h-.1001c-9.57007-.02-20.24-.02-33.6.01a4.94392,4.94392,0,0,1-3.69006-1.35,4.68944,4.68944,0,0,1-1.28-3.54c.1001-3.98.05-19.05407.03-20.1441-.15991-1.7-.15991-3.95,1.38013-5.6,1.67993-1.8,3.91992-1.73,6.08984-1.67h.1001c.46.02.97.03,1.52.03,2.45,0,4.8999.01,7.35.01h1.22c6.24011.02,13.30994.03,20.15-.03h.02a5.721,5.721,0,0,1,4.45,1.64A5.58106,5.58106,0,0,1,167.6499,273.12ZM184.6,257.85c-.41,3.27-2.39,4.97-5.9,5.06l-.3999.01H178.21l-12.32007-.24-4.77991.04c-3.26.03-6.51.05-9.77.06006H137.63989c-8.10986,0-16.5,0-24.73.06-3.43994,0-5.43994-1.75-5.84-5.07-1.33-10.87-2.53992-20.67-3.87-30.41-1.96-14.23-3.43994-26.67-4.54-38.07-.13989-1.43-.27-2.84-.38989-4.24-.36011-3.98-.67-7.84-.93005-11.62-.03992-.58-.08-1.16-.11-1.74-.11011-1.45-.2-2.88-.28-4.29a327.409,327.409,0,0,1-.14-40.9c.09-1.34.17-2.68.25-4.02.29-4.72.58-9.52,1.17-14.26q.705-5.56494,1.76-11.31995c.29-1.61.6-3.24005.93994-4.87.16-.8.33008-1.6.51-2.41q.91516-4.245,2.01-8.54c.01-.24.68994-2.46,1.75-5.67.71-2.17,1.6001-4.79,2.56006-7.55,2.38989-6.86,5.25-14.6,7.16992-18.57A165.37367,165.37367,0,0,1,142.03,9.24a5.32954,5.32954,0,0,1,4.11987-1.98A5.07919,5.07919,0,0,1,149.96,9.54c.1.15.90991,1.11,1.85,2.23C154.76,15.31,160.26,21.89,162.26,24.67,175.71,43.35,185.11,65,190.2,89.03a237.77653,237.77653,0,0,1,4.52,32.93c1.97,28.74-.48,57.08-2.84009,78.56-1.30994,11.94-2.91992,24.02-4.47,35.71C186.51,243.01,185.5,250.59,184.6,257.85Zm38.63,19.6c-.56006,1.75-2.12,5.99-2.88,8.03l-.38,1.03c-.3.83-1.1001,3.01-3.42993,3.51a.764.764,0,0,1-.21008.03c-.55994,0-1.61-.85-10.12-8.56-3.74-3.39-10.79-9.83-15.91992-14.92a6.72849,6.72849,0,0,1-1.8501-5.95l.14-1.06c2.03-15.54,7.21008-58.73,7.26-59.16l.27991-2.3,1.4801,1.77s6.18005,7.37,7.11,8.51c2.04,2.48,3.93994,4.81,5.76,7.27a87.36937,87.36937,0,0,1,12.78,23.31C227.49,251.13,227.48,264.08,223.23,277.45Z" style="fill: #4c4c4c"/>
        <path d="M129.75778,98.301a22.21771,22.21771,0,0,1,15.7571-6.48571c.06178,0,.12244.00112.18309.00112a21.8713,21.8713,0,0,1,15.59422,6.6014,22.75131,22.75131,0,0,1,6.40371,16.29851,21.35752,21.35752,0,0,1-6.69239,15.26062,22.078,22.078,0,0,1-31.41872-.319,21.52992,21.52992,0,0,1-6.41382-15.4336A22.50074,22.50074,0,0,1,129.75778,98.301Z" style="fill: #f58524;stroke: #4c4c4c;stroke-width: 3px"/>
        <path d="M196.11719,198.10291l1.48438,1.76953s6.17969,7.36816,7.11035,8.50391c2.03516,2.48633,3.93945,4.81152,5.76172,7.27148a87.76172,87.76172,0,0,1,12.77734,23.3125c4.23926,12.17188,4.2334,25.12207-.0166,38.48926-.56055,1.75293-2.12891,5.99023-2.88281,8.02637l-.38184,1.03711c-.30078.82227-1.09766,3.00293-3.43359,3.50977a.9618.9618,0,0,1-.2041.0293c-.55957,0-1.61035-.85254-10.12207-8.55762-3.74414-3.38965-10.792-9.835-15.92285-14.92676a6.71881,6.71881,0,0,1-1.84766-5.95117l.13965-1.06055c2.03418-15.53125,7.21094-58.72559,7.2627-59.16016Z" style="fill: url(#linear-gradient-2)"/>
        <path d="M101.25488,266.82556c-5.89258,5.83008-11.84961,11.80664-17.60937,17.585L79.665,288.40564a4.98327,4.98327,0,0,1-3.53906,1.79395,4.07167,4.07167,0,0,1-.77051-.07422,4.62966,4.62966,0,0,1-3.39062-3.09375c-6.59277-15.79883-8.27832-28.48242-5.46777-41.126,2.09863-9.43555,6.35742-18.47559,13.40332-28.45117,2.9541-4.17871,6.13281-7.97168,9.81445-12.36523l5.543-6.61328,1.77344,13.874c.48145,3.77539.93652,7.34277,1.40234,10.90918l.61426,4.68164q2.13574,16.29492,4.30762,32.58008A7.0445,7.0445,0,0,1,101.25488,266.82556Z" style="fill: url(#linear-gradient-3)"/>
        <path id="Combined-Shape" d="M289.20566,43.07131a32.125,32.125,0,0,1,27.79487,16.11564,25.77378,25.77378,0,0,1,13.52882-3.816,26.48967,26.48967,0,0,1,7.6699,51.731,9.65529,9.65529,0,0,1-4.598,1.15738l-2.91066-.0021-.1612.0021q-.08086,0-.16185-.0005l-40.99781-.0016-.164.0021q-.082,0-.164-.00042l-36.15617-.00168-.14182.0021q-.072,0-.14362-.00051l-18.72855.00051a9.68985,9.68985,0,0,1-9.68983-9.68989v-.29963a9.69154,9.69154,0,0,1,8.51943-9.61991c-.00783-.22574-.01155-.45491-.01155-.685a20.17532,20.17532,0,0,1,20.05412-20.29439,19.86283,19.86283,0,0,1,5.07369.65514A32.30629,32.30629,0,0,1,289.20566,43.07131Z" style="fill: none;stroke: #4c4c4c;stroke-linecap: round;stroke-linejoin: round;stroke-width: 5px"/>
        <g id="Group-35">
          <g id="Group-27">
            <g id="Group-34">
              <path id="Path-4-6" data-name="Path-4" d="M390.54082,154.00537H280.06826a6,6,0,0,0-6,6V186.7966a6,6,0,0,1-6,6H201.9634a6,6,0,0,1-6-6V159.7883h0" style="fill: none;stroke: #4c4c4c;stroke-linecap: round;stroke-width: 3px;stroke-dasharray: 7"/>
            </g>
          </g>
        </g>
        <g id="Group-2">
          <path id="Star" d="M411.18564,170.59767a2.38377,2.38377,0,0,0,4.15-1.719,6.05178,6.05178,0,0,1,6.3526-6.35261,2.38377,2.38377,0,0,0,1.719-4.15,6.05178,6.05178,0,0,1,0-8.98394,2.38377,2.38377,0,0,0-1.719-4.15,6.05178,6.05178,0,0,1-6.3526-6.3526,2.38377,2.38377,0,0,0-4.15-1.719,6.05179,6.05179,0,0,1-8.98394,0,2.38377,2.38377,0,0,0-4.15,1.719,6.05178,6.05178,0,0,1-6.35261,6.3526,2.38377,2.38377,0,0,0-1.719,4.15,6.05177,6.05177,0,0,1,0,8.98394,2.38377,2.38377,0,0,0,1.719,4.15,6.05178,6.05178,0,0,1,6.35261,6.35261,2.38377,2.38377,0,0,0,4.15,1.719,6.05176,6.05176,0,0,1,8.98394,0Z" style="fill: #f58524;stroke: #4c4c4c;stroke-linecap: round;stroke-width: 3px"/>
          <circle id="Oval-6" cx="406.69367" cy="153.88405" r="5.5" style="fill: #fff"/>
          <path id="Oval-2" d="M406.48616,148.38405a5.70751,5.70751,0,0,1,0,11.415h0a5.7077,5.7077,0,0,1-4.40659-9.33511" style="fill: none;stroke: #4c4c4c;stroke-linecap: round;stroke-width: 3px"/>
        </g>
        <g id="Group-2-2" data-name="Group-2">
          <path id="Star-2" data-name="Star" d="M439.90222,142.82235a1.70269,1.70269,0,0,0,2.96431-1.22786,4.3227,4.3227,0,0,1,4.53757-4.53757,1.7027,1.7027,0,0,0,1.22786-2.96431,4.3227,4.3227,0,0,1,0-6.4171,1.7027,1.7027,0,0,0-1.22786-2.96431,4.3227,4.3227,0,0,1-4.53757-4.53757,1.7027,1.7027,0,0,0-2.96431-1.22786,4.3227,4.3227,0,0,1-6.4171,0,1.7027,1.7027,0,0,0-2.96431,1.22786,4.3227,4.3227,0,0,1-4.53757,4.53757,1.70269,1.70269,0,0,0-1.22786,2.96431,4.32271,4.32271,0,0,1,0,6.4171,1.70269,1.70269,0,0,0,1.22786,2.96431,4.3227,4.3227,0,0,1,4.53757,4.53757,1.70269,1.70269,0,0,0,2.96431,1.22786,4.32271,4.32271,0,0,1,6.4171,0Z" style="fill: #f58524;stroke: #4c4c4c;stroke-linecap: round;stroke-width: 3px"/>
          <circle id="Oval-6-2" data-name="Oval-6" cx="436.69367" cy="130.88405" r="4.5" style="fill: #fff"/>
          <path id="Oval-2-2" data-name="Oval-2" d="M436.54545,126.95548a4.07679,4.07679,0,1,1-4.07679,4.07679" style="fill: none;stroke: #4c4c4c;stroke-linecap: round;stroke-width: 3px"/>
        </g>
        <g id="Group-39">
          <path id="Rectangle-21" d="M424.529,160.38405h38.66464a3,3,0,0,0,3-3v-54a3,3,0,0,0-3-3h-51a3,3,0,0,0-3,3v34.36407" style="fill: none;stroke: #4c4c4c;stroke-linecap: round;stroke-width: 5px"/>
        </g>
        <g>
          <line id="Path-7-8" data-name="Path-7" x1="21.38501" y1="268.70001" x2="21.38501" y2="272.70001" style="fill: none;stroke: #4c4c4c;stroke-linecap: round;stroke-width: 3px"/>
          <line id="Path-7-9" data-name="Path-7" x1="10.38501" y1="268.70001" x2="10.38501" y2="272.70001" style="fill: none;stroke: #4c4c4c;stroke-linecap: round;stroke-width: 3px"/>
          <line id="Path-7-10" data-name="Path-7" x1="21.38501" y1="284.70001" x2="21.38501" y2="288.70001" style="fill: none;stroke: #4c4c4c;stroke-linecap: round;stroke-width: 3px"/>
          <line id="Path-7-11" data-name="Path-7" x1="10.38501" y1="284.70001" x2="10.38501" y2="288.70001" style="fill: none;stroke: #4c4c4c;stroke-linecap: round;stroke-width: 3px"/>
          <line id="Path-7-12" data-name="Path-7" x1="21.38501" y1="301.70001" x2="21.38501" y2="305.70001" style="fill: none;stroke: #4c4c4c;stroke-linecap: round;stroke-width: 3px"/>
          <line id="Path-7-13" data-name="Path-7" x1="10.38501" y1="301.70001" x2="10.38501" y2="305.70001" style="fill: none;stroke: #4c4c4c;stroke-linecap: round;stroke-width: 3px"/>
        </g>
        <g>
          <line id="Path-7-14" data-name="Path-7" x1="21.38501" y1="200.16335" x2="21.38501" y2="204.16335" style="fill: none;stroke: #4c4c4c;stroke-linecap: round;stroke-width: 3px"/>
          <line id="Path-7-15" data-name="Path-7" x1="10.38501" y1="200.16335" x2="10.38501" y2="204.16335" style="fill: none;stroke: #4c4c4c;stroke-linecap: round;stroke-width: 3px"/>
          <line id="Path-7-16" data-name="Path-7" x1="21.38501" y1="216.16335" x2="21.38501" y2="220.16335" style="fill: none;stroke: #4c4c4c;stroke-linecap: round;stroke-width: 3px"/>
          <line id="Path-7-17" data-name="Path-7" x1="10.38501" y1="216.16335" x2="10.38501" y2="220.16335" style="fill: none;stroke: #4c4c4c;stroke-linecap: round;stroke-width: 3px"/>
          <line id="Path-7-18" data-name="Path-7" x1="21.38501" y1="233.16335" x2="21.38501" y2="237.16335" style="fill: none;stroke: #4c4c4c;stroke-linecap: round;stroke-width: 3px"/>
          <line id="Path-7-19" data-name="Path-7" x1="10.38501" y1="233.16335" x2="10.38501" y2="237.16335" style="fill: none;stroke: #4c4c4c;stroke-linecap: round;stroke-width: 3px"/>
        </g>
        <g>
          <line id="Path-7-20" data-name="Path-7" x1="21.38501" y1="131.62669" x2="21.38501" y2="135.62669" style="fill: none;stroke: #4c4c4c;stroke-linecap: round;stroke-width: 3px"/>
          <line id="Path-7-21" data-name="Path-7" x1="10.38501" y1="131.62669" x2="10.38501" y2="135.62669" style="fill: none;stroke: #4c4c4c;stroke-linecap: round;stroke-width: 3px"/>
          <line id="Path-7-22" data-name="Path-7" x1="21.38501" y1="147.62669" x2="21.38501" y2="151.62669" style="fill: none;stroke: #4c4c4c;stroke-linecap: round;stroke-width: 3px"/>
          <line id="Path-7-23" data-name="Path-7" x1="10.38501" y1="147.62669" x2="10.38501" y2="151.62669" style="fill: none;stroke: #4c4c4c;stroke-linecap: round;stroke-width: 3px"/>
          <line id="Path-7-24" data-name="Path-7" x1="21.38501" y1="164.62669" x2="21.38501" y2="168.62669" style="fill: none;stroke: #4c4c4c;stroke-linecap: round;stroke-width: 3px"/>
          <line id="Path-7-25" data-name="Path-7" x1="10.38501" y1="164.62669" x2="10.38501" y2="168.62669" style="fill: none;stroke: #4c4c4c;stroke-linecap: round;stroke-width: 3px"/>
        </g>
        <g>
          <line id="Path-7-26" data-name="Path-7" x1="21.38501" y1="63.09003" x2="21.38501" y2="67.09003" style="fill: none;stroke: #4c4c4c;stroke-linecap: round;stroke-width: 3px"/>
          <line id="Path-7-27" data-name="Path-7" x1="10.38501" y1="63.09003" x2="10.38501" y2="67.09003" style="fill: none;stroke: #4c4c4c;stroke-linecap: round;stroke-width: 3px"/>
          <line id="Path-7-28" data-name="Path-7" x1="21.38501" y1="79.09003" x2="21.38501" y2="83.09003" style="fill: none;stroke: #4c4c4c;stroke-linecap: round;stroke-width: 3px"/>
          <line id="Path-7-29" data-name="Path-7" x1="10.38501" y1="79.09003" x2="10.38501" y2="83.09003" style="fill: none;stroke: #4c4c4c;stroke-linecap: round;stroke-width: 3px"/>
          <line id="Path-7-30" data-name="Path-7" x1="21.38501" y1="96.09003" x2="21.38501" y2="100.09003" style="fill: none;stroke: #4c4c4c;stroke-linecap: round;stroke-width: 3px"/>
          <line id="Path-7-31" data-name="Path-7" x1="10.38501" y1="96.09003" x2="10.38501" y2="100.09003" style="fill: none;stroke: #4c4c4c;stroke-linecap: round;stroke-width: 3px"/>
        </g>
        <g>
          <g id="Group-39-2" data-name="Group-39">
            <g id="Loop">
              <ellipse id="Oval" cx="393.776" cy="239.32507" rx="14.04755" ry="13.77823" transform="translate(-29.47541 57.13212) rotate(-8)" style="fill: #f58524;stroke: #4c4c4c;stroke-width: 3.29999995231628px"/>
              <ellipse id="Oval-11" cx="395.56589" cy="233.3116" rx="2.22222" ry="2.20339" transform="translate(-28.62108 57.32271) rotate(-8)" style="fill: #fff"/>
              <line id="Path-6" x1="403.00241" y1="250.41322" x2="406.5516" y2="254.35" style="fill: none;stroke: #4c4c4c;stroke-linecap: round;stroke-width: 3.29999995231628px"/>
              <path id="Rectangle-19" d="M422.60595,268.06267l-11.69787-13.45685a3.08475,3.08475,0,0,0-4.35186-.30431h0a3.08475,3.08475,0,0,0-.30431,4.35186l11.69787,13.45685a3.08475,3.08475,0,0,0,4.35186.30431h0A3.08475,3.08475,0,0,0,422.60595,268.06267Z" style="fill: none;stroke: #4c4c4c;stroke-width: 3.29999995231628px"/>
            </g>
            <path id="Rectangle-21-2" data-name="Rectangle-21" d="M417.30054,271.393v5.6319h-44a3,3,0,0,1-3-3v-58a3,3,0,0,1,3-3h41a3,3,0,0,1,3,3V261.389" style="fill: none;stroke: #4c4c4c;stroke-linecap: round;stroke-linejoin: round;stroke-width: 3px"/>
            <line id="Path-4-7" data-name="Path-4" x1="387.2359" y1="268.25258" x2="379.76335" y2="268.25258" style="fill: none;stroke: #4c4c4c;stroke-linecap: round;stroke-width: 3px"/>
          </g>
          <path id="Path-19" d="M417.30054,228.60582H522.08679a6,6,0,0,1,6,6v35.0869h0" style="fill: none;stroke: #4c4c4c;stroke-linecap: round;stroke-width: 3px;stroke-dasharray: 7"/>
        </g>
        <g>
          <ellipse id="Oval-2-3" data-name="Oval" cx="145.15218" cy="109.22002" rx="4.65597" ry="4.60702" style="fill: none;stroke: #fff;stroke-width: 2.65402388572693px"/>
          <line id="Line" x1="138.00848" y1="124.31061" x2="152.29589" y2="124.31061" style="fill: none;stroke: #fff;stroke-linecap: round;stroke-width: 3px;opacity: 0.5;isolation: isolate"/>
        </g>
      </g>
    </g>
  </g>
</svg>
