<svg xmlns="http://www.w3.org/2000/svg" xmlns:xlink="http://www.w3.org/1999/xlink" viewBox="0 0 772.38036 431.1899">
  <defs>
    <linearGradient id="linear-gradient" y1="218.8991" x2="772.38036" y2="218.8991" gradientUnits="userSpaceOnUse">
      <stop offset="0" stop-color="#ff8f33"/>
      <stop offset="1" stop-color="#fb7d14"/>
    </linearGradient>
    <linearGradient id="linear-gradient-2" x1="61.81512" y1="381.99418" x2="683.63175" y2="381.99418" xlink:href="#linear-gradient"/>
    <linearGradient id="linear-gradient-3" x1="227.89448" y1="244.07751" x2="265.97581" y2="244.07751" xlink:href="#linear-gradient"/>
    <linearGradient id="linear-gradient-4" x1="104.74135" y1="244.33777" x2="142.98573" y2="244.33777" xlink:href="#linear-gradient"/>
    <linearGradient id="linear-gradient-5" x1="440.74333" y1="153.88405" x2="451.74333" y2="153.88405" xlink:href="#linear-gradient"/>
    <linearGradient id="linear-gradient-6" x1="471.74333" y1="130.88405" x2="480.74333" y2="130.88405" xlink:href="#linear-gradient"/>
    <linearGradient id="linear-gradient-7" x1="432.46403" y1="234.12379" x2="438.54602" y2="234.12379" gradientTransform="translate(36.82204 -58.33211) rotate(8)" xlink:href="#linear-gradient"/>
  </defs>
  <title>mission_orange_1</title>
  <g id="Layer_2" data-name="Layer 2">
    <g id="Layer_31" data-name="Layer 31">
      <g>
        <path d="M718.67367,205.35785c-4.602-1.649-4.32981-5.64938-5.33669-9.08972-6.52273-22.285-20.43369-37.42551-43.32279-42.58458-9.64719-2.17444-20.0183-3.46206-29.74224.349-5.54021,2.17144-8.01975.97545-11.248-4.15984C611.12567,121.4012,586.102,101.662,553.8114,91.82659c-12.0461-3.66911-24.77715-3.47477-37.19663-4.85914A108.15539,108.15539,0,0,0,461.358,95.3289a84.40183,84.40183,0,0,0-8.43244-2.36283c-12.36133-2.78617-25.64985-4.436-38.10923.44718-7.09879,2.78229-10.27588,1.24978-14.41229-5.33016-22.93324-36.481-54.99647-61.77309-96.37118-74.37537-15.43471-4.7013-31.74729-4.45228-47.66049-6.2261-26.4013-2.94284-50.67443,1.67676-73.727,11.97053C121.57221,46.72338,85.15081,93.62812,76.93484,160.6545c-1.57742,12.869-5.05478,20.30186-18.39462,25.4478-38.75333,14.9494-63.23892,58.09386-57.782,97.728C3.34436,302.61437,10.206,319.1662,20.439,332.59909c-8.05048,23.20759,6.06578,35.03555,39.70983,39.49072,12.795,1.69436,16.13037,4.14165,17.6434,8.37894,7.88038,22.069,42.81453,37.51286,101.39335,46.49217a369.58139,369.58139,0,0,0,70.716,3.94143c15.26332-.58407,30.90967-.502,45.71417-2.05,39.68488-4.14942,70.43871-12.47709,92.43534-24.48883,3.96738-2.16643,7.01487-2.67105,13.82363-1.755,11.95052,1.60785,24.69641,1.06462,36.55288.14725q4.21016-.32576,8.088-.77794a288.70888,288.70888,0,0,0,53,2.753c11.91227-.45583,24.12352-.39179,35.67771-1.5999,30.97183-3.23841,54.97339-9.73771,72.14078-19.11223,3.09645-1.69083,5.47465-2.08463,10.78874-1.36966,9.32679,1.25484,19.27426.83085,28.52748.11488,21.18409-1.639,34.32983-6.345,40.84832-13.26474q10.0477-.00212,20.09551.00012c2.74544-.00071,5.49112-.34277,8.23657-.52563a7.17668,7.17668,0,0,0-1.34471-.97634C798.22185,358.47335,783.55518,228.60582,718.67367,205.35785Z" style="opacity: 0.75;fill: url(#linear-gradient)"/>
        <path d="M677.04713,349.515H611.70435v11.10522H550.50367V349.515H489.88209a5.92174,5.92174,0,0,0-1.01343.07636,12.28107,12.28107,0,0,0-7.81348,4.882c-2.50073,3.29663-.105,10.30627,2.7002,16.1684a6.57156,6.57156,0,0,1-6.02637,9.37567c-20.5896-.2204-62.87073-.66083-71.95117-.66083-7.12708,0-7.03015-4.175-5.74365-7.611a6.57578,6.57578,0,0,1,6.40063-4.26227c10.502.37994,37.95361.728,37.95361-6.01685,0-8.34021-15.33325-8.28534-15.33325-8.28534L68.407,352.795c-8.06555-.00867-9.06885,11.69373-1.121,13.0672,3.90039.674,8.37683,1.28857,13.53979,1.86334,12.03918,1.34015,15.17761,3.276,16.60132,6.62769,7.41492,17.45648,40.28552,29.67242,95.40466,36.775a412.80519,412.80519,0,0,0,66.53894,3.11768c14.36194-.462,29.08423-.39716,43.014-1.62158,37.34119-3.28223,66.27832-9.86932,86.97583-19.37054,3.73315-1.71362,6.60046-2.11273,13.00732-1.38812,11.24463,1.27179,23.23755.8421,34.3938.11646q3.59711-.234,6.936-.55078a6.2965,6.2965,0,0,1,1.35107.01733,322.69609,322.69609,0,0,0,49.19275,2.0957c11.20862-.36053,22.69861-.30994,33.57031-1.2655,29.1427-2.56152,51.72644-7.70251,67.88-15.11768,2.91333-1.3374,5.15112-1.64893,10.15137-1.08337,8.77612.99255,18.136.65723,26.84277.09088,20.65735-1.34363,33.21228-5.28687,39.099-11.09082.90881-.89606.47156-2.1463,4.81628-2.36737q.41125-.021.81885-.04291C685.94093,362.20807,685.58009,349.515,677.04713,349.515Z" style="opacity: 0.75;fill: url(#linear-gradient-2)"/>
        <path d="M711.30518,348.765s-.625-5.125-6.75-10.375-6.10748-19.42636-.697-20.1226-5.428-16.5932,4.822-17.4853,17.75,15.3579,12,16.8579,4.5-5.5,7,3-15.25,7.5-11.5,17.75,26.875,15.875,22.25-9.375-20.375-41.5.75-39.375,29.75,18.125,23,20.625,9.375,18.875,9.375,18.875l-11.007,20.375Z" style="fill: #fff;opacity: 0.45"/>
        <path d="M259.0126,221.82511a145.21768,145.21768,0,0,0-19.8617-25.24825,8.14784,8.14784,0,0,1-2.37981-6.92417,403.09274,403.09274,0,0,0,1.97835-63.02258A217.30606,217.30606,0,0,0,230.22872,75.595,167.19706,167.19706,0,0,0,188.94827,5.756c-1.371-1.40055-2.15457-1.60618-2.49745-1.616-.27425,0-1.05756.15667-2.4678,1.58658a165.24155,165.24155,0,0,0-25.71856,33.65122l-.70512,1.20467A160.74861,160.74861,0,0,0,141.9384,76.60376c-.49949,1.65514-.96957,3.31028-1.42,4.99483q-1.96867,7.404-3.35918,15.17047c-.28406,1.55717-.54851,3.1242-.78355,4.701a215.48467,215.48467,0,0,0-2.42882,28.4018c-.29386,13.85814-.07843,27.109.6463,40.0759.06862,1.4103.15685,2.8206.25465,4.22109.27425,4.38763.61713,8.736,1.02839,13.07466.07843.95977.16642,1.90973.26445,2.85975a7.64423,7.64423,0,0,1,.02941,1.33193,7.135,7.135,0,0,1-2.17418,4.80875c-11.12577,11.62514-18.41225,21.49717-23.61277,31.99608-5.6608,11.41945-7.85458,22.61367-6.70856,34.22907,1.22422,12.4968,6.16985,23.9456,10.342,32.52491.5289,1.07735,1.20461,1.79227,1.81193,1.89018a3.30438,3.30438,0,0,0,2.47784-1.283q6.62511-6.61076,13.22153-13.26068,5.71448-5.744,11.439-11.47821c5.93505-5.92525,12.0951-5.61184,14.808-4.48554a4.45006,4.45006,0,0,1,3.095,4.09377c-.02941,6.73809-.0098,18.50436.06838,27.78879.01961,1.97835.47008,2.55621.75414,2.76184l48.56716.35262c.98918-.15673,1.36122-.44073,1.56709-1.7139a18.29608,18.29608,0,0,0,.14681-2.88916l.0098-3.99586c.01961-5.62159.02941-15.98737-.049-21.61876a4.88739,4.88739,0,0,1,5.71962-5.46491,31.64419,31.64419,0,0,0,3.467-.01961l.09779.96963-.039-.97937c.59728-.01961,1.185-.049,1.78229-.05882l.98918-.01955.85217.50923c.27425.16654.73453.45053,29.675,29.44,1.136,1.14585,2.04674,1.45926,2.51681,1.39069.62693-.10772,1.38107-.93042,2.00776-2.21339a134.11693,134.11693,0,0,0,6.91443-16.72769C272.41035,258.56137,270.14818,240.18834,259.0126,221.82511Z" style="fill: #fff"/>
        <g>
          <path d="M359.49265,234.30811a22.05347,22.05347,0,0,1-17.29839,5.33078v-2.89044a1.36087,1.36087,0,0,0-.683-1.18l-8.21115-4.71831a1.36094,1.36094,0,0,0-1.92356.631l-1.17117,2.65661q-.40994-.37136-.801-.76191a21.979,21.979,0,0,1-.93313-30.08889l2.421,2.421a18.42289,18.42289,0,0,0-4.50871,12.12767,1.361,1.361,0,1,0,2.72208,0,15.71882,15.71882,0,0,1,3.71822-10.19622l1.52858,1.52858.00354.00354,19.21759,19.21759.00354.00354Z" style="fill: #fff"/>
          <g id="Group-32">
            <path id="Rectangle-11" d="M405.77793,366.35658h25a6.5,6.5,0,1,0,0-13H41.54966" style="fill: none;stroke: #4c4c4c;stroke-linecap: round;stroke-width: 4px"/>
            <path id="Rectangle-11-2" data-name="Rectangle-11" d="M429.77793,366.35658h-24a6.5,6.5,0,0,0,0,13h79" style="fill: none;stroke: #4c4c4c;stroke-linecap: round;stroke-width: 4px"/>
          </g>
          <line id="Path-4" x1="549.09019" y1="352.78211" x2="506.61763" y2="352.78211" style="fill: none;stroke: #4c4c4c;stroke-linecap: round;stroke-width: 4px"/>
          <path id="Oval-5" d="M484.74113,379.13926V352.82465a10.71012,10.71012,0,1,1,21.42023,0" style="fill: none;stroke: #4c4c4c;stroke-linecap: round;stroke-width: 4px"/>
          <line id="Path-4-2" data-name="Path-4" x1="612.31183" y1="351.62226" x2="767.38462" y2="351.62226" style="fill: none;stroke: #4c4c4c;stroke-linecap: round;stroke-width: 4px"/>
          <g id="Group">
            <path id="Rectangle-18" d="M608.64441,300.18986H553.56376a3.06,3.06,0,0,0-3.06,3.06v55.1566a3.06,3.06,0,0,0,3.06,3.06h55.08065a3.06,3.06,0,0,0,3.06-3.06v-55.1566A3.06,3.06,0,0,0,608.64441,300.18986Z" style="fill: none;stroke: #4c4c4c;stroke-linecap: round;stroke-width: 4px"/>
            <path id="Rectangle-18-2" data-name="Rectangle-18" d="M596.40428,269.55157h-32.1304a3.06,3.06,0,0,0-3.06,3.06v24.5183a3.06,3.06,0,0,0,3.06,3.06h32.1304a3.06,3.06,0,0,0,3.06-3.06v-24.5183A3.06,3.06,0,0,0,596.40428,269.55157Z" style="fill: none;stroke: #4c4c4c;stroke-linecap: round;stroke-width: 4px"/>
            <line id="Path-2" x1="588.66385" y1="280.50551" x2="588.66385" y2="288.16508" style="fill: none;stroke: #4c4c4c;stroke-linecap: round;stroke-width: 3px"/>
            <line id="Path-2-2" data-name="Path-2" x1="580.24876" y1="280.50551" x2="580.24876" y2="288.16508" style="fill: none;stroke: #4c4c4c;stroke-linecap: round;stroke-width: 3px"/>
            <line id="Path-2-3" data-name="Path-2" x1="580.24876" y1="239.50551" x2="580.24876" y2="268.16508" style="fill: none;stroke: #4c4c4c;stroke-linecap: round;stroke-width: 3px"/>
            <line id="Path-2-4" data-name="Path-2" x1="571.83367" y1="280.50551" x2="571.83367" y2="288.16508" style="fill: none;stroke: #4c4c4c;stroke-linecap: round;stroke-width: 3px"/>
            <g id="Group-18">
              <path id="Rectangle-9" d="M582.26753,313.55157a6.15832,6.15832,0,0,0-6.15831,6.15832v5.39232h12.31663v-5.39232A6.15832,6.15832,0,0,0,582.26753,313.55157Z" style="fill: none;stroke: #4c4c4c;stroke-width: 3px"/>
              <rect id="Rectangle-8" x="570.83066" y="325.64518" width="22.87374" height="16.8817" rx="2.8152" ry="2.8152" style="fill: #fff;stroke: #4c4c4c;stroke-width: 3px"/>
            </g>
          </g>
          <g id="Group-33">
            <path id="Rectangle-14" d="M670.53986,290.18278l-13-9.53333a2,2,0,0,0-2.36546,0l-13,9.53333a2,2,0,0,0-.81727,1.61281V351.589h30V291.79559A2,2,0,0,0,670.53986,290.18278Z" style="fill: none;stroke: #4c4c4c;stroke-linecap: round;stroke-width: 4px"/>
            <path id="Rectangle-14-2" data-name="Rectangle-14" d="M665.35713,351.589h30V262.78211a2,2,0,0,0-2-2h-26a2,2,0,0,0-2,2V285.486" style="fill: none;stroke: #4c4c4c;stroke-linecap: round;stroke-width: 4px"/>
            <line id="Path-4-3" data-name="Path-4" x1="675.38418" y1="275.78211" x2="701.38934" y2="275.78211" style="fill: none;stroke: #4c4c4c;stroke-linecap: round;stroke-width: 3px"/>
            <line id="Path-7" x1="661.84933" y1="298.78211" x2="661.84933" y2="302.78211" style="fill: none;stroke: #4c4c4c;stroke-linecap: round;stroke-width: 3px"/>
            <line id="Path-7-2" data-name="Path-7" x1="650.84933" y1="298.78211" x2="650.84933" y2="302.78211" style="fill: none;stroke: #4c4c4c;stroke-linecap: round;stroke-width: 3px"/>
            <line id="Path-7-3" data-name="Path-7" x1="661.84933" y1="314.78211" x2="661.84933" y2="318.78211" style="fill: none;stroke: #4c4c4c;stroke-linecap: round;stroke-width: 3px"/>
            <line id="Path-7-4" data-name="Path-7" x1="650.84933" y1="314.78211" x2="650.84933" y2="318.78211" style="fill: none;stroke: #4c4c4c;stroke-linecap: round;stroke-width: 3px"/>
            <line id="Path-7-5" data-name="Path-7" x1="661.84933" y1="331.78211" x2="661.84933" y2="335.78211" style="fill: none;stroke: #4c4c4c;stroke-linecap: round;stroke-width: 3px"/>
            <line id="Path-7-6" data-name="Path-7" x1="650.84933" y1="331.78211" x2="650.84933" y2="335.78211" style="fill: none;stroke: #4c4c4c;stroke-linecap: round;stroke-width: 3px"/>
            <line id="Path-16" x1="683.54962" y1="351.47841" x2="683.54962" y2="292.17282" style="fill: none;stroke: #4c4c4c;stroke-linecap: round;stroke-width: 3px"/>
          </g>
          <g id="Group-33-2" data-name="Group-33">
            <path id="Rectangle-14-3" data-name="Rectangle-14" d="M416.35713,297.78211h-26a2,2,0,0,0-2,2V352.589h30V299.78211A2,2,0,0,0,416.35713,297.78211Z" style="fill: none;stroke: #4c4c4c;stroke-linecap: round;stroke-width: 4px"/>
            <line id="Path-7-7" data-name="Path-7" x1="403.84933" y1="299.78211" x2="403.84933" y2="351.78211" style="fill: none;stroke: #4c4c4c;stroke-linecap: round;stroke-width: 3px"/>
            <line id="Path-4-4" data-name="Path-4" x1="396.42176" y1="315.78211" x2="417.89432" y2="315.78211" style="fill: none;stroke: #4c4c4c;stroke-linecap: round;stroke-width: 4px"/>
            <line id="Path-4-5" data-name="Path-4" x1="388.42176" y1="334.78211" x2="409.89432" y2="334.78211" style="fill: none;stroke: #4c4c4c;stroke-linecap: round;stroke-width: 4px"/>
            <path id="Path-14" d="M526.2353,353.18111v-41.335a5,5,0,0,0-5-5H417.95876" style="fill: none;stroke: #4c4c4c;stroke-linecap: round;stroke-width: 3px;stroke-dasharray: 9"/>
          </g>
          <path d="M43.94956,230.18c.3501-.22.70007-.45,1.05-.67v.88C44.68955,230.34,44.3397,230.26,43.94956,230.18Z"/>
          <rect x="302.38462" y="256.51501" width="59.25" height="73.375" rx="2.5" ry="2.5" style="fill: none;stroke: #4c4c4c;stroke-linecap: round;stroke-width: 4px"/>
          <path d="M354.534,329.47333a1.67489,1.67489,0,0,0,.05884-.41943V305.726a1.686,1.686,0,0,0-1.686-1.686H335.17368a1.68609,1.68609,0,0,0-1.68616,1.686v23.32788a1.67494,1.67494,0,0,0,.059.41943Z" style="fill: none;stroke: #4c4c4c;stroke-linecap: round;stroke-width: 4px"/>
          <line x1="344.0402" y1="304.72335" x2="344.0402" y2="329.47333" style="fill: none;stroke: #4c4c4c;stroke-linecap: round;stroke-width: 4px"/>
          <rect x="309.50962" y="266.30668" width="45.08325" height="14.85242" rx="2.33333" ry="2.33333" style="fill: none;stroke: #4c4c4c;stroke-linecap: round;stroke-width: 4px"/>
          <rect x="41.54966" y="45.04999" width="27.77002" height="285.50954" rx="3.14999" ry="3.14999" style="fill: none;stroke: #4c4c4c;stroke-linecap: round;stroke-width: 4px"/>
          <rect x="69.28965" y="304.22136" width="233.09497" height="25.66865" style="fill: none;stroke: #4c4c4c;stroke-linecap: round;stroke-width: 4px"/>
          <rect x="106.88462" y="329.89001" width="10.25" height="23.46656" style="fill: none;stroke: #4c4c4c;stroke-linecap: round;stroke-width: 4px"/>
          <rect x="313.49316" y="329.89001" width="10.25" height="23.46656" style="fill: none;stroke: #4c4c4c;stroke-linecap: round;stroke-width: 4px"/>
          <rect x="69.28965" y="294.76501" width="43.96997" height="9.28497" rx="0.95833" ry="0.95833" style="fill: none;stroke: #4c4c4c;stroke-linecap: round;stroke-width: 4px"/>
          <rect x="258.66465" y="294.76501" width="43.96997" height="9.28497" rx="0.95833" ry="0.95833" style="fill: none;stroke: #4c4c4c;stroke-linecap: round;stroke-width: 4px"/>
          <g>
            <path d="M724.72813,318.10738c8.01,8.76,4.55,21.58-6.84,24.73-1.83.5-2.44006,1.27-2.33,3.04.05994,1.01.05994,4.639.03992,5.709h-2.4c.04-1.46.07007-5.539-.09-6.969-.28992-2.72.76-3.66,3.42-4.06a11.1932,11.1932,0,0,0,9.68994-8.92c1.22-4.82-.1499-8.99-4-12.37-.99.49-1.88989.94-2.78,1.38-.28992-.17-.56995-.34-.85986-.52.5-1.03.95-2.1,1.5199-3.09a6.73178,6.73178,0,0,0-2.4-9.39c-3.22-1.82-7.49-.8-9.04993,2.53-.74011,1.6-2.93005,4.2,1.19006,4.98a2.72066,2.72066,0,0,1,.0199,1.92c-.36.55-1.26.73-1.88,1.13a12.19593,12.19593,0,0,0-.08,20.77,6.30615,6.30615,0,0,1,1.36.82,9.06114,9.06114,0,0,1,1.03,1.7c-.72.14-1.61011.62-2.15.37a13.97887,13.97887,0,0,1-8.36-11.92c-.46-4.48,1.13989-8.29,4.08-11.68a6.12735,6.12735,0,0,0,1.38-3.82c-.13-5.89,3.81006-10.3,9.3501-10.17,5.48.14,9.37988,4.85,8.97,10.58A4.819,4.819,0,0,0,724.72813,318.10738Z" style="fill: #4c4c4c;stroke: #4c4c4c"/>
            <path d="M760.5482,326.08742a17.74542,17.74542,0,0,1-.48,1.94,1.46532,1.46532,0,0,1-.70007.64c-4.34,2.4-5.03992,6.26-4.71008,10.79.22009,3.1.13013,9.61659.08008,12.89656h-2.47c.02-3.05.05-9.41658-.09009-12.3766a4.31035,4.31035,0,0,0-1.59985-2.51c-1.90015-1.7-3.99-3.18-5.90015-4.86-.45-.39-.5-1.23-.73-1.87.75,0,1.70007-.29,2.22.06,1.89014,1.3,3.64014,2.81,5.94006,4.63-.06995-3.75,1.41-7.03-1.86-9.61-.7-.55-.90991-1.71-1.35-2.59l2.73478,1.33289a.87786.87786,0,0,0,1.25345-.6457c.20925-1.30787.168-3.10683.63177-3.90716a23.12261,23.12261,0,0,1,1.16992,3.83,45.68172,45.68172,0,0,1,.05,5.36,45.98672,45.98672,0,0,1,3.8501-2.99C759.08824,325.90736,759.88817,326.10738,760.5482,326.08742Z" style="fill: #4c4c4c;stroke: #4c4c4c"/>
            <path d="M762.99815,338.93739c-2.52,2.61-4.06006,3.34-6.8,3.01.4-.69.59009-1.49,1.07007-1.77,7.32007-4.22,9.33-11.27,9.8-18.92a25.06455,25.06455,0,0,0-4.86011-17.11c-4.86-6.43005-12.17993-6.48-17.23-.22-6.72,8.32-6.81006,24.02-.04,32.21,1.25,1.52,3.09009,2.54,4.58008,3.87a6.69734,6.69734,0,0,1,1.02,1.73c-.73.13-1.72.64-2.15.34a25.99509,25.99509,0,0,1-5.35-4.4c-7.65-9.41-7.42-26.36.33-35.67,5.59-6.7,13.62-6.99,19.64-.71C771.70811,310.36739,771.6981,329.89741,762.99815,338.93739Z" style="fill: #4c4c4c;stroke: #4c4c4c"/>
          </g>
          <g>
            <path d="M365.0084,201.8212a4.08286,4.08286,0,0,0-8.02237-1.07264l-21.254,5.94951-6.32747-6.32747a1.36124,1.36124,0,0,0-1.92492,0,24.69932,24.69932,0,0,0,0,34.93c.503.50317,1.03262.98675,1.57635,1.44461l-4.08162,9.25833h-2.243a8.72046,8.72046,0,0,0-8.71065,8.71065,1.361,1.361,0,0,0,1.361,1.361h35.06077a1.361,1.361,0,0,0,1.361-1.361,8.72046,8.72046,0,0,0-8.71065-8.71065h-.89869V242.3807a24.73723,24.73723,0,0,0,20.21551-7.08,1.36124,1.36124,0,0,0,0-1.92492l-6.36149-6.36149,5.94964-21.254A4.08985,4.08985,0,0,0,365.0084,201.8212Zm-31.75167,32.14338,6.21546,3.5715v8.46743h-11.523Zm9.83623,14.761a5.99927,5.99927,0,0,1,5.8326,4.62753H316.89881a5.99927,5.99927,0,0,1,5.8326-4.62753Zm16.3997-14.41748a22.05347,22.05347,0,0,1-17.29839,5.33078v-2.89044a1.36087,1.36087,0,0,0-.683-1.18l-8.21115-4.71831a1.36094,1.36094,0,0,0-1.92356.631l-1.17117,2.65661q-.40994-.37136-.801-.76191a21.979,21.979,0,0,1-.93313-30.08889l2.421,2.421a18.42289,18.42289,0,0,0-4.50871,12.12767,1.361,1.361,0,1,0,2.72208,0,15.71882,15.71882,0,0,1,3.71822-10.19622l1.52858,1.52858.00354.00354,19.21759,19.21759.00354.00354Zm-5.65294-9.50223-6.98717-6.98717,6.59832-6.59832a1.36112,1.36112,0,0,0-1.92492-1.92492l-6.59832,6.59832-6.98717-6.98717,19.26972-5.39407a4.10707,4.10707,0,0,0,2.02359,2.02359Zm7.08543-21.62364a1.361,1.361,0,1,1,1.361-1.361A1.36258,1.36258,0,0,1,360.92515,203.18224Z" style="fill: #4c4c4c;stroke: #4c4c4c"/>
            <path d="M360.92515,192.10638a1.361,1.361,0,1,0,0,2.72208,7.00065,7.00065,0,0,1,6.99274,6.99274,1.361,1.361,0,0,0,2.72208,0A9.72582,9.72582,0,0,0,360.92515,192.10638Z" style="fill: #4c4c4c;stroke: #4c4c4c"/>
            <path d="M360.92515,186.39a1.361,1.361,0,0,0,0,2.72208,12.72347,12.72347,0,0,1,12.70911,12.70911,1.361,1.361,0,0,0,2.72208,0A15.44863,15.44863,0,0,0,360.92515,186.39Z" style="fill: #4c4c4c;stroke: #4c4c4c"/>
            <path d="M356.55866,206.18768a1.36034,1.36034,0,1,0,.39878.96226A1.37133,1.37133,0,0,0,356.55866,206.18768Z" style="fill: #4c4c4c;stroke: #4c4c4c"/>
            <circle cx="328.60973" cy="223.22653" r="1.36104" style="fill: #4c4c4c;stroke: #4c4c4c"/>
          </g>
          <g>
            <path d="M143.51963,73.98a3.21231,3.21231,0,0,0-3.12-.19l-.42.2-71.05,33.63a3.15175,3.15175,0,0,0-1.80994,2.83v15.73a3.129,3.129,0,0,0,1.46008,2.64,3.27482,3.27482,0,0,0,1.73.5,3.204,3.204,0,0,0,1.38989-.31l62.6001-29.63,5.24-2.48c.29-1.61.6-3.24005.93994-4.87l-5.37988,2.55-63.9801,30.28V111.01l67.41-31.92,2.46-1.16V89.62q.91516-4.245,2.01-8.54c.01-.24.68994-2.46,1.75-5.67A3.15214,3.15214,0,0,0,143.51963,73.98Z" style="fill: #4c4c4c"/>
            <path d="M137.81968,185.05l-4.03,1.91-62.67,29.66V202.77l61.62-29.16,4.04-1.92c-.11011-1.45-.2-2.88-.28-4.29l-4.02,1.9-63.55,30.08a3.15175,3.15175,0,0,0-1.80994,2.83v15.73a3.10281,3.10281,0,0,0,1.47009,2.64,3.14143,3.14143,0,0,0,1.72.51,3.29133,3.29133,0,0,0,1.3999-.32l62.38013-29.53,4.11987-1.95C138.06968,187.86,137.93955,186.45,137.81968,185.05Z" style="fill: #4c4c4c"/>
          </g>
          <path d="M138.52964,79.09q-2.01013,7.56-3.42993,15.49l5.37988-2.55c.16-.8.33008-1.6.51-2.41V77.93Zm120.99,143.18a148.27628,148.27628,0,0,0-20.28-25.78,8.31945,8.31945,0,0,1-2.42993-7.07,411.59769,411.59769,0,0,0,2.02-64.35,221.88938,221.88938,0,0,0-8.70007-52.11,170.72013,170.72013,0,0,0-42.15-71.31c-1.3999-1.43005-2.2-1.64-2.55-1.65-.27991,0-1.07983.16-2.5199,1.62a168.72079,168.72079,0,0,0-26.26,34.36l-.72009,1.23a164.13989,164.13989,0,0,0-15.95,36.78c-.51,1.69-.99,3.38-1.45,5.1q-2.01013,7.56-3.42993,15.49c-.29,1.59-.56006,3.19-.8,4.8a220.04405,220.04405,0,0,0-2.48,29c-.3,14.15-.08008,27.68.65991,40.92.07007,1.44.16,2.88.26,4.31.28,4.48.63,8.92,1.05,13.35.08.98.16992,1.95.27,2.92a7.80524,7.80524,0,0,1,.03,1.36,7.2849,7.2849,0,0,1-2.22009,4.91c-11.36,11.87-18.79993,21.95-24.11,32.67-5.78,11.66-8.02,23.09-6.85,34.95,1.25,12.76,6.29993,24.45,10.55994,33.21.54,1.1,1.23,1.83,1.8501,1.93a3.37415,3.37415,0,0,0,2.53-1.31q6.76483-6.75,13.5-13.54,5.83484-5.865,11.67993-11.72c6.06006-6.05,12.35-5.73,15.12-4.58a4.5438,4.5438,0,0,1,3.16,4.18c-.03,6.88-.01,18.8941.06995,28.37408.02,2.02.48,2.61.77,2.82l49.59.36c1.01-.16,1.39-.45,1.6001-1.75a18.68144,18.68144,0,0,0,.1499-2.95l.01-4.08c.02-5.74.03-16.32409-.05-22.07409a4.99033,4.99033,0,0,1,5.84009-5.58,32.31055,32.31055,0,0,0,3.54-.02l.09985.99005-.03992-1c.61-.02,1.21008-.05,1.81995-.06006l1.01-.02.87012.52c.27991.17.75.46,30.29993,30.06006,1.16,1.17,2.09,1.49,2.56995,1.42.64014-.11,1.41-.95,2.05-2.26a136.9417,136.9417,0,0,0,7.06006-17.08C273.19956,259.78,270.88963,241.02,259.51963,222.27Zm-118.72,44.56c-5.89,5.83-11.84009,11.8-17.6001,17.58l-3.98,4a5.03788,5.03788,0,0,1-3.54,1.79,4.89972,4.89972,0,0,1-.7699-.07,4.66821,4.66821,0,0,1-3.4-3.1c-6.59009-15.8-8.27-28.48-5.46-41.12006,2.1-9.44,6.35-18.48,13.3999-28.46,2.95007-4.17,6.13013-7.97,9.81006-12.36l5.55-6.61,1.77,13.87c.48,3.78.93994,7.34,1.3999,10.91l.62012,4.68q2.12988,16.29,4.30994,32.58A7.05383,7.05383,0,0,1,140.79966,266.83Zm66.3999,6.29c-.09.9-.09985,1.85-.10986,2.85l-.01.13c0,.47-.01.94-.02,1.4l.02,3.52c.02,2.9.03992,10.51409.09985,13.40411a4.75852,4.75852,0,0,1-1.27991,3.57,5.0373,5.0373,0,0,1-3.55994,1.34h-.1001c-9.57007-.02-20.24-.02-33.6.01a4.94392,4.94392,0,0,1-3.69006-1.35,4.68944,4.68944,0,0,1-1.28-3.54c.1001-3.98.05-19.05407.03-20.1441-.15991-1.7-.15991-3.95,1.38013-5.6,1.67993-1.8,3.91992-1.73,6.08984-1.67h.1001c.46.02.97.03,1.52.03,2.45,0,4.8999.01,7.35.01h1.22c6.24011.02,13.30994.03,20.15-.03h.02a5.721,5.721,0,0,1,4.45,1.64A5.58106,5.58106,0,0,1,207.19956,273.12Zm16.95007-15.27c-.41,3.27-2.39,4.97-5.9,5.06l-.3999.01h-.09009l-12.32007-.24-4.77991.04c-3.26.03-6.51.05-9.77.06006H177.18955c-8.10986,0-16.5,0-24.73.06-3.43994,0-5.43994-1.75-5.84-5.07-1.33-10.87-2.53992-20.67-3.87-30.41-1.96-14.23-3.43994-26.67-4.54-38.07-.13989-1.43-.27-2.84-.38989-4.24-.36011-3.98-.67-7.84-.93005-11.62-.03992-.58-.08-1.16-.11-1.74-.11011-1.45-.2-2.88-.28-4.29a327.409,327.409,0,0,1-.14-40.9c.09-1.34.17-2.68.25-4.02.29-4.72.58-9.52,1.17-14.26q.705-5.56494,1.76-11.31995c.29-1.61.6-3.24005.93994-4.87.16-.8.33008-1.6.51-2.41q.91516-4.245,2.01-8.54c.01-.24.68994-2.46,1.75-5.67.71-2.17,1.6001-4.79,2.56006-7.55,2.38989-6.86,5.25-14.6,7.16992-18.57a165.37367,165.37367,0,0,1,27.1001-40.05,5.32954,5.32954,0,0,1,4.11987-1.98,5.07919,5.07919,0,0,1,3.81006,2.28c.1.15.90991,1.11,1.85,2.23,2.95007,3.54,8.45007,10.12,10.45007,12.9,13.45,18.68,22.85,40.33,27.93994,64.36a237.77653,237.77653,0,0,1,4.52,32.93c1.97,28.74-.48,57.08-2.84009,78.56-1.30994,11.94-2.91992,24.02-4.47,35.71C226.05967,243.01,225.04966,250.59,224.14963,257.85Zm38.63,19.6c-.56006,1.75-2.12,5.99-2.88,8.03l-.38,1.03c-.3.83-1.1001,3.01-3.42993,3.51a.764.764,0,0,1-.21008.03c-.55994,0-1.61-.85-10.12-8.56-3.74-3.39-10.79-9.83-15.91992-14.92a6.72849,6.72849,0,0,1-1.8501-5.95l.14-1.06c2.03-15.54,7.21008-58.73,7.26-59.16l.27991-2.3,1.4801,1.77s6.18005,7.37,7.11,8.51c2.04,2.48,3.93994,4.81,5.76,7.27a87.36937,87.36937,0,0,1,12.78,23.31C267.03965,251.13,267.02964,264.08,262.77964,277.45Z" style="fill: #4c4c4c"/>
          <path d="M169.30744,98.301a22.21771,22.21771,0,0,1,15.7571-6.48571c.06178,0,.12244.00112.18309.00112a21.8713,21.8713,0,0,1,15.59422,6.6014,22.75131,22.75131,0,0,1,6.40371,16.29851,21.35752,21.35752,0,0,1-6.69239,15.26062,22.078,22.078,0,0,1-31.41872-.319,21.52992,21.52992,0,0,1-6.41382-15.4336A22.50074,22.50074,0,0,1,169.30744,98.301Z" style="fill: #f58524;stroke: #4c4c4c;stroke-width: 3px"/>
          <path d="M235.66685,198.10291l1.48438,1.76953s6.17969,7.36816,7.11035,8.50391c2.03516,2.48633,3.93945,4.81152,5.76172,7.27148a87.76172,87.76172,0,0,1,12.77734,23.3125c4.23926,12.17188,4.2334,25.12207-.0166,38.48926-.56055,1.75293-2.12891,5.99023-2.88281,8.02637l-.38184,1.03711c-.30078.82227-1.09766,3.00293-3.43359,3.50977a.9618.9618,0,0,1-.2041.0293c-.55957,0-1.61035-.85254-10.12207-8.55762-3.74414-3.38965-10.792-9.835-15.92285-14.92676a6.71881,6.71881,0,0,1-1.84766-5.95117l.13965-1.06055c2.03418-15.53125,7.21094-58.72559,7.2627-59.16016Z" style="fill: url(#linear-gradient-3)"/>
          <path d="M140.80454,266.82556c-5.89258,5.83008-11.84961,11.80664-17.60937,17.585l-3.98047,3.99512a4.98327,4.98327,0,0,1-3.53906,1.79395,4.07167,4.07167,0,0,1-.77051-.07422,4.62966,4.62966,0,0,1-3.39062-3.09375c-6.59277-15.79883-8.27832-28.48242-5.46777-41.126,2.09863-9.43555,6.35742-18.47559,13.40332-28.45117,2.9541-4.17871,6.13281-7.97168,9.81445-12.36523l5.543-6.61328,1.77344,13.874c.48145,3.77539.93652,7.34277,1.40234,10.90918l.61426,4.68164q2.13574,16.29492,4.30762,32.58008A7.0445,7.0445,0,0,1,140.80454,266.82556Z" style="fill: url(#linear-gradient-4)"/>
          <g id="Group-35">
            <g id="Group-27">
              <g id="Group-34">
                <path id="Path-4-6" data-name="Path-4" d="M430.09048,154.00537H319.61792a6,6,0,0,0-6,6V186.7966a6,6,0,0,1-6,6H241.51306a6,6,0,0,1-6-6l1.37546-26.32325" style="fill: none;stroke: #4c4c4c;stroke-linecap: round;stroke-width: 3px;stroke-dasharray: 7"/>
              </g>
            </g>
          </g>
          <g id="Group-2">
            <path id="Star" d="M450.7353,170.59767a2.38377,2.38377,0,0,0,4.15-1.719,6.05178,6.05178,0,0,1,6.3526-6.35261,2.38377,2.38377,0,0,0,1.719-4.15,6.05178,6.05178,0,0,1,0-8.98394,2.38377,2.38377,0,0,0-1.719-4.15,6.05178,6.05178,0,0,1-6.3526-6.3526,2.38377,2.38377,0,0,0-4.15-1.719,6.05179,6.05179,0,0,1-8.98394,0,2.38377,2.38377,0,0,0-4.15,1.719,6.05178,6.05178,0,0,1-6.35261,6.3526,2.38377,2.38377,0,0,0-1.719,4.15,6.05177,6.05177,0,0,1,0,8.98394,2.38377,2.38377,0,0,0,1.719,4.15,6.05178,6.05178,0,0,1,6.35261,6.35261,2.38377,2.38377,0,0,0,4.15,1.719,6.05176,6.05176,0,0,1,8.98394,0Z" style="fill: #fff;stroke: #4c4c4c;stroke-linecap: round;stroke-width: 3px"/>
            <circle id="Oval-6" cx="446.24333" cy="153.88405" r="5.5" style="fill: url(#linear-gradient-5)"/>
            <path id="Oval-2" d="M446.03582,148.38405a5.70751,5.70751,0,0,1,0,11.415h0a5.7077,5.7077,0,0,1-4.40659-9.33511" style="fill: none;stroke: #4c4c4c;stroke-linecap: round;stroke-width: 3px"/>
          </g>
          <g id="Group-2-2" data-name="Group-2">
            <path id="Star-2" data-name="Star" d="M479.45188,142.82235a1.70269,1.70269,0,0,0,2.96431-1.22786,4.3227,4.3227,0,0,1,4.53757-4.53757,1.7027,1.7027,0,0,0,1.22786-2.96431,4.3227,4.3227,0,0,1,0-6.4171,1.7027,1.7027,0,0,0-1.22786-2.96431,4.3227,4.3227,0,0,1-4.53757-4.53757,1.7027,1.7027,0,0,0-2.96431-1.22786,4.3227,4.3227,0,0,1-6.4171,0,1.7027,1.7027,0,0,0-2.96431,1.22786,4.3227,4.3227,0,0,1-4.53757,4.53757,1.70269,1.70269,0,0,0-1.22786,2.96431,4.32271,4.32271,0,0,1,0,6.4171,1.70269,1.70269,0,0,0,1.22786,2.96431,4.3227,4.3227,0,0,1,4.53757,4.53757,1.70269,1.70269,0,0,0,2.96431,1.22786,4.32271,4.32271,0,0,1,6.4171,0Z" style="fill: #fff;stroke: #4c4c4c;stroke-linecap: round;stroke-width: 3px"/>
            <circle id="Oval-6-2" data-name="Oval-6" cx="476.24333" cy="130.88405" r="4.5" style="fill: url(#linear-gradient-6)"/>
            <path id="Oval-2-2" data-name="Oval-2" d="M476.0951,126.95548a4.07679,4.07679,0,1,1-4.07679,4.07679" style="fill: none;stroke: #4c4c4c;stroke-linecap: round;stroke-width: 3px"/>
          </g>
          <g id="Group-39">
            <path id="Rectangle-21" d="M464.07869,160.38405h38.66464a3,3,0,0,0,3-3v-54a3,3,0,0,0-3-3h-51a3,3,0,0,0-3,3v34.36407" style="fill: none;stroke: #4c4c4c;stroke-linecap: round;stroke-width: 5px"/>
          </g>
          <g>
            <line id="Path-7-8" data-name="Path-7" x1="60.93467" y1="268.70001" x2="60.93467" y2="272.70001" style="fill: none;stroke: #4c4c4c;stroke-linecap: round;stroke-width: 3px"/>
            <line id="Path-7-9" data-name="Path-7" x1="49.93467" y1="268.70001" x2="49.93467" y2="272.70001" style="fill: none;stroke: #4c4c4c;stroke-linecap: round;stroke-width: 3px"/>
            <line id="Path-7-10" data-name="Path-7" x1="60.93467" y1="284.70001" x2="60.93467" y2="288.70001" style="fill: none;stroke: #4c4c4c;stroke-linecap: round;stroke-width: 3px"/>
            <line id="Path-7-11" data-name="Path-7" x1="49.93467" y1="284.70001" x2="49.93467" y2="288.70001" style="fill: none;stroke: #4c4c4c;stroke-linecap: round;stroke-width: 3px"/>
            <line id="Path-7-12" data-name="Path-7" x1="60.93467" y1="301.70001" x2="60.93467" y2="305.70001" style="fill: none;stroke: #4c4c4c;stroke-linecap: round;stroke-width: 3px"/>
            <line id="Path-7-13" data-name="Path-7" x1="49.93467" y1="301.70001" x2="49.93467" y2="305.70001" style="fill: none;stroke: #4c4c4c;stroke-linecap: round;stroke-width: 3px"/>
          </g>
          <g>
            <line id="Path-7-14" data-name="Path-7" x1="60.93467" y1="200.16335" x2="60.93467" y2="204.16335" style="fill: none;stroke: #4c4c4c;stroke-linecap: round;stroke-width: 3px"/>
            <line id="Path-7-15" data-name="Path-7" x1="49.93467" y1="200.16335" x2="49.93467" y2="204.16335" style="fill: none;stroke: #4c4c4c;stroke-linecap: round;stroke-width: 3px"/>
            <line id="Path-7-16" data-name="Path-7" x1="60.93467" y1="216.16335" x2="60.93467" y2="220.16335" style="fill: none;stroke: #4c4c4c;stroke-linecap: round;stroke-width: 3px"/>
            <line id="Path-7-17" data-name="Path-7" x1="49.93467" y1="216.16335" x2="49.93467" y2="220.16335" style="fill: none;stroke: #4c4c4c;stroke-linecap: round;stroke-width: 3px"/>
            <line id="Path-7-18" data-name="Path-7" x1="60.93467" y1="233.16335" x2="60.93467" y2="237.16335" style="fill: none;stroke: #4c4c4c;stroke-linecap: round;stroke-width: 3px"/>
            <line id="Path-7-19" data-name="Path-7" x1="49.93467" y1="233.16335" x2="49.93467" y2="237.16335" style="fill: none;stroke: #4c4c4c;stroke-linecap: round;stroke-width: 3px"/>
          </g>
          <g>
            <line id="Path-7-20" data-name="Path-7" x1="60.93467" y1="131.62669" x2="60.93467" y2="135.62669" style="fill: none;stroke: #4c4c4c;stroke-linecap: round;stroke-width: 3px"/>
            <line id="Path-7-21" data-name="Path-7" x1="49.93467" y1="131.62669" x2="49.93467" y2="135.62669" style="fill: none;stroke: #4c4c4c;stroke-linecap: round;stroke-width: 3px"/>
            <line id="Path-7-22" data-name="Path-7" x1="60.93467" y1="147.62669" x2="60.93467" y2="151.62669" style="fill: none;stroke: #4c4c4c;stroke-linecap: round;stroke-width: 3px"/>
            <line id="Path-7-23" data-name="Path-7" x1="49.93467" y1="147.62669" x2="49.93467" y2="151.62669" style="fill: none;stroke: #4c4c4c;stroke-linecap: round;stroke-width: 3px"/>
            <line id="Path-7-24" data-name="Path-7" x1="60.93467" y1="164.62669" x2="60.93467" y2="168.62669" style="fill: none;stroke: #4c4c4c;stroke-linecap: round;stroke-width: 3px"/>
            <line id="Path-7-25" data-name="Path-7" x1="49.93467" y1="164.62669" x2="49.93467" y2="168.62669" style="fill: none;stroke: #4c4c4c;stroke-linecap: round;stroke-width: 3px"/>
          </g>
          <g>
            <line id="Path-7-26" data-name="Path-7" x1="60.93467" y1="63.09003" x2="60.93467" y2="67.09003" style="fill: none;stroke: #4c4c4c;stroke-linecap: round;stroke-width: 3px"/>
            <line id="Path-7-27" data-name="Path-7" x1="49.93467" y1="63.09003" x2="49.93467" y2="67.09003" style="fill: none;stroke: #4c4c4c;stroke-linecap: round;stroke-width: 3px"/>
            <line id="Path-7-28" data-name="Path-7" x1="60.93467" y1="79.09003" x2="60.93467" y2="83.09003" style="fill: none;stroke: #4c4c4c;stroke-linecap: round;stroke-width: 3px"/>
            <line id="Path-7-29" data-name="Path-7" x1="49.93467" y1="79.09003" x2="49.93467" y2="83.09003" style="fill: none;stroke: #4c4c4c;stroke-linecap: round;stroke-width: 3px"/>
            <line id="Path-7-30" data-name="Path-7" x1="60.93467" y1="96.09003" x2="60.93467" y2="100.09003" style="fill: none;stroke: #4c4c4c;stroke-linecap: round;stroke-width: 3px"/>
            <line id="Path-7-31" data-name="Path-7" x1="49.93467" y1="96.09003" x2="49.93467" y2="100.09003" style="fill: none;stroke: #4c4c4c;stroke-linecap: round;stroke-width: 3px"/>
          </g>
          <g>
            <g id="Group-39-2" data-name="Group-39">
              <g id="Loop">
                <ellipse id="Oval" cx="433.32566" cy="239.32507" rx="14.04755" ry="13.77823" transform="translate(-29.09052 62.63637) rotate(-8)" style="fill: #fff;stroke: #4c4c4c;stroke-width: 3.29999995231628px"/>
                <ellipse id="Oval-11" cx="435.50502" cy="234.12379" rx="3.04112" ry="3.01534" transform="translate(-28.34543 62.88906) rotate(-8)" style="fill: url(#linear-gradient-7)"/>
                <line id="Path-6" x1="442.55207" y1="250.41322" x2="446.10126" y2="254.35" style="fill: none;stroke: #4c4c4c;stroke-linecap: round;stroke-width: 3.29999995231628px"/>
                <path id="Rectangle-19" d="M462.15561,268.06267l-11.69787-13.45685a3.08475,3.08475,0,0,0-4.35186-.30431h0a3.08475,3.08475,0,0,0-.30431,4.35186l11.69787,13.45685a3.08475,3.08475,0,0,0,4.35186.30431h0A3.08475,3.08475,0,0,0,462.15561,268.06267Z" style="fill: none;stroke: #4c4c4c;stroke-width: 3.29999995231628px"/>
              </g>
              <path id="Rectangle-21-2" data-name="Rectangle-21" d="M456.8502,271.393v5.6319h-44a3,3,0,0,1-3-3v-58a3,3,0,0,1,3-3h41a3,3,0,0,1,3,3V261.389" style="fill: none;stroke: #4c4c4c;stroke-linecap: round;stroke-linejoin: round;stroke-width: 3px"/>
              <line id="Path-4-7" data-name="Path-4" x1="426.78556" y1="268.25258" x2="419.31301" y2="268.25258" style="fill: none;stroke: #4c4c4c;stroke-linecap: round;stroke-width: 3px"/>
            </g>
            <path id="Path-19" d="M456.8502,228.60582H561.63645a6,6,0,0,1,6,6v35.0869h0" style="fill: none;stroke: #4c4c4c;stroke-linecap: round;stroke-width: 3px;stroke-dasharray: 7"/>
          </g>
          <g>
            <ellipse id="Oval-2-3" data-name="Oval" cx="184.70184" cy="109.22002" rx="4.65597" ry="4.60702" style="fill: none;stroke: #fff;stroke-width: 2.65402388572693px"/>
            <line id="Line" x1="177.55814" y1="124.31061" x2="191.84555" y2="124.31061" style="fill: none;stroke: #fff;stroke-linecap: round;stroke-width: 3px;opacity: 0.5;isolation: isolate"/>
          </g>
          <path id="Combined-Shape" d="M312.40271,43.07131a32.125,32.125,0,0,1,27.79487,16.11564,25.77378,25.77378,0,0,1,13.52882-3.816,26.48967,26.48967,0,0,1,7.6699,51.731,9.65529,9.65529,0,0,1-4.598,1.15738l-2.91066-.0021-.1612.0021q-.08086,0-.16185-.0005l-40.99781-.0016-.164.0021q-.082,0-.164-.00042l-36.15617-.00168-.14182.0021q-.072,0-.14362-.00051l-18.72855.00051a9.68985,9.68985,0,0,1-9.68983-9.68989v-.29963a9.69154,9.69154,0,0,1,8.51943-9.61991c-.00783-.22574-.01155-.45491-.01155-.685a20.17532,20.17532,0,0,1,20.05412-20.29439,19.86283,19.86283,0,0,1,5.07369.65514A32.30629,32.30629,0,0,1,312.40271,43.07131Z" style="fill: #fff;opacity: 0.45"/>
        </g>
        <path id="Combined-Shape-2" data-name="Combined-Shape" d="M590.902,155.43563a24.92926,24.92926,0,0,0-21.56732,12.4992,20.00582,20.00582,0,0,0-10.49764-2.95967,20.544,20.544,0,0,0-5.95143,40.1223,7.49468,7.49468,0,0,0,3.56783.89766l2.25851-.00163.12509.00163q.06274,0,.12558-.00039l31.8121-.00124.12728.00163.12728-.00032,28.05524-.00131.11.00163.11144-.0004,14.53235.0004a7.51709,7.51709,0,0,0,7.51878-7.51542v-.23239a7.5179,7.5179,0,0,0-6.61062-7.46114c.00608-.17508.009-.35282.009-.53125a15.65133,15.65133,0,0,0-15.56092-15.74021,15.41908,15.41908,0,0,0-3.93691.50813A25.06535,25.06535,0,0,0,590.902,155.43563Z" style="fill: #fff;opacity: 0.45"/>
      </g>
    </g>
  </g>
</svg>
