<svg xmlns="http://www.w3.org/2000/svg" viewBox="0 0 285.5 285.5"><defs><style>.cls-1{fill:none;}.cls-2{fill:#fff;}.cls-3{fill:#4c4c4c;}.cls-4{fill:#f58524;}.cls-5{fill:#b7b7b7;}.cls-6{fill:#707070;}</style></defs><title>operations</title><g id="Layer_2" data-name="Layer 2"><g id="Layer_9" data-name="Layer 9"><rect class="cls-1" width="285.5" height="285.5"/><path class="cls-2" d="M200.09,145.51a5.41,5.41,0,0,0,4.51-5.19v-7.08a5.42,5.42,0,0,0-4.51-5.2l-4.47-.64a7.92,7.92,0,0,1-5.88-5l-3-7.2a7.84,7.84,0,0,1,.61-7.66l2.7-3.58a5.42,5.42,0,0,0-.48-6.86l-5-5a5.42,5.42,0,0,0-6.86-.49l-3.61,2.71a7.87,7.87,0,0,1-7.67.61L159.33,92a7.9,7.9,0,0,1-5-5.88l-.6-4.25a5.41,5.41,0,0,0-5.19-4.51h-7.08a5.42,5.42,0,0,0-5.2,4.51l-.61,4.26a7.93,7.93,0,0,1-5,5.88l-7.21,3a7.83,7.83,0,0,1-7.66-.61l-3.47-2.61a5.41,5.41,0,0,0-6.86.48l-5,5a5.43,5.43,0,0,0-.49,6.86l2.62,3.49a7.88,7.88,0,0,1,.61,7.67l-2.93,7.11a7.93,7.93,0,0,1-5.88,5l-4.58.65a5.42,5.42,0,0,0-4.51,5.2v7.08a5.41,5.41,0,0,0,4.51,5.19l4.57.64a7.9,7.9,0,0,1,5.88,5l2.9,7.07a7.87,7.87,0,0,1-.61,7.67l-2.8,3.73a5.43,5.43,0,0,0,.49,6.86l5,5a5.41,5.41,0,0,0,6.86.48l3.69-2.78a7.85,7.85,0,0,1,7.66-.61l7.22,3a7.91,7.91,0,0,1,5,5.88l.61,4.34a5.41,5.41,0,0,0,5.19,4.51h7.08a5.43,5.43,0,0,0,5.2-4.51l.62-4.34a7.94,7.94,0,0,1,5-5.88l7.17-3a7.85,7.85,0,0,1,7.66.61l3.46,2.61a5.41,5.41,0,0,0,6.86-.48l5-5a5.43,5.43,0,0,0,.49-6.86L187.4,166a7.87,7.87,0,0,1-.61-7.67l3-7.18a7.9,7.9,0,0,1,5.88-5Z"/><path class="cls-3" d="M148.56,198.25h-7.08a7.36,7.36,0,0,1-7.17-6.23l-.61-4.33a6,6,0,0,0-3.6-4.25l-.16-.06-7.39-3.05a5.9,5.9,0,0,0-5.53.44l-3.69,2.78a7.36,7.36,0,0,1-9.48-.66l-5-5a7.38,7.38,0,0,1-.67-9.48l2.8-3.73a5.94,5.94,0,0,0,.44-5.54l-.08-.17-3-7.22a6,6,0,0,0-4.25-3.6l-4.57-.64a7.37,7.37,0,0,1-6.23-7.17v-7.08a7.38,7.38,0,0,1,6.22-7.18l4.58-.65a6,6,0,0,0,4.25-3.61l.06-.16,3-7.28a5.94,5.94,0,0,0-.44-5.54l-2.62-3.49a7.38,7.38,0,0,1,.67-9.48l5-5a7.37,7.37,0,0,1,9.48-.66L117,92.79a5.9,5.9,0,0,0,5.53.44l.17-.08,7.37-3a6,6,0,0,0,3.61-4.25l.61-4.26a7.38,7.38,0,0,1,7.18-6.23h7.08a7.36,7.36,0,0,1,7.17,6.23l.6,4.25a6,6,0,0,0,3.6,4.25l.16.06,7.3,3a5.94,5.94,0,0,0,5.54-.44L176.54,90a7.37,7.37,0,0,1,9.48.67l5,5a7.37,7.37,0,0,1,.66,9.47l-2.7,3.58a5.9,5.9,0,0,0-.44,5.53l.08.17,3,7.36a6,6,0,0,0,4.25,3.61l4.47.64a7.37,7.37,0,0,1,6.22,7.18v7.08a7.36,7.36,0,0,1-6.23,7.17h0l-4.46.63a6,6,0,0,0-4.25,3.6l-.06.16-3,7.35a5.93,5.93,0,0,0,.44,5.54l2.6,3.47a7.38,7.38,0,0,1-.67,9.48l-5,5a7.37,7.37,0,0,1-9.48.66L173,180.78a5.91,5.91,0,0,0-5.53-.44l-.17.08-7.33,3a6,6,0,0,0-3.61,4.26l-.62,4.34A7.38,7.38,0,0,1,148.56,198.25Zm-17.17-18.6a9.94,9.94,0,0,1,6.27,7.48l.61,4.34a3.43,3.43,0,0,0,3.21,2.79h7.08a3.44,3.44,0,0,0,3.22-2.79l.62-4.34a10,10,0,0,1,6.28-7.48l7-2.89a9.89,9.89,0,0,1,9.71.83l3.46,2.61a3.43,3.43,0,0,0,4.24-.3l5-5a3.44,3.44,0,0,0,.3-4.25l-2.6-3.47a9.9,9.9,0,0,1-.82-9.71l2.89-7a9.94,9.94,0,0,1,7.48-6.27l4.46-.63a3.43,3.43,0,0,0,2.79-3.21v-7.08a3.44,3.44,0,0,0-2.79-3.22l-4.47-.64a10,10,0,0,1-7.48-6.27l-2.91-7a9.87,9.87,0,0,1,.83-9.71l2.7-3.58a3.43,3.43,0,0,0-.3-4.24l-5-5a3.43,3.43,0,0,0-4.25-.3l-3.61,2.71a9.91,9.91,0,0,1-9.71.83l-7-2.86a9.94,9.94,0,0,1-6.28-7.48l-.6-4.25a3.43,3.43,0,0,0-3.21-2.79h-7.08a3.44,3.44,0,0,0-3.22,2.79l-.61,4.26a10,10,0,0,1-6.27,7.48l-7.06,2.91a9.88,9.88,0,0,1-9.71-.83l-3.47-2.61a3.43,3.43,0,0,0-4.24.3l-5,5a3.44,3.44,0,0,0-.3,4.25l2.62,3.49a9.91,9.91,0,0,1,.83,9.71l-2.87,7a10,10,0,0,1-7.47,6.28l-4.58.65a3.44,3.44,0,0,0-2.79,3.22v7.08a3.43,3.43,0,0,0,2.79,3.21l4.57.64a9.94,9.94,0,0,1,7.48,6.27l2.84,6.92a9.91,9.91,0,0,1-.83,9.71l-2.8,3.72a3.44,3.44,0,0,0,.3,4.25l5,5a3.43,3.43,0,0,0,4.24.3l3.69-2.78a9.89,9.89,0,0,1,9.71-.83Zm58.36-28.53h0Z"/><circle class="cls-4" cx="144.33" cy="137.46" r="35.14"/><path class="cls-3" d="M144.33,174.1A36.64,36.64,0,1,1,181,137.46,36.68,36.68,0,0,1,144.33,174.1Zm0-70.27A33.64,33.64,0,1,0,178,137.46,33.68,33.68,0,0,0,144.33,103.82Z"/><path class="cls-2" d="M168.61,131.47a1.65,1.65,0,0,0-1.09-.65,1.56,1.56,0,0,0-.43,0h-5.56a1.67,1.67,0,0,0,.25,3.32h5.31a1.67,1.67,0,0,0,1.52-2.65Z"/><path class="cls-2" d="M144.4,118.55l.24,0a1.67,1.67,0,0,0,1.66-1.85v-4.6a1.67,1.67,0,0,0-1.59-1.74h-.14l-.28,0a1.64,1.64,0,0,0-1.3,1.69v4.64a1.67,1.67,0,0,0,1.42,1.83Z"/><path class="cls-2" d="M125.86,120.2l3.44,3.39a1.67,1.67,0,0,0,1.16.47h0a1.68,1.68,0,0,0,1.14-2.89l-3.42-3.32a1.62,1.62,0,0,0-1.29-.53l-.27,0a1.67,1.67,0,0,0-.79,2.85Z"/><path class="cls-2" d="M156.61,123.16h0a1.67,1.67,0,0,0,1.16-.47l3.44-3.39a1.67,1.67,0,0,0-1.26-2.87h-.07l-.17,0a1.59,1.59,0,0,0-.83.48l-3.44,3.34a1.68,1.68,0,0,0,1.14,2.89Z"/><path class="cls-2" d="M144.66,119.77l-.06,0-.18,0a.48.48,0,0,0-.18,0c-.06,0-.14,0-.19,0H144l-.1,0-.06,0c-7.83.22-14,5.87-14,12.88a12,12,0,0,0,2.07,6.72c.14.15,3.84,4.43,4.46,5.49s.74,1.87.74,3.84c0,.12,0,.34,0,.34h0s0,1.14,0,3.33a2.85,2.85,0,0,0,1.68,2.52l-.06.09a1.47,1.47,0,0,0-.3.8,3.15,3.15,0,0,0,2.89,3,3,3,0,0,0,5.8,0,3.15,3.15,0,0,0,2.89-3,1.48,1.48,0,0,0-.31-.82l-.05-.08a2.84,2.84,0,0,0,1.68-2.51v-3.22s0-.54,0-.6a6.32,6.32,0,0,1,.74-3.69c.52-.91,4.1-5.09,4.44-5.47l.05-.06a12,12,0,0,0,2-6.68C158.61,125.64,152.49,120,144.66,119.77Zm-1.87,33.5h-.12a1.14,1.14,0,0,0-.7,2,1.11,1.11,0,0,0,.81.29h4.93a.72.72,0,0,1,0,.25,1,1,0,0,1-1.07.89h-.55a1.13,1.13,0,0,0-1.11,1.11v.55c0,.27-.33.57-.8.57s-.75-.29-.75-.57v-.55a1.13,1.13,0,0,0-1.11-1.11h-.59a1,1,0,0,1-1.07-.89.68.68,0,0,1,.24-.59,1.12,1.12,0,0,0-.65-1.93,1,1,0,0,1-1-.89V150h9.77v2.34a1,1,0,0,1-1,.89Zm-3.5-5.46a8.08,8.08,0,0,0-1-4.06,61.94,61.94,0,0,0-4.49-5.66l-.11-.12a9.59,9.59,0,0,1-1.6-5.32c0-5.86,5.39-10.66,12-10.71h.2c6.63,0,12,4.85,12,10.71a9.6,9.6,0,0,1-1.59,5.31.33.33,0,0,0-.05.1l-1.29,1.5a30.9,30.9,0,0,0-3.31,4.2,7.94,7.94,0,0,0-.94,4.06Z"/><path class="cls-2" d="M151.95,133.53a.92.92,0,0,0,.25-1.45L150,129a.92.92,0,0,0-1.53,0l-1.29,1.91-1.43-2.15a.92.92,0,0,0-1.43,0l-2,2.34-1.43-2.29a.92.92,0,0,0-1-.43h-.1a.92.92,0,0,0-.48.33L136.66,132a.92.92,0,1,0,1.39,1.15l1.91-2.39,1.48,2.29a.92.92,0,0,0,1.48.14l2-2.39,1.53,2.25a.92.92,0,0,0,1.53,0l1.29-2,1.48,2A.92.92,0,0,0,151.95,133.53Z"/><path class="cls-2" d="M128.13,133.8a1.67,1.67,0,0,0-1.18-3h-5.61a1.67,1.67,0,0,0,.25,3.32H127A1.65,1.65,0,0,0,128.13,133.8Z"/><path class="cls-2" d="M129.52,139.37h-.06l-.25,0a2.09,2.09,0,0,0-.57.29l-4,2.93a1.67,1.67,0,0,0,.82,3.12,1.65,1.65,0,0,0,.76-.19c.07,0,.13-.07,4.4-3.16a1.67,1.67,0,0,0,.45-2.32A1.65,1.65,0,0,0,129.52,139.37Z"/><path class="cls-2" d="M164.33,142.64l-4-2.9a2.15,2.15,0,0,0-.61-.33l-.32,0a1.67,1.67,0,0,0-1.09,3c4.29,3.11,4.35,3.14,4.42,3.17a1.67,1.67,0,0,0,1.58-2.93Z"/><path class="cls-3" d="M93,233.91A4.58,4.58,0,0,0,94.56,225v-5.34l9.18-3.44v2.66a4.59,4.59,0,1,0,3.06,0V198.74l-3.06,2V213l-11.24,4.22a1.53,1.53,0,0,0-1,1.43V225A4.58,4.58,0,0,0,93,233.91Zm12.23-12.23a1.53,1.53,0,1,1-1.53,1.53A1.53,1.53,0,0,1,105.26,221.67ZM93,227.79a1.53,1.53,0,1,1-1.53,1.53A1.53,1.53,0,0,1,93,227.79Z"/><path class="cls-5" d="M128.2,222.31V225a4.59,4.59,0,1,0,3.06,0v-3.34a1.52,1.52,0,0,0-.45-1.08l-5.67-5.67V194.15h-3.06v21.41a1.52,1.52,0,0,0,.45,1.08Zm1.53,5.48a1.53,1.53,0,1,1-1.53,1.53A1.53,1.53,0,0,1,129.73,227.79Z"/><path class="cls-3" d="M117.49,233.91A4.58,4.58,0,0,0,119,225V191.09H116V225a4.58,4.58,0,0,0,1.53,8.89Zm0-6.12a1.53,1.53,0,1,1-1.53,1.53A1.53,1.53,0,0,1,117.49,227.79Z"/><path class="cls-3" d="M65.62,92.54A1.5,1.5,0,0,0,67.68,92c1.17-2,2.43-3.91,3.75-5.78A1.5,1.5,0,1,0,69,84.52c-1.36,1.93-2.66,3.94-3.87,6A1.5,1.5,0,0,0,65.62,92.54Z"/><path class="cls-3" d="M74.44,81.32a1.5,1.5,0,0,0,1.16-.54c1.45-1.76,3-3.49,4.58-5.14A1.5,1.5,0,1,0,78,73.55c-1.64,1.71-3.23,3.49-4.73,5.31a1.5,1.5,0,0,0,1.16,2.46Z"/><path class="cls-3" d="M84.14,71.24a1.5,1.5,0,0,0,1-.38c1.71-1.52,3.49-3,5.31-4.38a1.5,1.5,0,0,0-1.82-2.38c-1.87,1.43-3.72,3-5.48,4.53a1.5,1.5,0,0,0,1,2.62Z"/><path class="cls-3" d="M95.25,62.75a1.49,1.49,0,0,0,.82-.24C98,61.27,100,60.09,102,59a1.5,1.5,0,0,0-1.44-2.63c-2.07,1.13-4.13,2.35-6.11,3.64a1.5,1.5,0,0,0,.82,2.76Z"/><path class="cls-3" d="M53.74,132.44h.11a1.5,1.5,0,0,0,1.49-1.39c.17-2.28.43-4.58.78-6.84a1.5,1.5,0,0,0-3-.45c-.36,2.33-.63,4.71-.8,7.06A1.5,1.5,0,0,0,53.74,132.44Z"/><path class="cls-3" d="M107.52,56.07a1.49,1.49,0,0,0,.61-.13c2.09-.94,4.23-1.8,6.37-2.57a1.5,1.5,0,1,0-1-2.82c-2.22.8-4.43,1.69-6.59,2.66a1.5,1.5,0,0,0,.62,2.87Z"/><path class="cls-3" d="M54,146.43a1.5,1.5,0,0,0,1.38-1.61c-.17-2.28-.26-4.59-.26-6.88a1.5,1.5,0,1,0-3,0c0,2.36.09,4.75.27,7.11a1.5,1.5,0,0,0,1.49,1.39Z"/><path class="cls-3" d="M57.44,158.41c-.52-2.22-1-4.5-1.3-6.75a1.5,1.5,0,0,0-3,.46c.36,2.33.81,4.68,1.35,7A1.5,1.5,0,0,0,56,160.25a1.53,1.53,0,0,0,.34,0A1.5,1.5,0,0,0,57.44,158.41Z"/><path class="cls-3" d="M59.61,105.18a1.51,1.51,0,0,0,.56.11,1.5,1.5,0,0,0,1.39-.94c.85-2.12,1.8-4.23,2.82-6.28a1.5,1.5,0,0,0-2.69-1.33c-1,2.12-2,4.3-2.91,6.49A1.5,1.5,0,0,0,59.61,105.18Z"/><path class="cls-3" d="M55.62,118.59a1.52,1.52,0,0,0,.34,0,1.5,1.5,0,0,0,1.46-1.16c.52-2.22,1.13-4.46,1.82-6.63a1.5,1.5,0,1,0-2.86-.9c-.71,2.25-1.34,4.56-1.88,6.86A1.5,1.5,0,0,0,55.62,118.59Z"/><path class="cls-3" d="M228.23,104.28a1.5,1.5,0,1,0,2.78-1.12c-.88-2.19-1.86-4.37-2.91-6.48A1.5,1.5,0,1,0,225.42,98C226.43,100.05,227.38,102.16,228.23,104.28Z"/><path class="cls-3" d="M222.12,92a1.5,1.5,0,0,0,2.58-1.54c-1.21-2-2.51-4-3.87-6a1.5,1.5,0,0,0-2.45,1.73C219.69,88.08,221,90,222.12,92Z"/><path class="cls-3" d="M120.67,51.34a1.48,1.48,0,0,0,.4-.05c2.2-.6,4.45-1.13,6.7-1.56a1.5,1.5,0,1,0-.57-2.95c-2.32.45-4.65,1-6.92,1.62a1.5,1.5,0,0,0,.4,2.95Z"/><path class="cls-3" d="M234.95,122.43a1.5,1.5,0,0,0-1.25,1.71c.35,2.26.61,4.56.78,6.84a1.5,1.5,0,0,0,1.49,1.39h.12a1.5,1.5,0,0,0,1.38-1.61c-.18-2.36-.45-4.73-.81-7.06A1.5,1.5,0,0,0,234.95,122.43Z"/><path class="cls-3" d="M230.56,110.75c.69,2.17,1.3,4.41,1.82,6.63a1.5,1.5,0,0,0,1.46,1.16,1.54,1.54,0,0,0,.34,0,1.5,1.5,0,0,0,1.12-1.8c-.54-2.3-1.17-4.61-1.88-6.86a1.5,1.5,0,0,0-2.86.91Z"/><path class="cls-3" d="M134.4,48.68h.17c2.27-.26,4.58-.44,6.86-.52a1.5,1.5,0,1,0-.11-3c-2.36.09-4.75.27-7.09.54a1.5,1.5,0,0,0,.17,3Z"/><path class="cls-3" d="M148.32,48.15c2.3.09,4.61.26,6.86.52h.16l-1-3.1c-2-.2-3.92-.35-5.9-.42a1.5,1.5,0,0,0-.11,3Z"/><path class="cls-3" d="M199.06,64.35a1.5,1.5,0,0,0,.28,2.1c1.82,1.39,3.61,2.86,5.31,4.38a1.5,1.5,0,1,0,2-2.24c-1.76-1.57-3.61-3.09-5.49-4.53A1.5,1.5,0,0,0,199.06,64.35Z"/><path class="cls-3" d="M214.2,80.74a1.5,1.5,0,0,0,2.31-1.91c-1.5-1.82-3.1-3.6-4.73-5.3a1.5,1.5,0,1,0-2.16,2.08C211.2,77.25,212.74,79,214.2,80.74Z"/><path class="cls-3" d="M232.46,164a1.5,1.5,0,0,0-1.88,1c-.69,2.18-1.47,4.36-2.33,6.48a1.5,1.5,0,0,0,2.78,1.12c.89-2.2,1.69-4.45,2.41-6.7A1.5,1.5,0,0,0,232.46,164Z"/><path class="cls-3" d="M187.83,216.84c-2,1.09-4.08,2.12-6.16,3.06a1.5,1.5,0,1,0,1.23,2.74c2.15-1,4.29-2,6.37-3.16a1.5,1.5,0,0,0-1.44-2.63Z"/><path class="cls-3" d="M199.36,209.36c-1.82,1.39-3.71,2.72-5.62,4a1.5,1.5,0,0,0,1.63,2.52c2-1.28,3.93-2.66,5.81-4.09a1.5,1.5,0,1,0-1.82-2.38Z"/><path class="cls-3" d="M175.29,222.47c-2.15.77-4.35,1.47-6.56,2.08a1.5,1.5,0,0,0,.4,2.95,1.48,1.48,0,0,0,.4-.05c2.28-.62,4.56-1.35,6.78-2.14a1.5,1.5,0,0,0-1-2.82Z"/><path class="cls-3" d="M209.63,200.21c-1.58,1.64-3.25,3.25-5,4.77a1.5,1.5,0,0,0,2,2.24c1.76-1.57,3.49-3.23,5.12-4.93a1.5,1.5,0,1,0-2.16-2.08Z"/><path class="cls-3" d="M227.44,177.1a1.5,1.5,0,0,0-2,.68c-1,2-2.12,4.08-3.29,6a1.5,1.5,0,1,0,2.58,1.54c1.21-2,2.36-4.13,3.41-6.25A1.5,1.5,0,0,0,227.44,177.1Z"/><path class="cls-3" d="M236.24,136.38a1.52,1.52,0,0,0-1.5,1.53c0,2.29-.09,4.6-.26,6.88a1.5,1.5,0,0,0,1.38,1.61H236a1.5,1.5,0,0,0,1.49-1.39c.18-2.35.27-4.74.27-7.1v-.06A1.48,1.48,0,0,0,236.24,136.38Z"/><path class="cls-3" d="M220.48,189.24a1.5,1.5,0,0,0-2.09.36c-1.32,1.87-2.72,3.71-4.18,5.47a1.5,1.5,0,1,0,2.31,1.91c1.5-1.82,3-3.72,4.32-5.65A1.5,1.5,0,0,0,220.48,189.24Z"/><path class="cls-3" d="M235.41,150.37a1.5,1.5,0,0,0-1.71,1.25c-.35,2.26-.78,4.54-1.3,6.76a1.5,1.5,0,0,0,1.12,1.8,1.52,1.52,0,0,0,.34,0,1.5,1.5,0,0,0,1.46-1.16c.53-2.3,1-4.64,1.35-7A1.5,1.5,0,0,0,235.41,150.37Z"/><path class="cls-3" d="M162,226.11c-2.24.43-4.53.78-6.8,1a1.5,1.5,0,0,0,.17,3h.17c2.35-.27,4.72-.63,7-1.08a1.5,1.5,0,1,0-.57-2.95Z"/><path class="cls-3" d="M64.4,177.79a1.5,1.5,0,0,0-2.69,1.33c1,2.11,2.19,4.21,3.4,6.24a1.5,1.5,0,0,0,2.58-1.54C66.52,181.87,65.42,179.84,64.4,177.79Z"/><path class="cls-3" d="M80.19,200.2A1.5,1.5,0,0,0,78,202.28c1.64,1.71,3.37,3.36,5.12,4.93a1.5,1.5,0,0,0,2-2.24C83.45,203.46,81.78,201.85,80.19,200.2Z"/><path class="cls-3" d="M71.44,189.6A1.5,1.5,0,1,0,69,191.33c1.36,1.93,2.81,3.83,4.31,5.65a1.5,1.5,0,0,0,2.31-1.91C74.16,193.3,72.75,191.46,71.44,189.6Z"/><path class="cls-3" d="M93.53,211.59l-2,2.23c-1-.67-1.92-1.37-2.85-2.08a1.5,1.5,0,1,1,1.83-2.38C91.47,210.12,92.49,210.87,93.53,211.59Z"/><path class="cls-3" d="M61.59,171.52c-.86-2.12-1.64-4.3-2.33-6.47a1.5,1.5,0,1,0-2.86.9c.71,2.25,1.52,4.5,2.41,6.69a1.5,1.5,0,0,0,2.78-1.12Z"/><path class="cls-3" d="M148.37,227.67c-2.28.09-4.6.09-6.88,0a1.48,1.48,0,0,0-1.56,1.44,1.5,1.5,0,0,0,1.44,1.56c1.16,0,2.35.07,3.54.07s2.38,0,3.57-.07a1.5,1.5,0,0,0-.11-3Z"/><path class="cls-3" d="M196.63,40.07A4.58,4.58,0,0,0,195.1,49v5.34l-9.18,3.44V55.09a4.59,4.59,0,1,0-3.06,0V79.84l3.06-2V61l11.24-4.22a1.53,1.53,0,0,0,1-1.43V49a4.58,4.58,0,0,0-1.53-8.89ZM184.4,52.31a1.53,1.53,0,1,1,1.53-1.53A1.53,1.53,0,0,1,184.4,52.31Zm12.23-6.12a1.53,1.53,0,1,1,1.53-1.53A1.53,1.53,0,0,1,196.63,46.19Z"/><path class="cls-3" d="M161.46,51.68V49a4.59,4.59,0,1,0-3.06,0v3.34a1.52,1.52,0,0,0,.45,1.08l5.67,5.67V79.84h3.06V58.43a1.52,1.52,0,0,0-.45-1.08Zm-1.53-5.48a1.53,1.53,0,1,1,1.53-1.53A1.53,1.53,0,0,1,159.93,46.19Z"/><path class="cls-5" d="M172.17,40.07A4.58,4.58,0,0,0,170.64,49V84.42h3.06V49a4.58,4.58,0,0,0-1.53-8.89Zm0,6.12a1.53,1.53,0,1,1,1.53-1.53A1.53,1.53,0,0,1,172.17,46.19Z"/><path class="cls-6" d="M73.76,105.66a1.5,1.5,0,0,0,2-.71c1-2.05,2.07-4.09,3.23-6.05a1.5,1.5,0,0,0-2.58-1.53c-1.21,2-2.34,4.16-3.36,6.29A1.5,1.5,0,0,0,73.76,105.66Z"/><path class="cls-6" d="M69.15,118.86a1.49,1.49,0,0,0,.39.05A1.5,1.5,0,0,0,71,117.81c.6-2.2,1.3-4.39,2.09-6.53a1.5,1.5,0,0,0-2.81-1c-.83,2.22-1.56,4.51-2.18,6.79A1.5,1.5,0,0,0,69.15,118.86Z"/><path class="cls-6" d="M80.67,93.5a1.5,1.5,0,0,0,2.09-.34c1.33-1.84,2.77-3.66,4.26-5.38a1.5,1.5,0,1,0-2.27-2c-1.55,1.79-3,3.67-4.43,5.59A1.5,1.5,0,0,0,80.67,93.5Z"/><path class="cls-6" d="M67,132.67h.13a1.5,1.5,0,0,0,1.49-1.37c.19-2.28.49-4.56.89-6.8a1.5,1.5,0,0,0-3-.52c-.41,2.33-.72,4.7-.92,7.07A1.5,1.5,0,0,0,67,132.67Z"/><path class="cls-6" d="M73.26,165a1.5,1.5,0,0,0-2.81,1.06c.84,2.22,1.79,4.42,2.82,6.55a1.5,1.5,0,0,0,1.35.84,1.48,1.48,0,0,0,.65-.15,1.5,1.5,0,0,0,.69-2C75,169.27,74.07,167.15,73.26,165Z"/><path class="cls-6" d="M71.12,158.5c-.61-2.2-1.13-4.45-1.54-6.68a1.5,1.5,0,0,0-3,.54c.43,2.33,1,4.67,1.6,6.95a1.5,1.5,0,1,0,2.89-.8Z"/><path class="cls-6" d="M67.29,146.65A1.5,1.5,0,0,0,68.65,145c-.21-2.26-.32-4.57-.32-6.86a1.5,1.5,0,0,0-1.5-1.5h0a1.5,1.5,0,0,0-1.5,1.5c0,2.37.12,4.77.34,7.12a1.5,1.5,0,0,0,1.49,1.36Z"/><path class="cls-6" d="M90.7,83.23a1.5,1.5,0,0,0,1-.42c1.64-1.58,3.37-3.11,5.15-4.54A1.5,1.5,0,1,0,95,75.93c-1.84,1.48-3.64,3.07-5.35,4.71a1.5,1.5,0,0,0,1,2.58Z"/><path class="cls-6" d="M79.25,177.34a1.5,1.5,0,1,0-2.57,1.55c1.22,2,2.55,4,3.95,5.94A1.5,1.5,0,1,0,83,183.05C81.7,181.21,80.42,179.29,79.25,177.34Z"/><path class="cls-6" d="M192.25,77.81c1.79,1.41,3.54,2.92,5.19,4.49a1.5,1.5,0,0,0,2.06-2.18c-1.72-1.63-3.53-3.2-5.39-4.66a1.5,1.5,0,1,0-1.86,2.35Z"/><path class="cls-6" d="M154.75,62c1.41.18,2.82.42,4.23.68l-.4-3.13c-1.14-.2-2.29-.37-3.44-.52a1.5,1.5,0,1,0-.38,3Z"/><path class="cls-6" d="M220.09,123.77c.42,2.23.74,4.52,1,6.79a1.5,1.5,0,0,0,1.49,1.36h.14a1.5,1.5,0,0,0,1.35-1.64c-.23-2.36-.56-4.74-1-7.06a1.5,1.5,0,0,0-2.95.55Z"/><path class="cls-6" d="M216.37,110.58c.81,2.13,1.54,4.32,2.16,6.51a1.5,1.5,0,0,0,1.44,1.09,1.48,1.48,0,0,0,.41-.06,1.5,1.5,0,0,0,1-1.85c-.64-2.28-1.4-4.56-2.24-6.77a1.5,1.5,0,1,0-2.8,1.07Z"/><path class="cls-6" d="M101.59,74.46a1.5,1.5,0,0,0,.83-.25c1.9-1.27,3.87-2.46,5.87-3.55A1.5,1.5,0,0,0,106.86,68c-2.08,1.13-4.13,2.37-6.1,3.69a1.5,1.5,0,0,0,.83,2.75Z"/><path class="cls-6" d="M113.87,67.77a1.48,1.48,0,0,0,.6-.12c2.09-.91,4.25-1.73,6.41-2.44a1.5,1.5,0,1,0-.94-2.85c-2.24.74-4.49,1.59-6.66,2.54a1.5,1.5,0,0,0,.6,2.88Z"/><path class="cls-6" d="M127.13,63.4a1.52,1.52,0,0,0,.34,0c2.21-.51,4.48-.93,6.75-1.25a1.5,1.5,0,1,0-.41-3c-2.35.33-4.71.76-7,1.3a1.5,1.5,0,0,0,.34,3Z"/><path class="cls-6" d="M181.2,205.28c-2,1.08-4.08,2.08-6.18,3a1.5,1.5,0,0,0,1.19,2.76c2.18-.94,4.34-2,6.42-3.11a1.5,1.5,0,1,0-1.43-2.64Z"/><path class="cls-6" d="M215,105.13a1.5,1.5,0,0,0,1.35-2.16c-1-2.12-2.19-4.23-3.42-6.26a1.5,1.5,0,1,0-2.56,1.56c1.18,2,2.29,4,3.29,6A1.5,1.5,0,0,0,215,105.13Z"/><path class="cls-6" d="M212.65,176.62a1.5,1.5,0,0,0-2.06.52c-1.17,2-2.44,3.88-3.78,5.73a1.5,1.5,0,1,0,2.43,1.76c1.39-1.92,2.71-3.92,3.93-6A1.5,1.5,0,0,0,212.65,176.62Z"/><path class="cls-6" d="M207.73,93.18a1.5,1.5,0,0,0,1.21-2.39c-1.4-1.9-2.91-3.77-4.48-5.55a1.5,1.5,0,1,0-2.25,2c1.51,1.71,3,3.51,4.31,5.34A1.5,1.5,0,0,0,207.73,93.18Z"/><path class="cls-6" d="M192.63,197.71c-1.78,1.42-3.65,2.79-5.54,4a1.5,1.5,0,1,0,1.66,2.5c2-1.31,3.91-2.72,5.76-4.2a1.5,1.5,0,0,0-1.87-2.34Z"/><path class="cls-6" d="M202.53,188.23c-1.5,1.72-3.09,3.39-4.74,5a1.5,1.5,0,1,0,2.08,2.17c1.71-1.64,3.37-3.37,4.92-5.16a1.5,1.5,0,1,0-2.26-2Z"/><path class="cls-6" d="M224.39,137.4a1.5,1.5,0,0,0-1.5-1.49h0a1.5,1.5,0,0,0-1.49,1.51v.5c0,2.28-.1,4.59-.3,6.86a1.5,1.5,0,0,0,1.36,1.63h.13a1.5,1.5,0,0,0,1.49-1.37c.21-2.35.31-4.75.31-7.12Z"/><path class="cls-6" d="M218.47,163.9a1.5,1.5,0,0,0-1.93.88c-.8,2.13-1.71,4.25-2.7,6.31a1.5,1.5,0,1,0,2.7,1.3c1-2.14,2-4.34,2.8-6.56A1.5,1.5,0,0,0,218.47,163.9Z"/><path class="cls-6" d="M221.92,150.36a1.51,1.51,0,0,0-1.74,1.21c-.4,2.24-.91,4.49-1.52,6.69a1.5,1.5,0,0,0,1,1.84,1.48,1.48,0,0,0,.4.05,1.5,1.5,0,0,0,1.45-1.1c.63-2.28,1.16-4.62,1.58-7A1.5,1.5,0,0,0,221.92,150.36Z"/><path class="cls-6" d="M155.25,213.75c-2.26.31-4.56.51-6.83.62a1.5,1.5,0,0,0,.07,3h.07c2.37-.11,4.75-.32,7.1-.64a1.5,1.5,0,1,0-.4-3Z"/><path class="cls-6" d="M98.7,202.68c-1.12-.79-2.22-1.62-3.29-2.47a1.5,1.5,0,0,1,1.87-2.35l.72.56Z"/><path class="cls-6" d="M168.61,210.69c-2.17.71-4.39,1.32-6.61,1.83a1.5,1.5,0,0,0,.33,3,1.46,1.46,0,0,0,.34,0c2.31-.53,4.62-1.17,6.87-1.9a1.5,1.5,0,1,0-.93-2.85Z"/><path class="cls-6" d="M141.55,214.38c-2.28-.1-4.58-.3-6.84-.6a1.5,1.5,0,0,0-.39,3c2.34.31,4.73.52,7.1.62h.06a1.5,1.5,0,0,0,.06-3Z"/><path class="cls-6" d="M87.34,188.41a1.5,1.5,0,0,0-2.25,2c1.56,1.78,3.23,3.51,4.94,5.14a1.5,1.5,0,0,0,2.07-2.17C90.45,191.78,88.85,190.12,87.34,188.41Z"/><path class="cls-6" d="M149.47,60A1.5,1.5,0,0,0,148,58.44c-2.35-.09-4.74-.08-7.13,0a1.5,1.5,0,0,0,.07,3h.07c2.3-.11,4.6-.12,6.86,0A1.49,1.49,0,0,0,149.47,60Z"/><g id="Group-2"><g id="Star"><path class="cls-4" d="M93.74,109.26a4,4,0,0,1-2.68,7.11,10.23,10.23,0,0,0-10.39,11.09,4,4,0,0,1-6.92,3.13,10.23,10.23,0,0,0-15.19.49,4,4,0,0,1-7.11-2.68A10.23,10.23,0,0,0,40.37,118a4,4,0,0,1-3.13-6.92,10.23,10.23,0,0,0-.49-15.19,4,4,0,0,1,2.68-7.11A10.23,10.23,0,0,0,49.82,77.71a4,4,0,0,1,6.92-3.13,10.23,10.23,0,0,0,15.19-.49A4,4,0,0,1,79,76.76,10.23,10.23,0,0,0,90.12,87.15a4,4,0,0,1,3.13,6.92,10.23,10.23,0,0,0,.49,15.19Z"/><path class="cls-3" d="M55.48,134A5.53,5.53,0,0,1,50,128.37a8.73,8.73,0,0,0-8.57-8.9,8.4,8.4,0,0,0-.89,0,5.53,5.53,0,0,1-4.3-9.5,8.75,8.75,0,0,0,.23-12.35,8.42,8.42,0,0,0-.65-.61,5.53,5.53,0,0,1,3.68-9.75,8.73,8.73,0,0,0,8.87-9.46,5.53,5.53,0,0,1,9.5-4.3,8.73,8.73,0,0,0,12.35.23,8.84,8.84,0,0,0,.61-.65,5.53,5.53,0,0,1,9.75,3.68,8.73,8.73,0,0,0,8.57,8.9,8.79,8.79,0,0,0,.89,0,5.53,5.53,0,0,1,4.3,9.5,8.73,8.73,0,0,0-.23,12.35,8.88,8.88,0,0,0,.65.61,5.53,5.53,0,0,1,.65,7.79,5.59,5.59,0,0,1-4.33,2,8.74,8.74,0,0,0-8.87,9.46,5.53,5.53,0,0,1-9.5,4.3,8.74,8.74,0,0,0-12.35-.23q-.32.31-.61.65A5.49,5.49,0,0,1,56,134ZM41.23,116.47h.22a11.73,11.73,0,0,1,11.51,12,2.53,2.53,0,0,0,4.46,1.68,11.92,11.92,0,0,1,.82-.87,11.75,11.75,0,0,1,16.59.31,2.53,2.53,0,0,0,4.35-2,11.74,11.74,0,0,1,11.91-12.71,2.53,2.53,0,0,0,1.68-4.46h0a11.89,11.89,0,0,1-.87-.82A11.73,11.73,0,0,1,92.21,93a2.53,2.53,0,0,0-.12-3.76,2.49,2.49,0,0,0-1.85-.59c-.4,0-.8,0-1.2,0a11.73,11.73,0,0,1-11.51-12,2.53,2.53,0,0,0-4.46-1.68,11.75,11.75,0,0,1-9.18,4.16,11.66,11.66,0,0,1-8.23-3.59,2.53,2.53,0,0,0-4.35,2A11.73,11.73,0,0,1,39.4,90.29a2.44,2.44,0,0,0-2,.9,2.53,2.53,0,0,0,.3,3.57,11.74,11.74,0,0,1,.56,17.41,2.53,2.53,0,0,0,.12,3.76,2.48,2.48,0,0,0,1.85.59C40.57,116.49,40.9,116.47,41.23,116.47Z"/></g><g id="Oval-6"><circle class="cls-2" cx="65.25" cy="102.58" r="9.3" transform="matrix(1, -0.03, 0.03, 1, -3.28, 2.16)"/></g><g id="Oval-2"><path class="cls-3" d="M65.58,113.37a11.17,11.17,0,0,1-11.14-10.79A1.5,1.5,0,0,1,55.89,101h0a1.5,1.5,0,0,1,1.5,1.45,8.15,8.15,0,1,0,13.72-6.21,8.15,8.15,0,0,0-11-.18,1.5,1.5,0,1,1-2-2.25,11.17,11.17,0,0,1,7-2.77,11.15,11.15,0,0,1,.72,22.29Z"/></g></g><g id="Group-2-2" data-name="Group-2"><g id="Star-2" data-name="Star"><path class="cls-4" d="M249.16,178.49a2.87,2.87,0,0,1-1.91,5.06,7.29,7.29,0,0,0-7.4,7.9,2.87,2.87,0,0,1-4.93,2.23,7.29,7.29,0,0,0-10.82.35,2.87,2.87,0,0,1-5.06-1.91,7.29,7.29,0,0,0-7.9-7.4,2.87,2.87,0,0,1-2.23-4.93,7.29,7.29,0,0,0-.35-10.82,2.87,2.87,0,0,1,1.91-5.06,7.29,7.29,0,0,0,7.4-7.9,2.87,2.87,0,0,1,4.93-2.23,7.29,7.29,0,0,0,10.82-.35,2.87,2.87,0,0,1,5.06,1.91,7.29,7.29,0,0,0,7.9,7.4,2.87,2.87,0,0,1,2.23,4.93,7.29,7.29,0,0,0,.35,10.82Z"/><path class="cls-3" d="M221.9,196.55a4.37,4.37,0,0,1-4.36-4.45,5.8,5.8,0,0,0-5.68-5.9,5.28,5.28,0,0,0-.59,0,4.37,4.37,0,0,1-3.4-7.5,5.79,5.79,0,0,0-.28-8.59,4.37,4.37,0,0,1-.51-6.16,4.5,4.5,0,0,1,3.42-1.55,5.8,5.8,0,0,0,5.9-5.68q0-.29,0-.59a4.37,4.37,0,0,1,7.5-3.4,5.8,5.8,0,0,0,8.19.15,5.91,5.91,0,0,0,.4-.43,4.37,4.37,0,0,1,7.71,2.91,5.8,5.8,0,0,0,5.68,5.9,5,5,0,0,0,.59,0,4.37,4.37,0,0,1,3.4,7.5,5.79,5.79,0,0,0,.28,8.59h0a4.37,4.37,0,0,1,.51,6.16,4.41,4.41,0,0,1-3.42,1.55,5.78,5.78,0,0,0-5.88,6.27,4.37,4.37,0,0,1-7.5,3.4,5.8,5.8,0,0,0-8.19-.15,5.91,5.91,0,0,0-.4.43,4.34,4.34,0,0,1-3,1.53ZM211.74,183.2h.17a8.79,8.79,0,0,1,8.62,9,1.37,1.37,0,0,0,2.42.91,8.66,8.66,0,0,1,.61-.66,8.8,8.8,0,0,1,12.43.23,1.33,1.33,0,0,0,1.1.42,1.37,1.37,0,0,0,1.25-1.48,8.79,8.79,0,0,1,8.92-9.52,1.41,1.41,0,0,0,1.07-.49,1.37,1.37,0,0,0-.16-1.93,8.79,8.79,0,0,1-.42-13,1.37,1.37,0,0,0-.07-2,1.34,1.34,0,0,0-1-.32,8.92,8.92,0,0,1-.9,0,8.8,8.8,0,0,1-8.62-9,1.37,1.37,0,0,0-2.42-.91,8.66,8.66,0,0,1-.61.66,8.8,8.8,0,0,1-12.43-.23,1.35,1.35,0,0,0-1.1-.42,1.37,1.37,0,0,0-1.25,1.48c0,.3,0,.6,0,.89a8.83,8.83,0,0,1-9,8.63,1.4,1.4,0,0,0-1.07.49,1.37,1.37,0,0,0,.16,1.93,8.79,8.79,0,0,1,.42,13,1.37,1.37,0,0,0,.07,2,1.35,1.35,0,0,0,1,.32C211.26,183.21,211.5,183.2,211.74,183.2Z"/></g><g id="Oval-6-2" data-name="Oval-6"><circle class="cls-2" cx="228.86" cy="173.73" r="6.63" transform="translate(-5.5 7.49) rotate(-1.85)"/></g><g id="Oval-2-2" data-name="Oval-2"><path class="cls-3" d="M229.09,181.85a8.37,8.37,0,0,1-8.36-8.1,1.5,1.5,0,0,1,3-.1,5.38,5.38,0,1,0,1.82-4.21,1.5,1.5,0,1,1-2-2.25,8.38,8.38,0,1,1,5.8,14.66Z"/></g></g><g id="Group-2-3" data-name="Group-2"><g id="Star-3" data-name="Star"><path class="cls-4" d="M216.84,214.14a2.05,2.05,0,0,1-1.36,3.62,5.21,5.21,0,0,0-5.29,5.64,2.05,2.05,0,0,1-3.52,1.59,5.21,5.21,0,0,0-7.73.25,2.05,2.05,0,0,1-3.62-1.36,5.21,5.21,0,0,0-5.11-5.3l-.53,0a2.05,2.05,0,0,1-1.59-3.52,5.21,5.21,0,0,0-.25-7.73,2.05,2.05,0,0,1,1.36-3.62,5.21,5.21,0,0,0,5.29-5.64A2.05,2.05,0,0,1,198,196.5a5.21,5.21,0,0,0,7.73-.25,2.05,2.05,0,0,1,3.62,1.36,5.21,5.21,0,0,0,5.11,5.3l.53,0a2.05,2.05,0,0,1,1.59,3.52,5.21,5.21,0,0,0,.25,7.73Z"/><path class="cls-3" d="M197.37,227.47a3.55,3.55,0,0,1-3.54-3.62,3.71,3.71,0,0,0-3.64-3.78,2.91,2.91,0,0,0-.38,0A3.55,3.55,0,0,1,187,214a3.71,3.71,0,0,0,.1-5.24l-.27-.26a3.56,3.56,0,0,1-.42-5,3.59,3.59,0,0,1,2.78-1.26h.07a3.71,3.71,0,0,0,3.71-3.64,3.63,3.63,0,0,0,0-.38,3.55,3.55,0,0,1,6.1-2.76,3.68,3.68,0,0,0,2.6,1.13,3.58,3.58,0,0,0,2.64-1l.26-.28a3.55,3.55,0,0,1,6.26,2.36,3.71,3.71,0,0,0,3.64,3.78h.38a3.55,3.55,0,0,1,2.76,6.1,3.71,3.71,0,0,0-.1,5.24l.28.26a3.55,3.55,0,0,1-2.36,6.26,3.73,3.73,0,0,0-2.64,1,3.71,3.71,0,0,0-1.12,3,3.55,3.55,0,0,1-6.1,2.76,3.71,3.71,0,0,0-5.24-.1l-.26.28a3.53,3.53,0,0,1-2.41,1.25Zm-7.24-10.39h.11a6.72,6.72,0,0,1,6.58,6.83.55.55,0,0,0,.2.43.52.52,0,0,0,.4.13.55.55,0,0,0,.38-.19c.15-.17.3-.34.47-.5a6.72,6.72,0,0,1,9.48.18.53.53,0,0,0,.44.17.55.55,0,0,0,.5-.59,6.71,6.71,0,0,1,2-5.39,6.55,6.55,0,0,1,4.78-1.88.5.5,0,0,0,.43-.19.55.55,0,0,0-.07-.78h0q-.26-.22-.49-.46a6.71,6.71,0,0,1,.17-9.49.55.55,0,0,0-.43-.95c-.23,0-.46,0-.69,0a6.71,6.71,0,0,1-6.58-6.83.55.55,0,0,0-1-.37q-.22.26-.47.5a6.71,6.71,0,0,1-9.49-.18.53.53,0,0,0-.44-.17.55.55,0,0,0-.5.59,6.71,6.71,0,0,1-6.81,7.26.55.55,0,0,0-.37,1,6.71,6.71,0,0,1,.32,10,.55.55,0,0,0-.17.44.54.54,0,0,0,.6.5Z"/></g><g id="Oval-6-3" data-name="Oval-6"><circle class="cls-2" cx="202.34" cy="210.75" r="5.42" transform="translate(-6.71 6.65) rotate(-1.85)"/></g><g id="Oval-2-3" data-name="Oval-2"><path class="cls-3" d="M202.51,217a6.42,6.42,0,0,1-6.41-6.2,1.5,1.5,0,0,1,3-.1,3.41,3.41,0,1,0,3.3-3.52,1.48,1.48,0,0,1-1.55-1.45,1.5,1.5,0,0,1,1.45-1.55,6.41,6.41,0,0,1,.41,12.82Z"/></g></g></g></g></svg>