<svg xmlns="http://www.w3.org/2000/svg" xmlns:xlink="http://www.w3.org/1999/xlink" viewBox="0 0 463.89383 391.76559">
  <defs>
    <linearGradient id="linear-gradient" x1="213.56022" y1="200.34077" x2="277.25371" y2="200.34077" gradientUnits="userSpaceOnUse">
      <stop offset="0" stop-color="#ff8f33"/>
      <stop offset="1" stop-color="#fb7d14"/>
    </linearGradient>
    <linearGradient id="linear-gradient-2" x1="213.71643" y1="185.93467" x2="277.12779" y2="185.93467" xlink:href="#linear-gradient"/>
    <linearGradient id="linear-gradient-3" x1="222.48329" y1="204.69173" x2="277.25371" y2="204.69173" xlink:href="#linear-gradient"/>
    <linearGradient id="linear-gradient-4" x1="213.55503" y1="204.69173" x2="221.27926" y2="204.69173" xlink:href="#linear-gradient"/>
    <linearGradient id="linear-gradient-5" x1="213.55503" y1="209.04372" x2="277.25371" y2="209.04372" xlink:href="#linear-gradient"/>
    <linearGradient id="linear-gradient-6" x1="228.59117" y1="213.39571" x2="277.25371" y2="213.39571" xlink:href="#linear-gradient"/>
    <linearGradient id="linear-gradient-7" x1="213.55503" y1="213.39571" x2="227.45224" y2="213.39571" xlink:href="#linear-gradient"/>
    <linearGradient id="linear-gradient-8" x1="213.55503" y1="217.74668" x2="277.25371" y2="217.74668" xlink:href="#linear-gradient"/>
    <linearGradient id="linear-gradient-9" x1="284.42224" y1="235.61892" x2="348.12092" y2="235.61892" xlink:href="#linear-gradient"/>
    <linearGradient id="linear-gradient-10" x1="299.45838" y1="239.97092" x2="348.12092" y2="239.97092" xlink:href="#linear-gradient"/>
    <linearGradient id="linear-gradient-11" x1="284.42224" y1="239.97092" x2="298.31945" y2="239.97092" xlink:href="#linear-gradient"/>
    <linearGradient id="linear-gradient-12" x1="284.42224" y1="244.32188" x2="348.12092" y2="244.32188" xlink:href="#linear-gradient"/>
    <linearGradient id="linear-gradient-13" x1="302.40371" y1="210.21397" x2="307.7915" y2="210.21397" xlink:href="#linear-gradient"/>
    <linearGradient id="linear-gradient-14" x1="309.36535" y1="206.34692" x2="314.79177" y2="206.34692" xlink:href="#linear-gradient"/>
    <linearGradient id="linear-gradient-15" x1="316.35596" y1="206.70418" x2="321.79203" y2="206.70418" xlink:href="#linear-gradient"/>
    <linearGradient id="linear-gradient-16" x1="323.35623" y1="199.39976" x2="328.7923" y2="199.39976" xlink:href="#linear-gradient"/>
    <linearGradient id="linear-gradient-17" x1="297.57594" y1="202.09328" x2="336.67581" y2="202.09328" xlink:href="#linear-gradient"/>
    <linearGradient id="linear-gradient-18" x1="219.16517" y1="239.0457" x2="271.9365" y2="239.0457" xlink:href="#linear-gradient"/>
    <linearGradient id="linear-gradient-19" x1="71.83685" y1="324.2444" x2="135.81491" y2="324.2444" xlink:href="#linear-gradient"/>
    <linearGradient id="linear-gradient-20" x1="126.59627" y1="114.18172" x2="144.31547" y2="114.18172" xlink:href="#linear-gradient"/>
    <linearGradient id="linear-gradient-21" x1="357.25489" y1="77.35912" x2="386.32802" y2="77.35912" xlink:href="#linear-gradient"/>
    <linearGradient id="linear-gradient-22" x1="386.8843" y1="69.2602" x2="398.74626" y2="69.2602" xlink:href="#linear-gradient"/>
    <linearGradient id="linear-gradient-23" x1="367.11438" y1="62.34153" x2="395.45127" y2="62.34153" xlink:href="#linear-gradient"/>
    <linearGradient id="linear-gradient-24" x1="373.94427" y1="51.91732" x2="379.45572" y2="51.91732" xlink:href="#linear-gradient"/>
    <linearGradient id="linear-gradient-25" x1="380.83359" y1="51.91732" x2="386.34504" y2="51.91732" xlink:href="#linear-gradient"/>
    <linearGradient id="linear-gradient-26" x1="387.72291" y1="51.91732" x2="393.23436" y2="51.91732" xlink:href="#linear-gradient"/>
    <linearGradient id="linear-gradient-27" x1="375.02119" y1="60.36454" x2="378.97749" y2="60.36454" xlink:href="#linear-gradient"/>
    <linearGradient id="linear-gradient-28" x1="381.61179" y1="61.3574" x2="385.56685" y2="61.3574" xlink:href="#linear-gradient"/>
    <linearGradient id="linear-gradient-29" x1="387.72291" y1="56.73984" x2="393.23436" y2="56.73984" xlink:href="#linear-gradient"/>
    <linearGradient id="linear-gradient-30" x1="411.41049" y1="229.56554" x2="411.41049" y2="244.62482" xlink:href="#linear-gradient"/>
    <linearGradient id="linear-gradient-31" x1="107.65599" y1="322.94801" x2="115.44199" y2="322.94801" xlink:href="#linear-gradient"/>
    <linearGradient id="linear-gradient-32" x1="90.29324" y1="343.68811" x2="93.09618" y2="343.68811" xlink:href="#linear-gradient"/>
    <linearGradient id="linear-gradient-33" x1="93.87477" y1="340.14551" x2="96.44416" y2="340.14551" xlink:href="#linear-gradient"/>
    <linearGradient id="linear-gradient-34" x1="130.00178" y1="343.68811" x2="132.80475" y2="343.68811" xlink:href="#linear-gradient"/>
    <linearGradient id="linear-gradient-35" x1="126.57597" y1="340.14551" x2="129.14536" y2="340.14551" xlink:href="#linear-gradient"/>
    <linearGradient id="linear-gradient-36" x1="130.00178" y1="303.97956" x2="132.80475" y2="303.97956" xlink:href="#linear-gradient"/>
    <linearGradient id="linear-gradient-37" x1="126.57597" y1="307.52217" x2="129.22321" y2="307.52217" xlink:href="#linear-gradient"/>
    <linearGradient id="linear-gradient-38" x1="123.07225" y1="311.02589" x2="125.64163" y2="311.02589" xlink:href="#linear-gradient"/>
    <linearGradient id="linear-gradient-39" x1="90.29324" y1="303.97956" x2="93.09618" y2="303.97956" xlink:href="#linear-gradient"/>
    <linearGradient id="linear-gradient-40" x1="93.95263" y1="307.52217" x2="96.52202" y2="307.52217" xlink:href="#linear-gradient"/>
    <linearGradient id="linear-gradient-41" x1="96.89184" y1="322.98693" x2="126.20615" y2="322.98693" xlink:href="#linear-gradient"/>
    <linearGradient id="linear-gradient-42" x1="86.63379" y1="321.69837" x2="136.47779" y2="321.69837" xlink:href="#linear-gradient"/>
    <linearGradient id="linear-gradient-43" x1="415.80279" y1="221.40845" x2="415.80279" y2="251.52701" xlink:href="#linear-gradient"/>
    <linearGradient id="linear-gradient-44" x1="423.01871" y1="223.91831" x2="423.01871" y2="227.05568" xlink:href="#linear-gradient"/>
    <linearGradient id="linear-gradient-45" x1="419.56761" y1="223.91831" x2="419.56761" y2="225.17327" xlink:href="#linear-gradient"/>
    <linearGradient id="linear-gradient-46" x1="408.58688" y1="245.87978" x2="408.58688" y2="249.01709" xlink:href="#linear-gradient"/>
    <linearGradient id="linear-gradient-47" x1="412.03797" y1="247.76219" x2="412.03797" y2="249.01709" xlink:href="#linear-gradient"/>
    <linearGradient id="linear-gradient-48" x1="425.93118" y1="233.23703" x2="425.93118" y2="240.01044" xlink:href="#linear-gradient"/>
    <linearGradient id="linear-gradient-49" x1="425.93182" y1="228.84979" x2="425.93182" y2="244.39639" xlink:href="#linear-gradient"/>
  </defs>
  <title>operations_illustration</title>
  <g id="Layer_2" data-name="Layer 2">
    <g id="Layer_31" data-name="Layer 31">
      <g>
        <path d="M418.39062,215.3895a22.40125,22.40125,0,1,0,22.40131,22.40125A22.40126,22.40126,0,0,0,418.39062,215.3895Zm15.36087,20.98685-.4972.2572a.98169.98169,0,0,0-.48436.82518l-.05113.963a.97763.97763,0,0,0,.3868.87411l.448.29959a.67388.67388,0,0,1,.22519.82437l-.38085.79306a.67191.67191,0,0,1-.784.33841l-.51326-.16339a.97457.97457,0,0,0-.92358.24314l-.71872.6407a.98618.98618,0,0,0-.34257.89444l.1063.53429a.67394.67394,0,0,1-.42383.74224l-.83026.29132a.6718.6718,0,0,1-.79333-.31505l-.24985-.483a.98229.98229,0,0,0-.82518-.48434l-.96824-.05136a.97447.97447,0,0,0-.873.38728l-.31819.4779a.67151.67151,0,0,1-.82345.22606l-.79355-.38128a.67393.67393,0,0,1-.33938-.7843l.1748-.5517a.978.978,0,0,0-.24357-.92461l-.63059-.70882a.9817.9817,0,0,0-.89379-.34154l-.56181.11235a.67247.67247,0,0,1-.74186-.42281l-.29137-.8302a.67361.67361,0,0,1,.31435-.79463l.50964-.26455a.98472.98472,0,0,0,.484-.82626l.05088-.95424a.97817.97817,0,0,0-.387-.874l-.45049-.30143a.67379.67379,0,0,1-.22514-.82437l.38123-.79355a.67237.67237,0,0,1,.78419-.33808l.51391.16372a.973.973,0,0,0,.92358-.2432l.72256-.64438a.98446.98446,0,0,0,.34235-.89406l-.10376-.5238a.6732.6732,0,0,1,.42356-.74213l.8302-.29137a.67226.67226,0,0,1,.79366.315l.2446.4732a.981.981,0,0,0,.82561.48385l.95618.04963a.97805.97805,0,0,0,.87405-.38766l.31164-.46574a.67315.67315,0,0,1,.82431-.22546l.79322.38139a.67265.67265,0,0,1,.33841.784l-.16912.53024a.97375.97375,0,0,0,.24347.92347l.64394.7212a.9838.9838,0,0,0,.89406.34235l.54954-.10889a.67326.67326,0,0,1,.74186.42362l.29137.83026A.672.672,0,0,1,433.75149,236.37635Z" style="fill: #fff"/>
        <path d="M411.8895,133.97084l-31.33393-.994A159.6523,159.6523,0,0,0,358.00375,96.9277l12.77039-28.60687L313.67871,27.69828l-22.83962,21.4332a159.27085,159.27085,0,0,0-41.4506-9.49323l-11.204-29.29L169.09079,21.99885l-.994,31.33393a159.41111,159.41111,0,0,0-36.05,22.55188L103.44072,63.11422,62.81823,120.20964l21.4332,22.84008a159.27156,159.27156,0,0,0-9.49329,41.44156l-29.2899,11.21336,11.64112,69.093,31.34371.99392a159.3565,159.3565,0,0,0,22.55107,36.04053L98.23451,330.43819l57.09543,40.63234,22.84043-21.434a158.90592,158.90592,0,0,0,19.16384,5.83317l1.635.38585,14.77906-78.05971-1.4139-.4007a81.08581,81.08581,0,1,1,101.9286-63.314l-.27289,1.48765,77.07863,18.98888.34508-1.62162a160.51018,160.51018,0,0,0,2.83679-18.66746l29.28017-11.20432ZM260.18658,119.10738a84.69269,84.69269,0,0,0-70.67493,9.01734l-36.173-63.39424a157.26682,157.26682,0,0,1,16.98561-8.87733l.91948-.4098L172.218,24.729l63.90645-10.77576,10.98244,28.71038,1.00336.0859a156.58929,156.58929,0,0,1,25.45729,4.32974Z" style="fill: #fff;opacity: 0.45"/>
        <path d="M110.15981,277.69292A44.92921,44.92921,0,1,0,155.089,322.62216,44.92922,44.92922,0,0,0,110.15981,277.69292Zm17.64284,47.57178c-.23363.31143-6.54026,7.70812-14.482,7.70812s-14.24832-7.39669-14.48195-7.70812a.81866.81866,0,0,1,0-1.0122c.23363-.31143,6.54026-7.70812,14.48195-7.70812s14.24838,7.39669,14.482,7.70812A.81866.81866,0,0,1,127.80265,325.2647Z" style="fill: #fff"/>
        <circle cx="15.6082" cy="269.52995" r="4.04358" style="fill: #fff"/>
        <g style="opacity: 0.45">
          <path d="M150.69651,318.55348a.917.917,0,0,1-.26125-1.7959L409.70264,239.654,141.21525,116.9176a.91716.91716,0,0,1,.18859-1.73016l232.49062-50.0465a.91675.91675,0,1,1,.38582,1.79244L144.49044,116.39856,412.68716,239.00262a.91719.91719,0,0,1-.12025,1.71285L150.95776,318.51542A.91377.91377,0,0,1,150.69651,318.55348Z" style="fill: #fff"/>
        </g>
        <circle cx="71.29881" cy="382.18328" r="3.35414" style="fill: none;stroke: #f58523;stroke-linecap: round;stroke-linejoin: round;stroke-width: 1.68750290225307px;opacity: 0.2"/>
        <circle cx="169.34987" cy="388.91496" r="2.85035" style="fill: #fff"/>
        <circle cx="46.35647" cy="73.65826" r="4.26409" style="fill: none;stroke: #f58524;stroke-linecap: round;stroke-linejoin: round;stroke-width: 2.14530446536978px;opacity: 0.2"/>
        <circle cx="167.68253" cy="43.9336" r="2.74751" style="fill: none;stroke: #f58524;stroke-linecap: round;stroke-linejoin: round;stroke-width: 1.382301876472px;opacity: 0.2"/>
        <circle cx="442.10656" cy="28.55971" r="3.35414" style="fill: none;stroke: #f58523;stroke-linecap: round;stroke-linejoin: round;stroke-width: 1.68750290225307px;opacity: 0.2"/>
        <circle cx="411.54731" cy="144.93729" r="2.74751" style="fill: none;stroke: #f58524;stroke-linecap: round;stroke-linejoin: round;stroke-width: 1.382301876472px;opacity: 0.2"/>
        <path d="M449.4177,128.69073l-.20555-.81978a1.4841,1.4841,0,0,1,.44844-1.37285l1.038-1.02455a1.469,1.469,0,0,1,1.373-.4364l.81162.21484a1.01478,1.01478,0,0,0,1.15578-.56894l.51475-1.22388a1.0154,1.0154,0,0,0-.40178-1.22494l-.72519-.43441a1.47552,1.47552,0,0,1-.65-1.28768l.00266-1.44437a1.47988,1.47988,0,0,1,.66681-1.2804l.69446-.40417a1.014,1.014,0,0,0,.41473-1.21946l-.50155-1.22891a1.01569,1.01569,0,0,0-1.15-.58222l-.78132.19585a1.4849,1.4849,0,0,1-1.37285-.44844l-1.02536-1.04a1.46786,1.46786,0,0,1-.436-1.37315l.20795-.78671a1.01413,1.01413,0,0,0-.56855-1.15592l-1.22427-.51461a1.01655,1.01655,0,0,0-1.22508.40138l-.42018.70142a1.47572,1.47572,0,0,1-1.2876.649l-1.44153-.00475a1.48545,1.48545,0,0,1-1.28136-.66688l-.437-.74788a1.01611,1.01611,0,0,0-1.22089-.41367l-1.22891.50155a1.0144,1.0144,0,0,0-.581,1.14954l.21162.838a1.48081,1.48081,0,0,1-.44725,1.37237l-1.02034,1.00352a1.47552,1.47552,0,0,1-1.37475.43664l-.84439-.22172a1.01652,1.01652,0,0,0-1.15608.57045l-.51461,1.22427a1.013,1.013,0,0,0,.40264,1.22366l.744.44332a1.47008,1.47008,0,0,1,.6493,1.2861l-.00443,1.4626a1.48167,1.48167,0,0,1-.66752,1.27978l-.7089.41281a1.01355,1.01355,0,0,0-.41489,1.21907l.50155,1.22891a1.01651,1.01651,0,0,0,1.15021.58263l.797-.2004a1.48765,1.48765,0,0,1,1.3734.44867l1.01947,1.03458a1.47,1.47,0,0,1,.436,1.37315l-.20749.78559a1.01366,1.01366,0,0,0,.56894,1.15578l1.22355.514a1.01655,1.01655,0,0,0,1.22509-.40137l.41758-.69761a1.47457,1.47457,0,0,1,1.28777-.6486l1.45477.00441a1.48082,1.48082,0,0,1,1.27976.66753l.425.72973a1.01361,1.01361,0,0,0,1.21946.41473l1.22891-.50155A1.01571,1.01571,0,0,0,449.4177,128.69073Zm-7.90656-7.91981a2.69108,2.69108,0,1,1,3.50844,1.47468A2.69109,2.69109,0,0,1,441.51114,120.77092Z" style="fill: none;stroke: #f58523;stroke-miterlimit: 10;stroke-width: 1.62660147430122px;opacity: 0.30000000000000004"/>
        <circle cx="460.19917" cy="182.0285" r="2.85035" style="fill: none;stroke: #f58523;stroke-linecap: round;stroke-linejoin: round;stroke-width: 1.68750290225307px;opacity: 0.2"/>
        <circle cx="455.22705" cy="89.87455" r="3.06253" style="fill: #fff"/>
        <circle cx="456.11289" cy="195.28952" r="3.06253" style="fill: #f58524"/>
        <circle cx="148.7264" cy="3.06223" r="3.06253" style="fill: #fff"/>
        <g style="opacity: 0.4">
          <path d="M230.07043,277.94482V274.8924a77.11828,77.11828,0,0,0,71.90626-48.62262l2.83257,1.13718A80.156,80.156,0,0,1,230.07043,277.94482Z" style="fill: #f58524"/>
        </g>
        <g style="opacity: 0.45">
          <path d="M359.05037,203.54047h-21.9626a102.05973,102.05973,0,0,0-102.1852-102.18476V79.39311a124.02787,124.02787,0,0,1,124.1478,124.14737Z" style="fill: #fff"/>
        </g>
        <path d="M170.72415,240.04331a75.34122,75.34122,0,0,1-8.508-63.1187l3.02129-9.701L74.8631,151.09252l-2.02,8.13519a166.64706,166.64706,0,0,0-3.9573,22.31988L38.58129,193.38532,52.34858,271.668l32.51613.80193c2.26131,4.61346,4.783,9.20184,7.52488,13.68986l4.56588,7.47428,78.80992-45.70727Z" style="fill: #fff;opacity: 0.45"/>
        <path d="M150.999,259.55151a100.15792,100.15792,0,0,1-9.66435-94.01807" style="fill: none;stroke: #fff;stroke-linecap: round;stroke-linejoin: round;stroke-width: 1.48608348751127px;stroke-dasharray: 3.0710692405700684,4.0947585105896;opacity: 0.5"/>
        <path d="M115.4837,283.24726a142.72615,142.72615,0,0,1-14.27352-127.641" style="fill: none;stroke: #fff;stroke-linecap: round;stroke-linejoin: round;stroke-width: 1.48608348751127px;stroke-dasharray: 3.0710692405700684,4.0947585105896;opacity: 0.5"/>
        <path d="M354.02881,364.29535H204.40229a.91081.91081,0,0,1-.87892-1.14536l9.36188-34.99155a.91.91,0,0,1,.87892-.67476H344.66693a.91.91,0,0,1,.87892.67476L354.90773,363.15a.91081.91081,0,0,1-.87892,1.14536Zm-148.44136-1.82012h147.2562l-8.87484-33.17142H214.46228Z" style="fill: #fff"/>
        <rect x="204.40264" y="363.38511" width="149.62605" height="2.06477" style="fill: #fff"/>
        <g>
          <path d="M214.79577,337.687h8.56509a.516.516,0,0,1,.56113.57861l-.82948,3.72545a.55524.55524,0,0,1-.56113.39641H213.82a.51289.51289,0,0,1-.55737-.59367l.97577-3.72562A.55885.55885,0,0,1,214.79577,337.687Z" style="fill: #fff"/>
          <polygon points="227.288 337.687 233.763 337.687 232.902 342.388 226.303 342.388 227.288 337.687" style="fill: #fff"/>
          <polygon points="237.001 337.687 243.476 337.687 242.799 342.388 236.199 342.394 237.001 337.687" style="fill: #fff"/>
          <polygon points="246.713 337.687 253.188 337.687 252.696 342.388 246.098 342.388 246.713 337.687" style="fill: #fff"/>
          <polygon points="256.426 337.687 262.901 337.687 262.593 342.388 255.995 342.388 256.426 337.687" style="fill: #fff"/>
          <polygon points="266.138 337.687 272.613 337.687 272.49 342.388 265.892 342.394 266.138 337.687" style="fill: #fff"/>
          <polygon points="343.86 337.687 334.147 337.687 335.194 342.388 345.091 342.388 343.86 337.687" style="fill: #fff"/>
          <polygon points="330.91 337.687 324.435 337.687 325.296 342.388 331.895 342.388 330.91 337.687" style="fill: #fff"/>
          <polygon points="321.197 337.687 314.722 337.687 315.399 342.388 321.998 342.394 321.197 337.687" style="fill: #fff"/>
          <polygon points="311.485 337.687 305.01 337.687 305.502 342.388 312.1 342.388 311.485 337.687" style="fill: #fff"/>
          <polygon points="301.772 337.687 295.297 337.687 295.605 342.388 302.203 342.388 301.772 337.687" style="fill: #fff"/>
          <polygon points="292.06 337.687 285.585 337.687 285.708 342.388 292.306 342.394 292.06 337.687" style="fill: #fff"/>
          <polygon points="275.851 337.687 282.326 337.687 282.433 342.388 275.851 342.388 275.851 337.687" style="fill: #fff"/>
          <polygon points="211.947 345.89 225.477 345.89 224.707 350.738 210.92 350.738 211.947 345.89" style="fill: #fff"/>
          <polygon points="345.972 345.89 329.248 345.89 330.2 350.738 347.242 350.738 345.972 345.89" style="fill: #fff"/>
          <polygon points="325.903 345.89 319.213 345.89 319.975 350.738 326.792 350.738 325.903 345.89" style="fill: #fff"/>
          <polygon points="315.868 345.89 309.178 345.89 309.749 350.738 316.566 350.738 315.868 345.89" style="fill: #fff"/>
          <polygon points="305.833 345.89 299.143 345.89 299.524 350.738 306.341 350.738 305.833 345.89" style="fill: #fff"/>
          <polygon points="295.798 345.89 289.108 345.89 289.299 350.738 296.116 350.738 295.798 345.89" style="fill: #fff"/>
          <polygon points="209.926 354.532 223.758 354.532 222.749 359.348 208.664 359.348 209.926 354.532" style="fill: #fff"/>
          <polygon points="227.216 354.532 234.133 354.532 233.313 359.348 226.27 359.348 227.216 354.532" style="fill: #fff"/>
          <polygon points="237.591 354.532 244.507 354.532 289.459 354.532 289.652 359.348 236.834 359.348 237.591 354.532" style="fill: #fff"/>
          <polygon points="292.921 354.532 299.837 354.532 300.215 359.348 293.173 359.348 292.921 354.532" style="fill: #fff"/>
          <polygon points="303.295 354.532 310.211 354.532 310.779 359.348 303.737 359.348 303.295 354.532" style="fill: #fff"/>
          <polygon points="313.669 354.532 320.586 354.532 321.342 359.348 314.3 359.348 313.669 354.532" style="fill: #fff"/>
          <polygon points="324.044 354.532 330.96 354.532 331.906 359.348 324.864 359.348 324.044 354.532" style="fill: #fff"/>
          <polygon points="334.418 354.532 348.251 354.532 349.512 359.348 335.427 359.348 334.418 354.532" style="fill: #fff"/>
          <polygon points="285.778 345.89 279.142 345.89 279.142 350.738 285.905 350.738 285.778 345.89" style="fill: #fff"/>
          <polygon points="275.743 345.89 269.053 345.89 268.863 350.738 275.68 350.738 275.743 345.89" style="fill: #fff"/>
          <polygon points="265.708 345.89 259.019 345.89 258.638 350.738 265.454 350.738 265.708 345.89" style="fill: #fff"/>
          <polygon points="255.674 345.89 248.984 345.89 248.412 350.738 255.229 350.738 255.674 345.89" style="fill: #fff"/>
          <polygon points="245.639 345.89 238.949 345.89 238.187 350.738 245.004 350.738 245.639 345.89" style="fill: #fff"/>
          <polygon points="235.604 345.89 228.914 345.89 227.962 350.738 234.779 350.738 235.604 345.89" style="fill: #fff"/>
          <polygon points="215.112 334.734 216.211 330.537 219.355 330.537 218.329 334.734 215.112 334.734" style="fill: #fff"/>
          <polygon points="222.499 330.537 228.787 330.537 227.907 334.734 221.51 334.734 222.499 330.537" style="fill: #fff"/>
          <polygon points="231.93 330.537 238.218 330.537 237.504 334.734 231.106 334.734 231.93 330.537" style="fill: #fff"/>
          <polygon points="241.362 330.537 247.65 330.537 247.1 334.734 240.702 334.734 241.362 330.537" style="fill: #fff"/>
          <polygon points="250.794 330.537 257.081 330.537 256.696 334.734 250.299 334.734 250.794 330.537" style="fill: #fff"/>
          <polygon points="260.225 330.537 266.513 330.537 266.293 334.734 259.895 334.734 260.225 330.537" style="fill: #fff"/>
          <polygon points="269.657 330.537 275.944 330.537 275.889 334.734 269.492 334.734 269.657 330.537" style="fill: #fff"/>
          <polygon points="279.088 330.537 285.376 330.537 285.486 334.734 279.088 334.734 279.088 330.537" style="fill: #fff"/>
          <polygon points="288.52 330.537 294.807 330.537 295.082 334.734 288.685 334.734 288.52 330.537" style="fill: #fff"/>
          <polygon points="297.951 330.537 304.239 330.537 304.679 334.734 298.281 334.734 297.951 330.537" style="fill: #fff"/>
          <polygon points="307.383 330.537 313.67 330.537 314.275 334.734 307.878 334.734 307.383 330.537" style="fill: #fff"/>
          <polygon points="316.814 330.537 323.102 330.537 323.872 334.734 317.474 334.734 316.814 330.537" style="fill: #fff"/>
          <polygon points="326.246 330.537 332.534 330.537 333.468 334.734 327.07 334.734 326.246 330.537" style="fill: #fff"/>
          <polygon points="335.677 330.537 341.965 330.537 343.064 334.734 336.667 334.734 335.677 330.537" style="fill: #fff"/>
        </g>
        <rect x="236.07273" y="316.2907" width="92.6418" height="4.72117" style="fill: #fff;opacity: 0.45"/>
        <rect x="269.36771" y="254.28521" width="20.59216" height="62.54599" transform="translate(559.32759 571.11642) rotate(180)" style="fill: #fff"/>
        <g style="opacity: 0.45">
          <path d="M193.34847,158.975H365.97914a2.592,2.592,0,0,1,2.592,2.592V281.82231a2.5922,2.5922,0,0,1-2.5922,2.5922H193.34827a2.592,2.592,0,0,1-2.592-2.592V161.5672A2.5922,2.5922,0,0,1,193.34847,158.975Z" transform="translate(559.32739 443.38951) rotate(180)" style="fill: #fff"/>
        </g>
        <path d="M198.72693,164.33592H360.29a2.592,2.592,0,0,1,2.592,2.592v93.00054a2.5922,2.5922,0,0,1-2.5922,2.5922H198.72674a2.592,2.592,0,0,1-2.592-2.592V166.92812A2.5922,2.5922,0,0,1,198.72693,164.33592Z" transform="translate(559.01675 426.85656) rotate(180)" style="fill: #fff"/>
        <path d="M366.27485,285.78H193.05247a3.66593,3.66593,0,0,1-3.661-3.66188V161.271a3.66575,3.66575,0,0,1,3.661-3.661H366.27485a3.66575,3.66575,0,0,1,3.661,3.661V282.11812A3.66593,3.66593,0,0,1,366.27485,285.78ZM193.05247,160.3402a.93222.93222,0,0,0-.93082.93082V282.11812a.93241.93241,0,0,0,.93082.93169H366.27485a.93241.93241,0,0,0,.93082-.93169V161.271a.93222.93222,0,0,0-.93082-.93082Z" style="fill: #fff"/>
        <path d="M361.972,262.52064H197.0448a.91007.91007,0,0,1-.91006-.91006V165.118a.91007.91007,0,0,1,.91006-.91006H361.972a.91007.91007,0,0,1,.91006.91006v96.49255A.91007.91007,0,0,1,361.972,262.52064Zm-164.01709-1.82012h163.107V166.02809h-163.107Z" style="fill: #fff"/>
        <path d="M325.9847,320.102H233.34262a.91007.91007,0,0,1-.91006-.91006v-4.72073a.91007.91007,0,0,1,.91006-.91006H325.9847a.91007.91007,0,0,1,.91006.91006v4.72073A.91007.91007,0,0,1,325.9847,320.102Zm-91.732-1.82012h90.822v-2.90061h-90.822Z" style="fill: #fff"/>
        <path d="M419.77951,289.45537a.539.539,0,0,0-.05536-.02763c-.01892-.00032-.03644.00022-.05537,0-.03969-.00049-.071-.02763-.11073-.02763l-.00022.00022c-.03969,0-.071.0273-.11073.02763-.01892.00022-.03644-.00032-.05536,0a.52825.52825,0,0,0-.05536.02763c-4.603.11316-8.3878,3.45945-8.3878,7.69574a7.1943,7.1943,0,0,0,1.218,3.98628.52826.52826,0,0,0,.05536.02763,29.56781,29.56781,0,0,1,2.68509,3.34953,4.02726,4.02726,0,0,1,.4706,2.3807c0,.02292.00043.03374,0,.05536a.53162.53162,0,0,0,0,.083c-.00043.03666-.0026.0871,0,.11073-.00086.01844-.00086.03693,0,.05536v1.96551a1.65391,1.65391,0,0,0,1.07973,1.46712c-.09073.20735-.27683.3768-.27683.609a1.79,1.79,0,0,0,1.744,1.68858,1.64637,1.64637,0,0,0,3.26664,0,1.78066,1.78066,0,0,0,1.744-1.68858c0-.23936-.18167-.40242-.27682-.609a1.65414,1.65414,0,0,0,1.07973-1.46712v-1.96551a.52526.52526,0,0,0,0-.05536,1.57044,1.57044,0,0,0,0-.19378.54135.54135,0,0,0,0-.11073,3.9718,3.9718,0,0,1,.4706-2.32533,24.58862,24.58862,0,0,1,2.18692-2.74062l.49829-.41524a.5323.5323,0,0,0-.16609.02763c.06131-.07575.09029-.1329.16609-.22146a.52826.52826,0,0,0,.05536-.02763,7.196,7.196,0,0,0,1.218-3.98628C428.16731,292.91482,424.38249,289.56848,419.77951,289.45537Z" style="fill: #f58524;stroke: #f58522;stroke-miterlimit: 10;stroke-width: 0.25px;opacity: 0.5"/>
        <g>
          <path d="M426.35874,295.28748a.5325.5325,0,0,0,.16214,1.05258l.004-.00065h3.01735a.53156.53156,0,1,0,0-1.05194h-3.01735a.53379.53379,0,0,0-.11073,0A.52531.52531,0,0,0,426.35874,295.28748Z" style="fill: #fff"/>
          <g>
            <path d="M416.86957,287.8624a.53156.53156,0,0,0,.60285-.60285v-2.71289a.53148.53148,0,0,0-.58133-.55365.52531.52531,0,0,0-.05536,0,.53151.53151,0,0,0-.41524.55365v2.71289A.5315.5315,0,0,0,416.86957,287.8624Z" style="fill: #fff"/>
            <path d="M407.00795,288.39448l1.99314,1.96551a.53839.53839,0,1,0,.74743-.77511l-1.99314-1.93778a.53152.53152,0,0,0-.44292-.16609.52531.52531,0,0,0-.05537,0,.5316.5316,0,0,0-.24914.91347Z" style="fill: #fff"/>
            <path d="M423.8394,290.36l1.99314-1.96551a.53157.53157,0,0,0-.41524-.91347.52531.52531,0,0,0-.05537,0,.53119.53119,0,0,0-.27682.16609l-1.99314,1.93778a.53839.53839,0,0,0,.74743.77511Z" style="fill: #fff"/>
            <path d="M426.857,301.87559l-2.353-1.71632a.59572.59572,0,0,0-.526-.0831c.06126-.07575.09029-.1329.16609-.22146a.52825.52825,0,0,0,.05536-.02763,7.1956,7.1956,0,0,0,1.218-3.98628c0-4.23629-3.78483-7.58263-8.3878-7.69574a.53358.53358,0,0,0-.05536-.02763c-.01887-.00032-.03644.00022-.05536,0-.03963-.00049-.071-.02763-.11073-.02763l-.00022.00022c-.03969,0-.0711.0273-.11073.02763-.01892.00022-.0365-.00032-.05536,0a.52826.52826,0,0,0-.05536.02763c-4.60292.11316-8.3878,3.45945-8.3878,7.69574a7.1943,7.1943,0,0,0,1.218,3.98628.52825.52825,0,0,0,.05536.02763,29.57707,29.57707,0,0,1,2.68515,3.34953,4.02808,4.02808,0,0,1,.4706,2.3807c0,.02292.00043.03374,0,.05536a.53162.53162,0,0,0,0,.083c-.00054.03666-.00265.0871,0,.11073a.52526.52526,0,0,0,0,.05536v1.96551a1.65386,1.65386,0,0,0,1.07967,1.46712c-.09073.20735-.27683.3768-.27683.609a1.79,1.79,0,0,0,1.744,1.68858,1.64637,1.64637,0,0,0,3.26664,0,1.78067,1.78067,0,0,0,1.74405-1.68858c0-.23936-.18167-.40242-.27683-.609a1.65408,1.65408,0,0,0,1.07967-1.46712V305.8896c.00092-.01844.00092-.03693,0-.05536a1.57046,1.57046,0,0,0,0-.19378.53377.53377,0,0,0,0-.11073,3.97138,3.97138,0,0,1,.4706-2.32533,24.582,24.582,0,0,1,2.18692-2.74062.53161.53161,0,0,0,.22146.55365l2.353,1.71632a.53428.53428,0,0,0,.6367-.85816Zm-6.92014,5.97964a.75917.75917,0,0,1-.74743.69206H415.9229a.52531.52531,0,0,0-.05537,0,.54055.54055,0,1,0,.05537,1.07967h3.10044a.58532.58532,0,0,1,.083.30451.74311.74311,0,0,1-.80279.69206h-.33219a.53158.53158,0,0,0-.526.526v.33219a.58632.58632,0,0,1-.6367.49828.55149.55149,0,0,1-.609-.49828v-.33219a.53158.53158,0,0,0-.526-.526h-.35987a.7384.7384,0,0,1-.80279-.69206.55951.55951,0,0,1,.19378-.4706.53157.53157,0,0,0-.30451-.91347.73129.73129,0,0,1-.71974-.69206v-1.57785l.00005-.00011h6.25625Zm3.40381-8.69231c-.01984.02319-.00795.03249-.02763.05536a29.16,29.16,0,0,0-2.79588,3.46026,4.93479,4.93479,0,0,0-.55365,2.54679h-6.31161a4.94148,4.94148,0,0,0-.58133-2.54679,28.14715,28.14715,0,0,0-2.76825-3.46026c-.01152-.01725-.01638-.038-.02763-.05536a6.02005,6.02005,0,0,1-.99657-3.3219c0-3.64982,3.30363-6.64434,7.47428-6.67143a.52224.52224,0,0,0,.0552,0c.01925,0,.03623-.00011.05536,0,4.17043.02736,7.47428,3.02177,7.47428,6.67143A6.02278,6.02278,0,0,1,423.34068,299.16292Z" style="fill: #fff"/>
            <path d="M421.3198,295.592l-1.27339-1.79931a.53159.53159,0,0,0-.88584.02763l-.74743,1.1073-.83048-1.24566a.53167.53167,0,0,0-.83047-.02763l-1.16267,1.35639-.83048-1.32876a.53156.53156,0,0,0-.55365-.24914.52531.52531,0,0,0-.05536,0l.00005-.00011a.53142.53142,0,0,0-.27683.19378l-1.55022,1.93778a.53155.53155,0,1,0,.80279.66438l1.1073-1.38413.85816,1.32876a.53151.53151,0,0,0,.85816.083l1.13493-1.38412.88584,1.30113a.53157.53157,0,0,0,.88584,0l.74743-1.13493.85816,1.16267a.53156.53156,0,1,0,.85816-.609Z" style="fill: #fff"/>
            <path d="M407.97094,295.89033a.53156.53156,0,0,0-.60285-.60285H404.323a.53379.53379,0,0,0-.11073,0,.52531.52531,0,0,0-.05537,0,.5325.5325,0,0,0,.16215,1.05258l.00395-.00065h3.04508A.53154.53154,0,0,0,407.97094,295.89033Z" style="fill: #fff"/>
            <path d="M409.08533,300.04881a.52531.52531,0,0,0-.05536,0v.00005a.53127.53127,0,0,0-.22146.11073l-2.353,1.71632a.53156.53156,0,1,0,.609.85816l2.3807-1.71632a.53155.53155,0,0,0-.35987-.96894Z" style="fill: #fff"/>
          </g>
        </g>
        <g>
          <path d="M214.33533,201.11588H276.4786a.77511.77511,0,1,0,0-1.55022H214.33014a.77512.77512,0,0,0,.00519,1.55022Z" style="fill: url(#linear-gradient)"/>
          <rect x="213.71643" y="177.85138" width="63.41136" height="16.16658" rx="0.78522" ry="0.78522" style="fill: url(#linear-gradient-2)"/>
          <path d="M276.4786,203.91662H223.2584a.77511.77511,0,1,0,0,1.55022h53.2202a.77511.77511,0,1,0,0-1.55022Z" style="fill: url(#linear-gradient-3)"/>
          <path d="M214.33014,205.46684h6.174a.77511.77511,0,1,0,0-1.55022h-6.174a.77511.77511,0,1,0,0,1.55022Z" style="fill: url(#linear-gradient-4)"/>
          <path d="M276.4786,208.26861H214.33014a.77511.77511,0,0,0,0,1.55022H276.4786a.77511.77511,0,1,0,0-1.55022Z" style="fill: url(#linear-gradient-5)"/>
          <path d="M276.4786,212.6206H229.36628a.77511.77511,0,1,0,0,1.55022H276.4786a.77511.77511,0,1,0,0-1.55022Z" style="fill: url(#linear-gradient-6)"/>
          <path d="M214.33014,214.17082h12.347a.77511.77511,0,0,0,0-1.55022h-12.347a.77511.77511,0,0,0,0,1.55022Z" style="fill: url(#linear-gradient-7)"/>
          <path d="M276.4786,216.97157H214.33014a.77511.77511,0,0,0,0,1.55022H276.4786a.77511.77511,0,1,0,0-1.55022Z" style="fill: url(#linear-gradient-8)"/>
        </g>
        <g>
          <path d="M285.19735,236.394h62.14846a.77511.77511,0,1,0,0-1.55022H285.19735a.77511.77511,0,1,0,0,1.55022Z" style="fill: url(#linear-gradient-9)"/>
          <path d="M347.34581,239.19581H300.23349a.77511.77511,0,1,0,0,1.55022h47.11232a.77511.77511,0,1,0,0-1.55022Z" style="fill: url(#linear-gradient-10)"/>
          <path d="M285.19735,240.746h12.347a.77511.77511,0,0,0,0-1.55022h-12.347a.77511.77511,0,0,0,0,1.55022Z" style="fill: url(#linear-gradient-11)"/>
          <path d="M347.34581,243.54677H285.19735a.77511.77511,0,0,0,0,1.55022h62.14846a.77511.77511,0,1,0,0-1.55022Z" style="fill: url(#linear-gradient-12)"/>
        </g>
        <g>
          <path d="M306.82595,216.75559a.96555.96555,0,0,0,.96555-.96555V204.51237a.96555.96555,0,0,0-.96555-.96555h-3.45668a.96555.96555,0,0,0-.96555.96555v11.40319a.96555.96555,0,0,0,1.93111,0V205.47793h1.5642V215.79A.96555.96555,0,0,0,306.82595,216.75559Z" style="fill: url(#linear-gradient-13)"/>
          <path d="M313.82621,215.05622a.96555.96555,0,0,0,.96555-.96555V197.51211a.96555.96555,0,0,0-.96555-.96555h-3.49531a.96555.96555,0,0,0-.96555.96555v17.66963a.96555.96555,0,0,0,1.93111,0V198.47766h1.5642v15.613a.96555.96555,0,0,0,.96555.96555Z" style="fill: url(#linear-gradient-14)"/>
          <path d="M320.82648,210.96227a.96555.96555,0,0,0,.96555-.96555v-8.98931a.96555.96555,0,0,0-.96555-.96555h-3.505a.96555.96555,0,0,0-.96555.96555v11.39353a.96555.96555,0,0,0,1.93111,0V201.973h1.57385v8.02375A.96555.96555,0,0,0,320.82648,210.96227Z" style="fill: url(#linear-gradient-15)"/>
          <path d="M327.82674,202.09849a.96555.96555,0,0,0,.96555-.96555v-8.87344a.96555.96555,0,0,0-.96555-.96555h-3.505a.96555.96555,0,0,0-.96555.96555V206.54a.96555.96555,0,1,0,1.93111,0V193.225h1.57385v7.90789A.96555.96555,0,0,0,327.82674,202.09849Z" style="fill: url(#linear-gradient-16)"/>
          <path d="M317.77532,215.85763a31.10032,31.10032,0,0,0,3.62083-2.2594,31.64084,31.64084,0,0,0,3.61117-3.08011,29.87421,29.87421,0,0,0,3.61117-4.33533,30.59839,30.59839,0,0,0,5.42641-17.38v-.75313l.96555.96555a.9798.9798,0,0,0,1.37108-1.40006h0l-2.62631-2.62631a.96555.96555,0,0,0-1.36143,0l-2.6263,2.62631a.96556.96556,0,0,0-.0056,1.36549l.0056.0056a.96555.96555,0,0,0,1.36143,0l.96555-.96555v.75313A28.55139,28.55139,0,0,1,327.006,205.0917a27.86583,27.86583,0,0,1-3.36013,4.05533,29.03425,29.03425,0,0,1-6.75888,5.01122,27.33485,27.33485,0,0,1-6.75888,2.578,26.3111,26.3111,0,0,1-3.38909.6083,27.866,27.866,0,0,1-3.36978.20277H298.5415a.96555.96555,0,0,0,0,1.93111h34.97236a.96555.96555,0,0,0,0-1.93111h-19.3497A30.21229,30.21229,0,0,0,317.77532,215.85763Z" style="fill: url(#linear-gradient-17)"/>
        </g>
        <path d="M267.26242,230.17989a.4877.4877,0,0,0,.412-.481v-1.05876h3.775a.4871.4871,0,0,0,0-.97419H219.65224a.4871.4871,0,0,0,0,.97419h3.83925v1.05876a.48711.48711,0,0,0,.412.481l5.63812.88558a24.99488,24.99488,0,0,0,1.69337,4.96973c.00673,0,.01214-.00339.01961-.00409a17.59879,17.59879,0,0,0,.9187,1.52354l-3.39342,4.63283a.48774.48774,0,0,0,.0467.62982l2.196,2.21765a.48529.48529,0,0,0,.63659.04736l4.57329-3.41642a16.35767,16.35767,0,0,0,6.48918,2.70608l.81254,5.63609a.4871.4871,0,0,0,.48167.41742h3.13093a.48714.48714,0,0,0,.48171-.41742l.81654-5.63609a15.927,15.927,0,0,0,6.41952-2.70608l4.57259,3.41642a.48529.48529,0,0,0,.63663-.04736l2.196-2.21765a.4861.4861,0,0,0,.0467-.62982l-3.38463-4.62672a15.46747,15.46747,0,0,0,.86795-1.397,26.62864,26.62864,0,0,0,1.81514-5.09695Zm-13.10285-1.53976a8.71465,8.71465,0,0,1-2.49839,5.69361,8.49229,8.49229,0,0,1-6.07585,2.5268h-.002a8.499,8.499,0,0,1-6.07923-2.52614,8.80415,8.80415,0,0,1-2.562-5.69427Zm6.55549,1.92a15.6224,15.6224,0,0,1-2.77508,6.7131.48828.48828,0,0,0-.0007.57709l3.34813,4.57668-1.60674,1.6216-4.52188-3.37786a.48807.48807,0,0,0-.58382.00066,14.99233,14.99233,0,0,1-6.64006,2.80217.48891.48891,0,0,0-.40321.41064l-.80642,5.5671h-2.288l-.80168-5.5671a.48659.48659,0,0,0-.40321-.41064,15.381,15.381,0,0,1-6.71108-2.80217.485.485,0,0,0-.58246-.00066l-4.52258,3.37786-1.60538-1.62164,3.35217-4.57663a.48557.48557,0,0,0,.00541-.56759,15.456,15.456,0,0,1-2.71624-6.70976.4872.4872,0,0,0-.40656-.41469l-5.57928-.87612v-.64266h11.50288a9.77083,9.77083,0,0,0,2.84342,6.37889,9.463,9.463,0,0,0,6.77128,2.815h.00273a9.46038,9.46038,0,0,0,6.76723-2.81567,9.683,9.683,0,0,0,2.77983-6.37823h11.56713v.64266l-5.5806.87612A.48912.48912,0,0,0,260.71506,230.5601Z" style="fill: url(#linear-gradient-18)"/>
        <path d="M135.53169,295.55278a37.6741,37.6741,0,1,0-32.39729,64.36738,3.74522,3.74522,0,1,0,.26374-1.81477,35.83719,35.83719,0,1,1,30.86707-61.22731.91657.91657,0,0,0,1.26647-1.3253Zm-28.64447,62.07109a1.95421,1.95421,0,1,1-1.95335,1.95508A1.95748,1.95748,0,0,1,106.88722,357.62387Z" style="fill: url(#linear-gradient-19)"/>
        <path d="M59.78544,341.83619a.91589.91589,0,0,1-.82269-.51126,51.91784,51.91784,0,0,1-5.38425-23.16766A52.44447,52.44447,0,0,1,131.51859,272.341a.91628.91628,0,1,1-.89276,1.60039,50.6128,50.6128,0,0,0-75.21336,44.21588,50.10553,50.10553,0,0,0,5.19392,22.35622.91736.91736,0,0,1-.82095,1.3227Z" style="fill: #fff"/>
        <g>
          <rect x="0.00001" y="155.31165" width="29.86486" height="2.93128" style="fill: #fff"/>
          <rect x="0.00001" y="163.19784" width="29.86486" height="2.93108" style="fill: #fff"/>
        </g>
        <g>
          <rect x="33.35081" y="155.31165" width="4.98493" height="2.93128" style="fill: #fff"/>
          <rect x="33.35081" y="163.19784" width="4.98493" height="2.93108" style="fill: #fff"/>
        </g>
        <path d="M446.17347,235.73436a27.88283,27.88283,0,0,0-55.61674,4.07279,28.03447,28.03447,0,0,0,16.66611,23.50872,1.98023,1.98023,0,1,0,.82123-1.64116,26.19035,26.19035,0,0,1-15.65856-22.00078,26.04921,26.04921,0,0,1,51.95919-3.80634,26.28092,26.28092,0,0,1-.06661,4.61.91666.91666,0,1,0,1.82358.18859A28.18394,28.18394,0,0,0,446.17347,235.73436Z" style="fill: #fff"/>
        <circle cx="136.5786" cy="119.28527" r="19.18412" transform="translate(-44.34448 131.5135) rotate(-45)" style="fill: #fff"/>
        <path d="M136.59141,147.49206a27.778,27.778,0,0,1-11.1474-2.3236.91693.91693,0,1,1,.73532-1.68,26.19236,26.19236,0,0,0,27.49391-4.14372A26.04918,26.04918,0,0,0,119.6229,99.91363a26.22479,26.22479,0,0,0-3.212,3.30633.91629.91629,0,0,1-1.42219-1.15574,27.99669,27.99669,0,0,1,3.43609-3.53817,27.88246,27.88246,0,0,1,36.44661,42.2063A27.99436,27.99436,0,0,1,136.59141,147.49206Z" style="fill: #fff"/>
        <path d="M127.20155,112.96234l12.64266.01682h.00076a.60641.60641,0,0,0,.60619-.60619v-1.27072l2.47977,3.07959-2.47977,3.07944v-1.27163a.60621.60621,0,0,0-.60619-.60619H130.4389a.60619.60619,0,1,0,0,1.21238h8.79989v2.38475a.60616.60616,0,0,0,1.07826.38023l3.8643-4.79874a.606.606,0,0,0,0-.76046l-3.8643-4.79889a.60612.60612,0,0,0-1.07826.38008v2.38308L127.20322,111.75h-.00076a.60619.60619,0,0,0-.00091,1.21238Z" style="fill: url(#linear-gradient-20)"/>
        <path d="M135.48723,121.37244v-2.39187a.60621.60621,0,0,0-1.07841-.38008l-3.86324,4.79874a.606.606,0,0,0-.00045.75986l3.86339,4.80753a.60622.60622,0,0,0,1.07871-.37978V126.195l12.04451.01606h.00061a.60619.60619,0,0,0,.00122-1.21238l-12.65145-.017h-.00091a.60642.60642,0,0,0-.60619.60619v1.27693l-2.47916-3.085,2.47916-3.07959v1.27845a.60621.60621,0,0,0,.60619.60619h9.407a.60619.60619,0,1,0,0-1.21238h-8.80094Z" style="fill: #e58129"/>
        <circle cx="383.07681" cy="63.68372" r="29.20442" transform="translate(-4.27185 36.03462) rotate(-5.35581)" style="fill: #fff"/>
        <path d="M383.0565,89.61574A25.96579,25.96579,0,0,1,357.259,66.10464a.91667.91667,0,1,1,1.82531-.17129A24.12514,24.12514,0,0,0,385.3256,87.67623a.91667.91667,0,1,1,.17129,1.82531C384.67853,89.57854,383.86276,89.61574,383.0565,89.61574Z" style="fill: url(#linear-gradient-21)"/>
        <path d="M417.29635,68.47652a2.57542,2.57542,0,0,0-1.38331,4.56372,34.23462,34.23462,0,1,1-38.425-43.72392,33.5028,33.5028,0,0,1,6.03911-.47752.917.917,0,0,0,.0173-1.834,36.0761,36.0761,0,1,0,34.11187,46.60122c.04077-.00189.08.00465.12106.00081a2.57642,2.57642,0,1,0-.481-5.13035Z" style="fill: #fff"/>
        <polygon points="373.315 70.886 372.651 69.557 372.762 48.962 373.205 47.301 394.022 47.522 394.575 49.072 394.575 70.333 393.579 71.218 373.315 70.886" style="fill: #fff"/>
        <rect x="368.43238" y="75.52148" width="7.24897" height="1.31799" style="fill: #fbcea7"/>
        <path d="M369.09138,74.20349v-9.226a3.30026,3.30026,0,0,1,2.636-3.22909V71.5675a.659.659,0,0,0,1.12491.46591l3.954-3.954a1.20531,1.20531,0,0,1,1.70417,1.70417l-4.41989,4.4199Z" style="fill: #fbcea7"/>
        <path d="M400.51786,70.04421a3.29891,3.29891,0,0,0-3.29487-3.295H392.61V64.18374a2.0324,2.0324,0,0,0-1.64754-2.02115,1.97718,1.97718,0,0,0-2.30651,1.95064v9.226a3.26071,3.26071,0,0,0,.67627,1.977H389.315a.65906.65906,0,0,0-.65908.659v3.295a.659.659,0,0,0,.65908.659h10.5439a.659.659,0,0,0,.659-.659v-3.295a.659.659,0,0,0-.659-.659h-.01709a3.26049,3.26049,0,0,0,.67606-1.977Z" style="fill: #fbcea7"/>
        <path d="M398.74626,68.27251a3.29894,3.29894,0,0,0-3.295-3.295h-4.613V62.412a2.03235,2.03235,0,0,0-1.64749-2.02114,1.977,1.977,0,0,0-2.30649,1.95063v9.226a3.26073,3.26073,0,0,0,.67613,1.977h-.01713a.659.659,0,0,0-.659.659v3.295a.659.659,0,0,0,.659.659h10.544a.659.659,0,0,0,.659-.659v-3.295a.659.659,0,0,0-.659-.659h-.01713a3.26072,3.26072,0,0,0,.67613-1.977Zm-1.318,8.567h-9.226v-1.977h9.226Zm-7.249-3.295a1.977,1.977,0,0,1-1.977-1.977v-9.226a.659.659,0,0,1,.659-.659.68739.68739,0,0,1,.11532.00988.71369.71369,0,0,1,.54367.71963v3.22447a.659.659,0,0,0,.659.659h5.272a1.977,1.977,0,0,1,1.977,1.977v3.295a1.977,1.977,0,0,1-1.977,1.977Z" style="fill: url(#linear-gradient-22)"/>
        <path d="M379.44225,67.1476a2.5266,2.5266,0,0,0-3.56781,0l-2.82908,2.82908V48.50259a.659.659,0,0,1,.659-.659h19.76992a.659.659,0,0,1,.659.659V64.31853h1.318V48.50259a1.977,1.977,0,0,0-1.977-1.977H373.70436a1.977,1.977,0,0,0-1.977,1.977V60.41726a4.613,4.613,0,0,0-3.954,4.56026v9.226a.659.659,0,0,0-.659.659v2.636a.659.659,0,0,0,.659.659h8.567a.659.659,0,0,0,.659-.659v-2.636a.659.659,0,0,0-.659-.659h-.38617l2.636-2.636h6.97615v-1.318h-5.76425A2.52264,2.52264,0,0,0,379.44225,67.1476Zm-3.7609,9.69187h-7.249v-1.318h7.249Zm-6.59-2.636v-9.226a3.30026,3.30026,0,0,1,2.636-3.22909V71.5675a.659.659,0,0,0,1.12491.46591l3.954-3.954a1.20531,1.20531,0,0,1,1.70417,1.70417l-4.41989,4.4199Z" style="fill: url(#linear-gradient-23)"/>
        <rect x="373.94427" y="49.16159" width="5.51146" height="5.51146" rx="2.0668" ry="2.0668" style="fill: url(#linear-gradient-24)"/>
        <rect x="380.83359" y="49.16159" width="5.51146" height="5.51146" rx="2.0668" ry="2.0668" style="fill: url(#linear-gradient-25)"/>
        <rect x="387.72291" y="49.16159" width="5.51146" height="5.51146" rx="2.0668" ry="2.0668" style="fill: url(#linear-gradient-26)"/>
        <path d="M377.65834,64.97752V62.87928a1.96513,1.96513,0,0,0,0-3.71147V55.75156h-1.318V59.1678a1.96513,1.96513,0,0,0,0,3.71147v2.09825Zm-.659-4.613a.659.659,0,1,1-.659.659A.659.659,0,0,1,376.99934,60.36454Z" style="fill: url(#linear-gradient-27)"/>
        <path d="M384.24831,63.12179V55.75156h-1.318v7.37023a1.977,1.977,0,1,0,1.318,0Zm-.659,2.51473a.659.659,0,1,1,.659-.659A.659.659,0,0,1,383.58932,65.63652Z" style="fill: url(#linear-gradient-28)"/>
        <rect x="387.72291" y="56.05091" width="5.51146" height="1.37786" style="fill: url(#linear-gradient-29)"/>
        <rect x="387.5433" y="58.38755" width="5.27198" height="1.31799" style="fill: #fff"/>
        <path d="M415.80279,237.72263v-1.2549h-4.39227v-1.88241h1.2549a1.8824,1.8824,0,0,0,1.88241-1.88241v-1.255a1.8824,1.8824,0,0,0-1.88241-1.88241h-3.76482a1.88243,1.88243,0,0,0-1.88241,1.88241v1.255a1.88243,1.88243,0,0,0,1.88241,1.88241h1.255V239.605h-1.255a1.88243,1.88243,0,0,0-1.88241,1.88241v1.255a1.88243,1.88243,0,0,0,1.88241,1.88241h3.76482a1.8824,1.8824,0,0,0,1.88241-1.88241v-1.255a1.8824,1.8824,0,0,0-1.88241-1.88241h-1.2549v-1.88241Z" style="fill: url(#linear-gradient-30)"/>
        <path d="M111.549,319.055a3.893,3.893,0,1,0,3.893,3.893A3.85518,3.85518,0,0,0,111.549,319.055Zm0,6.2288a2.3358,2.3358,0,1,1,2.3358-2.3358A2.29411,2.29411,0,0,1,111.549,325.28381Z" style="fill: url(#linear-gradient-31)"/>
        <g>
          <path d="M91.77257,342.5202,90.52681,343.766a.77078.77078,0,0,0,1.09005,1.09005l1.24571-1.24577a.77076.77076,0,0,0-1.09-1.09005Z" style="fill: url(#linear-gradient-32)"/>
          <path d="M95.12053,339.09438l-1.0122,1.0122a.77078.77078,0,0,0,1.09005,1.09005l1.0122-1.0122a.77078.77078,0,0,0-1.09005-1.09005Z" style="fill: url(#linear-gradient-33)"/>
          <path d="M131.32541,342.5202a.77078.77078,0,0,0-1.09005,1.09005l1.24577,1.24577a.77078.77078,0,0,0,1.09005-1.09005Z" style="fill: url(#linear-gradient-34)"/>
          <path d="M127.89959,339.09438a.77078.77078,0,0,0-1.09005,1.09005l1.0122,1.0122a.77078.77078,0,0,0,1.09005-1.09005Z" style="fill: url(#linear-gradient-35)"/>
          <path d="M131.32541,305.14742l1.24577-1.24571a.77078.77078,0,0,0-1.09005-1.09005l-1.24577,1.24577a.77076.77076,0,0,0,1.09005,1.09Z" style="fill: url(#linear-gradient-36)"/>
          <path d="M127.97745,308.57329l1.0122-1.0122a.77078.77078,0,0,0-1.09005-1.09005l-1.09005,1.0122a.75268.75268,0,0,0,0,1.09005A.84676.84676,0,0,0,127.97745,308.57329Z" style="fill: url(#linear-gradient-37)"/>
          <path d="M124.39586,312.077l1.0122-1.01214a.77078.77078,0,1,0-1.09005-1.09005l-1.01214,1.0122a.77075.77075,0,1,0,1.09,1.09Z" style="fill: url(#linear-gradient-38)"/>
          <path d="M91.77257,305.14742a.77075.77075,0,1,0,1.09-1.09l-1.24571-1.24577a.77078.77078,0,0,0-1.09005,1.09005Z" style="fill: url(#linear-gradient-39)"/>
          <path d="M95.19839,308.57329a.77078.77078,0,1,0,1.09005-1.09005l-1.0122-1.0122a.77078.77078,0,0,0-1.09005,1.09005Z" style="fill: url(#linear-gradient-40)"/>
          <path d="M111.549,314.77271c-7.94169,0-14.24832,7.39669-14.48195,7.70812a.81866.81866,0,0,0,0,1.0122c.23363.31143,6.54026,7.70812,14.48195,7.70812s14.24838-7.39669,14.482-7.70812a.81866.81866,0,0,0,0-1.0122C125.79734,322.1694,119.49071,314.77271,111.549,314.77271Zm0,14.79338c-6.07306,0-11.28965-5.06087-12.84684-6.61812,1.55719-1.63505,6.77378-6.61806,12.84684-6.61806s11.2897,5.06087,12.8469,6.61806C122.83867,324.58308,117.62208,329.56609,111.549,329.56609Z" style="fill: url(#linear-gradient-41)"/>
          <path d="M136.46419,328.81688a6.90588,6.90588,0,0,0-2.64725-4.90516,6.61327,6.61327,0,0,0-3.893-1.40148,7.166,7.166,0,0,0-7.31883-8.5646,10.069,10.069,0,0,0-18.06348-4.438,7.9629,7.9629,0,0,0-11.134,9.73245,8.49718,8.49718,0,0,0,1.71291,16.81777h3.19225l-.62286.62286A.77078.77078,0,0,0,98.78,337.77076l1.01214-1.0122a.61965.61965,0,0,0,.15571-.70071h23.20232a.74679.74679,0,0,0,.15571.70071l1.01214,1.0122a.77078.77078,0,0,0,1.09005-1.09005l-.62286-.70071h5.45015A6.76447,6.76447,0,0,0,136.46419,328.81688Zm-6.30669,5.60592h-35.037a6.94071,6.94071,0,0,1-.545-13.85909.79394.79394,0,0,0,.62286-.38929.584.584,0,0,0,0-.70077,6.40936,6.40936,0,0,1,9.18745-8.25312.82742.82742,0,0,0,.62291.07786.71493.71493,0,0,0,.46714-.31143c4.438-7.08526,15.18272-4.12659,15.72772,3.97082a.78818.78818,0,0,0,.31143.54505.83909.83909,0,0,0,.62291.15571,5.54063,5.54063,0,0,1,6.07306,7.47455.74355.74355,0,0,0,.15571.77862.70482.70482,0,0,0,.77862.23357,4.8723,4.8723,0,0,1,3.8151,1.01214,5.172,5.172,0,0,1,2.02439,3.7373A5.32352,5.32352,0,0,1,130.1575,334.4228Z" style="fill: url(#linear-gradient-42)"/>
        </g>
        <g>
          <path d="M114.65,16.57005a2.65107,2.65107,0,0,0-.88584,5.152v3.09249l-5.315,1.99314V25.26544a2.65754,2.65754,0,1,0-1.77168,0V39.60189l1.77168-1.1578V28.69985l6.51269-2.44228a.88587.88587,0,0,0,.574-.82912V21.72208a2.65107,2.65107,0,0,0-.88584-5.152Zm-7.08672,7.08672a.88584.88584,0,1,1,.88584-.88584A.88672.88672,0,0,1,107.56325,23.65677ZM114.65,20.11341a.88584.88584,0,1,1,.88584-.88584A.88672.88672,0,0,1,114.65,20.11341Z" style="fill: #fff"/>
          <path d="M94.27565,23.29v-1.568a2.65754,2.65754,0,1,0-1.77168,0v1.93469a.88318.88318,0,0,0,.25958.62626l3.28378,3.28384v12.035H97.819V27.20013a.88336.88336,0,0,0-.25952-.62626Zm-.88584-3.17662a.88584.88584,0,1,1,.88584-.88584A.88672.88672,0,0,1,93.38981,20.11341Z" style="fill: #fff"/>
          <path d="M100.47653,16.57005a2.65107,2.65107,0,0,0-.88584,5.152V42.25941h1.77168V21.72208a2.65107,2.65107,0,0,0-.88584-5.152Zm0,3.54336a.88584.88584,0,1,1,.88584-.88584A.88672.88672,0,0,1,100.47653,20.11341Z" style="fill: #fff;opacity: 0.5"/>
        </g>
        <g>
          <path d="M373.75818,382.03752a2.65107,2.65107,0,0,0,.88584-5.152V373.793l5.315-1.99314v1.54227a2.65754,2.65754,0,1,0,1.77168,0V361.66319l-1.77168,1.1578v7.08672L373.44637,372.35a.88587.88587,0,0,0-.574.82912v3.70637a2.65107,2.65107,0,0,0,.88584,5.152Zm7.08672-7.08672a.88584.88584,0,1,1-.88584.88584A.88672.88672,0,0,1,380.8449,374.95079Zm-7.08672,3.54336a.88584.88584,0,1,1-.88584.88584A.88672.88672,0,0,1,373.75818,378.49415Z" style="fill: #fff"/>
          <path d="M394.1325,375.31753v1.568a2.65754,2.65754,0,1,0,1.77168,0v-1.93469a.88318.88318,0,0,0-.25958-.62626l-3.28378-3.28384v-12.035h-1.77168v12.40176a.88336.88336,0,0,0,.25952.62626Zm.88584,3.17662a.88584.88584,0,1,1-.88584.88584A.88672.88672,0,0,1,395.01834,378.49415Z" style="fill: #fff;opacity: 0.5"/>
          <path d="M387.93162,382.03752a2.65107,2.65107,0,0,0,.88584-5.152V357.234h-1.77168v19.65149a2.65107,2.65107,0,0,0,.88584,5.152Zm0-3.54336a.88584.88584,0,1,1-.88584.88584A.88672.88672,0,0,1,387.93162,378.49415Z" style="fill: #fff"/>
        </g>
        <g style="opacity: 0.45">
          <rect y="147.42545" width="29.86488" height="2.93126" style="fill: #fff"/>
          <rect x="33.35082" y="147.42545" width="4.9849" height="2.93126" style="fill: #fff"/>
        </g>
        <g style="opacity: 0.45">
          <path d="M408.90061,230.8205h3.76487a.62745.62745,0,0,1,.62745.62745v1.255a.62745.62745,0,0,1-.62745.62745h-3.76482a.62751.62751,0,0,1-.62751-.62751v-1.2549A.62745.62745,0,0,1,408.90061,230.8205Z" style="fill: #fff"/>
          <path d="M408.90061,240.86h3.76487a.62745.62745,0,0,1,.62745.62745v1.255a.62745.62745,0,0,1-.62745.62745h-3.76482a.62751.62751,0,0,1-.62751-.62751v-1.2549A.62745.62745,0,0,1,408.90061,240.86Z" style="fill: #fff"/>
        </g>
        <path d="M433.75149,236.37634a.67192.67192,0,0,0,.315-.79363l-.29135-.83024a.67331.67331,0,0,0-.74185-.42366l-.54956.10893a.9838.9838,0,0,1-.89407-.34237l-.64394-.72119a.97379.97379,0,0,1-.24344-.92348l.16912-.53023a.67267.67267,0,0,0-.33839-.78406l-.79324-.38135a.6731.6731,0,0,0-.8243.22542l-.31164.46575a.9781.9781,0,0,1-.87407.38766l-.95618-.04961a.981.981,0,0,1-.82563-.48388l-.24458-.47318a.67216.67216,0,0,0-.79363-.315l-.83024.29135a.67329.67329,0,0,0-.42357.74212l.10378.52379a.98436.98436,0,0,1-.34237.89407l-.72253.64441a.97306.97306,0,0,1-.92357.24318l-.514-.16374a.67228.67228,0,0,0-.78415.33812l-.38126.79351a.67387.67387,0,0,0,.22516.82439l.45047.30141a.97825.97825,0,0,1,.387.874l-.0509.95424a.98471.98471,0,0,1-.484.82626l-.50963.26457a.67357.67357,0,0,0-.31433.7946l.29135.83024a.67243.67243,0,0,0,.74184.42277l.56185-.11234a.98163.98163,0,0,1,.89378.34157l.6306.70879a.9781.9781,0,0,1,.24355.92464l-.17477.5517a.67387.67387,0,0,0,.33938.78431l.79351.38126a.67154.67154,0,0,0,.82348-.226l.31816-.47793a.97456.97456,0,0,1,.873-.38729l.9682.05139a.98219.98219,0,0,1,.82519.48434l.24983.483a.67186.67186,0,0,0,.79336.31507l.83024-.29135a.67383.67383,0,0,0,.42384-.74221l-.10627-.5343a.98616.98616,0,0,1,.34254-.89443l.71874-.64068a.9745.9745,0,0,1,.92358-.24318l.51324.16339a.672.672,0,0,0,.78406-.33839l.38082-.79306a.67387.67387,0,0,0-.22516-.82439l-.448-.29957a.97748.97748,0,0,1-.38677-.87408l.05111-.963a.98163.98163,0,0,1,.48434-.82519Z" style="fill: #fff;opacity: 0.45"/>
        <g>
          <path d="M425.8423,249.6446a.62747.62747,0,0,1-.62745.62745h-18.8241a.62744.62744,0,0,1-.62745-.62745V227.68313h3.13731a1.8824,1.8824,0,0,0,1.88241-1.88241v-3.13737h14.43183a.62748.62748,0,0,1,.62745.62751v3.76482h1.255v-3.76482a1.8824,1.8824,0,0,0-1.88241-1.88241H410.15556a.62539.62539,0,0,0-.44389.1841l-5.01951,5.01951a.62741.62741,0,0,0-.18383.44362V249.6446a1.8824,1.8824,0,0,0,1.88241,1.88241h18.8241a1.88243,1.88243,0,0,0,1.88241-1.88241v-2.50992h-1.255Zm-16.31418-26.094v2.25012a.62748.62748,0,0,1-.62751.62745h-2.25007Z" style="fill: url(#linear-gradient-43)"/>
          <path d="M424.58739,227.05568v-1.255a1.88243,1.88243,0,0,0-1.88241-1.88241H421.45v1.255h1.255a.62747.62747,0,0,1,.62745.62745v1.255Z" style="fill: url(#linear-gradient-44)"/>
          <rect x="418.94016" y="223.91831" width="1.2549" height="1.25496" style="fill: url(#linear-gradient-45)"/>
          <path d="M407.0182,245.87978v1.2549a1.8824,1.8824,0,0,0,1.88241,1.88241h1.255v-1.2549h-1.255a.62748.62748,0,0,1-.62745-.62751v-1.2549Z" style="fill: url(#linear-gradient-46)"/>
          <rect x="411.41052" y="247.76219" width="1.2549" height="1.2549" style="fill: url(#linear-gradient-47)"/>
          <path d="M427.39781,233.57253a3.38538,3.38538,0,1,0,1.72929,1.93A3.36887,3.36887,0,0,0,427.39781,233.57253Zm.4533,3.9733a2.12924,2.12924,0,1,1-2.62465-2.93h.00086a2.129,2.129,0,0,1,2.62378,2.93Z" style="fill: url(#linear-gradient-48)"/>
          <path d="M432.904,238.07353l-.44811-.29932a.40043.40043,0,0,1-.10813-.31921l.051-1.01647a.39061.39061,0,0,1,.14533-.24655l.49655-.25693a1.30152,1.30152,0,0,0,.62026-1.55974l-.29153-.82961a1.304,1.304,0,0,0-1.45766-.83307l-.54932.109a.37908.37908,0,0,1-.30364-.14447l-.68514-.763a.37419.37419,0,0,1-.0718-.2725l.16869-.53029a1.30239,1.30239,0,0,0-.66438-1.5407l-.79328-.3815a1.30508,1.30508,0,0,0-1.61943.44292l-.31143.46541a.391.391,0,0,1-.31921.109l-1.00955-.04931a.33417.33417,0,0,1-.24655-.14533l-.24482-.4732a1.30009,1.30009,0,0,0-1.55974-.6194l-.83047.29153a1.30435,1.30435,0,0,0-.83221,1.45766l.10381.52337a.4008.4008,0,0,1-.14274.30364l-.76732.68687a.37928.37928,0,0,1-.27077.07094l-.51386-.1635a1.30418,1.30418,0,0,0-1.54157.66438l-.3815.79414a1.30412,1.30412,0,0,0,.44292,1.61856l.44984.301a.40191.40191,0,0,1,.109.31748l-.051,1.00782a.39.39,0,0,1-.14533.24914l-.5104.26471a1.30424,1.30424,0,0,0-.61767,1.5606l.29153.83048a1.30533,1.30533,0,0,0,1.45679.83048l.5649-.11246a.4129.4129,0,0,1,.29932.14274l.67217.75175a.38011.38011,0,0,1,.07267.27423l-.17388.55105a1.302,1.302,0,0,0,.66525,1.54157l.79328.3815a1.30357,1.30357,0,0,0,1.61943-.44465l.31835-.47752a.40757.40757,0,0,1,.31575-.10813l1.02252.0519c.04066.02163.21367.083.24655.14533l.25.48271a1.30387,1.30387,0,0,0,1.15055.68774,1.23481,1.23481,0,0,0,.40918-.06834l.83048-.29153a1.30752,1.30752,0,0,0,.83221-1.45852l-.1064-.53289a.39854.39854,0,0,1,.14447-.30364l.76127-.68255a.40136.40136,0,0,1,.27077-.0718l.51386.1635a1.30423,1.30423,0,0,0,1.54157-.66525l.38063-.79328A1.30455,1.30455,0,0,0,432.904,238.07353Zm-1.09865,1.87981-.51386-.1635a1.56,1.56,0,0,0-1.53205.37285l-.67736.60728a1.6,1.6,0,0,0-.5822,1.51994l.09083.55971-.85729.28115-.24914-.48185a1.58,1.58,0,0,0-1.31059-.82442h-.03979l-.9092-.04585a1.63758,1.63758,0,0,0-1.4888.66092l-.346.48617-.80539-.40918.17475-.55279a1.57021,1.57021,0,0,0-.37371-1.53119l-.59777-.66957a1.60063,1.60063,0,0,0-1.51821-.5796l-.58825.09775-.28115-.85816.5104-.26471a1.58138,1.58138,0,0,0,.82182-1.35039l.045-.898a1.59492,1.59492,0,0,0-.66005-1.48707l-.45849-.33046.40918-.80539.51386.1635a1.55633,1.55633,0,0,0,1.53119-.37285l.68341-.61075a1.60143,1.60143,0,0,0,.58047-1.51908l-.08824-.55019.85729-.28115.244.47233a1.62606,1.62606,0,0,0,1.35212.82442l.89622.04325a1.62285,1.62285,0,0,0,1.4888-.66005l.34084-.47406.80539.40832-.16869.53029a1.564,1.564,0,0,0,.37285,1.53292l.60988.67909a1.6,1.6,0,0,0,1.51908.5822l.57614-.09343.27423.85989-.48963.25347a1.59706,1.59706,0,0,0-.82442,1.35125l-.045.90314a1.59314,1.59314,0,0,0,.65919,1.48966l.4559.32959Z" style="fill: url(#linear-gradient-49)"/>
        </g>
      </g>
    </g>
  </g>
</svg>
