<svg xmlns="http://www.w3.org/2000/svg" viewBox="0 0 217.48913 217.48913">
  <title>osquery</title>
  <g id="Layer_2" data-name="Layer 2">
    <g id="Layer_10" data-name="Layer 10">
      <g>
        <rect width="217.48913" height="217.48913" style="fill: none"/>
        <g>
          <polygon points="27.557 27.557 68.151 68.151 108.745 68.151 68.151 27.557 27.557 27.557" style="fill: #fff"/>
          <polygon points="68.151 68.151 27.557 108.745 68.151 108.745 108.745 68.151 68.151 68.151" style="fill: #fff"/>
          <polygon points="189.932 27.557 189.932 68.151 149.338 108.745 149.338 68.151 189.932 27.557" style="fill: #fff"/>
          <polygon points="149.338 68.151 149.338 108.745 108.745 68.151 108.745 27.557 149.338 68.151" style="fill: #fff"/>
          <polygon points="189.932 189.932 149.338 189.932 108.745 149.338 149.338 149.338 189.932 189.932" style="fill: #fff"/>
          <polygon points="149.338 149.338 108.745 149.338 149.338 108.745 189.932 108.745 149.338 149.338" style="fill: #fff"/>
          <polygon points="27.557 189.932 27.557 149.338 68.151 108.745 68.151 149.338 27.557 189.932" style="fill: #fff"/>
          <polygon points="68.151 149.338 68.151 108.745 108.745 149.338 108.745 189.932 68.151 149.338" style="fill: #fff"/>
        </g>
      </g>
    </g>
  </g>
</svg>
