<svg xmlns="http://www.w3.org/2000/svg" viewBox="0 0 217.48913 217.48913">
  <title>performance</title>
  <g id="Layer_2" data-name="Layer 2">
    <g id="Layer_10" data-name="Layer 10">
      <g>
        <rect width="217.48913" height="217.48913" style="fill: none"/>
        <g>
          <path d="M108.74456,189.91239a81.16783,81.16783,0,1,0-81.16783-81.16783A81.32459,81.32459,0,0,0,108.74456,189.91239Zm-46.5637-26.7505a62.5024,62.5024,0,0,1,93.12739,0,71.507,71.507,0,0,1-93.1274,0Zm-5.853-59.17325A52.39764,52.39764,0,0,1,68.335,75.06308l6.46172,6.46172,6.72805-6.72805L75.06309,68.335A52.39762,52.39762,0,0,1,103.98864,56.3279v9.29625h9.51185V56.3279A52.39764,52.39764,0,0,1,142.426,68.335l-6.46172,6.46172,6.72805,6.72805,6.46172-6.46172a52.39761,52.39761,0,0,1,12.00713,28.92555H151.865v9.51185h9.29308a53.0064,53.0064,0,0,1-13.4561,30.78353,72.05545,72.05545,0,0,0-77.91477,0,52.99687,52.99687,0,0,1-13.4561-30.78353h9.29308v-9.51185Zm52.41666-66.9a71.61415,71.61415,0,0,1,53.36785,119.415,71.33849,71.33849,0,0,0-6.74074-6.541,62.14426,62.14426,0,1,0-93.25422,0,71.3388,71.3388,0,0,0-6.74074,6.53464A71.60955,71.60955,0,0,1,108.74456,37.08859Z" style="fill: #595b5d;stroke: #595b5d;stroke-width: 3px"/>
          <path d="M94.47678,151.865h28.53556v9.51185H94.47678Z" style="fill: #595b5d;stroke: #595b5d;stroke-width: 3px"/>
          <path d="M96.55671,116.16381a14.26778,14.26778,0,1,0,19.6071-19.6071l-.24731-.149L80.14241,80.14241,96.40769,115.9165Zm14.85751-11.35716a4.75593,4.75593,0,1,1-6.60757,6.60757L99.29929,99.29929Z" style="fill: #595b5d;stroke: #595b5d;stroke-width: 3px"/>
        </g>
      </g>
    </g>
  </g>
</svg>
