<svg xmlns="http://www.w3.org/2000/svg" viewBox="0 0 217.48913 217.48913">
  <title>predictable_pricing</title>
  <g id="Layer_2" data-name="Layer 2">
    <g id="Layer_10" data-name="Layer 10">
      <g>
        <rect width="217.48913" height="217.48913" style="fill: none"/>
        <g>
          <path d="M43.062,77.39146c2.63424,2.692,5.17606,5.27967,7.7066,7.87834q3.7409,3.84156,7.46393,7.7005l.48949-.21694c2.51774-17.62422,5.03548-35.24844,7.59832-53.18844l-53.502,7.65151c.59327.62674.92378.9926,1.27176,1.341,5.33215,5.33777,10.65213,10.68786,16.01636,15.99321a1.75022,1.75022,0,0,1,.42887,2.41851,90.983,90.983,0,0,0-9.60264,52.02819,89.1678,89.1678,0,0,0,9.43684,31.50283c10.6638,20.46484,26.673,35.151,48.08215,43.81186a87.93594,87.93594,0,0,0,44.08559,5.94067c28.917-3.50433,51.52388-17.51056,67.57618-41.86835a88.74229,88.74229,0,0,0,13.59847-36.235,94.84371,94.84371,0,0,0-.26551-28.60312c-.13874-.89573-.49757-1.08029-1.35323-.95677-4.22024.60921-8.44753,1.17071-12.67588,1.72184-.96387.12563-1.33188.5202-1.18176,1.54344.35433,2.41509.66544,4.83952.89385,7.26958a76.4829,76.4829,0,0,1-19.33454,57.04846,76.14864,76.14864,0,0,1-26.8033,19.19763,78.15555,78.15555,0,0,1-19.78269,5.46,77.10895,77.10895,0,0,1-26.08028-.78066,74.57646,74.57646,0,0,1-22.43129-8.30687A76.1909,76.1909,0,0,1,54.15184,158.9297,74.50042,74.50042,0,0,1,42.46634,78.2824,8.42112,8.42112,0,0,1,43.062,77.39146Z" style="fill: #fff"/>
          <path d="M117.50184,52.50458c0,3.797-.00139,7.37928.00051,10.96159.0012,2.26582.00669,2.20625,2.24013,2.32921a40.41232,40.41232,0,0,1,15.91031,4.0438c.375.18593.835.89187.74617,1.2169-1.07952,3.95025-2.25463,7.87438-3.46772,12.01991-.736-.32523-1.28431-.569-1.83383-.81014-7.15807-3.14075-14.54282-4.753-22.32984-2.9631-6.09158,1.40018-9.31225,7.55964-6.77921,12.84247a13.0781,13.0781,0,0,0,6.46657,5.8956c4.72117,2.28849,9.58856,4.27322,14.3636,6.4533a40.52719,40.52719,0,0,1,10.96842,7.06637c5.55939,5.17437,7.391,11.69521,6.57369,18.9984-1.25606,11.22436-9.80027,19.05378-21.0314,21.37727-1.39479.28856-1.89691.75054-1.85863,2.19505.10058,3.79662.01511,7.59779.06767,11.39628.01485,1.0733-.33255,1.47389-1.42827,1.45349q-4.7604-.08865-9.52307-.02315c-1.08.01518-1.44929-.34485-1.43765-1.43637.04327-4.05877-.06038-8.1199.0325-12.17691.03361-1.46845-.47094-1.77509-1.84979-1.83539a46.05455,46.05455,0,0,1-18.98363-5.0968c-1.04792-.53121-1.22172-1.12568-.87935-2.22942,1.16877-3.76789,2.22328-7.57122,3.3818-11.56953.943.45983,1.75932.85191,2.57049,1.25432,6.67661,3.312,13.6443,5.39412,21.18975,4.72766,4.15966-.3674,8.00173-1.63332,10.54226-5.23887,3.11966-4.42745,1.93228-10.4268-2.53746-13.86086-4.0752-3.1309-8.88378-4.70973-13.55577-6.59161a49.6436,49.6436,0,0,1-14.28589-8.16246,20.78075,20.78075,0,0,1-5.1299-24.1919c3.73758-7.94005,10.13384-12.44792,18.49248-14.38754,1.455-.33763,2.08665-.8158,2.02582-2.41881-.12421-3.27363-.02384-6.55585-.01188-9.83451.00247-.67822-.0876-1.41117.95773-1.408C110.48225,52.511,113.85611,52.50458,117.50184,52.50458Z" style="fill: #fff"/>
          <path d="M170.25669,57.35533l11.08073-9.9319a70.17978,70.17978,0,0,0-12.056-11.49842l-9.15631,11.92783Z" style="fill: #fff"/>
          <path d="M155.03138,26.60772l-15.39917-6.30335-4.147,14.79625,12.90691,5.22346Z" style="fill: #fff"/>
          <path d="M191.25156,60.98613l-12.76105,7.805c.67505,1.22809,1.32918,2.28354,1.85391,3.39981q1.81972,3.87117,3.52291,7.79649c.35141.813.70727,1.14283,1.63274.79662q5.9864-2.2395,12.01186-4.374c.86641-.30866,1.18009-.74892.77946-1.62118C196.17254,70.17578,194.46636,65.35252,191.25156,60.98613Z" style="fill: #fff"/>
          <path d="M112.12421,31.72565c2.81863.14878,5.40477.318,7.99356.38443a1.36239,1.36239,0,0,0,1.06392-.75555q1.14435-6.6088,2.1-13.24882c.04433-.31036-.56747-1.00442-.91672-1.03507-2.74577-.241-5.5009-.3932-8.25608-.48678-.35779-.01215-1.03342.44345-1.05412.72033C112.70248,22.01886,112.43038,26.73953,112.12421,31.72565Z" style="fill: #fff"/>
        </g>
      </g>
    </g>
  </g>
</svg>
