<svg xmlns="http://www.w3.org/2000/svg" viewBox="0 0 217.48913 217.48913">
  <title>Sales_hover</title>
  <g id="Layer_2" data-name="Layer 2">
    <g id="Layer_10" data-name="Layer 10">
      <g>
        <rect width="217.48913" height="217.48913" style="fill: none"/>
        <path d="M190.87746,60.40434v1.30573q0,30.17491-.00307,60.34982c-.00156,4.54984-3.15749,7.99763-7.40911,8.14189a7.68706,7.68706,0,0,1-8.01467-7.89589q-.03584-16.91808-.00877-33.83629c0-.45733,0-.91466,0-1.65375-.46459.41343-.76712.65765-1.04141.93028q-26.50588,26.34458-53.0069,52.69408c-4.05839,4.03517-8.42781,4.00946-12.43123-.09467Q95.95937,127.01549,82.96612,113.676c-.29162-.29931-.55462-.62653-.91173-1.03255-.45168.4252-.81367.74866-1.15655,1.09126q-20.31849,20.3019-40.6249,40.61585c-2.4662,2.47149-5.30149,3.42136-8.60886,2.21a7.68309,7.68309,0,0,1-2.739-12.72942c4.68575-4.77655,9.45445-9.47175,14.18832-14.20108Q59.548,113.21126,75.98385,96.79371C79.92,92.862,84.3195,92.889,88.21986,96.886q13.04929,13.37279,26.0849,26.75893c.29311.30082.56418.62313.95145,1.053l49.14307-48.84253H162.564q-16.66565-.00006-33.33127-.00474c-5.0283-.00673-8.48351-3.68771-8.08512-8.55593a7.6398,7.6398,0,0,1,6.57835-6.80192,15.59913,15.59913,0,0,1,1.76346-.085q29.9224-.00629,59.84481-.00349Z" style="fill: #f58426"/>
      </g>
    </g>
  </g>
</svg>
