<svg xmlns="http://www.w3.org/2000/svg" viewBox="0 0 217.48913 217.48913">
  <title>scalable</title>
  <g id="Layer_2" data-name="Layer 2">
    <g id="Layer_10" data-name="Layer 10">
      <g>
        <g>
          <path d="M148.18056,58.41961H99.28066c-6.09033,0-10.64014,4.25-10.66016,9.99-.03027,5.8,4.42969,10.11987,10.5,10.13989,7.91992.02,15.83008,0,23.73975,0h1.80029a5.52772,5.52772,0,0,1-.44043.62012Q109.77528,93.62945,95.29042,108.0495a2.96193,2.96193,0,0,1-1.93018.66992c-7.75977.05-15.52.03-23.27.03-.50977,0-1.00977-.05-1.67969-.07983V98.76947H58.38026v9.98H56.50038c-6.08008,0-12.16016-.03-18.24023.01a9.99377,9.99377,0,0,0-9.57959,7.04c-.13037.39014-.30029.75-.46045,1.12988v64.16016c.86035,2.49,1.9502,4.85986,4.29,6.31006a37.61464,37.61464,0,0,0,3.89014,1.86987h64.16992a1.26769,1.26769,0,0,1,.36035-.26c5.2998-1.67993,7.81006-5.06006,7.81006-10.56982q.01465-8.80518,0-17.61011v-1.83008h9.98975v-10.03h-9.91016c-.03955-.36987-.06982-.56982-.06982-.77979-.00977-8.12012-.03027-16.24023.03027-24.37012a3.01762,3.01762,0,0,1,.86963-1.8501q14.02515-14.09985,28.12012-28.12988c.31006-.31006.66016-.57007,1.16992-1.01v1.82007c0,7.97-.02,15.92993.02,23.8999a11.79854,11.79854,0,0,0,.50977,3.39014,10.04379,10.04379,0,0,0,19.6001-3.28q.01538-24.67493.01025-49.36011C159.08046,62.61956,154.86025,58.4096,148.18056,58.41961Zm-55.25,109.86987a5.352,5.352,0,0,1-5.3501,5.36011H49.23036a5.36034,5.36034,0,0,1-5.35986-5.36011V129.93963a5.36034,5.36034,0,0,1,5.35986-5.36011h38.3501a5.352,5.352,0,0,1,5.3501,5.36011Z" style="fill: #fff"/>
          <path d="M189.26609,150.89615q-.30965.783-.61941,1.56606c-1.53107,3.857-4.37931,6.34447-8.473,6.50815-6.95141.278-13.922.07646-20.99644.07646V149.02071H179.167V128.87855h10.09907Z" style="fill: #fff"/>
          <path d="M189.26609,58.42222H179.221V38.33628H159.186V28.2992c.49084-.02371.99576-.069,1.50072-.06936q8.95746-.0074,17.91491-.00177c5.27086.00526,8.82612,2.63983,10.36974,7.65787a2.7108,2.7108,0,0,0,.29469.51868Z" style="fill: #fff"/>
          <path d="M189.26609,118.81336h-9.96353V98.683h9.96353Z" style="fill: #fff"/>
          <path d="M189.26609,88.61779h-9.96471V68.48741h9.96471Z" style="fill: #fff"/>
          <path d="M68.49892,38.24114v20.0812H58.41973c0-.492,0-.94712,0-1.40224-.00007-6.13179-.0156-12.26362.00424-18.39535A10.01284,10.01284,0,0,1,68.62041,28.23389c6.59559-.02816,13.1914-.00649,19.89291-.00649V38.24114Z" style="fill: #fff"/>
          <path d="M58.52734,68.555h9.87608V88.49352H58.52734Z" style="fill: #fff"/>
          <path d="M118.70564,38.22051H98.75593V28.34544h19.94971Z" style="fill: #fff"/>
          <path d="M148.93686,149.11476v9.8814H128.99858v-9.8814Z" style="fill: #fff"/>
          <path d="M148.93663,28.33773v9.87543H128.99695V28.33773Z" style="fill: #fff"/>
        </g>
        <rect width="217.48913" height="217.48913" style="fill: none"/>
      </g>
    </g>
  </g>
</svg>
