<svg xmlns="http://www.w3.org/2000/svg" xmlns:xlink="http://www.w3.org/1999/xlink" viewBox="0 0 578.36 440.22">
  <defs>
    <linearGradient id="linear-gradient" x1="60.12" y1="168.91" x2="101.6" y2="168.91" gradientUnits="userSpaceOnUse">
      <stop offset="0" stop-color="#ff8f33"/>
      <stop offset="1" stop-color="#fb7d14"/>
    </linearGradient>
    <linearGradient id="linear-gradient-2" x1="445.24" y1="51.46" x2="454.84" y2="51.46" xlink:href="#linear-gradient"/>
    <linearGradient id="linear-gradient-3" x1="102.58" y1="363.95" x2="148.78" y2="363.95" xlink:href="#linear-gradient"/>
    <linearGradient id="linear-gradient-4" x1="405.6" y1="98.39" x2="486.72" y2="98.39" xlink:href="#linear-gradient"/>
    <linearGradient id="linear-gradient-5" x1="93.77" y1="329.83" x2="131.96" y2="329.83" xlink:href="#linear-gradient"/>
    <linearGradient id="linear-gradient-6" x1="93.77" y1="342.35" x2="131.96" y2="342.35" xlink:href="#linear-gradient"/>
    <linearGradient id="linear-gradient-7" x1="99.26" y1="331.31" x2="120.31" y2="331.31" xlink:href="#linear-gradient"/>
    <linearGradient id="linear-gradient-8" x1="123.67" y1="331.32" x2="124.95" y2="331.32" xlink:href="#linear-gradient"/>
    <linearGradient id="linear-gradient-9" x1="127.73" y1="331.32" x2="129" y2="331.32" xlink:href="#linear-gradient"/>
    <linearGradient id="linear-gradient-10" x1="99.26" y1="343.61" x2="120.31" y2="343.61" xlink:href="#linear-gradient"/>
    <linearGradient id="linear-gradient-11" x1="123.67" y1="343.62" x2="124.95" y2="343.62" xlink:href="#linear-gradient"/>
    <linearGradient id="linear-gradient-12" x1="127.73" y1="343.62" x2="129" y2="343.62" xlink:href="#linear-gradient"/>
    <linearGradient id="linear-gradient-13" x1="120.72" y1="355.51" x2="121.99" y2="355.51" xlink:href="#linear-gradient"/>
    <linearGradient id="linear-gradient-14" x1="113.71" y1="355.51" x2="114.98" y2="355.51" xlink:href="#linear-gradient"/>
    <linearGradient id="linear-gradient-15" x1="106.7" y1="355.51" x2="107.97" y2="355.51" xlink:href="#linear-gradient"/>
    <linearGradient id="linear-gradient-16" x1="99.69" y1="355.51" x2="100.96" y2="355.51" xlink:href="#linear-gradient"/>
    <linearGradient id="linear-gradient-17" x1="127.73" y1="355.51" x2="129" y2="355.51" xlink:href="#linear-gradient"/>
    <linearGradient id="linear-gradient-18" x1="93.77" y1="354.15" x2="131.96" y2="354.15" xlink:href="#linear-gradient"/>
    <linearGradient id="linear-gradient-19" x1="70.3" y1="375.62" x2="122.19" y2="375.62" xlink:href="#linear-gradient"/>
    <linearGradient id="linear-gradient-20" x1="74.37" y1="359.74" x2="118.12" y2="359.74" xlink:href="#linear-gradient"/>
    <linearGradient id="linear-gradient-21" x1="99.17" y1="90.56" x2="135.37" y2="90.56" xlink:href="#linear-gradient"/>
    <linearGradient id="linear-gradient-22" x1="105.49" y1="85.03" x2="127.39" y2="85.03" xlink:href="#linear-gradient"/>
    <linearGradient id="linear-gradient-23" x1="115.56" y1="89.94" x2="127.39" y2="89.94" xlink:href="#linear-gradient"/>
    <linearGradient id="linear-gradient-24" x1="105.48" y1="89.94" x2="114.2" y2="89.94" xlink:href="#linear-gradient"/>
    <linearGradient id="linear-gradient-25" x1="105.48" y1="94.85" x2="127.39" y2="94.85" xlink:href="#linear-gradient"/>
    <linearGradient id="linear-gradient-26" x1="122.46" y1="99.77" x2="127.39" y2="99.77" xlink:href="#linear-gradient"/>
    <linearGradient id="linear-gradient-27" x1="105.48" y1="99.77" x2="121.17" y2="99.77" xlink:href="#linear-gradient"/>
    <linearGradient id="linear-gradient-28" x1="105.48" y1="104.68" x2="127.39" y2="104.68" xlink:href="#linear-gradient"/>
    <linearGradient id="linear-gradient-29" x1="390.03" y1="331.46" x2="429.4" y2="331.46" xlink:href="#linear-gradient"/>
    <linearGradient id="linear-gradient-30" x1="423.17" y1="114.98" x2="485.28" y2="114.98" xlink:href="#linear-gradient"/>
    <linearGradient id="linear-gradient-31" x1="428.04" y1="95.96" x2="480.41" y2="95.96" xlink:href="#linear-gradient"/>
    <linearGradient id="linear-gradient-32" x1="449" y1="113.27" x2="459.44" y2="113.27" xlink:href="#linear-gradient"/>
    <linearGradient id="linear-gradient-33" x1="453.25" y1="83.04" x2="455.2" y2="83.04" xlink:href="#linear-gradient"/>
    <linearGradient id="linear-gradient-34" x1="459.84" y1="78.7" x2="486.9" y2="78.7" xlink:href="#linear-gradient"/>
    <linearGradient id="linear-gradient-35" x1="229.43" y1="219.8" x2="288.05" y2="219.8" xlink:href="#linear-gradient"/>
    <linearGradient id="linear-gradient-36" x1="241.71" y1="215.1" x2="292.83" y2="215.1" xlink:href="#linear-gradient"/>
    <linearGradient id="linear-gradient-37" x1="441.98" y1="95.96" x2="450.34" y2="95.96" gradientTransform="translate(56.95 -142.32) rotate(19.34)" xlink:href="#linear-gradient"/>
    <linearGradient id="linear-gradient-38" x1="436.72" y1="95.96" x2="455.6" y2="95.96" xlink:href="#linear-gradient"/>
  </defs>
  <title>security_illustration</title>
  <g style="isolation: isolate">
    <g id="Layer_2" data-name="Layer 2">
      <g id="Layer_31" data-name="Layer 31">
        <g>
          <g id="_Group_" data-name="&lt;Group&gt;">
            <g id="_Group_2" data-name="&lt;Group&gt;">
              <g id="_Group_3" data-name="&lt;Group&gt;" style="mix-blend-mode: color-dodge">
                <path id="_Compound_Path_" data-name="&lt;Compound Path&gt;" d="M170.46,119.83l-.86.83a136.74,136.74,0,0,0-31.07,45.54c-1.13,2.64-2.16,5.27-3.05,7.94a137.33,137.33,0,0,0-5.35,19.78,135.92,135.92,0,0,0,5.25,71c.72,2.35,1.63,4.67,2.57,7a130,130,0,0,0,6.15,13.09,136.7,136.7,0,0,0,68.14,62c.9.38,1.78.71,2.65,1a119.33,119.33,0,0,0,12.83,4.39A138.24,138.24,0,0,0,382.38,293.4a135.47,135.47,0,0,0,7.89-14.34c.92-1.93,1.83-3.9,2.67-5.92a140.29,140.29,0,0,0,9-31.27,136.32,136.32,0,0,0-.8-48.79,138.62,138.62,0,0,0-6-21.12c-.54-1.46-1.14-2.95-1.71-4.42a137.06,137.06,0,0,0-50.6-62.29l-15.57,24.43A109.87,109.87,0,0,1,374.69,238a110.72,110.72,0,0,1-9.32,30,103.55,103.55,0,0,1-8.08,14.22,109.79,109.79,0,0,1-122,44.08,99.35,99.35,0,0,1-12.77-4.61A109.55,109.55,0,0,1,168,270.16,112.31,112.31,0,0,1,163.17,259c-1.16-3.14-2.15-6.29-3-9.44a108.2,108.2,0,0,1-2.52-45.37,106.44,106.44,0,0,1,5-19.9,109.93,109.93,0,0,1,19.16-33.69c1.69-2.09,3.49-4.1,5.39-6l-11.14-30.17Z" fill="#fff" opacity="0.6"/>
              </g>
            </g>
          </g>
          <path id="_Path_" data-name="&lt;Path&gt;" d="M304.23,323.93a109.13,109.13,0,0,0,53.07-41.72l25.09,11.2,18.73,8.32,37,16.44A180.52,180.52,0,0,1,210.55,411.4L222,371.88l5.72-19.55,7.55-26A109.19,109.19,0,0,0,304.23,323.93Z" fill="#fff" opacity="0.45"/>
          <path id="_Path_2" data-name="&lt;Path&gt;" d="M168,270.16a109.55,109.55,0,0,0,54.51,51.52l-7.62,26.26-5.73,19.65L202.66,390a180.21,180.21,0,0,1-95.08-82.54l18.91-11.67,17.61-10.9Z" fill="#fff" opacity="0.45"/>
          <path id="_Path_3" data-name="&lt;Path&gt;" d="M203.56,51.36a180.74,180.74,0,0,1,232.15,107,183.9,183.9,0,0,1,7.38,25.53,180.5,180.5,0,0,1-12.91,113l-21.28-9.48-18.63-8.26L365.37,268a110.72,110.72,0,0,0,9.32-30,109.83,109.83,0,0,0-96.52-126.26c-2.33-.29-4.7-.49-7-.6a110.19,110.19,0,0,0-83.93,33.39c-1.89,1.95-3.69,4-5.39,6a109.93,109.93,0,0,0-19.16,33.69l-27.19-10.13-19.72-7.37L96.2,159.51A180.4,180.4,0,0,1,203.56,51.36Z" fill="#fff" opacity="0.45"/>
          <path id="_Path_4" data-name="&lt;Path&gt;" d="M48.53,163.49l61.66,23,19.93,7.41,27.52,10.25a108.2,108.2,0,0,0,2.52,45.37l-24.79,15.33-18,11.14-57.51,35.5a180.27,180.27,0,0,1-11.35-148Z" fill="#fff" opacity="0.45"/>
          <path id="_Path_5" data-name="&lt;Path&gt;" d="M249.53.68A222.79,222.79,0,0,1,387.38,35.51L365.45,69.89,342.9,105.25l-15.57,24.43a110.35,110.35,0,0,0-49.16-17.94c-2.33-.29-4.7-.49-7-.6a110,110,0,0,0-12.18.15l-6-70.69Z" fill="#fff" opacity="0.45"/>
          <g opacity="0.2">
            <path d="M265.86,351.47c-72.24,0-131-58.77-131-131s58.77-131,131-131,131,58.77,131,131S338.1,351.47,265.86,351.47Zm0-259.25A128.23,128.23,0,1,0,394.09,220.45,128.38,128.38,0,0,0,265.86,92.22Z" fill="#fff"/>
          </g>
          <g opacity="0.2">
            <path d="M233.36,332.85a117.81,117.81,0,0,1-60.53-41.48,115.9,115.9,0,0,1-23.94-70.91A117,117,0,0,1,334,125.34l-1.79,2.49A113.92,113.92,0,0,0,152,220.45,114.42,114.42,0,0,0,234.21,329.9Z" fill="#fff"/>
          </g>
          <circle cx="409.58" cy="333.33" r="35.51" fill="#fff"/>
          <circle cx="454.19" cy="98.32" r="56.97" fill="#fff"/>
          <circle cx="540.5" cy="252.39" r="4.44" fill="#f58522"/>
          <path d="M60.38,147.46a.8.8,0,0,0,.38-.95l-.35-1a.8.8,0,0,0-.89-.51l-.66.13a1.17,1.17,0,0,1-1.07-.41l-.77-.86a1.16,1.16,0,0,1-.29-1.1l.2-.63a.8.8,0,0,0-.4-.94l-.95-.46a.8.8,0,0,0-1,.27l-.37.56a1.17,1.17,0,0,1-1,.46L52.05,142a1.17,1.17,0,0,1-1-.58l-.29-.56a.8.8,0,0,0-.95-.38l-1,.35a.8.8,0,0,0-.51.89l.12.63a1.17,1.17,0,0,1-.41,1.07l-.86.77a1.16,1.16,0,0,1-1.1.29l-.61-.2a.8.8,0,0,0-.94.4l-.45.95a.8.8,0,0,0,.27,1l.54.36a1.17,1.17,0,0,1,.46,1l-.06,1.14a1.17,1.17,0,0,1-.58,1l-.61.32a.8.8,0,0,0-.38.95l.35,1a.8.8,0,0,0,.89.5l.67-.13a1.17,1.17,0,0,1,1.07.41l.75.85a1.17,1.17,0,0,1,.29,1.1l-.21.66a.8.8,0,0,0,.4.94l.95.45a.8.8,0,0,0,1-.27l.38-.57a1.16,1.16,0,0,1,1-.46l1.16.06a1.17,1.17,0,0,1,1,.58l.3.58a.8.8,0,0,0,.95.38l1-.35a.8.8,0,0,0,.51-.89l-.13-.64a1.18,1.18,0,0,1,.41-1.07l.86-.76a1.16,1.16,0,0,1,1.1-.29l.61.19a.8.8,0,0,0,.94-.4l.45-.95a.8.8,0,0,0-.27-1l-.53-.36a1.17,1.17,0,0,1-.46-1l.06-1.15a1.17,1.17,0,0,1,.58-1Z" fill="#f58524"/>
          <path d="M100,165.86l-1.55-.22a2.75,2.75,0,0,1-2-1.73l-1-2.5a2.73,2.73,0,0,1,.21-2.67l.94-1.24a1.88,1.88,0,0,0-.17-2.39l-1.74-1.74a1.88,1.88,0,0,0-2.39-.17l-1.26.94a2.74,2.74,0,0,1-2.67.21l-2.48-1a2.75,2.75,0,0,1-1.73-2l-.21-1.48a1.88,1.88,0,0,0-1.8-1.57H79.65a1.89,1.89,0,0,0-1.81,1.57l-.21,1.48a2.76,2.76,0,0,1-1.73,2l-2.51,1a2.72,2.72,0,0,1-2.67-.21l-1.21-.91a1.88,1.88,0,0,0-2.39.17l-1.74,1.74a1.89,1.89,0,0,0-.17,2.39l.91,1.21a2.74,2.74,0,0,1,.21,2.67l-1,2.47a2.76,2.76,0,0,1-2,1.73l-1.59.23a1.89,1.89,0,0,0-1.57,1.81v2.46a1.88,1.88,0,0,0,1.57,1.8l1.59.22a2.75,2.75,0,0,1,2,1.73l1,2.46a2.74,2.74,0,0,1-.21,2.67l-1,1.3a1.89,1.89,0,0,0,.17,2.39l1.74,1.74a1.88,1.88,0,0,0,2.39.17l1.28-1a2.73,2.73,0,0,1,2.67-.21l2.51,1a2.75,2.75,0,0,1,1.73,2l.21,1.51a1.88,1.88,0,0,0,1.8,1.57h2.46A1.89,1.89,0,0,0,83.92,188l.21-1.51a2.76,2.76,0,0,1,1.73-2l2.49-1a2.73,2.73,0,0,1,2.67.21l1.2.91a1.88,1.88,0,0,0,2.39-.17l1.74-1.74a1.89,1.89,0,0,0,.17-2.39L95.62,179a2.74,2.74,0,0,1-.21-2.67l1-2.5a2.75,2.75,0,0,1,2-1.73l1.55-.22a1.88,1.88,0,0,0,1.57-1.8v-2.46A1.89,1.89,0,0,0,100,165.86Zm-19.16,8a5,5,0,1,1,5-5A5,5,0,0,1,80.88,173.89Z" fill="#fff"/>
          <path d="M225.56,426.79l-.23-.9a1.63,1.63,0,0,1,.49-1.51l1.14-1.13a1.61,1.61,0,0,1,1.51-.48l.89.24a1.12,1.12,0,0,0,1.27-.63l.57-1.35a1.12,1.12,0,0,0-.44-1.35l-.8-.48a1.62,1.62,0,0,1-.71-1.42v-1.59a1.63,1.63,0,0,1,.73-1.41l.76-.44a1.11,1.11,0,0,0,.46-1.34l-.55-1.35a1.12,1.12,0,0,0-1.26-.64l-.86.22a1.63,1.63,0,0,1-1.51-.49l-1.13-1.14a1.61,1.61,0,0,1-.48-1.51l.23-.86A1.11,1.11,0,0,0,225,406l-1.35-.57a1.12,1.12,0,0,0-1.35.44l-.46.77a1.62,1.62,0,0,1-1.42.71h-1.58a1.63,1.63,0,0,1-1.41-.73l-.48-.82a1.12,1.12,0,0,0-1.34-.45l-1.35.55a1.11,1.11,0,0,0-.64,1.26l.23.92a1.63,1.63,0,0,1-.49,1.51l-1.12,1.1a1.62,1.62,0,0,1-1.51.48l-.93-.24a1.12,1.12,0,0,0-1.27.63l-.57,1.35a1.11,1.11,0,0,0,.44,1.34l.82.49a1.62,1.62,0,0,1,.71,1.41v1.61a1.63,1.63,0,0,1-.73,1.41l-.78.45a1.11,1.11,0,0,0-.46,1.34l.55,1.35a1.12,1.12,0,0,0,1.26.64l.88-.22a1.63,1.63,0,0,1,1.51.49l1.12,1.14a1.62,1.62,0,0,1,.48,1.51l-.23.86a1.11,1.11,0,0,0,.63,1.27l1.34.56a1.12,1.12,0,0,0,1.35-.44l.46-.77a1.62,1.62,0,0,1,1.42-.71h1.6a1.63,1.63,0,0,1,1.41.73l.47.8a1.11,1.11,0,0,0,1.34.46l1.35-.55A1.12,1.12,0,0,0,225.56,426.79Zm-8.69-8.7a3,3,0,1,1,3.86,1.62A3,3,0,0,1,216.87,418.09Z" fill="none" stroke="#f58523" stroke-miterlimit="10" stroke-width="1.58" opacity="0.3"/>
          <path d="M100,165.86l-1.55-.22a2.75,2.75,0,0,1-2-1.73l-1-2.5a2.73,2.73,0,0,1,.21-2.67l.94-1.24a1.88,1.88,0,0,0-.17-2.39l-1.74-1.74a1.88,1.88,0,0,0-2.39-.17l-1.26.94a2.74,2.74,0,0,1-2.67.21l-2.48-1a2.75,2.75,0,0,1-1.73-2l-.21-1.48a1.88,1.88,0,0,0-1.8-1.57H79.65a1.89,1.89,0,0,0-1.81,1.57l-.21,1.48a2.76,2.76,0,0,1-1.73,2l-2.51,1a2.72,2.72,0,0,1-2.67-.21l-1.21-.91a1.88,1.88,0,0,0-2.39.17l-1.74,1.74a1.89,1.89,0,0,0-.17,2.39l.91,1.21a2.74,2.74,0,0,1,.21,2.67l-1,2.47a2.76,2.76,0,0,1-2,1.73l-1.59.23a1.89,1.89,0,0,0-1.57,1.81v2.46a1.88,1.88,0,0,0,1.57,1.8l1.59.22a2.75,2.75,0,0,1,2,1.73l1,2.46a2.74,2.74,0,0,1-.21,2.67l-1,1.3a1.89,1.89,0,0,0,.17,2.39l1.74,1.74a1.88,1.88,0,0,0,2.39.17l1.28-1a2.73,2.73,0,0,1,2.67-.21l2.51,1a2.75,2.75,0,0,1,1.73,2l.21,1.51a1.88,1.88,0,0,0,1.8,1.57h2.46A1.89,1.89,0,0,0,83.92,188l.21-1.51a2.76,2.76,0,0,1,1.73-2l2.49-1a2.73,2.73,0,0,1,2.67.21l1.2.91a1.88,1.88,0,0,0,2.39-.17l1.74-1.74a1.89,1.89,0,0,0,.17-2.39L95.62,179a2.74,2.74,0,0,1-.21-2.67l1-2.5a2.75,2.75,0,0,1,2-1.73l1.55-.22a1.88,1.88,0,0,0,1.57-1.8v-2.46A1.89,1.89,0,0,0,100,165.86Zm-19.16,8a5,5,0,1,1,5-5A5,5,0,0,1,80.88,173.89Z" stroke="#fff" stroke-miterlimit="10" stroke-width="2" fill="url(#linear-gradient)"/>
          <circle cx="50.24" cy="146.95" r="3.29" transform="translate(-45.83 24.93) rotate(-19.34)" fill="none" stroke="#fff" stroke-miterlimit="10" stroke-width="1.5"/>
          <path d="M58.38,145.46a.8.8,0,0,0,.38-.95l-.35-1a.8.8,0,0,0-.89-.51l-.66.13a1.17,1.17,0,0,1-1.07-.41l-.77-.86a1.16,1.16,0,0,1-.29-1.1l.2-.63a.8.8,0,0,0-.4-.94l-.95-.46a.8.8,0,0,0-1,.27l-.37.56a1.17,1.17,0,0,1-1,.46L50.05,140a1.17,1.17,0,0,1-1-.58l-.29-.56a.8.8,0,0,0-.95-.38l-1,.35a.8.8,0,0,0-.51.89l.12.63a1.17,1.17,0,0,1-.41,1.07l-.86.77a1.16,1.16,0,0,1-1.1.29l-.61-.2a.8.8,0,0,0-.94.4l-.45.95a.8.8,0,0,0,.27,1l.54.36a1.17,1.17,0,0,1,.46,1l-.06,1.14a1.17,1.17,0,0,1-.58,1l-.61.32a.8.8,0,0,0-.38.95l.35,1a.8.8,0,0,0,.89.5l.67-.13a1.17,1.17,0,0,1,1.07.41l.75.85a1.17,1.17,0,0,1,.29,1.1l-.21.66a.8.8,0,0,0,.4.94l.95.45a.8.8,0,0,0,1-.27l.38-.57a1.16,1.16,0,0,1,1-.46l1.16.06a1.17,1.17,0,0,1,1,.58l.3.58a.8.8,0,0,0,.95.38l1-.35a.8.8,0,0,0,.51-.89l-.13-.64a1.18,1.18,0,0,1,.41-1.07l.86-.76a1.16,1.16,0,0,1,1.1-.29l.61.19a.8.8,0,0,0,.94-.4l.45-.95a.8.8,0,0,0-.27-1l-.53-.36a1.17,1.17,0,0,1-.46-1l.06-1.15a1.17,1.17,0,0,1,.58-1Z" fill="none" stroke="#fff" stroke-miterlimit="10" stroke-width="1.5"/>
          <path d="M335.18,187.29a8.32,8.32,0,0,0-1.07-2.51c-.49-.76-1.31-1.71-2.3-1.71a22,22,0,0,1-22-22,2.12,2.12,0,0,0-2.12-2.12H227.22a2.12,2.12,0,0,0-2.12,2.12,22,22,0,0,1-22,22c-1.22,0-2,1.16-2.56,2.11a8.2,8.2,0,0,0-1,4c.05,31.65.13,79.47,64.55,114.87a7.13,7.13,0,0,0,6.8,0c64.41-35.4,64.5-83.23,64.55-114.88A8,8,0,0,0,335.18,187.29Z" fill="#fff" opacity="0.6"/>
          <path d="M329.05,180.85a8.32,8.32,0,0,0-1.07-2.51c-.49-.76-1.31-1.71-2.3-1.71a22,22,0,0,1-22-22,2.12,2.12,0,0,0-2.12-2.12H221.1a2.12,2.12,0,0,0-2.12,2.12,22,22,0,0,1-22,22c-1.22,0-2,1.16-2.56,2.11a8.2,8.2,0,0,0-1,4c.05,31.65.13,79.47,64.55,114.87a7.13,7.13,0,0,0,6.8,0c64.41-35.4,64.5-83.23,64.55-114.88A8,8,0,0,0,329.05,180.85ZM262.78,294a3,3,0,0,1-2.88,0c-62.31-34.25-62.39-80.62-62.44-111.31a2.48,2.48,0,0,1,.65-1.79c.6-.58,1.42-.48,2.17-.64s1.3-.29,1.94-.45a38.74,38.74,0,0,0,6.71-2.32,25,25,0,0,0,8.94-6.66,22.58,22.58,0,0,0,4.26-8.3,30.74,30.74,0,0,0,1-5.81h76.41c-.06,0,.56,4,.64,4.34a25.42,25.42,0,0,0,1.35,4.32,21.93,21.93,0,0,0,2.26,4.12,21.69,21.69,0,0,0,3.36,3.76,25.28,25.28,0,0,0,4.65,3.25,34.06,34.06,0,0,0,6.13,2.58q1.63.52,3.29.9.89.21,1.78.38l.9.17a1.21,1.21,0,0,1,1,.68,3,3,0,0,1,.3,1.45C325.16,213.43,325.09,259.8,262.78,294Z" fill="#fff"/>
          <path d="M315.77,189.61a6.69,6.69,0,0,0-.86-2c-.39-.61-1.05-1.37-1.85-1.37a17.69,17.69,0,0,1-17.67-17.67,1.7,1.7,0,0,0-1.71-1.71H229a1.7,1.7,0,0,0-1.71,1.71,17.69,17.69,0,0,1-17.67,17.67c-1,0-1.63.93-2.06,1.7a6.59,6.59,0,0,0-.84,3.21c0,25.44.11,63.88,51.88,92.34a5.73,5.73,0,0,0,5.47,0c51.78-28.46,51.84-66.9,51.88-92.34A6.4,6.4,0,0,0,315.77,189.61Z" fill="#fff"/>
          <path d="M262.49,280.6a2.4,2.4,0,0,1-2.31,0C210.09,253.07,210,215.8,210,191.13a2,2,0,0,1,.52-1.44c.48-.47,1.14-.39,1.75-.51s1-.23,1.56-.36a31.14,31.14,0,0,0,5.39-1.86,20.06,20.06,0,0,0,7.18-5.35,18.15,18.15,0,0,0,3.42-6.68,24.71,24.71,0,0,0,.81-4.67H292s.45,3.2.51,3.49a20.43,20.43,0,0,0,1.09,3.47,17.63,17.63,0,0,0,1.81,3.31,17.43,17.43,0,0,0,2.7,3,20.32,20.32,0,0,0,3.73,2.61,27.38,27.38,0,0,0,4.93,2.08q1.31.41,2.65.73l1.43.31.73.14a1,1,0,0,1,.82.55,2.42,2.42,0,0,1,.24,1.16C312.64,215.8,312.58,253.07,262.49,280.6Z" fill="#fff"/>
          <circle cx="86.08" cy="394.53" r="4.23" fill="none" stroke="#f58524" stroke-linecap="round" stroke-linejoin="round" stroke-width="2" opacity="0.7"/>
          <g>
            <line x1="179.07" y1="322.32" x2="237.79" y2="322.32" fill="none" stroke="#fff" stroke-linecap="round" stroke-linejoin="round" stroke-width="1.4" stroke-dasharray="2.88 3.85"/>
            <polyline points="239.71 322.32 241.11 322.32 241.98 321.23" fill="none" stroke="#fff" stroke-linecap="round" stroke-linejoin="round" stroke-width="1.4"/>
            <line x1="244.64" y1="317.93" x2="247.96" y2="313.8" fill="none" stroke="#fff" stroke-linecap="round" stroke-linejoin="round" stroke-width="1.4" stroke-dasharray="3.18 4.24"/>
            <line x1="249.29" y1="312.14" x2="250.17" y2="311.06" fill="none" stroke="#fff" stroke-linecap="round" stroke-linejoin="round" stroke-width="1.4"/>
          </g>
          <circle cx="173.96" cy="322.32" r="2.97" fill="#fff"/>
          <circle cx="250.17" cy="311.06" r="2.97" fill="#fff"/>
          <g>
            <line x1="326.76" y1="268.66" x2="328.16" y2="268.66" fill="none" stroke="#fff" stroke-linecap="round" stroke-linejoin="round" stroke-width="1.4"/>
            <line x1="332" y1="268.66" x2="370.46" y2="268.66" fill="none" stroke="#fff" stroke-linecap="round" stroke-linejoin="round" stroke-width="1.4" stroke-dasharray="2.88 3.85"/>
            <polyline points="372.38 268.66 373.77 268.66 374.65 269.75" fill="none" stroke="#fff" stroke-linecap="round" stroke-linejoin="round" stroke-width="1.4"/>
            <line x1="377.31" y1="273.06" x2="380.63" y2="277.19" fill="none" stroke="#fff" stroke-linecap="round" stroke-linejoin="round" stroke-width="1.4" stroke-dasharray="3.18 4.24"/>
            <line x1="381.96" y1="278.84" x2="382.83" y2="279.93" fill="none" stroke="#fff" stroke-linecap="round" stroke-linejoin="round" stroke-width="1.4"/>
          </g>
          <circle cx="326.27" cy="268.66" r="2.97" fill="#fff"/>
          <circle cx="382.83" cy="279.93" r="2.97" fill="#fff"/>
          <g>
            <line x1="359.06" y1="121.89" x2="293.94" y2="121.89" fill="none" stroke="#fff" stroke-linecap="round" stroke-linejoin="round" stroke-width="1.4" stroke-dasharray="2.88 3.85"/>
            <polyline points="292.02 121.89 290.63 121.89 289.75 122.98" fill="none" stroke="#fff" stroke-linecap="round" stroke-linejoin="round" stroke-width="1.4"/>
            <line x1="287.09" y1="126.28" x2="283.77" y2="130.41" fill="none" stroke="#fff" stroke-linecap="round" stroke-linejoin="round" stroke-width="1.4" stroke-dasharray="3.18 4.24"/>
            <line x1="282.44" y1="132.06" x2="281.57" y2="133.15" fill="none" stroke="#fff" stroke-linecap="round" stroke-linejoin="round" stroke-width="1.4"/>
          </g>
          <circle cx="364.8" cy="121.89" r="2.97" fill="#fff"/>
          <circle cx="281.57" cy="133.15" r="2.97" fill="#fff"/>
          <circle cx="450.16" cy="341.42" r="3.13" fill="none" stroke="#fff" stroke-linecap="round" stroke-linejoin="round" stroke-width="2"/>
          <circle cx="401.83" cy="198.92" r="3.13" fill="none" stroke="#f58523" stroke-linecap="round" stroke-linejoin="round" stroke-width="1.4" opacity="0.2"/>
          <circle cx="64.67" cy="54.27" r="3.69" fill="none" stroke="#f58523" stroke-linecap="round" stroke-linejoin="round" stroke-width="1.64" opacity="0.2"/>
          <circle cx="5.92" cy="340.52" r="4.84" fill="none" stroke="#f58524" stroke-linecap="round" stroke-linejoin="round" stroke-width="2.16" opacity="0.2"/>
          <circle cx="535.83" cy="325.43" r="4.85" fill="none" stroke="#f58524" stroke-linecap="round" stroke-linejoin="round" stroke-width="2.16" opacity="0.2"/>
          <circle cx="535.67" cy="35.27" r="4.69" fill="none" stroke="#f58524" stroke-linecap="round" stroke-linejoin="round" stroke-width="2.09" opacity="0.2"/>
          <circle cx="560" cy="43.6" r="3.02" fill="none" stroke="#f58524" stroke-linecap="round" stroke-linejoin="round" stroke-width="1.35" opacity="0.2"/>
          <circle cx="86.13" cy="123.16" r="4.96" fill="none" stroke="#f58524" stroke-linecap="round" stroke-linejoin="round" stroke-width="2.5" opacity="0.2"/>
          <circle cx="264.66" cy="388.06" r="3.13" fill="none" stroke="#fff" stroke-linecap="round" stroke-linejoin="round" stroke-width="1.4" opacity="0.2"/>
          <circle cx="450.04" cy="51.46" r="3.64" fill="none" stroke-linecap="round" stroke-linejoin="round" stroke-width="2.32" stroke="url(#linear-gradient-2)"/>
          <circle cx="328.92" cy="73.84" r="3.13" fill="#fff" stroke="#f58523" stroke-linecap="round" stroke-linejoin="round" stroke-width="1.4" opacity="0.2"/>
          <circle cx="184.83" cy="436.39" r="3.13" fill="none" stroke="#f58523" stroke-linecap="round" stroke-linejoin="round" stroke-width="1.4" opacity="0.2"/>
          <circle cx="105.54" cy="354.07" r="51.21" fill="#fff"/>
          <path d="M51,328.37A60.62,60.62,0,1,1,95.06,414.2" fill="none" stroke="#fff" stroke-linecap="round" stroke-linejoin="round" stroke-width="2.23"/>
          <path d="M141.36,334.66a37.59,37.59,0,0,1-31.16,58.59,37.81,37.81,0,0,1-6.62-.58" fill="none" stroke-linecap="round" stroke-linejoin="round" stroke-width="2" stroke="url(#linear-gradient-3)"/>
          <path d="M392.56,373.13a42.72,42.72,0,1,1,58.06-35.39" fill="none" stroke="#fff" stroke-linecap="round" stroke-linejoin="round" stroke-width="2"/>
          <path d="M457.11,312.24a53,53,0,1,1-81.91-19.87" fill="none" stroke="#fff" stroke-linecap="round" stroke-linejoin="round" stroke-width="2"/>
          <path d="M485.56,131.8a46.61,46.61,0,1,1-39.61-79.72" fill="none" stroke-linecap="round" stroke-linejoin="round" stroke-width="2.32" stroke="url(#linear-gradient-4)"/>
          <path d="M480.71,161.06a65.34,65.34,0,0,1-90.39-85.94" fill="none" stroke="#fff" stroke-linecap="round" stroke-linejoin="round" stroke-width="2.32"/>
          <circle cx="370.17" cy="370.09" r="3.13" fill="#fff"/>
          <circle cx="108.75" cy="229.71" r="4.2" fill="#f58524"/>
          <circle cx="574.99" cy="149.11" r="3.37" fill="#f58524"/>
          <circle cx="484.33" cy="370.77" r="3.37" fill="#f58524"/>
          <circle cx="230.83" cy="22.72" r="3.13" fill="#f58524"/>
          <rect id="_Rectangle_" data-name="&lt;Rectangle&gt;" x="95.7" y="338.93" width="36.86" height="9.19" rx="3.78" ry="3.78" fill="#fff"/>
          <rect id="_Rectangle_2" data-name="&lt;Rectangle&gt;" x="95.39" y="326.44" width="36.86" height="9.19" rx="3.78" ry="3.78" fill="#fff"/>
          <rect id="_Rectangle_3" data-name="&lt;Rectangle&gt;" x="94.43" y="325.23" width="36.86" height="9.19" rx="3.78" ry="3.78" fill="none" stroke-linecap="round" stroke-linejoin="round" stroke-width="1.32" stroke="url(#linear-gradient-5)"/>
          <rect id="_Rectangle_4" data-name="&lt;Rectangle&gt;" x="94.43" y="337.76" width="36.86" height="9.19" rx="3.78" ry="3.78" fill="none" stroke-linecap="round" stroke-linejoin="round" stroke-width="1.32" stroke="url(#linear-gradient-6)"/>
          <g id="_Group_4" data-name="&lt;Group&gt;">
            <rect id="_Rectangle_5" data-name="&lt;Rectangle&gt;" x="99.26" y="330.68" width="21.06" height="1.26" rx="0.57" ry="0.57" fill="url(#linear-gradient-7)"/>
            <g id="_Group_5" data-name="&lt;Group&gt;">
              <circle id="_Ellipse_" data-name="&lt;Ellipse&gt;" cx="124.31" cy="331.32" r="0.64" fill="url(#linear-gradient-8)"/>
              <circle id="_Ellipse_2" data-name="&lt;Ellipse&gt;" cx="128.36" cy="331.32" r="0.64" fill="url(#linear-gradient-9)"/>
            </g>
          </g>
          <g id="_Group_6" data-name="&lt;Group&gt;">
            <rect id="_Rectangle_6" data-name="&lt;Rectangle&gt;" x="99.26" y="342.98" width="21.06" height="1.26" rx="0.57" ry="0.57" fill="url(#linear-gradient-10)"/>
            <g id="_Group_7" data-name="&lt;Group&gt;">
              <circle id="_Ellipse_3" data-name="&lt;Ellipse&gt;" cx="124.31" cy="343.62" r="0.64" fill="url(#linear-gradient-11)"/>
              <circle id="_Ellipse_4" data-name="&lt;Ellipse&gt;" cx="128.36" cy="343.62" r="0.64" fill="url(#linear-gradient-12)"/>
            </g>
          </g>
          <rect id="_Rectangle_7" data-name="&lt;Rectangle&gt;" x="95.7" y="350.83" width="36.86" height="9.19" rx="3.78" ry="3.78" fill="#fff"/>
          <g id="_Group_8" data-name="&lt;Group&gt;">
            <circle id="_Ellipse_5" data-name="&lt;Ellipse&gt;" cx="121.35" cy="355.51" r="0.64" fill="url(#linear-gradient-13)"/>
            <circle id="_Ellipse_6" data-name="&lt;Ellipse&gt;" cx="114.35" cy="355.51" r="0.64" fill="url(#linear-gradient-14)"/>
            <circle id="_Ellipse_7" data-name="&lt;Ellipse&gt;" cx="107.34" cy="355.51" r="0.64" fill="url(#linear-gradient-15)"/>
            <circle id="_Ellipse_8" data-name="&lt;Ellipse&gt;" cx="100.33" cy="355.51" r="0.64" fill="url(#linear-gradient-16)"/>
            <circle id="_Ellipse_9" data-name="&lt;Ellipse&gt;" cx="128.36" cy="355.51" r="0.64" fill="url(#linear-gradient-17)"/>
          </g>
          <rect id="_Rectangle_8" data-name="&lt;Rectangle&gt;" x="94.43" y="349.56" width="36.86" height="9.19" rx="3.78" ry="3.78" fill="none" stroke-linecap="round" stroke-linejoin="round" stroke-width="1.32" stroke="url(#linear-gradient-18)"/>
          <path d="M75.51,378.7a6.27,6.27,0,0,1-3.26-.81V375h50.5v2.85a6.27,6.27,0,0,1-3.26.81Z" fill="#fff"/>
          <path d="M117.43,373.79V347.31a1.63,1.63,0,0,0-1.63-1.63H76.7a1.63,1.63,0,0,0-1.63,1.63v26.47" fill="#fff"/>
          <path d="M117.43,374.79V348.31a1.63,1.63,0,0,0-1.63-1.63H76.7a1.63,1.63,0,0,0-1.63,1.63v26.47" fill="#fff"/>
          <path d="M95.61,361.52V354a.51.51,0,0,0-.54-.46h-13a.51.51,0,0,0-.54.46v7.49" fill="#f58524"/>
          <path d="M105.4,355.34v-.66s-.12,0-.27,0h-6.6c-.15,0-.27,0-.27,0v.66" fill="#f58524"/>
          <path d="M111.78,357.63V357a1.72,1.72,0,0,0-.52,0H98.78a1.72,1.72,0,0,0-.52,0v.66" fill="#f58524"/>
          <path d="M108.07,359.92v-.66a.92.92,0,0,0-.38,0H98.64a.92.92,0,0,0-.38,0v.66" fill="#f58524"/>
          <path d="M103.82,364.85v-.66a4.62,4.62,0,0,0-.86,0H82.37a4.62,4.62,0,0,0-.86,0v.66" fill="#f58524"/>
          <path d="M112,367.14v-.66a8.62,8.62,0,0,0-1.17,0H82.68a8.62,8.62,0,0,0-1.17,0v.66" fill="#f58524"/>
          <path d="M106.95,369.43v-.66a6,6,0,0,0-1,0H82.49a6,6,0,0,0-1,0v.66" fill="#f58524"/>
          <path d="M74.26,377.45a6.27,6.27,0,0,1-3.26-.81v-2.85h50.5v2.85a6.27,6.27,0,0,1-3.26.81Z" fill="none" stroke-linecap="round" stroke-linejoin="round" stroke-width="1.39" stroke="url(#linear-gradient-19)"/>
          <path d="M117.43,373.79V347.31a1.63,1.63,0,0,0-1.63-1.63H76.7a1.63,1.63,0,0,0-1.63,1.63v26.47" fill="none" stroke-linecap="round" stroke-linejoin="round" stroke-width="1.39" stroke="url(#linear-gradient-20)"/>
          <polyline points="99.91 373.79 99.91 374.6 92.58 374.6 92.58 373.79" fill="none" stroke="#fff" stroke-linecap="round" stroke-linejoin="round" stroke-width="1.39"/>
          <circle cx="96.25" cy="348.94" r="0.81" fill="#fff"/>
          <path d="M136.62,115.2V65.91a.87.87,0,0,0-.87-.87H108.36a.88.88,0,0,0-.62.26l-9.56,9.62a.87.87,0,0,0-.25.62V115.2a.87.87,0,0,0,.87.88h37A.87.87,0,0,0,136.62,115.2Z" fill="#fff"/>
          <path d="M134.87,114.33H99.67V75.88L107.49,68V74.6h-5a.87.87,0,1,0,0,1.75h5.87a.88.88,0,0,0,.88-.87V66.78h25.64Z" fill="#fff" stroke-miterlimit="10" stroke="url(#linear-gradient-21)"/>
          <g>
            <path d="M105.49,85a.88.88,0,0,0,.88.88h20.15a.87.87,0,1,0,0-1.75H106.36A.87.87,0,0,0,105.49,85Z" fill="url(#linear-gradient-22)"/>
            <path d="M126.52,89.06H116.44a.87.87,0,1,0,0,1.75h10.08a.87.87,0,1,0,0-1.75Z" fill="url(#linear-gradient-23)"/>
            <path d="M106.36,90.81h7a.87.87,0,1,0,0-1.75h-7a.87.87,0,1,0,0,1.75Z" fill="url(#linear-gradient-24)"/>
            <path d="M126.52,94H106.36a.87.87,0,1,0,0,1.75h20.16a.87.87,0,1,0,0-1.75Z" fill="url(#linear-gradient-25)"/>
            <path d="M126.52,98.89h-3.18a.88.88,0,0,0,0,1.75h3.18a.88.88,0,0,0,0-1.75Z" fill="url(#linear-gradient-26)"/>
            <path d="M106.36,100.64H120.3a.88.88,0,0,0,0-1.75H106.36a.88.88,0,0,0,0,1.75Z" fill="url(#linear-gradient-27)"/>
            <path d="M126.52,103.8H106.36a.87.87,0,1,0,0,1.75h20.16a.87.87,0,1,0,0-1.75Z" fill="url(#linear-gradient-28)"/>
          </g>
          <g>
            <path d="M158.72,93.29l-9.86-8.76a2.62,2.62,0,0,1-.21-3.7l.37-.41a2.63,2.63,0,0,1,3.71-.21L162.58,89a1.68,1.68,0,0,1,.14,2.37l-1.62,1.82A1.68,1.68,0,0,1,158.72,93.29Z" fill="#f58524"/>
            <ellipse cx="132.91" cy="67.78" rx="13.87" ry="13.84" transform="translate(-3.69 7.77) rotate(-3.3)" fill="#f58524" stroke="#fff" stroke-miterlimit="10" stroke-width="1.32"/>
            <path d="M156.89,93.06,147,84.3a2.62,2.62,0,0,1-.21-3.7l.37-.41a2.63,2.63,0,0,1,3.71-.21l9.86,8.76a1.68,1.68,0,0,1,.14,2.37l-1.62,1.82A1.68,1.68,0,0,1,156.89,93.06Z" fill="none" stroke="#fff" stroke-miterlimit="10" stroke-width="1.32"/>
            <line x1="143.23" y1="77.02" x2="147.01" y2="80.38" fill="none" stroke="#fff" stroke-miterlimit="10" stroke-width="1.32"/>
            <line x1="158.69" y1="86.9" x2="154.82" y2="91.23" fill="none" stroke="#fff" stroke-miterlimit="10" stroke-width="1.32"/>
            <path d="M122.74,68.37a10.18,10.18,0,0,0,10.76,9.56" fill="none" stroke="#fff" stroke-linecap="round" stroke-miterlimit="10" stroke-width="1.74"/>
          </g>
          <path id="_Path_6" data-name="&lt;Path&gt;" d="M479.53,234.72h-.78a16.77,16.77,0,0,0-31.14-8.63,10.35,10.35,0,0,0-16.06,8.63h-1.8a7.93,7.93,0,0,0,0,15.85h49.78a7.93,7.93,0,1,0,0-15.85Z" fill="#fff" stroke="#fff" stroke-linecap="round" stroke-linejoin="round" stroke-width="1.5"/>
          <g>
            <path d="M515.34,232.36l-11.3-10a3,3,0,0,1-.25-4.25l.42-.47a3,3,0,0,1,4.25-.25l11.3,10a1.92,1.92,0,0,1,.16,2.72l-1.86,2.09A1.93,1.93,0,0,1,515.34,232.36Z" fill="#f58524"/>
            <ellipse cx="485.76" cy="203.13" rx="15.9" ry="15.86" transform="translate(-10.9 28.34) rotate(-3.3)" fill="#fff" stroke="#fff" stroke-miterlimit="10" stroke-width="1.51"/>
            <path d="M498.29,202.4a12.55,12.55,0,1,0-11.81,13.22A12.55,12.55,0,0,0,498.29,202.4Z" fill="none" stroke="#fff" stroke-miterlimit="10" stroke-width="1.51"/>
            <path d="M513.24,232.1l-11.3-10a3,3,0,0,1-.25-4.25l.42-.47a3,3,0,0,1,4.25-.25l11.3,10a1.92,1.92,0,0,1,.16,2.72L516,231.95A1.93,1.93,0,0,1,513.24,232.1Z" fill="none" stroke="#fff" stroke-miterlimit="10" stroke-width="1.51"/>
            <line x1="497.59" y1="213.72" x2="501.92" y2="217.57" fill="none" stroke="#fff" stroke-miterlimit="10" stroke-width="1.51"/>
            <line x1="515.31" y1="225.04" x2="510.88" y2="230" fill="none" stroke="#fff" stroke-miterlimit="10" stroke-width="1.51"/>
          </g>
          <path d="M490.53,205l-1.6.86-.46-.41a6.87,6.87,0,0,0,.21-2.1,3.28,3.28,0,0,0,1.49-2.61l.51-.58a.73.73,0,0,1,1.09-.06.79.79,0,0,0,1-1.16,2.23,2.23,0,0,0-3,.4h0l-.58-.51h0a2.23,2.23,0,0,0,0-3.07.79.79,0,0,0-1,1.16.73.73,0,0,1,.06,1.09l-.51.58a3.28,3.28,0,0,0-2.42,1.78,6.87,6.87,0,0,0-2.06.45l-.46-.41.67-1.68c.49-1-1-1.48-1.35-.58l-1,2.25c-.09.33-.18.67.17,1h0l.46.41-.51.58-.46-.41a.79.79,0,0,0-1-.05l-2.14,1c-.85.49-.22,1.88.73,1.27l1.49-.74.12.1c-1,1.59-1.57,3.16-.72,4.54l4.55-2.78-2.24,4.84c1.35.58,3-.06,4.42-1.24l.12.1-.67,1.68a.76.76,0,0,0,.94,1c.1-.12.12.1,1.28-2.6.09-.33.18-.67-.17-1l-.46-.41.51-.58.46.41a.79.79,0,0,0,1,.05l2.24-1.12C492.11,205.8,491.49,204.41,490.53,205Z" fill="#f58524"/>
          <path id="_Path_7" data-name="&lt;Path&gt;" d="M428.65,348.36H390.78V317.64a3.07,3.07,0,0,1,3.07-3.07h9.47l2.93,5.28h19.29a3.1,3.1,0,0,1,3.1,3.1Z" fill="#fff" stroke-linecap="round" stroke-linejoin="round" stroke-width="1.5" stroke="url(#linear-gradient-29)"/>
          <path id="_Path_8" data-name="&lt;Path&gt;" d="M431.58,350.36H393.71V324.92a3.07,3.07,0,0,1,3.07-3.07h9.47l2.93,5.28h19.29a3.1,3.1,0,0,1,3.1,3.1Z" fill="#f58524"/>
          <path id="_Compound_Path_2" data-name="&lt;Compound Path&gt;" d="M414.58,337.08V336a3.4,3.4,0,1,0-6.81,0v1.08h-.35v5.6h7.5v-5.6ZM409.31,336a1.87,1.87,0,0,1,3.74,0v1.08h-3.74Z" fill="#fff"/>
          <path d="M428.41,117.68a7.5,7.5,0,0,1-3.9-1V113.3H485v3.41a7.5,7.5,0,0,1-3.9,1Z" fill="#fff" opacity="0.6"/>
          <path d="M479.57,112.78V81.09a2,2,0,0,0-2-2h-46.8a2,2,0,0,0-2,2v31.69" fill="#fff"/>
          <path d="M427.9,117.17a7.5,7.5,0,0,1-3.9-1v-3.41h60.45v3.41a7.5,7.5,0,0,1-3.9,1Z" fill="none" stroke-linecap="round" stroke-linejoin="round" stroke-width="1.67" stroke="url(#linear-gradient-30)"/>
          <path d="M479.57,112.78V81.09a2,2,0,0,0-2-2h-46.8a2,2,0,0,0-2,2v31.69" fill="none" stroke-linecap="round" stroke-linejoin="round" stroke-width="1.67" stroke="url(#linear-gradient-31)"/>
          <polyline points="458.61 112.78 458.61 113.76 449.84 113.76 449.84 112.78" fill="none" stroke-linecap="round" stroke-linejoin="round" stroke-width="1.67" stroke="url(#linear-gradient-32)"/>
          <circle cx="454.22" cy="83.04" r="0.98" fill="url(#linear-gradient-33)"/>
          <path id="_Compound_Path_3" data-name="&lt;Compound Path&gt;" d="M484.95,76.79V73.46a11.81,11.81,0,0,0-10.47-11.87,11.59,11.59,0,0,0-12.7,11.53v3.67H460.6V93.3a2.57,2.57,0,0,0,2.57,2.57h20.4a2.57,2.57,0,0,0,2.57-2.57V76.79ZM467,73.12a6.36,6.36,0,0,1,12.72,0v3.67H467Z" fill="#fff" stroke-miterlimit="10" stroke-width="1.52" stroke="url(#linear-gradient-34)"/>
          <path d="M260.66,250.6A30.83,30.83,0,0,1,248,247.83a31.58,31.58,0,0,1-13.66-11.67,31,31,0,0,1-3.54-25.75,30,30,0,0,1,16.61-18.92,30.93,30.93,0,0,1,26.85,1.23,2.44,2.44,0,1,1-2.35,4.26,26,26,0,0,0-22.55-1,25.09,25.09,0,0,0-13.89,15.87,26.11,26.11,0,0,0,3,21.7c5.64,8.76,16.55,13.62,26.51,11.81a25.87,25.87,0,0,0,18.5-14.13,2.43,2.43,0,0,1,4.39,2.1,30.68,30.68,0,0,1-22,16.82A27.9,27.9,0,0,1,260.66,250.6Z" fill="url(#linear-gradient-35)"/>
          <path d="M258,233.4a2.39,2.39,0,0,1-1.7-.7l-13.87-13.53a2.45,2.45,0,1,1,3.42-3.5L258,227.55l30.67-30.06a2.45,2.45,0,1,1,3.42,3.5L259.72,232.7A2.41,2.41,0,0,1,258,233.4Z" fill="url(#linear-gradient-36)"/>
          <g>
            <circle cx="446.16" cy="95.96" r="3.29" transform="translate(-6.61 153.15) rotate(-19.34)" fill="none" stroke-miterlimit="10" stroke-width="1.78" stroke="url(#linear-gradient-37)"/>
            <path d="M454.3,94.48a.8.8,0,0,0,.38-.95l-.35-1a.8.8,0,0,0-.89-.51l-.66.13a1.17,1.17,0,0,1-1.07-.41l-.77-.86a1.16,1.16,0,0,1-.29-1.1l.2-.63a.8.8,0,0,0-.4-.94l-.95-.46a.8.8,0,0,0-1,.27l-.37.56a1.17,1.17,0,0,1-1,.46L446,89a1.17,1.17,0,0,1-1-.58l-.29-.56a.8.8,0,0,0-.95-.38l-1,.35a.8.8,0,0,0-.51.89l.12.63A1.17,1.17,0,0,1,442,90.4l-.86.77a1.16,1.16,0,0,1-1.1.29l-.61-.2a.8.8,0,0,0-.94.4l-.45.95a.8.8,0,0,0,.27,1l.54.36a1.17,1.17,0,0,1,.46,1l-.06,1.14a1.17,1.17,0,0,1-.58,1l-.61.32a.8.8,0,0,0-.38.95l.35,1a.8.8,0,0,0,.89.5l.67-.13a1.17,1.17,0,0,1,1.07.41l.75.85a1.17,1.17,0,0,1,.29,1.1l-.21.66a.8.8,0,0,0,.4.94l.95.45a.8.8,0,0,0,1-.27l.38-.57a1.16,1.16,0,0,1,1-.46l1.16.06a1.17,1.17,0,0,1,1,.58l.3.58a.8.8,0,0,0,.95.38l1-.35a.8.8,0,0,0,.51-.89l-.13-.64a1.18,1.18,0,0,1,.41-1.07l.86-.76a1.16,1.16,0,0,1,1.1-.29l.61.19a.8.8,0,0,0,.94-.4l.45-.95a.8.8,0,0,0-.27-1l-.53-.36a1.17,1.17,0,0,1-.46-1l.06-1.15a1.17,1.17,0,0,1,.58-1Z" fill="none" stroke-miterlimit="10" stroke-width="1.78" stroke="url(#linear-gradient-38)"/>
          </g>
          <g opacity="0.2">
            <g>
              <rect x="261.24" y="64.09" width="14.11" height="6.33" transform="translate(196.78 334.45) rotate(-89.09)" fill="#fff"/>
              <rect x="256.37" y="367.48" width="14.11" height="6.33" transform="translate(-111.46 628) rotate(-89.07)" fill="#fff"/>
            </g>
            <g>
              <rect x="122.64" y="282.69" width="14.11" height="6.33" transform="translate(-112.73 86.44) rotate(-26.16)" fill="#fff"/>
              <rect x="394.97" y="148.88" width="14.11" height="6.33" transform="translate(-25.86 192.76) rotate(-26.15)" fill="#fff"/>
            </g>
            <g>
              <rect x="117.61" y="271.3" width="14.11" height="6.33" transform="translate(-91.79 64.66) rotate(-21.47)" fill="#fff"/>
              <rect x="399.99" y="160.27" width="14.11" height="6.33" transform="translate(-31.57 160.39) rotate(-21.48)" fill="#fff"/>
            </g>
            <g>
              <rect x="113.8" y="260.4" width="14.11" height="6.33" transform="translate(-72.12 47.16) rotate(-17.09)" fill="#fff"/>
              <rect x="403.81" y="171.18" width="14.11" height="6.33" transform="translate(-33.1 128.53) rotate(-17.1)" fill="#fff"/>
            </g>
            <g>
              <rect x="110.82" y="249.23" width="14.11" height="6.33" transform="translate(-52.71 32.17) rotate(-12.73)" fill="#fff"/>
              <rect x="406.78" y="182.34" width="14.11" height="6.33" transform="translate(-30.69 95.67) rotate(-12.72)" fill="#fff"/>
            </g>
            <g>
              <rect x="108.7" y="237.87" width="14.12" height="6.33" transform="translate(-33.84 19.41) rotate(-8.37)" fill="#fff"/>
              <rect x="408.9" y="193.7" width="14.11" height="6.33" transform="translate(-24.23 62.65) rotate(-8.37)" fill="#fff"/>
            </g>
            <g>
              <rect x="107.46" y="226.38" width="14.11" height="6.33" transform="translate(-15.79 8.58) rotate(-4.01)" fill="#fff"/>
              <rect x="410.15" y="205.19" width="14.11" height="6.33" transform="translate(-13.53 29.64) rotate(-4)" fill="#fff"/>
            </g>
            <g>
              <rect x="110.98" y="210.94" width="6.33" height="14.11" transform="translate(-104.58 330.74) rotate(-89.63)" fill="#fff"/>
              <rect x="414.4" y="212.85" width="6.33" height="14.11" transform="translate(195.13 636.13) rotate(-89.65)" fill="#fff"/>
            </g>
            <g>
              <rect x="111.49" y="199.4" width="6.33" height="14.11" transform="translate(-100.52 303.77) rotate(-85.29)" fill="#fff"/>
              <rect x="413.89" y="224.39" width="6.33" height="14.11" transform="translate(152.11 628.07) rotate(-85.28)" fill="#fff"/>
            </g>
            <g>
              <rect x="112.88" y="187.93" width="6.33" height="14.11" transform="translate(-94.83 278.75) rotate(-80.9)" fill="#fff"/>
              <rect x="412.5" y="235.86" width="6.33" height="14.11" transform="translate(110.21 615.06) rotate(-80.92)" fill="#fff"/>
            </g>
            <g>
              <rect x="115.14" y="176.6" width="6.33" height="14.11" transform="translate(-87.83 255.98) rotate(-76.54)" fill="#fff"/>
              <rect x="410.24" y="247.19" width="6.33" height="14.11" transform="translate(70.04 597.26) rotate(-76.56)" fill="#fff"/>
            </g>
            <g>
              <rect x="118.26" y="165.47" width="6.33" height="14.11" transform="translate(-79.99 235.32) rotate(-72.18)" fill="#fff"/>
              <rect x="407.13" y="258.32" width="6.33" height="14.11" transform="translate(32.07 574.75) rotate(-72.18)" fill="#fff"/>
            </g>
            <g>
              <rect x="122.21" y="154.61" width="6.33" height="14.11" transform="translate(-71.68 216.67) rotate(-67.8)" fill="#fff"/>
              <rect x="403.17" y="269.18" width="6.33" height="14.11" transform="translate(-2.88 548.19) rotate(-67.82)" fill="#fff"/>
            </g>
            <g>
              <rect x="126.98" y="144.08" width="6.33" height="14.11" transform="translate(-63.23 200.02) rotate(-63.45)" fill="#fff"/>
              <rect x="398.41" y="279.71" width="6.33" height="14.11" transform="translate(-34.42 517.86) rotate(-63.46)" fill="#fff"/>
            </g>
            <g>
              <rect x="132.53" y="133.95" width="6.33" height="14.11" transform="translate(-55 184.96) rotate(-59.08)" fill="#fff"/>
              <rect x="392.85" y="289.84" width="6.33" height="14.11" transform="translate(-62.16 484.1) rotate(-59.08)" fill="#fff"/>
            </g>
            <g>
              <rect x="138.84" y="124.27" width="6.33" height="14.11" transform="translate(-47.22 171.39) rotate(-54.72)" fill="#fff"/>
              <rect x="386.54" y="299.52" width="6.33" height="14.11" transform="translate(-85.67 447.58) rotate(-54.71)" fill="#fff"/>
            </g>
            <g>
              <rect x="145.87" y="115.1" width="6.33" height="14.11" transform="translate(-40.11 158.98) rotate(-50.36)" fill="#fff"/>
              <rect x="379.51" y="308.69" width="6.33" height="14.11" transform="translate(-104.63 408.86) rotate(-50.34)" fill="#fff"/>
            </g>
            <g>
              <rect x="153.58" y="106.49" width="6.33" height="14.11" transform="translate(-33.83 147.34) rotate(-45.98)" fill="#fff"/>
              <rect x="371.81" y="317.3" width="6.33" height="14.11" transform="translate(-118.83 368.74) rotate(-46)" fill="#fff"/>
            </g>
            <g>
              <rect x="161.91" y="98.49" width="6.33" height="14.11" transform="translate(-28.43 136.29) rotate(-41.62)" fill="#fff"/>
              <rect x="363.47" y="325.3" width="6.33" height="14.11" transform="translate(-128.2 327.47) rotate(-41.63)" fill="#fff"/>
            </g>
            <g>
              <rect x="170.84" y="91.15" width="6.33" height="14.11" transform="translate(-23.95 125.33) rotate(-37.24)" fill="#fff"/>
              <rect x="354.55" y="332.64" width="6.33" height="14.11" transform="translate(-132.66 285.98) rotate(-37.27)" fill="#fff"/>
            </g>
            <g>
              <rect x="180.3" y="84.51" width="6.33" height="14.11" transform="translate(-20.32 114.31) rotate(-32.89)" fill="#fff"/>
              <rect x="345.09" y="339.28" width="6.33" height="14.11" transform="translate(-132.26 244.65) rotate(-32.89)" fill="#fff"/>
            </g>
            <g>
              <rect x="190.23" y="78.61" width="6.33" height="14.11" transform="translate(-17.42 102.84) rotate(-28.55)" fill="#fff"/>
              <rect x="335.16" y="345.19" width="6.33" height="14.11" transform="translate(-127.17 204.4) rotate(-28.54)" fill="#fff"/>
            </g>
            <g>
              <rect x="200.58" y="73.48" width="6.33" height="14.11" transform="translate(-15.11 90.45) rotate(-24.16)" fill="#fff"/>
              <rect x="324.8" y="350.31" width="6.33" height="14.11" transform="translate(-117.55 165.57) rotate(-24.16)" fill="#fff"/>
            </g>
            <g>
              <rect x="211.3" y="69.15" width="6.33" height="14.11" transform="translate(-13.14 77.1) rotate(-19.79)" fill="#fff"/>
              <rect x="314.09" y="354.64" width="6.33" height="14.11" transform="translate(-103.8 128.91) rotate(-19.81)" fill="#fff"/>
            </g>
            <g>
              <rect x="222.31" y="65.66" width="6.33" height="14.11" transform="matrix(0.96, -0.27, 0.27, 0.96, -11.22, 62.67)" fill="#fff"/>
              <rect x="303.07" y="358.14" width="6.33" height="14.11" transform="translate(-86.14 94.66) rotate(-15.43)" fill="#fff"/>
            </g>
            <g>
              <rect x="233.56" y="63.01" width="6.33" height="14.11" transform="translate(-9.04 46.73) rotate(-11.06)" fill="#fff"/>
              <rect x="291.82" y="360.79" width="6.33" height="14.11" transform="translate(-65.14 63.48) rotate(-11.07)" fill="#fff"/>
            </g>
            <g>
              <rect x="244.03" y="61.33" width="6.33" height="14.11" transform="translate(-6.53 30.9) rotate(-7.06)" fill="#fff"/>
              <rect x="281.35" y="362.46" width="6.33" height="14.11" transform="translate(-43.34 37.85) rotate(-7.07)" fill="#fff"/>
            </g>
            <g>
              <rect x="254.18" y="60.42" width="6.33" height="14.11" transform="translate(-3.38 14.56) rotate(-3.22)" fill="#fff"/>
              <rect x="271.2" y="363.37" width="6.33" height="14.11" transform="translate(-20.33 15.96) rotate(-3.21)" fill="#fff"/>
            </g>
            <g>
              <rect x="246.12" y="366.97" width="14.11" height="6.33" transform="translate(-136.78 591.57) rotate(-85.22)" fill="#fff"/>
              <rect x="271.48" y="64.6" width="14.11" height="6.33" transform="translate(187.7 339.66) rotate(-85.2)" fill="#fff"/>
            </g>
            <g>
              <rect x="233.43" y="365.36" width="14.11" height="6.33" transform="translate(-163.07 543.99) rotate(-80.37)" fill="#fff"/>
              <rect x="284.18" y="66.21" width="14.11" height="6.33" transform="translate(174.1 344.89) rotate(-80.37)" fill="#fff"/>
            </g>
            <g>
              <rect x="220.54" y="362.59" width="14.11" height="6.33" transform="translate(-183.76 493.69) rotate(-75.38)" fill="#fff"/>
              <rect x="297.07" y="68.98" width="14.11" height="6.33" transform="translate(157.62 348.25) rotate(-75.39)" fill="#fff"/>
            </g>
            <g>
              <rect x="206.92" y="358.35" width="14.11" height="6.33" transform="translate(-198.92 438.97) rotate(-70)" fill="#fff"/>
              <rect x="310.69" y="73.22" width="14.11" height="6.33" transform="translate(137.33 348.87) rotate(-70.01)" fill="#fff"/>
            </g>
            <g>
              <rect x="194.61" y="353.25" width="14.11" height="6.33" transform="translate(-206.6 388.41) rotate(-64.98)" fill="#fff"/>
              <rect x="322.99" y="78.32" width="14.11" height="6.33" transform="translate(116.59 346.07) rotate(-64.97)" fill="#fff"/>
            </g>
            <g>
              <rect x="183.29" y="347.37" width="14.11" height="6.33" transform="translate(-208.43 341.15) rotate(-60.15)" fill="#fff"/>
              <rect x="334.32" y="84.2" width="14.11" height="6.33" transform="translate(95.67 339.95) rotate(-60.15)" fill="#fff"/>
            </g>
            <g>
              <rect x="172.49" y="340.56" width="14.11" height="6.33" transform="translate(-205.28 295.85) rotate(-55.33)" fill="#fff"/>
              <rect x="345.11" y="91.02" width="14.11" height="6.33" transform="matrix(0.57, -0.82, 0.82, 0.57, 74.37, 330.23)" fill="#fff"/>
            </g>
            <g>
              <rect x="162.31" y="332.86" width="14.11" height="6.33" transform="translate(-197.64 252.95) rotate(-50.5)" fill="#fff"/>
              <rect x="355.3" y="98.71" width="14.11" height="6.33" transform="translate(53.3 316.74) rotate(-50.51)" fill="#fff"/>
            </g>
            <g>
              <rect x="152.81" y="324.33" width="14.11" height="6.33" transform="translate(-186.14 213.07) rotate(-45.68)" fill="#fff"/>
              <rect x="364.8" y="107.24" width="14.11" height="6.33" transform="translate(33.11 299.4) rotate(-45.7)" fill="#fff"/>
            </g>
            <g>
              <rect x="144.06" y="315.04" width="14.11" height="6.33" transform="translate(-171.35 176.4) rotate(-40.86)" fill="#fff"/>
              <rect x="373.55" y="116.53" width="14.11" height="6.33" transform="translate(14.46 278.21) rotate(-40.87)" fill="#fff"/>
            </g>
            <g>
              <rect x="136.12" y="305.04" width="14.11" height="6.33" transform="translate(-153.95 143.27) rotate(-36.05)" fill="#fff"/>
              <rect x="381.48" y="126.53" width="14.11" height="6.33" transform="translate(-1.91 253.51) rotate(-36.05)" fill="#fff"/>
            </g>
            <g>
              <rect x="129.05" y="294.41" width="14.11" height="6.33" transform="translate(-134.52 113.62) rotate(-31.22)" fill="#fff"/>
              <rect x="388.55" y="137.16" width="14.11" height="6.33" transform="translate(-15.43 225.42) rotate(-31.23)" fill="#fff"/>
            </g>
          </g>
        </g>
      </g>
    </g>
  </g>
</svg>
