<svg xmlns="http://www.w3.org/2000/svg" viewBox="0 0 285.5 285.5"><defs><style>.cls-1{fill:none;}.cls-2{fill:#4c4c4c;}.cls-3{fill:#fff;}.cls-4{fill:#f58523;}.cls-5{fill:#f58524;}</style></defs><title>security</title><g id="Layer_2" data-name="Layer 2"><g id="Layer_9" data-name="Layer 9"><rect class="cls-1" width="285.5" height="285.5"/><path class="cls-2" d="M60.31,75h0l-3.5-.06a1.5,1.5,0,0,1,0-3l3.5.06a1.5,1.5,0,0,1,0,3Z"/><path class="cls-2" d="M49.57,71.81l-7.26-.11a1.5,1.5,0,1,0,0,3l7.26.11h0A1.49,1.49,0,0,0,51,73.34,1.51,1.51,0,0,0,49.57,71.81ZM36.51,73.53a1.49,1.49,0,0,0-2-.57,10.18,10.18,0,0,0-5,6.61,1.49,1.49,0,0,0,1.12,1.8,2,2,0,0,0,.34,0,1.5,1.5,0,0,0,1.46-1.16,7.28,7.28,0,0,1,3.51-4.68A1.49,1.49,0,0,0,36.51,73.53ZM30.74,85.66a1.5,1.5,0,0,0-1.5,1.5v7.27a1.5,1.5,0,0,0,3,0V87.16A1.5,1.5,0,0,0,30.74,85.66Zm0,14.53a1.5,1.5,0,0,0-1.5,1.5V109a1.5,1.5,0,0,0,3,0v-7.27A1.5,1.5,0,0,0,30.74,100.19Z"/><path class="cls-2" d="M199.41,59.47h-3.5a1.5,1.5,0,0,1,0-3h3.5a1.5,1.5,0,0,1,0,3Z"/><path class="cls-2" d="M165.89,110.63a1.5,1.5,0,0,1-1.5-1.5v-6.45a1.5,1.5,0,1,1,3,0v6.45A1.5,1.5,0,0,1,165.89,110.63Zm0-12.91a1.5,1.5,0,0,1-1.5-1.5V89.77a1.5,1.5,0,1,1,3,0v6.45A1.5,1.5,0,0,1,165.89,97.72Zm0-12.91a1.5,1.5,0,0,1-1.5-1.5V76.86a1.5,1.5,0,0,1,3,0v6.45A1.5,1.5,0,0,1,165.89,84.81Zm0-12.91a1.5,1.5,0,0,1-1.5-1.5V66.7a10.22,10.22,0,0,1,.5-3.16,1.5,1.5,0,1,1,2.85.93,7.23,7.23,0,0,0-.35,2.23v3.71A1.5,1.5,0,0,1,165.89,71.91Zm4.41-11.3a1.5,1.5,0,0,1-.75-2.8,10.24,10.24,0,0,1,5.07-1.34h1.93a1.5,1.5,0,0,1,0,3h-1.93a7.22,7.22,0,0,0-3.58.95A1.5,1.5,0,0,1,170.3,60.61Zm19.16-1.14H183a1.5,1.5,0,0,1,0-3h6.45a1.5,1.5,0,0,1,0,3Z"/><path class="cls-2" d="M165.89,120.59a1.5,1.5,0,0,1-1.5-1.5v-3.5a1.5,1.5,0,1,1,3,0v3.5A1.5,1.5,0,0,1,165.89,120.59Z"/><path class="cls-2" d="M220.18,153.62h-3.85a1.5,1.5,0,0,1,0-3h3.85a6.44,6.44,0,0,0,2.49-.5,1.5,1.5,0,1,1,1.16,2.77A9.42,9.42,0,0,1,220.18,153.62Zm-10.85,0h-7a1.5,1.5,0,0,1,0-3h7a1.5,1.5,0,0,1,0,3Zm-14,0h-7a1.5,1.5,0,0,1,0-3h7a1.5,1.5,0,0,1,0,3ZM227.8,148a1.5,1.5,0,0,1-1.43-1.94,6.46,6.46,0,0,0,.28-1.9v-4.63a1.5,1.5,0,0,1,3,0v4.63a9.45,9.45,0,0,1-.41,2.78A1.5,1.5,0,0,1,227.8,148Zm.55-13.95a1.48,1.48,0,0,1-.34,0,1.5,1.5,0,0,1-1.12-1.8,9.14,9.14,0,0,1,5.16-6.23,1.5,1.5,0,1,1,1.22,2.74,6.13,6.13,0,0,0-3.46,4.17A1.5,1.5,0,0,1,228.35,134Zm18.22-5.85h-7a1.5,1.5,0,1,1,0-3h7a1.5,1.5,0,1,1,0,3Zm7-.14a1.5,1.5,0,0,1-.28-3,6.46,6.46,0,0,0,4.46-3.23,1.5,1.5,0,0,1,2.62,1.46,9.45,9.45,0,0,1-6.52,4.72Zm6.48-10.8a1.5,1.5,0,0,1-1.5-1.5v-7a1.5,1.5,0,1,1,3,0v7A1.5,1.5,0,0,1,260,117.24Zm0-14a1.5,1.5,0,0,1-1.5-1.5v-7a1.5,1.5,0,1,1,3,0v7A1.5,1.5,0,0,1,260,103.24Zm0-14a1.5,1.5,0,0,1-1.5-1.5v-7a1.5,1.5,0,1,1,3,0v7A1.5,1.5,0,0,1,260,89.24Zm0-14a1.5,1.5,0,0,1-1.5-1.5v-.25a1.5,1.5,0,0,1,3,0v.25A1.5,1.5,0,0,1,260,75.24Z"/><path class="cls-3" d="M174.82,165.58v27.83H18V119.47A6.48,6.48,0,0,1,24.48,113h92Z"/><path class="cls-2" d="M176.32,194.91H16.52V119.47a8,8,0,0,1,8-8h92.58l59.26,53.41Zm-156.8-3h153.8V166.25L115.9,114.51H24.48a5,5,0,0,0-5,5Z"/><rect class="cls-4" x="37.19" y="127.06" width="66.44" height="3.42" rx="1.71" ry="1.71"/><rect class="cls-4" x="37.19" y="136.17" width="66.44" height="3.42" rx="1.71" ry="1.71"/><rect class="cls-4" x="37.19" y="145.28" width="66.44" height="3.42" rx="1.71" ry="1.71"/><rect class="cls-4" x="37.19" y="154.39" width="37.58" height="3.42" rx="1.71" ry="1.71"/><rect class="cls-4" x="37.19" y="162.75" width="66.06" height="18.82" rx="2.74" ry="2.74"/><path class="cls-5" d="M174.82,193.41V210.2a6.47,6.47,0,0,1-6.46,6.45H24.48A6.48,6.48,0,0,1,18,210.2V193.41Z"/><path class="cls-2" d="M168.36,218.15H24.48a8,8,0,0,1-8-8V191.91h159.8V210.2A8,8,0,0,1,168.36,218.15ZM19.52,194.91V210.2a5,5,0,0,0,5,5H168.36a5,5,0,0,0,5-5V194.91Z"/><path class="cls-2" d="M88.61,76.29a.67.67,0,0,0,0-.55.76.76,0,0,0-.39-.39.58.58,0,0,0-.27,0,.77.77,0,0,0-.7.47c-1.09,2.77-4.92,8.08-8.47,10a.65.65,0,0,0-.35.43.66.66,0,0,0,.08.55.72.72,0,0,0,1,.27C83.53,84.88,87.44,79.3,88.61,76.29Z"/><path class="cls-2" d="M79.13,87.41a1,1,0,0,1-.25,0,1,1,0,0,1-.61-.46.87.87,0,0,1-.1-.72.91.91,0,0,1,.48-.6c3.46-1.9,7.26-7.14,8.35-9.9a1,1,0,0,1,.94-.63.8.8,0,0,1,.38.07,1,1,0,0,1,.51.52.9.9,0,0,1,0,.73c-1.19,3.06-5.18,8.71-9.25,10.91A.86.86,0,0,1,79.13,87.41Zm8.81-11.85a.52.52,0,0,0-.47.32c-1.12,2.83-5,8.2-8.58,10.16a.42.42,0,0,0-.23.26c0,.21,0,.3,0,.35a.5.5,0,0,0,.31.25.44.44,0,0,0,.33,0c4-2.15,7.87-7.66,9-10.66h0a.42.42,0,0,0,0-.34.52.52,0,0,0-.28-.28Z"/><path class="cls-2" d="M88.84,54.85a31.91,31.91,0,0,0-4.61.39.73.73,0,0,0-.59.86.71.71,0,0,0,.82.59,24.16,24.16,0,0,1,4.33-.39c8,0,12.07,4.37,13.43,6.25a.74.74,0,0,0,1,.16.78.78,0,0,0,.31-.47.68.68,0,0,0-.12-.55C102,59.65,97.59,54.85,88.84,54.85Z"/><path class="cls-2" d="M102.83,63.09a1,1,0,0,1-.8-.39c-1.35-1.85-5.33-6.15-13.23-6.15a23.69,23.69,0,0,0-4.29.39,1,1,0,0,1-1.11-.78A1,1,0,0,1,84.19,55a32,32,0,0,1,4.66-.4c8.79,0,13.28,4.85,14.81,6.94a.92.92,0,0,1,.16.74,1,1,0,0,1-.41.62A1,1,0,0,1,102.83,63.09Zm-14-7c8.13,0,12.24,4.44,13.63,6.35a.49.49,0,0,0,.66.1.53.53,0,0,0,.22-.32.43.43,0,0,0-.07-.35c-1.48-2-5.85-6.73-14.4-6.73a31.47,31.47,0,0,0-4.57.39.48.48,0,0,0-.38.57.45.45,0,0,0,.52.39A24.23,24.23,0,0,1,88.8,56Z"/><path class="cls-2" d="M98.45,85.35a.75.75,0,0,0,1-.27,22.12,22.12,0,0,0,1.76-3.83c3.12-9-1.76-16.36-7.93-18.74a14.55,14.55,0,0,0-5.15-1,14.81,14.81,0,0,0-2.62.23A13.92,13.92,0,0,0,76.27,68a.68.68,0,0,0-.12.55.78.78,0,0,0,.31.47.75.75,0,0,0,1-.2,12.4,12.4,0,0,1,8.28-5.66A11.92,11.92,0,0,1,88.1,63a12.37,12.37,0,0,1,4.61.86c5.54,2.19,9.92,8.86,7.11,16.95a26.42,26.42,0,0,1-1.64,3.59A.71.71,0,0,0,98.45,85.35Z"/><path class="cls-2" d="M98.82,85.69a1,1,0,0,1-.49-.12,1,1,0,0,1-.46-.58,1,1,0,0,1,.09-.74,26.19,26.19,0,0,0,1.62-3.56c2.76-7.93-1.53-14.49-7-16.63a12.08,12.08,0,0,0-4.52-.84,11.72,11.72,0,0,0-2.29.23A12.15,12.15,0,0,0,77.69,69a1,1,0,0,1-1.37.26,1,1,0,0,1-.41-.62.92.92,0,0,1,.16-.75,14.14,14.14,0,0,1,9.41-6.38,15.11,15.11,0,0,1,2.66-.24,14.69,14.69,0,0,1,5.24,1c6.28,2.43,11.25,9.93,8.07,19.06a22.41,22.41,0,0,1-1.78,3.87,1,1,0,0,1-.6.46A1,1,0,0,1,98.82,85.69Zm-10.72-23a12.57,12.57,0,0,1,4.7.88c5.65,2.23,10.11,9,7.25,17.26a26.82,26.82,0,0,1-1.66,3.63.47.47,0,0,0,0,.36.46.46,0,0,0,.22.28.52.52,0,0,0,.38,0,.46.46,0,0,0,.29-.22A22,22,0,0,0,101,81.17c3.07-8.83-1.72-16.09-7.78-18.43a14.2,14.2,0,0,0-5.06-1,14.64,14.64,0,0,0-2.57.23,13.66,13.66,0,0,0-9.09,6.18.44.44,0,0,0-.08.36.53.53,0,0,0,.22.32.51.51,0,0,0,.67-.15A12.62,12.62,0,0,1,85.71,63,12.16,12.16,0,0,1,88.1,62.72Z"/><path class="cls-2" d="M85.21,91.13c3.67-2.62,8.16-7.61,9.68-12,1.84-5.31-.82-9.1-4.06-10.39a7.52,7.52,0,0,0-4.14-.39A8.08,8.08,0,0,0,80.88,73a11.2,11.2,0,0,1-5.08,5.74.72.72,0,0,0,.66,1.29,12.58,12.58,0,0,0,5.74-6.48A6.47,6.47,0,0,1,87,69.73a5.58,5.58,0,0,1,1.13-.12,6.43,6.43,0,0,1,2.23.43c2.62,1,4.76,4.14,3.24,8.55-1.44,4.18-5.74,8.86-9.18,11.32a.74.74,0,0,0-.16,1A.67.67,0,0,0,85.21,91.13Z"/><path class="cls-2" d="M84.81,91.51l-.2,0a.89.89,0,0,1-.6-.44,1,1,0,0,1,.23-1.34c3.45-2.47,7.67-7.11,9.09-11.21,1.47-4.26-.57-7.26-3.09-8.24a6.13,6.13,0,0,0-2.14-.41A5.3,5.3,0,0,0,87,70a6.21,6.21,0,0,0-4.58,3.72,12.79,12.79,0,0,1-5.86,6.61.92.92,0,0,1-.74.06,1,1,0,0,1-.57-.48.92.92,0,0,1-.07-.75,1,1,0,0,1,.48-.57,11,11,0,0,0,5-5.62,8.29,8.29,0,0,1,6-4.87,7.76,7.76,0,0,1,4.27.4c3.35,1.33,6.09,5.25,4.21,10.7-1.56,4.51-6.09,9.52-9.77,12.15A.92.92,0,0,1,84.81,91.51ZM88.1,69.36a6.62,6.62,0,0,1,2.31.45c2.74,1.06,5,4.29,3.39,8.87-1.45,4.2-5.76,8.93-9.27,11.44a.49.49,0,0,0-.1.66.42.42,0,0,0,.28.22.43.43,0,0,0,.35-.07h0c3.61-2.58,8.07-7.49,9.59-11.91,1.78-5.14-.78-8.83-3.92-10.07a7.25,7.25,0,0,0-4-.38,7.79,7.79,0,0,0-5.64,4.58A11.46,11.46,0,0,1,75.92,79a.47.47,0,0,0,.43.85A12.3,12.3,0,0,0,82,73.5a6.71,6.71,0,0,1,4.95-4A5.84,5.84,0,0,1,88.1,69.36Z"/><path class="cls-2" d="M119.39,239.56H73.45a2,2,0,0,1,0-4h45.94a2,2,0,0,1,0,4Z"/><path class="cls-2" d="M84.84,239.56a2,2,0,0,1-2-2V217a2,2,0,0,1,4,0v20.56A2,2,0,0,1,84.84,239.56Z"/><path class="cls-2" d="M109.14,239.56a2,2,0,0,1-2-2V217a2,2,0,0,1,4,0v20.56A2,2,0,0,1,109.14,239.56Z"/><circle class="cls-2" cx="97.81" cy="205.9" r="3.04"/><path class="cls-2" d="M68.54,93.89A6.68,6.68,0,0,1,62,88.63,1.5,1.5,0,0,1,65,88a3.67,3.67,0,0,0,3.57,2.89,1.5,1.5,0,0,1,0,3ZM63.39,82.82a1.5,1.5,0,0,1-1.5-1.5v-7a1.5,1.5,0,1,1,3,0v7A1.5,1.5,0,0,1,63.39,82.82Zm0-14a1.5,1.5,0,0,1-1.5-1.5v-7a1.5,1.5,0,1,1,3,0v7A1.5,1.5,0,0,1,63.39,68.82Zm2.33-13.21a1.5,1.5,0,0,1-.83-2.75,6.6,6.6,0,0,1,3.64-1.09h0a1.5,1.5,0,0,1,0,3h0a3.61,3.61,0,0,0-2,.6A1.49,1.49,0,0,1,65.72,55.62Z"/><path class="cls-2" d="M111.78,93.89a1.5,1.5,0,0,1,0-3A3.67,3.67,0,0,0,115.34,88a1.5,1.5,0,1,1,2.93.63A6.68,6.68,0,0,1,111.78,93.89Zm5.15-11.06a1.5,1.5,0,0,1-1.5-1.5v-7a1.5,1.5,0,0,1,3,0v7A1.5,1.5,0,0,1,116.93,82.82Zm0-14a1.5,1.5,0,0,1-1.5-1.5v-7a1.5,1.5,0,0,1,3,0v7A1.5,1.5,0,0,1,116.93,68.82Zm-2.33-13.2a1.49,1.49,0,0,1-.82-.25,3.61,3.61,0,0,0-2-.6,1.5,1.5,0,0,1,0-3,6.6,6.6,0,0,1,3.65,1.09,1.5,1.5,0,0,1-.83,2.75Z"/><path class="cls-3" d="M198.73,106.25a5,5,0,0,0-.65-1.52c-.3-.46-.79-1-1.4-1a13.35,13.35,0,0,1-13.34-13.34,1.29,1.29,0,0,0-1.29-1.29H133.24A1.29,1.29,0,0,0,132,90.35a13.35,13.35,0,0,1-13.34,13.34c-.74,0-1.23.7-1.55,1.28a5,5,0,0,0-.63,2.42c0,19.2.08,48.21,39.15,69.68a4.32,4.32,0,0,0,4.13,0c39.07-21.48,39.12-50.49,39.15-69.68A4.83,4.83,0,0,0,198.73,106.25Z"/><path class="cls-2" d="M199.26,105.89a5.16,5.16,0,0,0-.66-1.56c-.3-.47-.81-1.06-1.43-1.06a13.64,13.64,0,0,1-13.62-13.62,1.31,1.31,0,0,0-1.31-1.31H132.39a1.31,1.31,0,0,0-1.31,1.31,13.64,13.64,0,0,1-13.62,13.62c-.75,0-1.26.72-1.58,1.31a5.08,5.08,0,0,0-.64,2.48c0,19.6.08,49.23,40,71.16a4.41,4.41,0,0,0,4.22,0c39.9-21.93,40-51.55,40-71.16A4.93,4.93,0,0,0,199.26,105.89ZM158.21,176a1.85,1.85,0,0,1-1.78,0c-38.6-21.21-38.65-49.94-38.68-69a1.53,1.53,0,0,1,.4-1.11c.37-.36.88-.3,1.35-.4l1.2-.28a24,24,0,0,0,4.16-1.44,15.46,15.46,0,0,0,5.54-4.12A14,14,0,0,0,133,94.57a19,19,0,0,0,.62-3.6H181s.35,2.47.39,2.69a15.75,15.75,0,0,0,.84,2.68,13.59,13.59,0,0,0,1.4,2.55,13.43,13.43,0,0,0,2.08,2.33,15.66,15.66,0,0,0,2.88,2,21.1,21.1,0,0,0,3.8,1.6q1,.32,2,.56l1.1.24.56.11a.75.75,0,0,1,.63.42,1.86,1.86,0,0,1,.19.9C196.85,126.06,196.81,154.79,158.21,176Z"/><path class="cls-4" d="M158,167.67a1.49,1.49,0,0,1-1.43,0c-31-17.05-31.06-40.14-31.09-55.42a1.23,1.23,0,0,1,.32-.89c.3-.29.71-.24,1.08-.32l1-.22a19.29,19.29,0,0,0,3.34-1.15,12.43,12.43,0,0,0,4.45-3.32,11.24,11.24,0,0,0,2.12-4.14,15.3,15.3,0,0,0,.5-2.9h38a41.17,41.17,0,0,0,1,4.31,21.57,21.57,0,0,0,2.79,3.93,12.59,12.59,0,0,0,2.31,1.62,17,17,0,0,0,3.05,1.29q.81.26,1.64.45l.89.19.45.09a.6.6,0,0,1,.51.34,1.5,1.5,0,0,1,.15.72C189.1,127.53,189.06,150.62,158,167.67Z"/><g id="Rectangle-25"><path class="cls-3" d="M154.37,138.16h-.23a2.33,2.33,0,0,1-1.61-.89l-7.12-9.13a2.33,2.33,0,0,1,3.68-2.87l5.61,7.19,13.59-11.76a2.33,2.33,0,1,1,3.05,3.53L155.89,137.6A2.34,2.34,0,0,1,154.37,138.16Z"/></g><path class="cls-5" d="M197.62,179.07a1.93,1.93,0,0,1,2.43-2.72,4.91,4.91,0,0,0,6.57-3.17,1.93,1.93,0,0,1,3.64-.21,4.91,4.91,0,0,0,6.43,2.62l.45-.22a1.93,1.93,0,0,1,2.72,2.43,4.91,4.91,0,0,0,2.69,6.4l.47.17a1.93,1.93,0,0,1,.21,3.64,4.91,4.91,0,0,0-2.41,6.88,1.93,1.93,0,0,1-2.43,2.72,4.91,4.91,0,0,0-6.57,3.17,1.93,1.93,0,0,1-3.64.21,4.91,4.91,0,0,0-6.43-2.62l-.45.22a1.93,1.93,0,0,1-2.72-2.43,4.91,4.91,0,0,0-2.69-6.4l-.47-.17a1.93,1.93,0,0,1-.21-3.64,4.91,4.91,0,0,0,2.41-6.88Z"/><path class="cls-2" d="M210,203.18a3,3,0,0,1-.83-.12,2.92,2.92,0,0,1-1.88-1.68,3.91,3.91,0,0,0-5.12-2.09l-.36.17a2.94,2.94,0,0,1-4.12-3.68,3.91,3.91,0,0,0-2.14-5.1l-.38-.13a2.93,2.93,0,0,1-.31-5.52,3.91,3.91,0,0,0,1.92-5.48h0a2.94,2.94,0,0,1,3.68-4.12,3.91,3.91,0,0,0,5.1-2.14,4,4,0,0,0,.13-.38,2.94,2.94,0,0,1,5.52-.31,3.91,3.91,0,0,0,5.12,2.09l.36-.17a2.94,2.94,0,0,1,4.12,3.68,3.92,3.92,0,0,0,2.14,5.1l.38.13a2.93,2.93,0,0,1,.31,5.52,3.91,3.91,0,0,0-1.92,5.48,2.94,2.94,0,0,1-3.68,4.13,3.91,3.91,0,0,0-5.1,2.14,3.58,3.58,0,0,0-.13.38,2.94,2.94,0,0,1-2.81,2.11Zm-6.32-6.2a5.93,5.93,0,0,1,5.45,3.62.93.93,0,0,0,.6.53.94.94,0,0,0,.71-.08.93.93,0,0,0,.45-.56,5.91,5.91,0,0,1,7.91-3.81.93.93,0,0,0,1.17-1.31c-.1-.18-.18-.36-.26-.54a5.92,5.92,0,0,1,3.16-7.74.93.93,0,0,0-.1-1.76c-.19-.06-.38-.12-.57-.2a5.92,5.92,0,0,1-3.24-7.71.93.93,0,0,0-1.31-1.17,5.91,5.91,0,0,1-8.28-2.9.93.93,0,0,0-1.76.1,5.89,5.89,0,0,1-3.38,3.79,5.87,5.87,0,0,1-4.52,0,.94.94,0,0,0-1.17,1.31h0a5.91,5.91,0,0,1-2.9,8.28.93.93,0,0,0,.1,1.76,5.7,5.7,0,0,1,.57.2,5.91,5.91,0,0,1,3.24,7.71.93.93,0,0,0,1.31,1.17,6,6,0,0,1,2.83-.73Z"/><circle id="Oval-6" class="cls-3" cx="209.22" cy="186.99" r="4.46" transform="translate(-36.34 322.77) rotate(-70.73)"/><g id="Oval-2"><path class="cls-2" d="M209,192.72a5.63,5.63,0,1,1,5.32-3.77,1,1,0,1,1-1.89-.66,3.63,3.63,0,1,0-2.18,2.21,1,1,0,1,1,.69,1.88A5.62,5.62,0,0,1,209,192.72Z"/></g><g id="Star"><path class="cls-5" d="M226.59,164.51a1.38,1.38,0,0,1,1.73-1.94,3.51,3.51,0,0,0,4.69-2.26,1.38,1.38,0,0,1,2.6-.15,3.51,3.51,0,0,0,4.59,1.87l.32-.16a1.38,1.38,0,0,1,1.94,1.73,3.51,3.51,0,0,0,1.92,4.57l.34.12a1.38,1.38,0,0,1,.15,2.6,3.51,3.51,0,0,0-1.72,4.92,1.38,1.38,0,0,1-1.73,1.94,3.51,3.51,0,0,0-4.69,2.26,1.38,1.38,0,0,1-2.6.15,3.51,3.51,0,0,0-4.59-1.87l-.32.16a1.38,1.38,0,0,1-1.94-1.73,3.51,3.51,0,0,0-1.92-4.57L225,172a1.38,1.38,0,0,1-.15-2.6,3.51,3.51,0,0,0,1.72-4.92Z"/><path class="cls-2" d="M235.41,182a2.38,2.38,0,0,1-2.19-1.46,2.51,2.51,0,0,0-3.28-1.34l-.23.11a2.38,2.38,0,0,1-3.35-3,2.51,2.51,0,0,0-1.37-3.27l-.24-.08a2.38,2.38,0,0,1-.26-4.48,2.51,2.51,0,0,0,1.34-3.28,2.43,2.43,0,0,0-.11-.23h0a2.39,2.39,0,0,1,.95-3.23,2.36,2.36,0,0,1,2-.11,2.51,2.51,0,0,0,3.27-1.37c0-.08.06-.16.08-.24a2.38,2.38,0,0,1,4.48-.25,2.51,2.51,0,0,0,3.28,1.34l.23-.11a2.38,2.38,0,0,1,3.35,3,2.51,2.51,0,0,0,1.37,3.27l.24.08a2.38,2.38,0,0,1,.25,4.48,2.51,2.51,0,0,0-1.34,3.28c0,.08.07.15.11.23a2.38,2.38,0,0,1-3,3.35,2.51,2.51,0,0,0-3.27,1.37,2.32,2.32,0,0,0-.08.24A2.39,2.39,0,0,1,235.41,182Zm-4.51-5a4.52,4.52,0,0,1,4.16,2.76.38.38,0,0,0,.24.22.38.38,0,0,0,.48-.26,4.31,4.31,0,0,1,.15-.44,4.51,4.51,0,0,1,5.88-2.47.38.38,0,0,0,.33,0,.38.38,0,0,0,.15-.52A4.51,4.51,0,0,1,244.5,170a.38.38,0,0,0,.22-.24.38.38,0,0,0-.26-.47l-.43-.15a4.51,4.51,0,0,1-2.47-5.88.38.38,0,0,0-.54-.48l-.42.2a4.51,4.51,0,0,1-5.9-2.41.38.38,0,0,0-.24-.22.39.39,0,0,0-.29,0,.38.38,0,0,0-.18.23c0,.15-.09.29-.15.43a4.52,4.52,0,0,1-5.88,2.47.38.38,0,0,0-.33,0,.38.38,0,0,0-.15.52,4.37,4.37,0,0,1,.2.41,4.51,4.51,0,0,1-2.41,5.9.38.38,0,0,0-.19.54.38.38,0,0,0,.23.18l.44.16a4.51,4.51,0,0,1,2.46,5.87.38.38,0,0,0,0,.33.38.38,0,0,0,.52.15l.42-.2A4.5,4.5,0,0,1,230.91,177Z"/></g><circle id="Oval-6-2" data-name="Oval-6" class="cls-3" cx="234.88" cy="170.17" r="3.65" transform="translate(-3.27 335.72) rotate(-70.73)"/><g id="Oval-2-2" data-name="Oval-2"><path class="cls-2" d="M233.63,174.36a1,1,0,0,1-.33-.06,4.31,4.31,0,1,1,5.49-2.65,1,1,0,1,1-1.89-.66,2.31,2.31,0,1,0-2.94,1.42,1,1,0,0,1-.33,1.94Z"/></g><path class="cls-4" d="M198.87,50.65V87.17l1.77-1.37,5.69-4.32h0a2.84,2.84,0,0,1,1.37-.39H244A7,7,0,0,0,251.09,74V52.62c0-3.73-1.77-5.3-5.5-5.3h-43a3.53,3.53,0,0,0-3.73,3.34Z"/><path class="cls-2" d="M197.37,90.24V50.65a5,5,0,0,1,5.23-4.84h43c4.64,0,7,2.29,7,6.8V74A8.58,8.58,0,0,1,244,82.58H207.71a1.19,1.19,0,0,0-.58.17Zm5.23-41.42a2.05,2.05,0,0,0-2.23,1.84V84.12l5.29-4a4.27,4.27,0,0,1,2-.55H244A5.51,5.51,0,0,0,249.59,74V52.62c0-2.84-1-3.8-4-3.8Z"/><path class="cls-4" d="M213.69,41v1h37.1a5.2,5.2,0,0,1,5.1,5.1V73.22h6.48a5.2,5.2,0,0,0,5.1-5.1V41a5.2,5.2,0,0,0-5.1-5.1H218.79A5.07,5.07,0,0,0,213.69,41Z"/><path class="cls-2" d="M262.38,74.72h-8V47.11a3.7,3.7,0,0,0-3.6-3.6h-38.6V41a6.53,6.53,0,0,1,6.6-6.6h43.58A6.69,6.69,0,0,1,269,41V68.12A6.69,6.69,0,0,1,262.38,74.72Zm-5-3h5a3.7,3.7,0,0,0,3.6-3.6V41a3.7,3.7,0,0,0-3.6-3.6H218.79a3.56,3.56,0,0,0-3.57,3.09h35.57a6.69,6.69,0,0,1,6.6,6.6Z"/><path class="cls-3" d="M235.06,55.74a8.25,8.25,0,0,0-14,8l-1,.88a1,1,0,0,0-.34.73l-.06,1.21-1.21-.06a1,1,0,0,0-1.1,1l-.06,1.21-1.21-.06a1,1,0,0,0-.76.27,1,1,0,0,0-.34.73l-.11,2.26a1.06,1.06,0,0,0,.27.76l2.15,2.37a1.05,1.05,0,0,0,1.48.07l3-2.69a1.05,1.05,0,0,0-1.41-1.56l-2.18,2L217,71.6l0-.78,1.21.06a1,1,0,0,0,.76-.27,1,1,0,0,0,.34-.73l.06-1.21,1.21.06a1,1,0,0,0,.76-.27,1,1,0,0,0,.34-.73l.09-1.83L223,64.84a1.05,1.05,0,0,0,.26-1.18,6.15,6.15,0,1,1,2.75,3,1,1,0,1,0-1,1.85,8.25,8.25,0,0,0,10-12.8Z"/><path class="cls-3" d="M230.73,62.32a2.64,2.64,0,1,0-.13,0Zm.37-2.24h0a.51.51,0,0,1-.4.14.55.55,0,0,1,0-1.1h0a.55.55,0,0,1,.34,1Z"/><path class="cls-3" d="M223.51,68.47a1.08,1.08,0,0,0-.76.27,1.05,1.05,0,0,0-.07,1.48,1,1,0,0,0,.73.34h.05a1,1,0,0,0,.7-.28,1,1,0,0,0-.64-1.82Z"/><path class="cls-2" d="M189.85,110.28a2.65,2.65,0,0,0-1.64-.69l-.18,0-.91-.21A18,18,0,0,1,184,108.3a10.87,10.87,0,0,1-3.92-2.91,9.69,9.69,0,0,1-1.83-3.58,13.89,13.89,0,0,1-.45-2.61l-.11-1.38H136.91l-.11,1.38a13.89,13.89,0,0,1-.45,2.61,9.69,9.69,0,0,1-1.83,3.58,10.87,10.87,0,0,1-3.92,2.91,18,18,0,0,1-3.08,1.06l-.91.21-.18,0a2.65,2.65,0,0,0-1.64.69,2.69,2.69,0,0,0-.78,2c0,15.63.07,39.26,31.87,56.74a3,3,0,0,0,1.44.37h0a3,3,0,0,0,1.44-.37c31.8-17.48,31.84-41.1,31.87-56.74A2.69,2.69,0,0,0,189.85,110.28Zm-32.53,56.07h0c-30-16.5-30.28-38.86-30.3-53.81l.21,0,1-.24a20.92,20.92,0,0,0,3.6-1.25,13.84,13.84,0,0,0,5-3.72,12.67,12.67,0,0,0,2.41-4.69,15.76,15.76,0,0,0,.39-1.8H175a15.76,15.76,0,0,0,.39,1.8,12.67,12.67,0,0,0,2.41,4.69,13.84,13.84,0,0,0,5,3.72,20.92,20.92,0,0,0,3.6,1.25l1,.24.21,0C187.6,127.49,187.35,149.85,157.32,166.35Z"/></g></g></svg>