<svg xmlns="http://www.w3.org/2000/svg" viewBox="0 0 217.48913 217.48913">
  <title>siem_hover</title>
  <g id="Layer_2" data-name="Layer 2">
    <g id="Layer_10" data-name="Layer 10">
      <g>
        <rect width="217.48913" height="217.48913" style="fill: none"/>
        <g>
          <path d="M143.34248,181.28018a10.24321,10.24321,0,0,0-4.573-1.26681c-3.4198-.18608-6.858-.11586-10.28626-.04151-1.62967.03542-2.46216-.50371-2.65959-1.84166.014-.02716.037-.32372.07455-1.09178.12205-2.49169-.74162-3.31117-3.25954-3.30043q-28.44122.12159-56.88244-.01766c-2.60631-.01435-3.25025.87886-3.15277,3.31458.02458.61213.043,1.0037.057,1.24739-.00268.2724-.00454.66211-.00454,1.21394-2.11809.14457-3.9929.32837-5.87184.38764-2.76079.08695-5.53273-.03841-8.28444.15262-3.224.22387-5.70291,2.57585-5.85367,5.2562-.14746,2.62634,1.87068,4.9491,5.0598,5.6775a14.11877,14.11877,0,0,0,3.11353.27788q43.30556.02045,86.6107-.04347a12.86546,12.86546,0,0,0,5.74235-1.27383A4.892,4.892,0,0,0,143.34248,181.28018Zm-17.53106-3.21524a5.01112,5.01112,0,0,1-.04027-.78613C125.8426,174.61343,125.78354,177.55947,125.81142,178.06493Z" style="fill: #ee7522"/>
          <path d="M148.49043,80.50168a32.84415,32.84415,0,0,1-4.01382-.85988,1.34182,1.34182,0,0,0-1.75332.41685q-7.38674,8.55758-14.82144,17.07377c-3.19521,3.67677-6.36381,7.37716-9.60187,11.01576a1.53636,1.53636,0,0,0-.2084,2.13628,11.10187,11.10187,0,0,1-1.38314,12.59959,11.35519,11.35519,0,0,1-12.58424,3.05945,11.06055,11.06055,0,0,1-6.993-10.588,16.63276,16.63276,0,0,1,1.17269-4.76787,1.50854,1.50854,0,0,0-.34115-1.89652q-5.10972-5.31718-10.13943-10.71094a1.28349,1.28349,0,0,0-1.67891-.342,10.80563,10.80563,0,0,1-11.73738-1.66395c-.68465-.56289-1.14092-.29765-1.70761.042q-10.16464,6.09255-20.33378,12.17759c-1.85228,1.1083-3.69229,2.23934-5.5756,3.29259a1.915,1.915,0,0,0-1.12163,2.28345,11.1063,11.1063,0,1,1-13.40674-9.13406,10.59965,10.59965,0,0,1,9.32922,2.14838,1.56443,1.56443,0,0,0,2.14865.16Q56.83794,99.045,69.984,91.22513c.75633-.44968.78515-.92363.67439-1.6882-.81568-5.63083,1.73024-10.2835,6.73456-12.41307a11.20054,11.20054,0,0,1,12.30557,2.63963,11.06269,11.06269,0,0,1,1.9081,12.65184,1.42872,1.42872,0,0,0,.35544,1.973q5.08368,5.2463,10.06975,10.58679a1.28054,1.28054,0,0,0,1.74579.37243,10.335,10.335,0,0,1,8.42695-.23029,1.42421,1.42421,0,0,0,1.88875-.45221q12.1621-14.08661,24.3895-28.11664a1.46043,1.46043,0,0,0,.17836-2.02334,11.17106,11.17106,0,1,1,20.55437-2.16542A11.42865,11.42865,0,0,1,148.49043,80.50168Zm.01619-5.65816a5.6373,5.6373,0,0,0,5.6503-5.57172,5.80211,5.80211,0,0,0-5.68012-5.76848,5.86146,5.86146,0,0,0-5.66754,5.65241A5.67256,5.67256,0,0,0,148.50662,74.84352ZM34.73152,121.17347a5.61616,5.61616,0,0,0,5.63972-5.57611,5.65537,5.65537,0,1,0-11.30969-.11932A5.6297,5.6297,0,0,0,34.73152,121.17347Zm73.51623-.00845a5.61917,5.61917,0,0,0,5.68933-5.67587,5.8097,5.8097,0,0,0-5.63021-5.66457,5.70522,5.70522,0,0,0-5.6585,5.742A5.56019,5.56019,0,0,0,108.24775,121.165Zm-32.258-33.74015a5.60056,5.60056,0,0,0,5.64846,5.71A5.65522,5.65522,0,0,0,81.7364,81.825,5.59261,5.59261,0,0,0,75.98977,87.42487Z" style="fill: #ee7522"/>
          <path d="M132.37455,150.863q-9.08843-.00062-18.17685.00165l-21.01406-.00083H74.4372q-28.1209-.00124-56.23933-.005c-1.01939-.00083-2.07431-.00165-3.06644-.10161-1.91983-.19248-3.04992-.89631-3.52079-4.05858a19.97772,19.97772,0,0,1-.12639-2.88305l.00083-.40561q-.00991-41.53081-.00743-83.06244V39.58137c0-6.68637,1.56544-7.3175,5.70828-7.31832q76.05308-.00867,152.11028.00083c4.04453.00083,5.69175.67,5.69423,7.40424q.00805,22.875,0,45.7513A43.26226,43.26226,0,0,1,185.648,88.07033c.00578-15.50322.00785-31.75631.0064-48.93092-.00083-11.12494-6.37741-18.60105-15.86587-18.6027-52.878-.01239-104.53828.00578-153.53777.05122C6.797,20.597.89626,27.46512.85247,38.51241c-.019,4.58645-.014,9.17289-.00991,13.75934L.84669,58.327.84587,81.86062Q.84339,113.2392.85165,144.61779c.00413,9.17868,3.9801,15.51065,10.91016,17.37348a23.15683,23.15683,0,0,0,6.2345.56339H18.549q22.10119.026,44.20156.02065,7.57978,0,15.15956-.00083l15.15543-.00083,2.51957-.05287,18.94388.0033q13.95513.0031,27.91046-.00764A43.7681,43.7681,0,0,1,132.37455,150.863Z" style="fill: #ee7522"/>
          <path d="M190.61935,156.75677c-2.30128,1.26491-4.46422,2.66079-6.78828,3.69439a34.24842,34.24842,0,0,1-26.74782.853,35.17941,35.17941,0,0,1,2.01232-66.54839,35.00264,35.00264,0,0,1,41.07975,16.40486,34.30058,34.30058,0,0,1,4.07031,22.8711,33.87217,33.87217,0,0,1-5.72953,14.18682c-.40186.57887-.30123.90089.12077,1.38822,5.47593,6.32384,10.92012,12.67514,16.39731,18.99789a5.5266,5.5266,0,0,1,1.4678,5.09695,5.05618,5.05618,0,0,1-3.88463,3.97526,5.11348,5.11348,0,0,1-5.37714-1.68c-2.52587-2.87214-5.00428-5.786-7.50147-8.68342q-4.36555-5.06511-8.73-10.13118C190.84934,156.99739,190.67913,156.82187,190.61935,156.75677ZM176.39829,104.911A24.46594,24.46594,0,1,0,192.9857,135.2956,24.447,24.447,0,0,0,176.39829,104.911Z" style="fill: #ee7522"/>
        </g>
      </g>
    </g>
  </g>
</svg>
