<svg xmlns="http://www.w3.org/2000/svg" viewBox="0 0 217.48913 217.48913">
  <title>sophisticated_hover</title>
  <g id="Layer_2" data-name="Layer 2">
    <g id="Layer_10" data-name="Layer 10">
      <g>
        <rect width="217.48913" height="217.48913" style="fill: none"/>
        <path d="M206.76669,78.88538a24.56377,24.56377,0,1,0-45.29,17.458l-15.7998,15.79883a24.64605,24.64605,0,0,0-24.52832,0L105.34969,96.34339a24.5591,24.5591,0,1,0-42.55664,0L46.9952,112.14124a24.55971,24.55971,0,1,0-12.26855,45.83594h.00977A24.55454,24.55454,0,0,0,56.0079,121.15491l15.79785-15.79883a24.60191,24.60191,0,0,0,24.53027,0l15.79883,15.79883a24.55869,24.55869,0,1,0,42.55566,0l15.79785-15.79785a24.56478,24.56478,0,0,0,36.27832-26.47168ZM46.53133,133.43225A11.8047,11.8047,0,1,1,26.213,125.236l.17578-.17383a11.72589,11.72589,0,0,1,8.33691-3.44824h.01367a11.80638,11.80638,0,0,1,11.792,11.81836Zm45.89258-57.7041A11.80964,11.80964,0,0,1,76.339,93.00354a7.02486,7.02486,0,0,0-.56348-.65918,6.41813,6.41813,0,0,0-.62207-.52637,11.821,11.821,0,0,1,.57813-16.0791l.40723-.40723A11.82772,11.82772,0,0,1,92.42391,75.72815Zm52.79492,57.68945a11.815,11.815,0,1,1-11.8125-11.82422.29022.29022,0,0,0,.0293,0,11.80748,11.80748,0,0,1,8.32715,3.46875l.23145.23438A11.72735,11.72735,0,0,1,145.21883,133.41761Zm49.30859-49.31738a11.79493,11.79493,0,1,1-20.126-8.36719l.00293-.002a11.71589,11.71589,0,0,1,8.32715-3.44336h.01758a11.79805,11.79805,0,0,1,11.77832,11.8125Z" style="fill: #f58426"/>
      </g>
    </g>
  </g>
</svg>
