<svg xmlns="http://www.w3.org/2000/svg" viewBox="0 0 218.48064 217.48913">
  <title>structure_monitoring</title>
  <g id="Layer_2" data-name="Layer 2">
    <g id="Layer_10" data-name="Layer 10">
      <g>
        <rect x="0.49575" width="217.48913" height="217.48913" style="fill: none"/>
        <g>
          <g>
            <path d="M68.35852,74.6765H52.36633A12.21943,12.21943,0,0,0,40.16126,86.88158v50.23047a12.21943,12.21943,0,0,0,12.20508,12.20508H68.35852A12.21943,12.21943,0,0,0,80.5636,137.11205V86.88158A12.21943,12.21943,0,0,0,68.35852,74.6765Zm-17.168,12.20508a1.17781,1.17781,0,0,1,1.17578-1.17676H68.35852a1.17781,1.17781,0,0,1,1.17578,1.17676v50.23047a1.177,1.177,0,0,1-1.17578,1.17578H52.36633a1.177,1.177,0,0,1-1.17578-1.17578Z" style="fill: #595b5d"/>
            <path d="M117.23645,58.89623H101.24426A12.21964,12.21964,0,0,0,89.03919,71.10229v66.00977a12.21943,12.21943,0,0,0,12.20508,12.20508h15.99219a12.21943,12.21943,0,0,0,12.20508-12.20508V71.10229A12.21964,12.21964,0,0,0,117.23645,58.89623Zm-17.168,12.20605a1.17781,1.17781,0,0,1,1.17578-1.17676h15.99219a1.17781,1.17781,0,0,1,1.17578,1.17676v66.00977a1.177,1.177,0,0,1-1.17578,1.17578H101.24426a1.177,1.177,0,0,1-1.17578-1.17578Z" style="fill: #595b5d"/>
            <path d="M166.1134,45.33666H150.12219a12.21943,12.21943,0,0,0-12.20508,12.20508v79.57031a12.21943,12.21943,0,0,0,12.20508,12.20508H166.1134a12.21964,12.21964,0,0,0,12.20605-12.20508V57.54174A12.21964,12.21964,0,0,0,166.1134,45.33666Zm-17.168,12.20508a1.17781,1.17781,0,0,1,1.17676-1.17578H166.1134a1.17781,1.17781,0,0,1,1.17676,1.17578v79.57031a1.17781,1.17781,0,0,1-1.17676,1.17578H150.12219a1.17781,1.17781,0,0,1-1.17676-1.17578Z" style="fill: #595b5d"/>
          </g>
          <path d="M218.4801,29.82689c-.001-13.15137-7.53906-21.98926-18.75586-21.99121-62.50977-.01465-123.58008.00684-181.50488.06055C7.04358,7.907.068,16.02611.01624,29.08568c-.02246,5.42188-.0166,10.84375-.01172,16.26563l.00488,7.1582-.001,27.82031Q.00549,117.42406.01526,154.5183c.00488,10.85059,4.70508,18.33594,12.89746,20.53809a27.37488,27.37488,0,0,0,7.37012.666h.65332q26.127.03076,52.25293.02441,8.96045,0,17.9209-.001l17.916-.001,2.97852-.0625,22.39453.00391q32.48.00732,64.96094-.01758c8.68652-.01074,19.0459-3.85156,19.06641-22.09375C218.46643,116.38158,218.484,75.90307,218.4801,29.82689Zm-12.60645,123.7002c-.00293,7.68164-1.72852,8.36719-6.65918,8.37012q-32.60156.01465-65.207.00586l-24.8418-.001H87.00452q-33.24316-.00146-66.4834-.00586c-1.20508-.001-2.45215-.002-3.625-.12012-2.26953-.22754-3.60547-1.05957-4.16211-4.79785a23.61669,23.61669,0,0,1-.14941-3.4082l.001-.47949q-.01172-49.0957-.00879-98.19238V30.34936c0-7.9043,1.85059-8.65039,6.748-8.65137q89.90625-.01025,179.81738.001c4.78125.001,6.72852.792,6.73145,8.75293Q205.89563,91.98852,205.87366,153.52709Z" style="fill: #595b5d"/>
          <path d="M168.46106,197.85888a12.109,12.109,0,0,0-5.406-1.49756c-4.04272-.22-8.10718-.137-12.15991-.04907-1.92651.04187-2.91064-.59546-3.144-2.17712.0166-.0321.0437-.38269.08813-1.29065.14429-2.94556-.87671-3.91431-3.85327-3.90161q-33.62183.14374-67.24365-.02087c-3.08105-.017-3.84229,1.03894-3.72705,3.91834.02905.72363.05078,1.18652.06738,1.47461-.00317.322-.00537.78271-.00537,1.43506-2.50391.1709-4.72021.38818-6.94141.45825-3.26367.10278-6.54053-.04541-9.79346.18042-3.81128.26465-6.7417,3.045-6.91992,6.21362-.17432,3.10474,2.21143,5.85059,5.98145,6.71167a16.69052,16.69052,0,0,0,3.68066.32849q51.19373.02417,102.387-.05139a15.20892,15.20892,0,0,0,6.78833-1.50586A5.783,5.783,0,0,0,168.46106,197.85888Zm-20.72437-3.8009a5.92392,5.92392,0,0,1-.04761-.92932C147.77356,189.97777,147.70374,193.46044,147.73669,194.058Z" style="fill: #595b5d"/>
        </g>
      </g>
    </g>
  </g>
</svg>
