<svg xmlns="http://www.w3.org/2000/svg" viewBox="0 0 217.49 217.49"><defs><style>.cls-1{fill:none;}.cls-2{fill:#595b5d;stroke:#595b5d;stroke-miterlimit:10;stroke-width:3px;}</style></defs><title>Threat_Hunting</title><g id="Layer_2" data-name="Layer 2"><g id="Layer_10" data-name="Layer 10"><rect class="cls-1" width="217.49" height="217.49"/><path class="cls-2" d="M108.81,200.58c-50.49.16-91.92-41.25-91.89-91.84a92,92,0,0,1,91.77-91.82c50.48-.16,91.92,41.25,91.89,91.84A92,92,0,0,1,108.81,200.58Zm0-172.12A80.28,80.28,0,1,0,189,108.86,80.32,80.32,0,0,0,108.76,28.46Z"/><path class="cls-2" d="M109.13,95A11.07,11.07,0,1,1,98,106.09,11,11,0,0,1,109.13,95Z"/><path class="cls-2" d="M167.76,67.62a69.52,69.52,0,0,0-26.45-24.06L137,41.3,113.56,88a18.1,18.1,0,0,1,13.26,17.92,18.37,18.37,0,0,1-.6,4.28l0,.66,52.62,3.07L179,109A70.38,70.38,0,0,0,167.76,67.62Zm-32.49,34.16a26.06,26.06,0,0,0-9.64-16.53L141.1,54.46a58.78,58.78,0,0,1,18.63,18.35,59.55,59.55,0,0,1,9.74,31Z"/><path class="cls-2" d="M90.31,105.59a18.09,18.09,0,0,1,13.75-17.75L80.67,41.26l-4.32,2.3a70.4,70.4,0,0,0-37.88,65.33l.18,4.88,52.4-3A17.63,17.63,0,0,1,90.31,105.59Zm-7.38-4-34.89,2a58.88,58.88,0,0,1,5.95-24A59.56,59.56,0,0,1,76.59,54.45L92.26,85.68C86.19,91.07,84.17,94.48,82.93,101.63Z"/><path class="cls-2" d="M121.63,118.61l-.61.32a18.23,18.23,0,0,1-12.6,4.85,18,18,0,0,1-12.61-5.19l-28.88,43.9,4,2.63A69.5,69.5,0,0,0,109,176.23a67.61,67.61,0,0,0,37.59-11.07l3.94-2.64Zm-41.32,41,19-28.87a25.89,25.89,0,0,0,18.95.17l19,28.8C120,169.09,97.82,169.05,80.3,159.58Z"/></g></g></svg>