<svg xmlns="http://www.w3.org/2000/svg" viewBox="0 0 217.48913 217.48913">
  <title>visualize</title>
  <g id="Layer_2" data-name="Layer 2">
    <g id="Layer_10" data-name="Layer 10">
      <g>
        <rect width="217.48913" height="217.48913" style="fill: none"/>
        <g>
          <path d="M207.0666,105.02563c-18.11955-22.07991-56.46539-47.84371-98.35882-47.84371-42.02194,0-80.39114,25.939-98.35882,47.84371a5.84125,5.84125,0,0,0,0,7.43785c18.54791,22.61342,57.00669,47.84372,98.35883,47.84372,42.83582,0,81.02589-26.72176,98.35883-47.84372A5.60847,5.60847,0,0,0,207.0666,105.02563Zm-58.5254,3.71893a39.83341,39.83341,0,1,1-39.83342-39.83341A39.83342,39.83342,0,0,1,148.54121,108.74456Zm-125.7387,0c6.62008-6.85762,22.51606-21.66324,44.85689-31.15332a51.42634,51.42634,0,0,0,0,62.30664A139.15836,139.15836,0,0,1,22.80251,108.74456Zm126.94978,31.15332a51.42635,51.42635,0,0,0,0-62.30664,139.119,139.119,0,0,1,44.8491,31.15332c-6.58893,6.85762-22.50438,21.66324-44.84521,31.15332Z" style="fill: #595b5d"/>
          <path d="M88.76967,108.74456a19.93813,19.93813,0,1,0,19.93812-19.93812h0A19.96149,19.96149,0,0,0,88.76967,108.74456Zm28.147,0a8.2089,8.2089,0,1,1-8.20891-8.2089,8.2089,8.2089,0,0,1,8.20891,8.2089Z" style="fill: #595b5d"/>
          <path d="M108.70779,34.46336a5.86072,5.86072,0,0,0,5.86461-5.84125V14.91855a5.86461,5.86461,0,1,0-11.72922-.00751v13.6916a5.86072,5.86072,0,0,0,5.86072,5.86072Z" style="fill: #595b5d"/>
          <path d="M143.69686,42.31011a5.86851,5.86851,0,0,0,7.99862-2.19241l7.78833-13.6802a5.86461,5.86461,0,1,0-10.08833-5.98333q-.05088.08577-.0988.17324l-7.78833,13.6802A5.8685,5.8685,0,0,0,143.69686,42.31011Z" style="fill: #595b5d"/>
          <path d="M65.7201,40.11769a5.86461,5.86461,0,0,0,10.286-5.63684q-.04793-.08746-.09882-.17326l-7.78833-13.6802a5.86461,5.86461,0,0,0-10.18714,5.8101Z" style="fill: #595b5d"/>
          <path d="M108.70779,183.02576a5.86072,5.86072,0,0,0-5.86461,5.85683v13.688a5.86461,5.86461,0,0,0,11.72922.00751V188.88647a5.86072,5.86072,0,0,0-5.86073-5.86071Z" style="fill: #595b5d"/>
          <path d="M73.71871,175.18291a5.86072,5.86072,0,0,0-7.9956,2.18322l-.003.0053-7.78833,13.6802a5.86461,5.86461,0,0,0,10.08841,5.9832q.05083-.08571.09873-.1731l7.78833-13.6802A5.86461,5.86461,0,0,0,73.71871,175.18291Z" style="fill: #595b5d"/>
          <path d="M151.69548,177.37144a5.86462,5.86462,0,1,0-10.28587,5.637q.0479.08738.09873.1731l7.78833,13.6802a5.86462,5.86462,0,0,0,10.28587-5.637q-.0479-.08738-.09873-.1731Z" style="fill: #595b5d"/>
        </g>
      </g>
    </g>
  </g>
</svg>
