<svg xmlns="http://www.w3.org/2000/svg" viewBox="0 0 218.48064 217.48913">
  <title>work_monitoring</title>
  <g id="Layer_2" data-name="Layer 2">
    <g id="Layer_10" data-name="Layer 10">
      <g>
        <rect x="0.49575" width="217.48913" height="217.48913" style="fill: none"/>
        <g>
          <g>
            <path d="M165.17133,131.58861a32.81073,32.81073,0,0,0-22.66309-25.91113,31.76148,31.76148,0,0,0-9.50684-1.39258,5.32625,5.32625,0,0,0-5.11719,3.7334,5.43358,5.43358,0,0,0,1.83887,5.91406,5.92262,5.92262,0,0,0,3.71582,1.1543,19.46167,19.46167,0,0,1,8.19824,1.77246c8.34668,3.94531,12.65625,10.33887,13.17383,19.5459a1.98191,1.98191,0,0,1-.34766,1.41895,2.13711,2.13711,0,0,1-1.46191.44238H65.42133a1.998,1.998,0,0,1-1.3916-.42285,2.03642,2.03642,0,0,1-.39063-1.42578,20.24613,20.24613,0,0,1,1.20313-6.68066,21.87836,21.87836,0,0,1,20.58008-14.67187,5.5419,5.5419,0,0,0,4.39746-2.24414,5.3386,5.3386,0,0,0,.78809-4.68848,5.39316,5.39316,0,0,0-5.34961-3.85156h-.03711a31.36547,31.36547,0,0,0-15.97754,4.32227A32.20162,32.20162,0,0,0,53.311,131.43236c-.1416.77539-.23437,1.543-.3252,2.28516-.04.32715-.08008.6543-.124.98145l-.01758,3.26367.14453.873c.07324.335.14648.66895.22949,1.001a12.14117,12.14117,0,0,0,9.97754,9.084c.03516.0127.07129.02637.10645.03809l.31348.10645h91.20605l.44922-.1416a12.21887,12.21887,0,0,0,10.11328-9.748A21.76383,21.76383,0,0,0,165.17133,131.58861Z" style="fill: #595b5d"/>
            <path d="M94.2143,110.12475a25.11938,25.11938,0,0,0,28.13281,1.23242,31.86019,31.86019,0,0,0,12.32715-13.89063,41.37383,41.37383,0,0,0,2.58594-29.19531A35.24084,35.24084,0,0,0,126.684,50.67553a26.49919,26.49919,0,0,0-13.15039-6.52832c-.59082-.10547-1.18652-.18457-1.7832-.26367l-.749-.10156-3.50391-.01953-.40332.09766a24.74894,24.74894,0,0,0-8.46387,2.24512,30.30276,30.30276,0,0,0-12.66016,11.29,39.3294,39.3294,0,0,0-6.12207,18.39648,41.70354,41.70354,0,0,0,2.33008,17.93945A34.33705,34.33705,0,0,0,94.2143,110.12475ZM90.01215,75.82592a28.87351,28.87351,0,0,1,4.86816-13.55957,18.83228,18.83228,0,0,1,8.85645-7.32227,15.86323,15.86323,0,0,1,5.6377-1.09473,15.44878,15.44878,0,0,1,8.9834,3.08008,22.7963,22.7963,0,0,1,7.89941,10.29,33.48357,33.48357,0,0,1,2.373,13.50293,29.02249,29.02249,0,0,1-4.457,14.91992,19.50274,19.50274,0,0,1-8.2793,7.72656c-5.67676,2.65039-10.98047,2.07227-16.21387-1.7627a22.71565,22.71565,0,0,1-7.4873-9.9873A31.90179,31.90179,0,0,1,90.01215,75.82592Z" style="fill: #595b5d"/>
          </g>
          <g>
            <path d="M218.4801,29.82689c-.001-13.15137-7.53906-21.98926-18.75586-21.99121-62.50977-.01465-123.58008.00684-181.50488.06055C7.04358,7.907.068,16.02611.01624,29.08568c-.02246,5.42188-.0166,10.84375-.01172,16.26563l.00488,7.1582-.001,27.82031Q.00549,117.42406.01526,154.5183c.00488,10.85059,4.70508,18.33594,12.89746,20.53809a27.37488,27.37488,0,0,0,7.37012.666h.65332q26.127.03076,52.25293.02441,8.96045,0,17.9209-.001l17.916-.001,2.97852-.0625,22.39453.00391q32.48.00732,64.96094-.01758c8.68652-.01074,19.0459-3.85156,19.06641-22.09375C218.46643,116.38158,218.484,75.90307,218.4801,29.82689Zm-12.60645,123.7002c-.00293,7.68164-1.72852,8.36719-6.65918,8.37012q-32.60156.01465-65.207.00586l-24.8418-.001H87.00452q-33.24316-.00146-66.4834-.00586c-1.20508-.001-2.45215-.002-3.625-.12012-2.26953-.22754-3.60547-1.05957-4.16211-4.79785a23.61669,23.61669,0,0,1-.14941-3.4082l.001-.47949q-.01172-49.0957-.00879-98.19238V30.34936c0-7.9043,1.85059-8.65039,6.748-8.65137q89.90625-.01025,179.81738.001c4.78125.001,6.72852.792,6.73145,8.75293Q205.89563,91.98852,205.87366,153.52709Z" style="fill: #595b5d"/>
            <path d="M168.46106,197.85888a12.109,12.109,0,0,0-5.406-1.49756c-4.04272-.22-8.10718-.137-12.15991-.04907-1.92651.04187-2.91064-.59546-3.144-2.17712.0166-.0321.0437-.38269.08813-1.29065.14429-2.94556-.87671-3.91431-3.85327-3.90161q-33.62183.14374-67.24365-.02087c-3.08105-.017-3.84229,1.03894-3.72705,3.91834.02905.72363.05078,1.18652.06738,1.47461-.00317.322-.00537.78271-.00537,1.43506-2.50391.1709-4.72021.38818-6.94141.45825-3.26367.10278-6.54053-.04541-9.79346.18042-3.81128.26465-6.7417,3.045-6.91992,6.21362-.17432,3.10474,2.21143,5.85059,5.98145,6.71167a16.69052,16.69052,0,0,0,3.68066.32849q51.19373.02417,102.387-.05139a15.20892,15.20892,0,0,0,6.78833-1.50586A5.783,5.783,0,0,0,168.46106,197.85888Zm-20.72437-3.8009a5.92392,5.92392,0,0,1-.04761-.92932C147.77356,189.97777,147.70374,193.46044,147.73669,194.058Z" style="fill: #595b5d"/>
          </g>
        </g>
      </g>
    </g>
  </g>
</svg>
